G04 #@! TF.GenerationSoftware,KiCad,Pcbnew,(5.1.5-0-10_14)*
G04 #@! TF.CreationDate,2020-09-28T20:16:59+02:00*
G04 #@! TF.ProjectId,max_power,6d61785f-706f-4776-9572-2e6b69636164,rev?*
G04 #@! TF.SameCoordinates,Original*
G04 #@! TF.FileFunction,Soldermask,Top*
G04 #@! TF.FilePolarity,Negative*
%FSLAX46Y46*%
G04 Gerber Fmt 4.6, Leading zero omitted, Abs format (unit mm)*
G04 Created by KiCad (PCBNEW (5.1.5-0-10_14)) date 2020-09-28 20:16:59*
%MOMM*%
%LPD*%
G04 APERTURE LIST*
%ADD10C,0.100000*%
G04 APERTURE END LIST*
D10*
G36*
X37889943Y-83066248D02*
G01*
X38445189Y-83296238D01*
X38693347Y-83462052D01*
X38944899Y-83630134D01*
X39369866Y-84055101D01*
X39477144Y-84215654D01*
X39703762Y-84554811D01*
X39933752Y-85110057D01*
X40051000Y-85699501D01*
X40051000Y-86300499D01*
X39933752Y-86889943D01*
X39703762Y-87445189D01*
X39703761Y-87445190D01*
X39369866Y-87944899D01*
X38944899Y-88369866D01*
X38804573Y-88463629D01*
X38445189Y-88703762D01*
X37889943Y-88933752D01*
X37300499Y-89051000D01*
X36699501Y-89051000D01*
X36110057Y-88933752D01*
X35554811Y-88703762D01*
X35195427Y-88463629D01*
X35055101Y-88369866D01*
X34630134Y-87944899D01*
X34296239Y-87445190D01*
X34296238Y-87445189D01*
X34066248Y-86889943D01*
X33949000Y-86300499D01*
X33949000Y-85699501D01*
X34066248Y-85110057D01*
X34296238Y-84554811D01*
X34522856Y-84215654D01*
X34630134Y-84055101D01*
X35055101Y-83630134D01*
X35306653Y-83462052D01*
X35554811Y-83296238D01*
X36110057Y-83066248D01*
X36699501Y-82949000D01*
X37300499Y-82949000D01*
X37889943Y-83066248D01*
G37*
G36*
X68346968Y-86753565D02*
G01*
X68385638Y-86765296D01*
X68421277Y-86784346D01*
X68452517Y-86809983D01*
X68478154Y-86841223D01*
X68497204Y-86876862D01*
X68508935Y-86915532D01*
X68513500Y-86961888D01*
X68513500Y-88038112D01*
X68508935Y-88084468D01*
X68497204Y-88123138D01*
X68478154Y-88158777D01*
X68452517Y-88190017D01*
X68421277Y-88215654D01*
X68385638Y-88234704D01*
X68346968Y-88246435D01*
X68300612Y-88251000D01*
X67649388Y-88251000D01*
X67603032Y-88246435D01*
X67564362Y-88234704D01*
X67528723Y-88215654D01*
X67497483Y-88190017D01*
X67471846Y-88158777D01*
X67452796Y-88123138D01*
X67441065Y-88084468D01*
X67436500Y-88038112D01*
X67436500Y-86961888D01*
X67441065Y-86915532D01*
X67452796Y-86876862D01*
X67471846Y-86841223D01*
X67497483Y-86809983D01*
X67528723Y-86784346D01*
X67564362Y-86765296D01*
X67603032Y-86753565D01*
X67649388Y-86749000D01*
X68300612Y-86749000D01*
X68346968Y-86753565D01*
G37*
G36*
X66471968Y-86753565D02*
G01*
X66510638Y-86765296D01*
X66546277Y-86784346D01*
X66577517Y-86809983D01*
X66603154Y-86841223D01*
X66622204Y-86876862D01*
X66633935Y-86915532D01*
X66638500Y-86961888D01*
X66638500Y-88038112D01*
X66633935Y-88084468D01*
X66622204Y-88123138D01*
X66603154Y-88158777D01*
X66577517Y-88190017D01*
X66546277Y-88215654D01*
X66510638Y-88234704D01*
X66471968Y-88246435D01*
X66425612Y-88251000D01*
X65774388Y-88251000D01*
X65728032Y-88246435D01*
X65689362Y-88234704D01*
X65653723Y-88215654D01*
X65622483Y-88190017D01*
X65596846Y-88158777D01*
X65577796Y-88123138D01*
X65566065Y-88084468D01*
X65561500Y-88038112D01*
X65561500Y-86961888D01*
X65566065Y-86915532D01*
X65577796Y-86876862D01*
X65596846Y-86841223D01*
X65622483Y-86809983D01*
X65653723Y-86784346D01*
X65689362Y-86765296D01*
X65728032Y-86753565D01*
X65774388Y-86749000D01*
X66425612Y-86749000D01*
X66471968Y-86753565D01*
G37*
G36*
X64621968Y-86753565D02*
G01*
X64660638Y-86765296D01*
X64696277Y-86784346D01*
X64727517Y-86809983D01*
X64753154Y-86841223D01*
X64772204Y-86876862D01*
X64783935Y-86915532D01*
X64788500Y-86961888D01*
X64788500Y-88038112D01*
X64783935Y-88084468D01*
X64772204Y-88123138D01*
X64753154Y-88158777D01*
X64727517Y-88190017D01*
X64696277Y-88215654D01*
X64660638Y-88234704D01*
X64621968Y-88246435D01*
X64575612Y-88251000D01*
X63924388Y-88251000D01*
X63878032Y-88246435D01*
X63839362Y-88234704D01*
X63803723Y-88215654D01*
X63772483Y-88190017D01*
X63746846Y-88158777D01*
X63727796Y-88123138D01*
X63716065Y-88084468D01*
X63711500Y-88038112D01*
X63711500Y-86961888D01*
X63716065Y-86915532D01*
X63727796Y-86876862D01*
X63746846Y-86841223D01*
X63772483Y-86809983D01*
X63803723Y-86784346D01*
X63839362Y-86765296D01*
X63878032Y-86753565D01*
X63924388Y-86749000D01*
X64575612Y-86749000D01*
X64621968Y-86753565D01*
G37*
G36*
X62746968Y-86753565D02*
G01*
X62785638Y-86765296D01*
X62821277Y-86784346D01*
X62852517Y-86809983D01*
X62878154Y-86841223D01*
X62897204Y-86876862D01*
X62908935Y-86915532D01*
X62913500Y-86961888D01*
X62913500Y-88038112D01*
X62908935Y-88084468D01*
X62897204Y-88123138D01*
X62878154Y-88158777D01*
X62852517Y-88190017D01*
X62821277Y-88215654D01*
X62785638Y-88234704D01*
X62746968Y-88246435D01*
X62700612Y-88251000D01*
X62049388Y-88251000D01*
X62003032Y-88246435D01*
X61964362Y-88234704D01*
X61928723Y-88215654D01*
X61897483Y-88190017D01*
X61871846Y-88158777D01*
X61852796Y-88123138D01*
X61841065Y-88084468D01*
X61836500Y-88038112D01*
X61836500Y-86961888D01*
X61841065Y-86915532D01*
X61852796Y-86876862D01*
X61871846Y-86841223D01*
X61897483Y-86809983D01*
X61928723Y-86784346D01*
X61964362Y-86765296D01*
X62003032Y-86753565D01*
X62049388Y-86749000D01*
X62700612Y-86749000D01*
X62746968Y-86753565D01*
G37*
G36*
X60601000Y-88151000D02*
G01*
X59599000Y-88151000D01*
X59599000Y-86849000D01*
X60601000Y-86849000D01*
X60601000Y-88151000D01*
G37*
G36*
X57301000Y-88151000D02*
G01*
X56299000Y-88151000D01*
X56299000Y-86849000D01*
X57301000Y-86849000D01*
X57301000Y-88151000D01*
G37*
G36*
X84153512Y-85403927D02*
G01*
X84302812Y-85433624D01*
X84466784Y-85501544D01*
X84614354Y-85600147D01*
X84739853Y-85725646D01*
X84838456Y-85873216D01*
X84906376Y-86037188D01*
X84941000Y-86211259D01*
X84941000Y-86388741D01*
X84906376Y-86562812D01*
X84838456Y-86726784D01*
X84739853Y-86874354D01*
X84614354Y-86999853D01*
X84466784Y-87098456D01*
X84302812Y-87166376D01*
X84153512Y-87196073D01*
X84128742Y-87201000D01*
X83951258Y-87201000D01*
X83926488Y-87196073D01*
X83777188Y-87166376D01*
X83613216Y-87098456D01*
X83465646Y-86999853D01*
X83340147Y-86874354D01*
X83241544Y-86726784D01*
X83173624Y-86562812D01*
X83139000Y-86388741D01*
X83139000Y-86211259D01*
X83173624Y-86037188D01*
X83241544Y-85873216D01*
X83340147Y-85725646D01*
X83465646Y-85600147D01*
X83613216Y-85501544D01*
X83777188Y-85433624D01*
X83926488Y-85403927D01*
X83951258Y-85399000D01*
X84128742Y-85399000D01*
X84153512Y-85403927D01*
G37*
G36*
X82401000Y-87201000D02*
G01*
X80599000Y-87201000D01*
X80599000Y-85399000D01*
X82401000Y-85399000D01*
X82401000Y-87201000D01*
G37*
G36*
X45646228Y-84913483D02*
G01*
X45834922Y-84970723D01*
X46008815Y-85063671D01*
X46161239Y-85188761D01*
X46286329Y-85341185D01*
X46379277Y-85515078D01*
X46436517Y-85703772D01*
X46455843Y-85900000D01*
X46436517Y-86096228D01*
X46379277Y-86284922D01*
X46286329Y-86458815D01*
X46161239Y-86611239D01*
X46008815Y-86736329D01*
X45834922Y-86829277D01*
X45646228Y-86886517D01*
X45499175Y-86901000D01*
X45200825Y-86901000D01*
X45053772Y-86886517D01*
X44865078Y-86829277D01*
X44691185Y-86736329D01*
X44538761Y-86611239D01*
X44413671Y-86458815D01*
X44320723Y-86284922D01*
X44263483Y-86096228D01*
X44244157Y-85900000D01*
X44263483Y-85703772D01*
X44320723Y-85515078D01*
X44413671Y-85341185D01*
X44538761Y-85188761D01*
X44691185Y-85063671D01*
X44865078Y-84970723D01*
X45053772Y-84913483D01*
X45200825Y-84899000D01*
X45499175Y-84899000D01*
X45646228Y-84913483D01*
G37*
G36*
X50446228Y-84913483D02*
G01*
X50634922Y-84970723D01*
X50808815Y-85063671D01*
X50961239Y-85188761D01*
X51086329Y-85341185D01*
X51179277Y-85515078D01*
X51236517Y-85703772D01*
X51255843Y-85900000D01*
X51236517Y-86096228D01*
X51179277Y-86284922D01*
X51086329Y-86458815D01*
X50961239Y-86611239D01*
X50808815Y-86736329D01*
X50634922Y-86829277D01*
X50446228Y-86886517D01*
X50299175Y-86901000D01*
X50000825Y-86901000D01*
X49853772Y-86886517D01*
X49665078Y-86829277D01*
X49491185Y-86736329D01*
X49338761Y-86611239D01*
X49213671Y-86458815D01*
X49120723Y-86284922D01*
X49063483Y-86096228D01*
X49044157Y-85900000D01*
X49063483Y-85703772D01*
X49120723Y-85515078D01*
X49213671Y-85341185D01*
X49338761Y-85188761D01*
X49491185Y-85063671D01*
X49665078Y-84970723D01*
X49853772Y-84913483D01*
X50000825Y-84899000D01*
X50299175Y-84899000D01*
X50446228Y-84913483D01*
G37*
G36*
X84153512Y-82863927D02*
G01*
X84302812Y-82893624D01*
X84466784Y-82961544D01*
X84614354Y-83060147D01*
X84739853Y-83185646D01*
X84838456Y-83333216D01*
X84906376Y-83497188D01*
X84941000Y-83671259D01*
X84941000Y-83848741D01*
X84906376Y-84022812D01*
X84838456Y-84186784D01*
X84739853Y-84334354D01*
X84614354Y-84459853D01*
X84466784Y-84558456D01*
X84302812Y-84626376D01*
X84153512Y-84656073D01*
X84128742Y-84661000D01*
X83951258Y-84661000D01*
X83926488Y-84656073D01*
X83777188Y-84626376D01*
X83613216Y-84558456D01*
X83465646Y-84459853D01*
X83340147Y-84334354D01*
X83241544Y-84186784D01*
X83173624Y-84022812D01*
X83139000Y-83848741D01*
X83139000Y-83671259D01*
X83173624Y-83497188D01*
X83241544Y-83333216D01*
X83340147Y-83185646D01*
X83465646Y-83060147D01*
X83613216Y-82961544D01*
X83777188Y-82893624D01*
X83926488Y-82863927D01*
X83951258Y-82859000D01*
X84128742Y-82859000D01*
X84153512Y-82863927D01*
G37*
G36*
X81613512Y-82863927D02*
G01*
X81762812Y-82893624D01*
X81926784Y-82961544D01*
X82074354Y-83060147D01*
X82199853Y-83185646D01*
X82298456Y-83333216D01*
X82366376Y-83497188D01*
X82401000Y-83671259D01*
X82401000Y-83848741D01*
X82366376Y-84022812D01*
X82298456Y-84186784D01*
X82199853Y-84334354D01*
X82074354Y-84459853D01*
X81926784Y-84558456D01*
X81762812Y-84626376D01*
X81613512Y-84656073D01*
X81588742Y-84661000D01*
X81411258Y-84661000D01*
X81386488Y-84656073D01*
X81237188Y-84626376D01*
X81073216Y-84558456D01*
X80925646Y-84459853D01*
X80800147Y-84334354D01*
X80701544Y-84186784D01*
X80633624Y-84022812D01*
X80599000Y-83848741D01*
X80599000Y-83671259D01*
X80633624Y-83497188D01*
X80701544Y-83333216D01*
X80800147Y-83185646D01*
X80925646Y-83060147D01*
X81073216Y-82961544D01*
X81237188Y-82893624D01*
X81386488Y-82863927D01*
X81411258Y-82859000D01*
X81588742Y-82859000D01*
X81613512Y-82863927D01*
G37*
G36*
X66534468Y-82753565D02*
G01*
X66573138Y-82765296D01*
X66608777Y-82784346D01*
X66640017Y-82809983D01*
X66665654Y-82841223D01*
X66684704Y-82876862D01*
X66696435Y-82915532D01*
X66701000Y-82961888D01*
X66701000Y-84038112D01*
X66696435Y-84084468D01*
X66684704Y-84123138D01*
X66665654Y-84158777D01*
X66640017Y-84190017D01*
X66608777Y-84215654D01*
X66573138Y-84234704D01*
X66534468Y-84246435D01*
X66488112Y-84251000D01*
X65836888Y-84251000D01*
X65790532Y-84246435D01*
X65751862Y-84234704D01*
X65716223Y-84215654D01*
X65684983Y-84190017D01*
X65659346Y-84158777D01*
X65640296Y-84123138D01*
X65628565Y-84084468D01*
X65624000Y-84038112D01*
X65624000Y-82961888D01*
X65628565Y-82915532D01*
X65640296Y-82876862D01*
X65659346Y-82841223D01*
X65684983Y-82809983D01*
X65716223Y-82784346D01*
X65751862Y-82765296D01*
X65790532Y-82753565D01*
X65836888Y-82749000D01*
X66488112Y-82749000D01*
X66534468Y-82753565D01*
G37*
G36*
X68409468Y-82753565D02*
G01*
X68448138Y-82765296D01*
X68483777Y-82784346D01*
X68515017Y-82809983D01*
X68540654Y-82841223D01*
X68559704Y-82876862D01*
X68571435Y-82915532D01*
X68576000Y-82961888D01*
X68576000Y-84038112D01*
X68571435Y-84084468D01*
X68559704Y-84123138D01*
X68540654Y-84158777D01*
X68515017Y-84190017D01*
X68483777Y-84215654D01*
X68448138Y-84234704D01*
X68409468Y-84246435D01*
X68363112Y-84251000D01*
X67711888Y-84251000D01*
X67665532Y-84246435D01*
X67626862Y-84234704D01*
X67591223Y-84215654D01*
X67559983Y-84190017D01*
X67534346Y-84158777D01*
X67515296Y-84123138D01*
X67503565Y-84084468D01*
X67499000Y-84038112D01*
X67499000Y-82961888D01*
X67503565Y-82915532D01*
X67515296Y-82876862D01*
X67534346Y-82841223D01*
X67559983Y-82809983D01*
X67591223Y-82784346D01*
X67626862Y-82765296D01*
X67665532Y-82753565D01*
X67711888Y-82749000D01*
X68363112Y-82749000D01*
X68409468Y-82753565D01*
G37*
G36*
X64621968Y-82753565D02*
G01*
X64660638Y-82765296D01*
X64696277Y-82784346D01*
X64727517Y-82809983D01*
X64753154Y-82841223D01*
X64772204Y-82876862D01*
X64783935Y-82915532D01*
X64788500Y-82961888D01*
X64788500Y-84038112D01*
X64783935Y-84084468D01*
X64772204Y-84123138D01*
X64753154Y-84158777D01*
X64727517Y-84190017D01*
X64696277Y-84215654D01*
X64660638Y-84234704D01*
X64621968Y-84246435D01*
X64575612Y-84251000D01*
X63924388Y-84251000D01*
X63878032Y-84246435D01*
X63839362Y-84234704D01*
X63803723Y-84215654D01*
X63772483Y-84190017D01*
X63746846Y-84158777D01*
X63727796Y-84123138D01*
X63716065Y-84084468D01*
X63711500Y-84038112D01*
X63711500Y-82961888D01*
X63716065Y-82915532D01*
X63727796Y-82876862D01*
X63746846Y-82841223D01*
X63772483Y-82809983D01*
X63803723Y-82784346D01*
X63839362Y-82765296D01*
X63878032Y-82753565D01*
X63924388Y-82749000D01*
X64575612Y-82749000D01*
X64621968Y-82753565D01*
G37*
G36*
X62746968Y-82753565D02*
G01*
X62785638Y-82765296D01*
X62821277Y-82784346D01*
X62852517Y-82809983D01*
X62878154Y-82841223D01*
X62897204Y-82876862D01*
X62908935Y-82915532D01*
X62913500Y-82961888D01*
X62913500Y-84038112D01*
X62908935Y-84084468D01*
X62897204Y-84123138D01*
X62878154Y-84158777D01*
X62852517Y-84190017D01*
X62821277Y-84215654D01*
X62785638Y-84234704D01*
X62746968Y-84246435D01*
X62700612Y-84251000D01*
X62049388Y-84251000D01*
X62003032Y-84246435D01*
X61964362Y-84234704D01*
X61928723Y-84215654D01*
X61897483Y-84190017D01*
X61871846Y-84158777D01*
X61852796Y-84123138D01*
X61841065Y-84084468D01*
X61836500Y-84038112D01*
X61836500Y-82961888D01*
X61841065Y-82915532D01*
X61852796Y-82876862D01*
X61871846Y-82841223D01*
X61897483Y-82809983D01*
X61928723Y-82784346D01*
X61964362Y-82765296D01*
X62003032Y-82753565D01*
X62049388Y-82749000D01*
X62700612Y-82749000D01*
X62746968Y-82753565D01*
G37*
G36*
X60601000Y-84151000D02*
G01*
X59599000Y-84151000D01*
X59599000Y-82849000D01*
X60601000Y-82849000D01*
X60601000Y-84151000D01*
G37*
G36*
X57301000Y-84151000D02*
G01*
X56299000Y-84151000D01*
X56299000Y-82849000D01*
X57301000Y-82849000D01*
X57301000Y-84151000D01*
G37*
G36*
X50446228Y-80213483D02*
G01*
X50634922Y-80270723D01*
X50808815Y-80363671D01*
X50961239Y-80488761D01*
X51086329Y-80641185D01*
X51179277Y-80815078D01*
X51236517Y-81003772D01*
X51255843Y-81200000D01*
X51236517Y-81396228D01*
X51179277Y-81584922D01*
X51086329Y-81758815D01*
X50961239Y-81911239D01*
X50808815Y-82036329D01*
X50634922Y-82129277D01*
X50446228Y-82186517D01*
X50299175Y-82201000D01*
X50000825Y-82201000D01*
X49853772Y-82186517D01*
X49665078Y-82129277D01*
X49491185Y-82036329D01*
X49338761Y-81911239D01*
X49213671Y-81758815D01*
X49120723Y-81584922D01*
X49063483Y-81396228D01*
X49044157Y-81200000D01*
X49063483Y-81003772D01*
X49120723Y-80815078D01*
X49213671Y-80641185D01*
X49338761Y-80488761D01*
X49491185Y-80363671D01*
X49665078Y-80270723D01*
X49853772Y-80213483D01*
X50000825Y-80199000D01*
X50299175Y-80199000D01*
X50446228Y-80213483D01*
G37*
G36*
X45646228Y-80213483D02*
G01*
X45834922Y-80270723D01*
X46008815Y-80363671D01*
X46161239Y-80488761D01*
X46286329Y-80641185D01*
X46379277Y-80815078D01*
X46436517Y-81003772D01*
X46455843Y-81200000D01*
X46436517Y-81396228D01*
X46379277Y-81584922D01*
X46286329Y-81758815D01*
X46161239Y-81911239D01*
X46008815Y-82036329D01*
X45834922Y-82129277D01*
X45646228Y-82186517D01*
X45499175Y-82201000D01*
X45200825Y-82201000D01*
X45053772Y-82186517D01*
X44865078Y-82129277D01*
X44691185Y-82036329D01*
X44538761Y-81911239D01*
X44413671Y-81758815D01*
X44320723Y-81584922D01*
X44263483Y-81396228D01*
X44244157Y-81200000D01*
X44263483Y-81003772D01*
X44320723Y-80815078D01*
X44413671Y-80641185D01*
X44538761Y-80488761D01*
X44691185Y-80363671D01*
X44865078Y-80270723D01*
X45053772Y-80213483D01*
X45200825Y-80199000D01*
X45499175Y-80199000D01*
X45646228Y-80213483D01*
G37*
G36*
X64273512Y-78043927D02*
G01*
X64422812Y-78073624D01*
X64586784Y-78141544D01*
X64734354Y-78240147D01*
X64859853Y-78365646D01*
X64958456Y-78513216D01*
X65026376Y-78677188D01*
X65061000Y-78851259D01*
X65061000Y-79028741D01*
X65026376Y-79202812D01*
X64958456Y-79366784D01*
X64859853Y-79514354D01*
X64734354Y-79639853D01*
X64586784Y-79738456D01*
X64422812Y-79806376D01*
X64273512Y-79836073D01*
X64248742Y-79841000D01*
X64071258Y-79841000D01*
X64046488Y-79836073D01*
X63897188Y-79806376D01*
X63733216Y-79738456D01*
X63585646Y-79639853D01*
X63460147Y-79514354D01*
X63361544Y-79366784D01*
X63293624Y-79202812D01*
X63259000Y-79028741D01*
X63259000Y-78851259D01*
X63293624Y-78677188D01*
X63361544Y-78513216D01*
X63460147Y-78365646D01*
X63585646Y-78240147D01*
X63733216Y-78141544D01*
X63897188Y-78073624D01*
X64046488Y-78043927D01*
X64071258Y-78039000D01*
X64248742Y-78039000D01*
X64273512Y-78043927D01*
G37*
G36*
X61733512Y-78043927D02*
G01*
X61882812Y-78073624D01*
X62046784Y-78141544D01*
X62194354Y-78240147D01*
X62319853Y-78365646D01*
X62418456Y-78513216D01*
X62486376Y-78677188D01*
X62521000Y-78851259D01*
X62521000Y-79028741D01*
X62486376Y-79202812D01*
X62418456Y-79366784D01*
X62319853Y-79514354D01*
X62194354Y-79639853D01*
X62046784Y-79738456D01*
X61882812Y-79806376D01*
X61733512Y-79836073D01*
X61708742Y-79841000D01*
X61531258Y-79841000D01*
X61506488Y-79836073D01*
X61357188Y-79806376D01*
X61193216Y-79738456D01*
X61045646Y-79639853D01*
X60920147Y-79514354D01*
X60821544Y-79366784D01*
X60753624Y-79202812D01*
X60719000Y-79028741D01*
X60719000Y-78851259D01*
X60753624Y-78677188D01*
X60821544Y-78513216D01*
X60920147Y-78365646D01*
X61045646Y-78240147D01*
X61193216Y-78141544D01*
X61357188Y-78073624D01*
X61506488Y-78043927D01*
X61531258Y-78039000D01*
X61708742Y-78039000D01*
X61733512Y-78043927D01*
G37*
G36*
X59193512Y-78043927D02*
G01*
X59342812Y-78073624D01*
X59506784Y-78141544D01*
X59654354Y-78240147D01*
X59779853Y-78365646D01*
X59878456Y-78513216D01*
X59946376Y-78677188D01*
X59981000Y-78851259D01*
X59981000Y-79028741D01*
X59946376Y-79202812D01*
X59878456Y-79366784D01*
X59779853Y-79514354D01*
X59654354Y-79639853D01*
X59506784Y-79738456D01*
X59342812Y-79806376D01*
X59193512Y-79836073D01*
X59168742Y-79841000D01*
X58991258Y-79841000D01*
X58966488Y-79836073D01*
X58817188Y-79806376D01*
X58653216Y-79738456D01*
X58505646Y-79639853D01*
X58380147Y-79514354D01*
X58281544Y-79366784D01*
X58213624Y-79202812D01*
X58179000Y-79028741D01*
X58179000Y-78851259D01*
X58213624Y-78677188D01*
X58281544Y-78513216D01*
X58380147Y-78365646D01*
X58505646Y-78240147D01*
X58653216Y-78141544D01*
X58817188Y-78073624D01*
X58966488Y-78043927D01*
X58991258Y-78039000D01*
X59168742Y-78039000D01*
X59193512Y-78043927D01*
G37*
G36*
X66813512Y-78043927D02*
G01*
X66962812Y-78073624D01*
X67126784Y-78141544D01*
X67274354Y-78240147D01*
X67399853Y-78365646D01*
X67498456Y-78513216D01*
X67566376Y-78677188D01*
X67601000Y-78851259D01*
X67601000Y-79028741D01*
X67566376Y-79202812D01*
X67498456Y-79366784D01*
X67399853Y-79514354D01*
X67274354Y-79639853D01*
X67126784Y-79738456D01*
X66962812Y-79806376D01*
X66813512Y-79836073D01*
X66788742Y-79841000D01*
X66611258Y-79841000D01*
X66586488Y-79836073D01*
X66437188Y-79806376D01*
X66273216Y-79738456D01*
X66125646Y-79639853D01*
X66000147Y-79514354D01*
X65901544Y-79366784D01*
X65833624Y-79202812D01*
X65799000Y-79028741D01*
X65799000Y-78851259D01*
X65833624Y-78677188D01*
X65901544Y-78513216D01*
X66000147Y-78365646D01*
X66125646Y-78240147D01*
X66273216Y-78141544D01*
X66437188Y-78073624D01*
X66586488Y-78043927D01*
X66611258Y-78039000D01*
X66788742Y-78039000D01*
X66813512Y-78043927D01*
G37*
G36*
X46451000Y-77501000D02*
G01*
X44249000Y-77501000D01*
X44249000Y-75499000D01*
X46451000Y-75499000D01*
X46451000Y-77501000D01*
G37*
G36*
X50446228Y-75513483D02*
G01*
X50634922Y-75570723D01*
X50808815Y-75663671D01*
X50961239Y-75788761D01*
X51086329Y-75941185D01*
X51179277Y-76115078D01*
X51236517Y-76303772D01*
X51255843Y-76500000D01*
X51236517Y-76696228D01*
X51179277Y-76884922D01*
X51086329Y-77058815D01*
X50961239Y-77211239D01*
X50808815Y-77336329D01*
X50634922Y-77429277D01*
X50446228Y-77486517D01*
X50299175Y-77501000D01*
X50000825Y-77501000D01*
X49853772Y-77486517D01*
X49665078Y-77429277D01*
X49491185Y-77336329D01*
X49338761Y-77211239D01*
X49213671Y-77058815D01*
X49120723Y-76884922D01*
X49063483Y-76696228D01*
X49044157Y-76500000D01*
X49063483Y-76303772D01*
X49120723Y-76115078D01*
X49213671Y-75941185D01*
X49338761Y-75788761D01*
X49491185Y-75663671D01*
X49665078Y-75570723D01*
X49853772Y-75513483D01*
X50000825Y-75499000D01*
X50299175Y-75499000D01*
X50446228Y-75513483D01*
G37*
G36*
X59193512Y-75503927D02*
G01*
X59342812Y-75533624D01*
X59506784Y-75601544D01*
X59654354Y-75700147D01*
X59779853Y-75825646D01*
X59878456Y-75973216D01*
X59946376Y-76137188D01*
X59976073Y-76286488D01*
X59979511Y-76303770D01*
X59981000Y-76311259D01*
X59981000Y-76488741D01*
X59946376Y-76662812D01*
X59878456Y-76826784D01*
X59779853Y-76974354D01*
X59654354Y-77099853D01*
X59506784Y-77198456D01*
X59342812Y-77266376D01*
X59193512Y-77296073D01*
X59168742Y-77301000D01*
X58991258Y-77301000D01*
X58966488Y-77296073D01*
X58817188Y-77266376D01*
X58653216Y-77198456D01*
X58505646Y-77099853D01*
X58380147Y-76974354D01*
X58281544Y-76826784D01*
X58213624Y-76662812D01*
X58179000Y-76488741D01*
X58179000Y-76311259D01*
X58180490Y-76303770D01*
X58183927Y-76286488D01*
X58213624Y-76137188D01*
X58281544Y-75973216D01*
X58380147Y-75825646D01*
X58505646Y-75700147D01*
X58653216Y-75601544D01*
X58817188Y-75533624D01*
X58966488Y-75503927D01*
X58991258Y-75499000D01*
X59168742Y-75499000D01*
X59193512Y-75503927D01*
G37*
G36*
X61733512Y-75503927D02*
G01*
X61882812Y-75533624D01*
X62046784Y-75601544D01*
X62194354Y-75700147D01*
X62319853Y-75825646D01*
X62418456Y-75973216D01*
X62486376Y-76137188D01*
X62516073Y-76286488D01*
X62519511Y-76303770D01*
X62521000Y-76311259D01*
X62521000Y-76488741D01*
X62486376Y-76662812D01*
X62418456Y-76826784D01*
X62319853Y-76974354D01*
X62194354Y-77099853D01*
X62046784Y-77198456D01*
X61882812Y-77266376D01*
X61733512Y-77296073D01*
X61708742Y-77301000D01*
X61531258Y-77301000D01*
X61506488Y-77296073D01*
X61357188Y-77266376D01*
X61193216Y-77198456D01*
X61045646Y-77099853D01*
X60920147Y-76974354D01*
X60821544Y-76826784D01*
X60753624Y-76662812D01*
X60719000Y-76488741D01*
X60719000Y-76311259D01*
X60720490Y-76303770D01*
X60723927Y-76286488D01*
X60753624Y-76137188D01*
X60821544Y-75973216D01*
X60920147Y-75825646D01*
X61045646Y-75700147D01*
X61193216Y-75601544D01*
X61357188Y-75533624D01*
X61506488Y-75503927D01*
X61531258Y-75499000D01*
X61708742Y-75499000D01*
X61733512Y-75503927D01*
G37*
G36*
X64273512Y-75503927D02*
G01*
X64422812Y-75533624D01*
X64586784Y-75601544D01*
X64734354Y-75700147D01*
X64859853Y-75825646D01*
X64958456Y-75973216D01*
X65026376Y-76137188D01*
X65056073Y-76286488D01*
X65059511Y-76303770D01*
X65061000Y-76311259D01*
X65061000Y-76488741D01*
X65026376Y-76662812D01*
X64958456Y-76826784D01*
X64859853Y-76974354D01*
X64734354Y-77099853D01*
X64586784Y-77198456D01*
X64422812Y-77266376D01*
X64273512Y-77296073D01*
X64248742Y-77301000D01*
X64071258Y-77301000D01*
X64046488Y-77296073D01*
X63897188Y-77266376D01*
X63733216Y-77198456D01*
X63585646Y-77099853D01*
X63460147Y-76974354D01*
X63361544Y-76826784D01*
X63293624Y-76662812D01*
X63259000Y-76488741D01*
X63259000Y-76311259D01*
X63260490Y-76303770D01*
X63263927Y-76286488D01*
X63293624Y-76137188D01*
X63361544Y-75973216D01*
X63460147Y-75825646D01*
X63585646Y-75700147D01*
X63733216Y-75601544D01*
X63897188Y-75533624D01*
X64046488Y-75503927D01*
X64071258Y-75499000D01*
X64248742Y-75499000D01*
X64273512Y-75503927D01*
G37*
G36*
X67601000Y-77301000D02*
G01*
X65799000Y-77301000D01*
X65799000Y-75499000D01*
X67601000Y-75499000D01*
X67601000Y-77301000D01*
G37*
G36*
X53901000Y-68901000D02*
G01*
X52099000Y-68901000D01*
X52099000Y-67099000D01*
X53901000Y-67099000D01*
X53901000Y-68901000D01*
G37*
G36*
X58901000Y-68901000D02*
G01*
X57099000Y-68901000D01*
X57099000Y-67099000D01*
X58901000Y-67099000D01*
X58901000Y-68901000D01*
G37*
G36*
X63901000Y-68901000D02*
G01*
X62099000Y-68901000D01*
X62099000Y-67099000D01*
X63901000Y-67099000D01*
X63901000Y-68901000D01*
G37*
G36*
X68901000Y-68901000D02*
G01*
X67099000Y-68901000D01*
X67099000Y-67099000D01*
X68901000Y-67099000D01*
X68901000Y-68901000D01*
G37*
G36*
X48364499Y-67178445D02*
G01*
X48401995Y-67189820D01*
X48436554Y-67208292D01*
X48466847Y-67233153D01*
X48491708Y-67263446D01*
X48510180Y-67298005D01*
X48521555Y-67335501D01*
X48526000Y-67380638D01*
X48526000Y-68119362D01*
X48521555Y-68164499D01*
X48510180Y-68201995D01*
X48491708Y-68236554D01*
X48466847Y-68266847D01*
X48436554Y-68291708D01*
X48401995Y-68310180D01*
X48364499Y-68321555D01*
X48319362Y-68326000D01*
X47680638Y-68326000D01*
X47635501Y-68321555D01*
X47598005Y-68310180D01*
X47563446Y-68291708D01*
X47533153Y-68266847D01*
X47508292Y-68236554D01*
X47489820Y-68201995D01*
X47478445Y-68164499D01*
X47474000Y-68119362D01*
X47474000Y-67380638D01*
X47478445Y-67335501D01*
X47489820Y-67298005D01*
X47508292Y-67263446D01*
X47533153Y-67233153D01*
X47563446Y-67208292D01*
X47598005Y-67189820D01*
X47635501Y-67178445D01*
X47680638Y-67174000D01*
X48319362Y-67174000D01*
X48364499Y-67178445D01*
G37*
G36*
X40666778Y-65780547D02*
G01*
X40833224Y-65849491D01*
X40983022Y-65949583D01*
X41110417Y-66076978D01*
X41210509Y-66226776D01*
X41279453Y-66393222D01*
X41314600Y-66569918D01*
X41314600Y-66750082D01*
X41279453Y-66926778D01*
X41210509Y-67093224D01*
X41110417Y-67243022D01*
X40983022Y-67370417D01*
X40833224Y-67470509D01*
X40666778Y-67539453D01*
X40490082Y-67574600D01*
X40309918Y-67574600D01*
X40133222Y-67539453D01*
X39966776Y-67470509D01*
X39816978Y-67370417D01*
X39689583Y-67243022D01*
X39589491Y-67093224D01*
X39520547Y-66926778D01*
X39485400Y-66750082D01*
X39485400Y-66569918D01*
X39520547Y-66393222D01*
X39589491Y-66226776D01*
X39689583Y-66076978D01*
X39816978Y-65949583D01*
X39966776Y-65849491D01*
X40133222Y-65780547D01*
X40309918Y-65745400D01*
X40490082Y-65745400D01*
X40666778Y-65780547D01*
G37*
G36*
X38126778Y-65780547D02*
G01*
X38293224Y-65849491D01*
X38443022Y-65949583D01*
X38570417Y-66076978D01*
X38670509Y-66226776D01*
X38739453Y-66393222D01*
X38774600Y-66569918D01*
X38774600Y-66750082D01*
X38739453Y-66926778D01*
X38670509Y-67093224D01*
X38570417Y-67243022D01*
X38443022Y-67370417D01*
X38293224Y-67470509D01*
X38126778Y-67539453D01*
X37950082Y-67574600D01*
X37769918Y-67574600D01*
X37593222Y-67539453D01*
X37426776Y-67470509D01*
X37276978Y-67370417D01*
X37149583Y-67243022D01*
X37049491Y-67093224D01*
X36980547Y-66926778D01*
X36945400Y-66750082D01*
X36945400Y-66569918D01*
X36980547Y-66393222D01*
X37049491Y-66226776D01*
X37149583Y-66076978D01*
X37276978Y-65949583D01*
X37426776Y-65849491D01*
X37593222Y-65780547D01*
X37769918Y-65745400D01*
X37950082Y-65745400D01*
X38126778Y-65780547D01*
G37*
G36*
X48364499Y-65428445D02*
G01*
X48401995Y-65439820D01*
X48436554Y-65458292D01*
X48466847Y-65483153D01*
X48491708Y-65513446D01*
X48510180Y-65548005D01*
X48521555Y-65585501D01*
X48526000Y-65630638D01*
X48526000Y-66369362D01*
X48521555Y-66414499D01*
X48510180Y-66451995D01*
X48491708Y-66486554D01*
X48466847Y-66516847D01*
X48436554Y-66541708D01*
X48401995Y-66560180D01*
X48364499Y-66571555D01*
X48319362Y-66576000D01*
X47680638Y-66576000D01*
X47635501Y-66571555D01*
X47598005Y-66560180D01*
X47563446Y-66541708D01*
X47533153Y-66516847D01*
X47508292Y-66486554D01*
X47489820Y-66451995D01*
X47478445Y-66414499D01*
X47474000Y-66369362D01*
X47474000Y-65630638D01*
X47478445Y-65585501D01*
X47489820Y-65548005D01*
X47508292Y-65513446D01*
X47533153Y-65483153D01*
X47563446Y-65458292D01*
X47598005Y-65439820D01*
X47635501Y-65428445D01*
X47680638Y-65424000D01*
X48319362Y-65424000D01*
X48364499Y-65428445D01*
G37*
G36*
X68113512Y-64563927D02*
G01*
X68262812Y-64593624D01*
X68426784Y-64661544D01*
X68574354Y-64760147D01*
X68699853Y-64885646D01*
X68798456Y-65033216D01*
X68866376Y-65197188D01*
X68901000Y-65371259D01*
X68901000Y-65548741D01*
X68866376Y-65722812D01*
X68798456Y-65886784D01*
X68699853Y-66034354D01*
X68574354Y-66159853D01*
X68426784Y-66258456D01*
X68262812Y-66326376D01*
X68113512Y-66356073D01*
X68088742Y-66361000D01*
X67911258Y-66361000D01*
X67886488Y-66356073D01*
X67737188Y-66326376D01*
X67573216Y-66258456D01*
X67425646Y-66159853D01*
X67300147Y-66034354D01*
X67201544Y-65886784D01*
X67133624Y-65722812D01*
X67099000Y-65548741D01*
X67099000Y-65371259D01*
X67133624Y-65197188D01*
X67201544Y-65033216D01*
X67300147Y-64885646D01*
X67425646Y-64760147D01*
X67573216Y-64661544D01*
X67737188Y-64593624D01*
X67886488Y-64563927D01*
X67911258Y-64559000D01*
X68088742Y-64559000D01*
X68113512Y-64563927D01*
G37*
G36*
X63113512Y-64563927D02*
G01*
X63262812Y-64593624D01*
X63426784Y-64661544D01*
X63574354Y-64760147D01*
X63699853Y-64885646D01*
X63798456Y-65033216D01*
X63866376Y-65197188D01*
X63901000Y-65371259D01*
X63901000Y-65548741D01*
X63866376Y-65722812D01*
X63798456Y-65886784D01*
X63699853Y-66034354D01*
X63574354Y-66159853D01*
X63426784Y-66258456D01*
X63262812Y-66326376D01*
X63113512Y-66356073D01*
X63088742Y-66361000D01*
X62911258Y-66361000D01*
X62886488Y-66356073D01*
X62737188Y-66326376D01*
X62573216Y-66258456D01*
X62425646Y-66159853D01*
X62300147Y-66034354D01*
X62201544Y-65886784D01*
X62133624Y-65722812D01*
X62099000Y-65548741D01*
X62099000Y-65371259D01*
X62133624Y-65197188D01*
X62201544Y-65033216D01*
X62300147Y-64885646D01*
X62425646Y-64760147D01*
X62573216Y-64661544D01*
X62737188Y-64593624D01*
X62886488Y-64563927D01*
X62911258Y-64559000D01*
X63088742Y-64559000D01*
X63113512Y-64563927D01*
G37*
G36*
X58113512Y-64563927D02*
G01*
X58262812Y-64593624D01*
X58426784Y-64661544D01*
X58574354Y-64760147D01*
X58699853Y-64885646D01*
X58798456Y-65033216D01*
X58866376Y-65197188D01*
X58901000Y-65371259D01*
X58901000Y-65548741D01*
X58866376Y-65722812D01*
X58798456Y-65886784D01*
X58699853Y-66034354D01*
X58574354Y-66159853D01*
X58426784Y-66258456D01*
X58262812Y-66326376D01*
X58113512Y-66356073D01*
X58088742Y-66361000D01*
X57911258Y-66361000D01*
X57886488Y-66356073D01*
X57737188Y-66326376D01*
X57573216Y-66258456D01*
X57425646Y-66159853D01*
X57300147Y-66034354D01*
X57201544Y-65886784D01*
X57133624Y-65722812D01*
X57099000Y-65548741D01*
X57099000Y-65371259D01*
X57133624Y-65197188D01*
X57201544Y-65033216D01*
X57300147Y-64885646D01*
X57425646Y-64760147D01*
X57573216Y-64661544D01*
X57737188Y-64593624D01*
X57886488Y-64563927D01*
X57911258Y-64559000D01*
X58088742Y-64559000D01*
X58113512Y-64563927D01*
G37*
G36*
X53113512Y-64563927D02*
G01*
X53262812Y-64593624D01*
X53426784Y-64661544D01*
X53574354Y-64760147D01*
X53699853Y-64885646D01*
X53798456Y-65033216D01*
X53866376Y-65197188D01*
X53901000Y-65371259D01*
X53901000Y-65548741D01*
X53866376Y-65722812D01*
X53798456Y-65886784D01*
X53699853Y-66034354D01*
X53574354Y-66159853D01*
X53426784Y-66258456D01*
X53262812Y-66326376D01*
X53113512Y-66356073D01*
X53088742Y-66361000D01*
X52911258Y-66361000D01*
X52886488Y-66356073D01*
X52737188Y-66326376D01*
X52573216Y-66258456D01*
X52425646Y-66159853D01*
X52300147Y-66034354D01*
X52201544Y-65886784D01*
X52133624Y-65722812D01*
X52099000Y-65548741D01*
X52099000Y-65371259D01*
X52133624Y-65197188D01*
X52201544Y-65033216D01*
X52300147Y-64885646D01*
X52425646Y-64760147D01*
X52573216Y-64661544D01*
X52737188Y-64593624D01*
X52886488Y-64563927D01*
X52911258Y-64559000D01*
X53088742Y-64559000D01*
X53113512Y-64563927D01*
G37*
G36*
X40666778Y-63240547D02*
G01*
X40833224Y-63309491D01*
X40983022Y-63409583D01*
X41110417Y-63536978D01*
X41210509Y-63686776D01*
X41279453Y-63853222D01*
X41314600Y-64029918D01*
X41314600Y-64210082D01*
X41279453Y-64386778D01*
X41210509Y-64553224D01*
X41110417Y-64703022D01*
X40983022Y-64830417D01*
X40833224Y-64930509D01*
X40666778Y-64999453D01*
X40490082Y-65034600D01*
X40309918Y-65034600D01*
X40133222Y-64999453D01*
X39966776Y-64930509D01*
X39816978Y-64830417D01*
X39689583Y-64703022D01*
X39589491Y-64553224D01*
X39520547Y-64386778D01*
X39485400Y-64210082D01*
X39485400Y-64029918D01*
X39520547Y-63853222D01*
X39589491Y-63686776D01*
X39689583Y-63536978D01*
X39816978Y-63409583D01*
X39966776Y-63309491D01*
X40133222Y-63240547D01*
X40309918Y-63205400D01*
X40490082Y-63205400D01*
X40666778Y-63240547D01*
G37*
G36*
X38126778Y-63240547D02*
G01*
X38293224Y-63309491D01*
X38443022Y-63409583D01*
X38570417Y-63536978D01*
X38670509Y-63686776D01*
X38739453Y-63853222D01*
X38774600Y-64029918D01*
X38774600Y-64210082D01*
X38739453Y-64386778D01*
X38670509Y-64553224D01*
X38570417Y-64703022D01*
X38443022Y-64830417D01*
X38293224Y-64930509D01*
X38126778Y-64999453D01*
X37950082Y-65034600D01*
X37769918Y-65034600D01*
X37593222Y-64999453D01*
X37426776Y-64930509D01*
X37276978Y-64830417D01*
X37149583Y-64703022D01*
X37049491Y-64553224D01*
X36980547Y-64386778D01*
X36945400Y-64210082D01*
X36945400Y-64029918D01*
X36980547Y-63853222D01*
X37049491Y-63686776D01*
X37149583Y-63536978D01*
X37276978Y-63409583D01*
X37426776Y-63309491D01*
X37593222Y-63240547D01*
X37769918Y-63205400D01*
X37950082Y-63205400D01*
X38126778Y-63240547D01*
G37*
G36*
X48584468Y-62341065D02*
G01*
X48623138Y-62352796D01*
X48658777Y-62371846D01*
X48690017Y-62397483D01*
X48715654Y-62428723D01*
X48734704Y-62464362D01*
X48746435Y-62503032D01*
X48751000Y-62549388D01*
X48751000Y-63200612D01*
X48746435Y-63246968D01*
X48734704Y-63285638D01*
X48715654Y-63321277D01*
X48690017Y-63352517D01*
X48658777Y-63378154D01*
X48623138Y-63397204D01*
X48584468Y-63408935D01*
X48538112Y-63413500D01*
X47461888Y-63413500D01*
X47415532Y-63408935D01*
X47376862Y-63397204D01*
X47341223Y-63378154D01*
X47309983Y-63352517D01*
X47284346Y-63321277D01*
X47265296Y-63285638D01*
X47253565Y-63246968D01*
X47249000Y-63200612D01*
X47249000Y-62549388D01*
X47253565Y-62503032D01*
X47265296Y-62464362D01*
X47284346Y-62428723D01*
X47309983Y-62397483D01*
X47341223Y-62371846D01*
X47376862Y-62352796D01*
X47415532Y-62341065D01*
X47461888Y-62336500D01*
X48538112Y-62336500D01*
X48584468Y-62341065D01*
G37*
G36*
X40666778Y-60700547D02*
G01*
X40833224Y-60769491D01*
X40983022Y-60869583D01*
X41110417Y-60996978D01*
X41210509Y-61146776D01*
X41279453Y-61313222D01*
X41314600Y-61489918D01*
X41314600Y-61670082D01*
X41279453Y-61846778D01*
X41210509Y-62013224D01*
X41110417Y-62163022D01*
X40983022Y-62290417D01*
X40833224Y-62390509D01*
X40666778Y-62459453D01*
X40490082Y-62494600D01*
X40309918Y-62494600D01*
X40133222Y-62459453D01*
X39966776Y-62390509D01*
X39816978Y-62290417D01*
X39689583Y-62163022D01*
X39589491Y-62013224D01*
X39520547Y-61846778D01*
X39485400Y-61670082D01*
X39485400Y-61489918D01*
X39520547Y-61313222D01*
X39589491Y-61146776D01*
X39689583Y-60996978D01*
X39816978Y-60869583D01*
X39966776Y-60769491D01*
X40133222Y-60700547D01*
X40309918Y-60665400D01*
X40490082Y-60665400D01*
X40666778Y-60700547D01*
G37*
G36*
X38126778Y-60700547D02*
G01*
X38293224Y-60769491D01*
X38443022Y-60869583D01*
X38570417Y-60996978D01*
X38670509Y-61146776D01*
X38739453Y-61313222D01*
X38774600Y-61489918D01*
X38774600Y-61670082D01*
X38739453Y-61846778D01*
X38670509Y-62013224D01*
X38570417Y-62163022D01*
X38443022Y-62290417D01*
X38293224Y-62390509D01*
X38126778Y-62459453D01*
X37950082Y-62494600D01*
X37769918Y-62494600D01*
X37593222Y-62459453D01*
X37426776Y-62390509D01*
X37276978Y-62290417D01*
X37149583Y-62163022D01*
X37049491Y-62013224D01*
X36980547Y-61846778D01*
X36945400Y-61670082D01*
X36945400Y-61489918D01*
X36980547Y-61313222D01*
X37049491Y-61146776D01*
X37149583Y-60996978D01*
X37276978Y-60869583D01*
X37426776Y-60769491D01*
X37593222Y-60700547D01*
X37769918Y-60665400D01*
X37950082Y-60665400D01*
X38126778Y-60700547D01*
G37*
G36*
X48584468Y-60466065D02*
G01*
X48623138Y-60477796D01*
X48658777Y-60496846D01*
X48690017Y-60522483D01*
X48715654Y-60553723D01*
X48734704Y-60589362D01*
X48746435Y-60628032D01*
X48751000Y-60674388D01*
X48751000Y-61325612D01*
X48746435Y-61371968D01*
X48734704Y-61410638D01*
X48715654Y-61446277D01*
X48690017Y-61477517D01*
X48658777Y-61503154D01*
X48623138Y-61522204D01*
X48584468Y-61533935D01*
X48538112Y-61538500D01*
X47461888Y-61538500D01*
X47415532Y-61533935D01*
X47376862Y-61522204D01*
X47341223Y-61503154D01*
X47309983Y-61477517D01*
X47284346Y-61446277D01*
X47265296Y-61410638D01*
X47253565Y-61371968D01*
X47249000Y-61325612D01*
X47249000Y-60674388D01*
X47253565Y-60628032D01*
X47265296Y-60589362D01*
X47284346Y-60553723D01*
X47309983Y-60522483D01*
X47341223Y-60496846D01*
X47376862Y-60477796D01*
X47415532Y-60466065D01*
X47461888Y-60461500D01*
X48538112Y-60461500D01*
X48584468Y-60466065D01*
G37*
G36*
X69129591Y-59478085D02*
G01*
X69163569Y-59488393D01*
X69194890Y-59505134D01*
X69222339Y-59527661D01*
X69244866Y-59555110D01*
X69261607Y-59586431D01*
X69271915Y-59620409D01*
X69276000Y-59661890D01*
X69276000Y-60338110D01*
X69271915Y-60379591D01*
X69261607Y-60413569D01*
X69244866Y-60444890D01*
X69222339Y-60472339D01*
X69194890Y-60494866D01*
X69163569Y-60511607D01*
X69129591Y-60521915D01*
X69088110Y-60526000D01*
X68486890Y-60526000D01*
X68445409Y-60521915D01*
X68411431Y-60511607D01*
X68380110Y-60494866D01*
X68352661Y-60472339D01*
X68330134Y-60444890D01*
X68313393Y-60413569D01*
X68303085Y-60379591D01*
X68299000Y-60338110D01*
X68299000Y-59661890D01*
X68303085Y-59620409D01*
X68313393Y-59586431D01*
X68330134Y-59555110D01*
X68352661Y-59527661D01*
X68380110Y-59505134D01*
X68411431Y-59488393D01*
X68445409Y-59478085D01*
X68486890Y-59474000D01*
X69088110Y-59474000D01*
X69129591Y-59478085D01*
G37*
G36*
X62542091Y-59478085D02*
G01*
X62576069Y-59488393D01*
X62607390Y-59505134D01*
X62634839Y-59527661D01*
X62657366Y-59555110D01*
X62674107Y-59586431D01*
X62684415Y-59620409D01*
X62688500Y-59661890D01*
X62688500Y-60338110D01*
X62684415Y-60379591D01*
X62674107Y-60413569D01*
X62657366Y-60444890D01*
X62634839Y-60472339D01*
X62607390Y-60494866D01*
X62576069Y-60511607D01*
X62542091Y-60521915D01*
X62500610Y-60526000D01*
X61899390Y-60526000D01*
X61857909Y-60521915D01*
X61823931Y-60511607D01*
X61792610Y-60494866D01*
X61765161Y-60472339D01*
X61742634Y-60444890D01*
X61725893Y-60413569D01*
X61715585Y-60379591D01*
X61711500Y-60338110D01*
X61711500Y-59661890D01*
X61715585Y-59620409D01*
X61725893Y-59586431D01*
X61742634Y-59555110D01*
X61765161Y-59527661D01*
X61792610Y-59505134D01*
X61823931Y-59488393D01*
X61857909Y-59478085D01*
X61899390Y-59474000D01*
X62500610Y-59474000D01*
X62542091Y-59478085D01*
G37*
G36*
X59129591Y-59478085D02*
G01*
X59163569Y-59488393D01*
X59194890Y-59505134D01*
X59222339Y-59527661D01*
X59244866Y-59555110D01*
X59261607Y-59586431D01*
X59271915Y-59620409D01*
X59276000Y-59661890D01*
X59276000Y-60338110D01*
X59271915Y-60379591D01*
X59261607Y-60413569D01*
X59244866Y-60444890D01*
X59222339Y-60472339D01*
X59194890Y-60494866D01*
X59163569Y-60511607D01*
X59129591Y-60521915D01*
X59088110Y-60526000D01*
X58486890Y-60526000D01*
X58445409Y-60521915D01*
X58411431Y-60511607D01*
X58380110Y-60494866D01*
X58352661Y-60472339D01*
X58330134Y-60444890D01*
X58313393Y-60413569D01*
X58303085Y-60379591D01*
X58299000Y-60338110D01*
X58299000Y-59661890D01*
X58303085Y-59620409D01*
X58313393Y-59586431D01*
X58330134Y-59555110D01*
X58352661Y-59527661D01*
X58380110Y-59505134D01*
X58411431Y-59488393D01*
X58445409Y-59478085D01*
X58486890Y-59474000D01*
X59088110Y-59474000D01*
X59129591Y-59478085D01*
G37*
G36*
X57554591Y-59478085D02*
G01*
X57588569Y-59488393D01*
X57619890Y-59505134D01*
X57647339Y-59527661D01*
X57669866Y-59555110D01*
X57686607Y-59586431D01*
X57696915Y-59620409D01*
X57701000Y-59661890D01*
X57701000Y-60338110D01*
X57696915Y-60379591D01*
X57686607Y-60413569D01*
X57669866Y-60444890D01*
X57647339Y-60472339D01*
X57619890Y-60494866D01*
X57588569Y-60511607D01*
X57554591Y-60521915D01*
X57513110Y-60526000D01*
X56911890Y-60526000D01*
X56870409Y-60521915D01*
X56836431Y-60511607D01*
X56805110Y-60494866D01*
X56777661Y-60472339D01*
X56755134Y-60444890D01*
X56738393Y-60413569D01*
X56728085Y-60379591D01*
X56724000Y-60338110D01*
X56724000Y-59661890D01*
X56728085Y-59620409D01*
X56738393Y-59586431D01*
X56755134Y-59555110D01*
X56777661Y-59527661D01*
X56805110Y-59505134D01*
X56836431Y-59488393D01*
X56870409Y-59478085D01*
X56911890Y-59474000D01*
X57513110Y-59474000D01*
X57554591Y-59478085D01*
G37*
G36*
X54129591Y-59478085D02*
G01*
X54163569Y-59488393D01*
X54194890Y-59505134D01*
X54222339Y-59527661D01*
X54244866Y-59555110D01*
X54261607Y-59586431D01*
X54271915Y-59620409D01*
X54276000Y-59661890D01*
X54276000Y-60338110D01*
X54271915Y-60379591D01*
X54261607Y-60413569D01*
X54244866Y-60444890D01*
X54222339Y-60472339D01*
X54194890Y-60494866D01*
X54163569Y-60511607D01*
X54129591Y-60521915D01*
X54088110Y-60526000D01*
X53486890Y-60526000D01*
X53445409Y-60521915D01*
X53411431Y-60511607D01*
X53380110Y-60494866D01*
X53352661Y-60472339D01*
X53330134Y-60444890D01*
X53313393Y-60413569D01*
X53303085Y-60379591D01*
X53299000Y-60338110D01*
X53299000Y-59661890D01*
X53303085Y-59620409D01*
X53313393Y-59586431D01*
X53330134Y-59555110D01*
X53352661Y-59527661D01*
X53380110Y-59505134D01*
X53411431Y-59488393D01*
X53445409Y-59478085D01*
X53486890Y-59474000D01*
X54088110Y-59474000D01*
X54129591Y-59478085D01*
G37*
G36*
X52554591Y-59478085D02*
G01*
X52588569Y-59488393D01*
X52619890Y-59505134D01*
X52647339Y-59527661D01*
X52669866Y-59555110D01*
X52686607Y-59586431D01*
X52696915Y-59620409D01*
X52701000Y-59661890D01*
X52701000Y-60338110D01*
X52696915Y-60379591D01*
X52686607Y-60413569D01*
X52669866Y-60444890D01*
X52647339Y-60472339D01*
X52619890Y-60494866D01*
X52588569Y-60511607D01*
X52554591Y-60521915D01*
X52513110Y-60526000D01*
X51911890Y-60526000D01*
X51870409Y-60521915D01*
X51836431Y-60511607D01*
X51805110Y-60494866D01*
X51777661Y-60472339D01*
X51755134Y-60444890D01*
X51738393Y-60413569D01*
X51728085Y-60379591D01*
X51724000Y-60338110D01*
X51724000Y-59661890D01*
X51728085Y-59620409D01*
X51738393Y-59586431D01*
X51755134Y-59555110D01*
X51777661Y-59527661D01*
X51805110Y-59505134D01*
X51836431Y-59488393D01*
X51870409Y-59478085D01*
X51911890Y-59474000D01*
X52513110Y-59474000D01*
X52554591Y-59478085D01*
G37*
G36*
X67554591Y-59478085D02*
G01*
X67588569Y-59488393D01*
X67619890Y-59505134D01*
X67647339Y-59527661D01*
X67669866Y-59555110D01*
X67686607Y-59586431D01*
X67696915Y-59620409D01*
X67701000Y-59661890D01*
X67701000Y-60338110D01*
X67696915Y-60379591D01*
X67686607Y-60413569D01*
X67669866Y-60444890D01*
X67647339Y-60472339D01*
X67619890Y-60494866D01*
X67588569Y-60511607D01*
X67554591Y-60521915D01*
X67513110Y-60526000D01*
X66911890Y-60526000D01*
X66870409Y-60521915D01*
X66836431Y-60511607D01*
X66805110Y-60494866D01*
X66777661Y-60472339D01*
X66755134Y-60444890D01*
X66738393Y-60413569D01*
X66728085Y-60379591D01*
X66724000Y-60338110D01*
X66724000Y-59661890D01*
X66728085Y-59620409D01*
X66738393Y-59586431D01*
X66755134Y-59555110D01*
X66777661Y-59527661D01*
X66805110Y-59505134D01*
X66836431Y-59488393D01*
X66870409Y-59478085D01*
X66911890Y-59474000D01*
X67513110Y-59474000D01*
X67554591Y-59478085D01*
G37*
G36*
X64117091Y-59478085D02*
G01*
X64151069Y-59488393D01*
X64182390Y-59505134D01*
X64209839Y-59527661D01*
X64232366Y-59555110D01*
X64249107Y-59586431D01*
X64259415Y-59620409D01*
X64263500Y-59661890D01*
X64263500Y-60338110D01*
X64259415Y-60379591D01*
X64249107Y-60413569D01*
X64232366Y-60444890D01*
X64209839Y-60472339D01*
X64182390Y-60494866D01*
X64151069Y-60511607D01*
X64117091Y-60521915D01*
X64075610Y-60526000D01*
X63474390Y-60526000D01*
X63432909Y-60521915D01*
X63398931Y-60511607D01*
X63367610Y-60494866D01*
X63340161Y-60472339D01*
X63317634Y-60444890D01*
X63300893Y-60413569D01*
X63290585Y-60379591D01*
X63286500Y-60338110D01*
X63286500Y-59661890D01*
X63290585Y-59620409D01*
X63300893Y-59586431D01*
X63317634Y-59555110D01*
X63340161Y-59527661D01*
X63367610Y-59505134D01*
X63398931Y-59488393D01*
X63432909Y-59478085D01*
X63474390Y-59474000D01*
X64075610Y-59474000D01*
X64117091Y-59478085D01*
G37*
G36*
X38126778Y-58160547D02*
G01*
X38293224Y-58229491D01*
X38443022Y-58329583D01*
X38570417Y-58456978D01*
X38670509Y-58606776D01*
X38739453Y-58773222D01*
X38774600Y-58949918D01*
X38774600Y-59130082D01*
X38739453Y-59306778D01*
X38670509Y-59473224D01*
X38570417Y-59623022D01*
X38443022Y-59750417D01*
X38293224Y-59850509D01*
X38126778Y-59919453D01*
X37950082Y-59954600D01*
X37769918Y-59954600D01*
X37593222Y-59919453D01*
X37426776Y-59850509D01*
X37276978Y-59750417D01*
X37149583Y-59623022D01*
X37049491Y-59473224D01*
X36980547Y-59306778D01*
X36945400Y-59130082D01*
X36945400Y-58949918D01*
X36980547Y-58773222D01*
X37049491Y-58606776D01*
X37149583Y-58456978D01*
X37276978Y-58329583D01*
X37426776Y-58229491D01*
X37593222Y-58160547D01*
X37769918Y-58125400D01*
X37950082Y-58125400D01*
X38126778Y-58160547D01*
G37*
G36*
X40666778Y-58160547D02*
G01*
X40833224Y-58229491D01*
X40983022Y-58329583D01*
X41110417Y-58456978D01*
X41210509Y-58606776D01*
X41279453Y-58773222D01*
X41314600Y-58949918D01*
X41314600Y-59130082D01*
X41279453Y-59306778D01*
X41210509Y-59473224D01*
X41110417Y-59623022D01*
X40983022Y-59750417D01*
X40833224Y-59850509D01*
X40666778Y-59919453D01*
X40490082Y-59954600D01*
X40309918Y-59954600D01*
X40133222Y-59919453D01*
X39966776Y-59850509D01*
X39816978Y-59750417D01*
X39689583Y-59623022D01*
X39589491Y-59473224D01*
X39520547Y-59306778D01*
X39485400Y-59130082D01*
X39485400Y-58949918D01*
X39520547Y-58773222D01*
X39589491Y-58606776D01*
X39689583Y-58456978D01*
X39816978Y-58329583D01*
X39966776Y-58229491D01*
X40133222Y-58160547D01*
X40309918Y-58125400D01*
X40490082Y-58125400D01*
X40666778Y-58160547D01*
G37*
G36*
X48379591Y-57515585D02*
G01*
X48413569Y-57525893D01*
X48444890Y-57542634D01*
X48472339Y-57565161D01*
X48494866Y-57592610D01*
X48511607Y-57623931D01*
X48521915Y-57657909D01*
X48526000Y-57699390D01*
X48526000Y-58300610D01*
X48521915Y-58342091D01*
X48511607Y-58376069D01*
X48494866Y-58407390D01*
X48472339Y-58434839D01*
X48444890Y-58457366D01*
X48413569Y-58474107D01*
X48379591Y-58484415D01*
X48338110Y-58488500D01*
X47661890Y-58488500D01*
X47620409Y-58484415D01*
X47586431Y-58474107D01*
X47555110Y-58457366D01*
X47527661Y-58434839D01*
X47505134Y-58407390D01*
X47488393Y-58376069D01*
X47478085Y-58342091D01*
X47474000Y-58300610D01*
X47474000Y-57699390D01*
X47478085Y-57657909D01*
X47488393Y-57623931D01*
X47505134Y-57592610D01*
X47527661Y-57565161D01*
X47555110Y-57542634D01*
X47586431Y-57525893D01*
X47620409Y-57515585D01*
X47661890Y-57511500D01*
X48338110Y-57511500D01*
X48379591Y-57515585D01*
G37*
G36*
X64129591Y-56478085D02*
G01*
X64163569Y-56488393D01*
X64194890Y-56505134D01*
X64222339Y-56527661D01*
X64244866Y-56555110D01*
X64261607Y-56586431D01*
X64271915Y-56620409D01*
X64276000Y-56661890D01*
X64276000Y-57338110D01*
X64271915Y-57379591D01*
X64261607Y-57413569D01*
X64244866Y-57444890D01*
X64222339Y-57472339D01*
X64194890Y-57494866D01*
X64163569Y-57511607D01*
X64129591Y-57521915D01*
X64088110Y-57526000D01*
X63486890Y-57526000D01*
X63445409Y-57521915D01*
X63411431Y-57511607D01*
X63380110Y-57494866D01*
X63352661Y-57472339D01*
X63330134Y-57444890D01*
X63313393Y-57413569D01*
X63303085Y-57379591D01*
X63299000Y-57338110D01*
X63299000Y-56661890D01*
X63303085Y-56620409D01*
X63313393Y-56586431D01*
X63330134Y-56555110D01*
X63352661Y-56527661D01*
X63380110Y-56505134D01*
X63411431Y-56488393D01*
X63445409Y-56478085D01*
X63486890Y-56474000D01*
X64088110Y-56474000D01*
X64129591Y-56478085D01*
G37*
G36*
X57554591Y-56478085D02*
G01*
X57588569Y-56488393D01*
X57619890Y-56505134D01*
X57647339Y-56527661D01*
X57669866Y-56555110D01*
X57686607Y-56586431D01*
X57696915Y-56620409D01*
X57701000Y-56661890D01*
X57701000Y-57338110D01*
X57696915Y-57379591D01*
X57686607Y-57413569D01*
X57669866Y-57444890D01*
X57647339Y-57472339D01*
X57619890Y-57494866D01*
X57588569Y-57511607D01*
X57554591Y-57521915D01*
X57513110Y-57526000D01*
X56911890Y-57526000D01*
X56870409Y-57521915D01*
X56836431Y-57511607D01*
X56805110Y-57494866D01*
X56777661Y-57472339D01*
X56755134Y-57444890D01*
X56738393Y-57413569D01*
X56728085Y-57379591D01*
X56724000Y-57338110D01*
X56724000Y-56661890D01*
X56728085Y-56620409D01*
X56738393Y-56586431D01*
X56755134Y-56555110D01*
X56777661Y-56527661D01*
X56805110Y-56505134D01*
X56836431Y-56488393D01*
X56870409Y-56478085D01*
X56911890Y-56474000D01*
X57513110Y-56474000D01*
X57554591Y-56478085D01*
G37*
G36*
X62554591Y-56478085D02*
G01*
X62588569Y-56488393D01*
X62619890Y-56505134D01*
X62647339Y-56527661D01*
X62669866Y-56555110D01*
X62686607Y-56586431D01*
X62696915Y-56620409D01*
X62701000Y-56661890D01*
X62701000Y-57338110D01*
X62696915Y-57379591D01*
X62686607Y-57413569D01*
X62669866Y-57444890D01*
X62647339Y-57472339D01*
X62619890Y-57494866D01*
X62588569Y-57511607D01*
X62554591Y-57521915D01*
X62513110Y-57526000D01*
X61911890Y-57526000D01*
X61870409Y-57521915D01*
X61836431Y-57511607D01*
X61805110Y-57494866D01*
X61777661Y-57472339D01*
X61755134Y-57444890D01*
X61738393Y-57413569D01*
X61728085Y-57379591D01*
X61724000Y-57338110D01*
X61724000Y-56661890D01*
X61728085Y-56620409D01*
X61738393Y-56586431D01*
X61755134Y-56555110D01*
X61777661Y-56527661D01*
X61805110Y-56505134D01*
X61836431Y-56488393D01*
X61870409Y-56478085D01*
X61911890Y-56474000D01*
X62513110Y-56474000D01*
X62554591Y-56478085D01*
G37*
G36*
X67554591Y-56478085D02*
G01*
X67588569Y-56488393D01*
X67619890Y-56505134D01*
X67647339Y-56527661D01*
X67669866Y-56555110D01*
X67686607Y-56586431D01*
X67696915Y-56620409D01*
X67701000Y-56661890D01*
X67701000Y-57338110D01*
X67696915Y-57379591D01*
X67686607Y-57413569D01*
X67669866Y-57444890D01*
X67647339Y-57472339D01*
X67619890Y-57494866D01*
X67588569Y-57511607D01*
X67554591Y-57521915D01*
X67513110Y-57526000D01*
X66911890Y-57526000D01*
X66870409Y-57521915D01*
X66836431Y-57511607D01*
X66805110Y-57494866D01*
X66777661Y-57472339D01*
X66755134Y-57444890D01*
X66738393Y-57413569D01*
X66728085Y-57379591D01*
X66724000Y-57338110D01*
X66724000Y-56661890D01*
X66728085Y-56620409D01*
X66738393Y-56586431D01*
X66755134Y-56555110D01*
X66777661Y-56527661D01*
X66805110Y-56505134D01*
X66836431Y-56488393D01*
X66870409Y-56478085D01*
X66911890Y-56474000D01*
X67513110Y-56474000D01*
X67554591Y-56478085D01*
G37*
G36*
X69129591Y-56478085D02*
G01*
X69163569Y-56488393D01*
X69194890Y-56505134D01*
X69222339Y-56527661D01*
X69244866Y-56555110D01*
X69261607Y-56586431D01*
X69271915Y-56620409D01*
X69276000Y-56661890D01*
X69276000Y-57338110D01*
X69271915Y-57379591D01*
X69261607Y-57413569D01*
X69244866Y-57444890D01*
X69222339Y-57472339D01*
X69194890Y-57494866D01*
X69163569Y-57511607D01*
X69129591Y-57521915D01*
X69088110Y-57526000D01*
X68486890Y-57526000D01*
X68445409Y-57521915D01*
X68411431Y-57511607D01*
X68380110Y-57494866D01*
X68352661Y-57472339D01*
X68330134Y-57444890D01*
X68313393Y-57413569D01*
X68303085Y-57379591D01*
X68299000Y-57338110D01*
X68299000Y-56661890D01*
X68303085Y-56620409D01*
X68313393Y-56586431D01*
X68330134Y-56555110D01*
X68352661Y-56527661D01*
X68380110Y-56505134D01*
X68411431Y-56488393D01*
X68445409Y-56478085D01*
X68486890Y-56474000D01*
X69088110Y-56474000D01*
X69129591Y-56478085D01*
G37*
G36*
X59129591Y-56478085D02*
G01*
X59163569Y-56488393D01*
X59194890Y-56505134D01*
X59222339Y-56527661D01*
X59244866Y-56555110D01*
X59261607Y-56586431D01*
X59271915Y-56620409D01*
X59276000Y-56661890D01*
X59276000Y-57338110D01*
X59271915Y-57379591D01*
X59261607Y-57413569D01*
X59244866Y-57444890D01*
X59222339Y-57472339D01*
X59194890Y-57494866D01*
X59163569Y-57511607D01*
X59129591Y-57521915D01*
X59088110Y-57526000D01*
X58486890Y-57526000D01*
X58445409Y-57521915D01*
X58411431Y-57511607D01*
X58380110Y-57494866D01*
X58352661Y-57472339D01*
X58330134Y-57444890D01*
X58313393Y-57413569D01*
X58303085Y-57379591D01*
X58299000Y-57338110D01*
X58299000Y-56661890D01*
X58303085Y-56620409D01*
X58313393Y-56586431D01*
X58330134Y-56555110D01*
X58352661Y-56527661D01*
X58380110Y-56505134D01*
X58411431Y-56488393D01*
X58445409Y-56478085D01*
X58486890Y-56474000D01*
X59088110Y-56474000D01*
X59129591Y-56478085D01*
G37*
G36*
X38126778Y-55620547D02*
G01*
X38293224Y-55689491D01*
X38443022Y-55789583D01*
X38570417Y-55916978D01*
X38670509Y-56066776D01*
X38739453Y-56233222D01*
X38774600Y-56409918D01*
X38774600Y-56590082D01*
X38739453Y-56766778D01*
X38670509Y-56933224D01*
X38570417Y-57083022D01*
X38443022Y-57210417D01*
X38293224Y-57310509D01*
X38126778Y-57379453D01*
X37950082Y-57414600D01*
X37769918Y-57414600D01*
X37593222Y-57379453D01*
X37426776Y-57310509D01*
X37276978Y-57210417D01*
X37149583Y-57083022D01*
X37049491Y-56933224D01*
X36980547Y-56766778D01*
X36945400Y-56590082D01*
X36945400Y-56409918D01*
X36980547Y-56233222D01*
X37049491Y-56066776D01*
X37149583Y-55916978D01*
X37276978Y-55789583D01*
X37426776Y-55689491D01*
X37593222Y-55620547D01*
X37769918Y-55585400D01*
X37950082Y-55585400D01*
X38126778Y-55620547D01*
G37*
G36*
X41314600Y-57414600D02*
G01*
X39485400Y-57414600D01*
X39485400Y-55585400D01*
X41314600Y-55585400D01*
X41314600Y-57414600D01*
G37*
G36*
X52554591Y-56265585D02*
G01*
X52588569Y-56275893D01*
X52619890Y-56292634D01*
X52647339Y-56315161D01*
X52669866Y-56342610D01*
X52686607Y-56373931D01*
X52696915Y-56407909D01*
X52701000Y-56449390D01*
X52701000Y-57125610D01*
X52696915Y-57167091D01*
X52686607Y-57201069D01*
X52669866Y-57232390D01*
X52647339Y-57259839D01*
X52619890Y-57282366D01*
X52588569Y-57299107D01*
X52554591Y-57309415D01*
X52513110Y-57313500D01*
X51911890Y-57313500D01*
X51870409Y-57309415D01*
X51836431Y-57299107D01*
X51805110Y-57282366D01*
X51777661Y-57259839D01*
X51755134Y-57232390D01*
X51738393Y-57201069D01*
X51728085Y-57167091D01*
X51724000Y-57125610D01*
X51724000Y-56449390D01*
X51728085Y-56407909D01*
X51738393Y-56373931D01*
X51755134Y-56342610D01*
X51777661Y-56315161D01*
X51805110Y-56292634D01*
X51836431Y-56275893D01*
X51870409Y-56265585D01*
X51911890Y-56261500D01*
X52513110Y-56261500D01*
X52554591Y-56265585D01*
G37*
G36*
X54129591Y-56265585D02*
G01*
X54163569Y-56275893D01*
X54194890Y-56292634D01*
X54222339Y-56315161D01*
X54244866Y-56342610D01*
X54261607Y-56373931D01*
X54271915Y-56407909D01*
X54276000Y-56449390D01*
X54276000Y-57125610D01*
X54271915Y-57167091D01*
X54261607Y-57201069D01*
X54244866Y-57232390D01*
X54222339Y-57259839D01*
X54194890Y-57282366D01*
X54163569Y-57299107D01*
X54129591Y-57309415D01*
X54088110Y-57313500D01*
X53486890Y-57313500D01*
X53445409Y-57309415D01*
X53411431Y-57299107D01*
X53380110Y-57282366D01*
X53352661Y-57259839D01*
X53330134Y-57232390D01*
X53313393Y-57201069D01*
X53303085Y-57167091D01*
X53299000Y-57125610D01*
X53299000Y-56449390D01*
X53303085Y-56407909D01*
X53313393Y-56373931D01*
X53330134Y-56342610D01*
X53352661Y-56315161D01*
X53380110Y-56292634D01*
X53411431Y-56275893D01*
X53445409Y-56265585D01*
X53486890Y-56261500D01*
X54088110Y-56261500D01*
X54129591Y-56265585D01*
G37*
G36*
X48379591Y-55940585D02*
G01*
X48413569Y-55950893D01*
X48444890Y-55967634D01*
X48472339Y-55990161D01*
X48494866Y-56017610D01*
X48511607Y-56048931D01*
X48521915Y-56082909D01*
X48526000Y-56124390D01*
X48526000Y-56725610D01*
X48521915Y-56767091D01*
X48511607Y-56801069D01*
X48494866Y-56832390D01*
X48472339Y-56859839D01*
X48444890Y-56882366D01*
X48413569Y-56899107D01*
X48379591Y-56909415D01*
X48338110Y-56913500D01*
X47661890Y-56913500D01*
X47620409Y-56909415D01*
X47586431Y-56899107D01*
X47555110Y-56882366D01*
X47527661Y-56859839D01*
X47505134Y-56832390D01*
X47488393Y-56801069D01*
X47478085Y-56767091D01*
X47474000Y-56725610D01*
X47474000Y-56124390D01*
X47478085Y-56082909D01*
X47488393Y-56048931D01*
X47505134Y-56017610D01*
X47527661Y-55990161D01*
X47555110Y-55967634D01*
X47586431Y-55950893D01*
X47620409Y-55940585D01*
X47661890Y-55936500D01*
X48338110Y-55936500D01*
X48379591Y-55940585D01*
G37*
G36*
X50654591Y-50278085D02*
G01*
X50688569Y-50288393D01*
X50719890Y-50305134D01*
X50747339Y-50327661D01*
X50769866Y-50355110D01*
X50786607Y-50386431D01*
X50796915Y-50420409D01*
X50801000Y-50461890D01*
X50801000Y-51138110D01*
X50796915Y-51179591D01*
X50786607Y-51213569D01*
X50769866Y-51244890D01*
X50747339Y-51272339D01*
X50719890Y-51294866D01*
X50688569Y-51311607D01*
X50654591Y-51321915D01*
X50613110Y-51326000D01*
X50011890Y-51326000D01*
X49970409Y-51321915D01*
X49936431Y-51311607D01*
X49905110Y-51294866D01*
X49877661Y-51272339D01*
X49855134Y-51244890D01*
X49838393Y-51213569D01*
X49828085Y-51179591D01*
X49824000Y-51138110D01*
X49824000Y-50461890D01*
X49828085Y-50420409D01*
X49838393Y-50386431D01*
X49855134Y-50355110D01*
X49877661Y-50327661D01*
X49905110Y-50305134D01*
X49936431Y-50288393D01*
X49970409Y-50278085D01*
X50011890Y-50274000D01*
X50613110Y-50274000D01*
X50654591Y-50278085D01*
G37*
G36*
X52229591Y-50278085D02*
G01*
X52263569Y-50288393D01*
X52294890Y-50305134D01*
X52322339Y-50327661D01*
X52344866Y-50355110D01*
X52361607Y-50386431D01*
X52371915Y-50420409D01*
X52376000Y-50461890D01*
X52376000Y-51138110D01*
X52371915Y-51179591D01*
X52361607Y-51213569D01*
X52344866Y-51244890D01*
X52322339Y-51272339D01*
X52294890Y-51294866D01*
X52263569Y-51311607D01*
X52229591Y-51321915D01*
X52188110Y-51326000D01*
X51586890Y-51326000D01*
X51545409Y-51321915D01*
X51511431Y-51311607D01*
X51480110Y-51294866D01*
X51452661Y-51272339D01*
X51430134Y-51244890D01*
X51413393Y-51213569D01*
X51403085Y-51179591D01*
X51399000Y-51138110D01*
X51399000Y-50461890D01*
X51403085Y-50420409D01*
X51413393Y-50386431D01*
X51430134Y-50355110D01*
X51452661Y-50327661D01*
X51480110Y-50305134D01*
X51511431Y-50288393D01*
X51545409Y-50278085D01*
X51586890Y-50274000D01*
X52188110Y-50274000D01*
X52229591Y-50278085D01*
G37*
G36*
X64193512Y-49503927D02*
G01*
X64342812Y-49533624D01*
X64506784Y-49601544D01*
X64654354Y-49700147D01*
X64779853Y-49825646D01*
X64878456Y-49973216D01*
X64946376Y-50137188D01*
X64981000Y-50311259D01*
X64981000Y-50488741D01*
X64946376Y-50662812D01*
X64878456Y-50826784D01*
X64779853Y-50974354D01*
X64654354Y-51099853D01*
X64506784Y-51198456D01*
X64342812Y-51266376D01*
X64199579Y-51294866D01*
X64168742Y-51301000D01*
X63991258Y-51301000D01*
X63960421Y-51294866D01*
X63817188Y-51266376D01*
X63653216Y-51198456D01*
X63505646Y-51099853D01*
X63380147Y-50974354D01*
X63281544Y-50826784D01*
X63213624Y-50662812D01*
X63179000Y-50488741D01*
X63179000Y-50311259D01*
X63213624Y-50137188D01*
X63281544Y-49973216D01*
X63380147Y-49825646D01*
X63505646Y-49700147D01*
X63653216Y-49601544D01*
X63817188Y-49533624D01*
X63966488Y-49503927D01*
X63991258Y-49499000D01*
X64168742Y-49499000D01*
X64193512Y-49503927D01*
G37*
G36*
X61653512Y-49503927D02*
G01*
X61802812Y-49533624D01*
X61966784Y-49601544D01*
X62114354Y-49700147D01*
X62239853Y-49825646D01*
X62338456Y-49973216D01*
X62406376Y-50137188D01*
X62441000Y-50311259D01*
X62441000Y-50488741D01*
X62406376Y-50662812D01*
X62338456Y-50826784D01*
X62239853Y-50974354D01*
X62114354Y-51099853D01*
X61966784Y-51198456D01*
X61802812Y-51266376D01*
X61659579Y-51294866D01*
X61628742Y-51301000D01*
X61451258Y-51301000D01*
X61420421Y-51294866D01*
X61277188Y-51266376D01*
X61113216Y-51198456D01*
X60965646Y-51099853D01*
X60840147Y-50974354D01*
X60741544Y-50826784D01*
X60673624Y-50662812D01*
X60639000Y-50488741D01*
X60639000Y-50311259D01*
X60673624Y-50137188D01*
X60741544Y-49973216D01*
X60840147Y-49825646D01*
X60965646Y-49700147D01*
X61113216Y-49601544D01*
X61277188Y-49533624D01*
X61426488Y-49503927D01*
X61451258Y-49499000D01*
X61628742Y-49499000D01*
X61653512Y-49503927D01*
G37*
G36*
X66733512Y-49503927D02*
G01*
X66882812Y-49533624D01*
X67046784Y-49601544D01*
X67194354Y-49700147D01*
X67319853Y-49825646D01*
X67418456Y-49973216D01*
X67486376Y-50137188D01*
X67521000Y-50311259D01*
X67521000Y-50488741D01*
X67486376Y-50662812D01*
X67418456Y-50826784D01*
X67319853Y-50974354D01*
X67194354Y-51099853D01*
X67046784Y-51198456D01*
X66882812Y-51266376D01*
X66739579Y-51294866D01*
X66708742Y-51301000D01*
X66531258Y-51301000D01*
X66500421Y-51294866D01*
X66357188Y-51266376D01*
X66193216Y-51198456D01*
X66045646Y-51099853D01*
X65920147Y-50974354D01*
X65821544Y-50826784D01*
X65753624Y-50662812D01*
X65719000Y-50488741D01*
X65719000Y-50311259D01*
X65753624Y-50137188D01*
X65821544Y-49973216D01*
X65920147Y-49825646D01*
X66045646Y-49700147D01*
X66193216Y-49601544D01*
X66357188Y-49533624D01*
X66506488Y-49503927D01*
X66531258Y-49499000D01*
X66708742Y-49499000D01*
X66733512Y-49503927D01*
G37*
G36*
X59901000Y-51301000D02*
G01*
X58099000Y-51301000D01*
X58099000Y-49499000D01*
X59901000Y-49499000D01*
X59901000Y-51301000D01*
G37*
G36*
X61653512Y-46963927D02*
G01*
X61802812Y-46993624D01*
X61966784Y-47061544D01*
X62114354Y-47160147D01*
X62239853Y-47285646D01*
X62338456Y-47433216D01*
X62406376Y-47597188D01*
X62441000Y-47771259D01*
X62441000Y-47948741D01*
X62406376Y-48122812D01*
X62338456Y-48286784D01*
X62239853Y-48434354D01*
X62114354Y-48559853D01*
X61966784Y-48658456D01*
X61802812Y-48726376D01*
X61653512Y-48756073D01*
X61628742Y-48761000D01*
X61451258Y-48761000D01*
X61426488Y-48756073D01*
X61277188Y-48726376D01*
X61113216Y-48658456D01*
X60965646Y-48559853D01*
X60840147Y-48434354D01*
X60741544Y-48286784D01*
X60673624Y-48122812D01*
X60639000Y-47948741D01*
X60639000Y-47771259D01*
X60673624Y-47597188D01*
X60741544Y-47433216D01*
X60840147Y-47285646D01*
X60965646Y-47160147D01*
X61113216Y-47061544D01*
X61277188Y-46993624D01*
X61426488Y-46963927D01*
X61451258Y-46959000D01*
X61628742Y-46959000D01*
X61653512Y-46963927D01*
G37*
G36*
X66733512Y-46963927D02*
G01*
X66882812Y-46993624D01*
X67046784Y-47061544D01*
X67194354Y-47160147D01*
X67319853Y-47285646D01*
X67418456Y-47433216D01*
X67486376Y-47597188D01*
X67521000Y-47771259D01*
X67521000Y-47948741D01*
X67486376Y-48122812D01*
X67418456Y-48286784D01*
X67319853Y-48434354D01*
X67194354Y-48559853D01*
X67046784Y-48658456D01*
X66882812Y-48726376D01*
X66733512Y-48756073D01*
X66708742Y-48761000D01*
X66531258Y-48761000D01*
X66506488Y-48756073D01*
X66357188Y-48726376D01*
X66193216Y-48658456D01*
X66045646Y-48559853D01*
X65920147Y-48434354D01*
X65821544Y-48286784D01*
X65753624Y-48122812D01*
X65719000Y-47948741D01*
X65719000Y-47771259D01*
X65753624Y-47597188D01*
X65821544Y-47433216D01*
X65920147Y-47285646D01*
X66045646Y-47160147D01*
X66193216Y-47061544D01*
X66357188Y-46993624D01*
X66506488Y-46963927D01*
X66531258Y-46959000D01*
X66708742Y-46959000D01*
X66733512Y-46963927D01*
G37*
G36*
X64193512Y-46963927D02*
G01*
X64342812Y-46993624D01*
X64506784Y-47061544D01*
X64654354Y-47160147D01*
X64779853Y-47285646D01*
X64878456Y-47433216D01*
X64946376Y-47597188D01*
X64981000Y-47771259D01*
X64981000Y-47948741D01*
X64946376Y-48122812D01*
X64878456Y-48286784D01*
X64779853Y-48434354D01*
X64654354Y-48559853D01*
X64506784Y-48658456D01*
X64342812Y-48726376D01*
X64193512Y-48756073D01*
X64168742Y-48761000D01*
X63991258Y-48761000D01*
X63966488Y-48756073D01*
X63817188Y-48726376D01*
X63653216Y-48658456D01*
X63505646Y-48559853D01*
X63380147Y-48434354D01*
X63281544Y-48286784D01*
X63213624Y-48122812D01*
X63179000Y-47948741D01*
X63179000Y-47771259D01*
X63213624Y-47597188D01*
X63281544Y-47433216D01*
X63380147Y-47285646D01*
X63505646Y-47160147D01*
X63653216Y-47061544D01*
X63817188Y-46993624D01*
X63966488Y-46963927D01*
X63991258Y-46959000D01*
X64168742Y-46959000D01*
X64193512Y-46963927D01*
G37*
G36*
X59113512Y-46963927D02*
G01*
X59262812Y-46993624D01*
X59426784Y-47061544D01*
X59574354Y-47160147D01*
X59699853Y-47285646D01*
X59798456Y-47433216D01*
X59866376Y-47597188D01*
X59901000Y-47771259D01*
X59901000Y-47948741D01*
X59866376Y-48122812D01*
X59798456Y-48286784D01*
X59699853Y-48434354D01*
X59574354Y-48559853D01*
X59426784Y-48658456D01*
X59262812Y-48726376D01*
X59113512Y-48756073D01*
X59088742Y-48761000D01*
X58911258Y-48761000D01*
X58886488Y-48756073D01*
X58737188Y-48726376D01*
X58573216Y-48658456D01*
X58425646Y-48559853D01*
X58300147Y-48434354D01*
X58201544Y-48286784D01*
X58133624Y-48122812D01*
X58099000Y-47948741D01*
X58099000Y-47771259D01*
X58133624Y-47597188D01*
X58201544Y-47433216D01*
X58300147Y-47285646D01*
X58425646Y-47160147D01*
X58573216Y-47061544D01*
X58737188Y-46993624D01*
X58886488Y-46963927D01*
X58911258Y-46959000D01*
X59088742Y-46959000D01*
X59113512Y-46963927D01*
G37*
G36*
X52371968Y-47253565D02*
G01*
X52410638Y-47265296D01*
X52446277Y-47284346D01*
X52477517Y-47309983D01*
X52503154Y-47341223D01*
X52522204Y-47376862D01*
X52533935Y-47415532D01*
X52538500Y-47461888D01*
X52538500Y-48538112D01*
X52533935Y-48584468D01*
X52522204Y-48623138D01*
X52503154Y-48658777D01*
X52477517Y-48690017D01*
X52446277Y-48715654D01*
X52410638Y-48734704D01*
X52371968Y-48746435D01*
X52325612Y-48751000D01*
X51674388Y-48751000D01*
X51628032Y-48746435D01*
X51589362Y-48734704D01*
X51553723Y-48715654D01*
X51522483Y-48690017D01*
X51496846Y-48658777D01*
X51477796Y-48623138D01*
X51466065Y-48584468D01*
X51461500Y-48538112D01*
X51461500Y-47461888D01*
X51466065Y-47415532D01*
X51477796Y-47376862D01*
X51496846Y-47341223D01*
X51522483Y-47309983D01*
X51553723Y-47284346D01*
X51589362Y-47265296D01*
X51628032Y-47253565D01*
X51674388Y-47249000D01*
X52325612Y-47249000D01*
X52371968Y-47253565D01*
G37*
G36*
X46434468Y-47253565D02*
G01*
X46473138Y-47265296D01*
X46508777Y-47284346D01*
X46540017Y-47309983D01*
X46565654Y-47341223D01*
X46584704Y-47376862D01*
X46596435Y-47415532D01*
X46601000Y-47461888D01*
X46601000Y-48538112D01*
X46596435Y-48584468D01*
X46584704Y-48623138D01*
X46565654Y-48658777D01*
X46540017Y-48690017D01*
X46508777Y-48715654D01*
X46473138Y-48734704D01*
X46434468Y-48746435D01*
X46388112Y-48751000D01*
X45736888Y-48751000D01*
X45690532Y-48746435D01*
X45651862Y-48734704D01*
X45616223Y-48715654D01*
X45584983Y-48690017D01*
X45559346Y-48658777D01*
X45540296Y-48623138D01*
X45528565Y-48584468D01*
X45524000Y-48538112D01*
X45524000Y-47461888D01*
X45528565Y-47415532D01*
X45540296Y-47376862D01*
X45559346Y-47341223D01*
X45584983Y-47309983D01*
X45616223Y-47284346D01*
X45651862Y-47265296D01*
X45690532Y-47253565D01*
X45736888Y-47249000D01*
X46388112Y-47249000D01*
X46434468Y-47253565D01*
G37*
G36*
X50496968Y-47253565D02*
G01*
X50535638Y-47265296D01*
X50571277Y-47284346D01*
X50602517Y-47309983D01*
X50628154Y-47341223D01*
X50647204Y-47376862D01*
X50658935Y-47415532D01*
X50663500Y-47461888D01*
X50663500Y-48538112D01*
X50658935Y-48584468D01*
X50647204Y-48623138D01*
X50628154Y-48658777D01*
X50602517Y-48690017D01*
X50571277Y-48715654D01*
X50535638Y-48734704D01*
X50496968Y-48746435D01*
X50450612Y-48751000D01*
X49799388Y-48751000D01*
X49753032Y-48746435D01*
X49714362Y-48734704D01*
X49678723Y-48715654D01*
X49647483Y-48690017D01*
X49621846Y-48658777D01*
X49602796Y-48623138D01*
X49591065Y-48584468D01*
X49586500Y-48538112D01*
X49586500Y-47461888D01*
X49591065Y-47415532D01*
X49602796Y-47376862D01*
X49621846Y-47341223D01*
X49647483Y-47309983D01*
X49678723Y-47284346D01*
X49714362Y-47265296D01*
X49753032Y-47253565D01*
X49799388Y-47249000D01*
X50450612Y-47249000D01*
X50496968Y-47253565D01*
G37*
G36*
X48309468Y-47253565D02*
G01*
X48348138Y-47265296D01*
X48383777Y-47284346D01*
X48415017Y-47309983D01*
X48440654Y-47341223D01*
X48459704Y-47376862D01*
X48471435Y-47415532D01*
X48476000Y-47461888D01*
X48476000Y-48538112D01*
X48471435Y-48584468D01*
X48459704Y-48623138D01*
X48440654Y-48658777D01*
X48415017Y-48690017D01*
X48383777Y-48715654D01*
X48348138Y-48734704D01*
X48309468Y-48746435D01*
X48263112Y-48751000D01*
X47611888Y-48751000D01*
X47565532Y-48746435D01*
X47526862Y-48734704D01*
X47491223Y-48715654D01*
X47459983Y-48690017D01*
X47434346Y-48658777D01*
X47415296Y-48623138D01*
X47403565Y-48584468D01*
X47399000Y-48538112D01*
X47399000Y-47461888D01*
X47403565Y-47415532D01*
X47415296Y-47376862D01*
X47434346Y-47341223D01*
X47459983Y-47309983D01*
X47491223Y-47284346D01*
X47526862Y-47265296D01*
X47565532Y-47253565D01*
X47611888Y-47249000D01*
X48263112Y-47249000D01*
X48309468Y-47253565D01*
G37*
G36*
X52237022Y-41810590D02*
G01*
X52337681Y-41841125D01*
X52388012Y-41856392D01*
X52527164Y-41930771D01*
X52649133Y-42030867D01*
X52711100Y-42106375D01*
X52749229Y-42152835D01*
X52823608Y-42291987D01*
X52838875Y-42342318D01*
X52869410Y-42442977D01*
X52881000Y-42560655D01*
X52881000Y-43439345D01*
X52869410Y-43557023D01*
X52838875Y-43657682D01*
X52823608Y-43708013D01*
X52749229Y-43847165D01*
X52649133Y-43969133D01*
X52527165Y-44069229D01*
X52388013Y-44143608D01*
X52337682Y-44158875D01*
X52237023Y-44189410D01*
X52080000Y-44204875D01*
X51922978Y-44189410D01*
X51822319Y-44158875D01*
X51771988Y-44143608D01*
X51632836Y-44069229D01*
X51510868Y-43969133D01*
X51410772Y-43847165D01*
X51336393Y-43708013D01*
X51321126Y-43657682D01*
X51290591Y-43557023D01*
X51279000Y-43439345D01*
X51279000Y-42560656D01*
X51290590Y-42442978D01*
X51336392Y-42291989D01*
X51336392Y-42291988D01*
X51410771Y-42152836D01*
X51410772Y-42152835D01*
X51510867Y-42030867D01*
X51632835Y-41930771D01*
X51771987Y-41856392D01*
X51822318Y-41841125D01*
X51922977Y-41810590D01*
X52080000Y-41795125D01*
X52237022Y-41810590D01*
G37*
G36*
X49697022Y-41810590D02*
G01*
X49797681Y-41841125D01*
X49848012Y-41856392D01*
X49987164Y-41930771D01*
X50109133Y-42030867D01*
X50171100Y-42106375D01*
X50209229Y-42152835D01*
X50283608Y-42291987D01*
X50298875Y-42342318D01*
X50329410Y-42442977D01*
X50341000Y-42560655D01*
X50341000Y-43439345D01*
X50329410Y-43557023D01*
X50298875Y-43657682D01*
X50283608Y-43708013D01*
X50209229Y-43847165D01*
X50109133Y-43969133D01*
X49987165Y-44069229D01*
X49848013Y-44143608D01*
X49797682Y-44158875D01*
X49697023Y-44189410D01*
X49540000Y-44204875D01*
X49382978Y-44189410D01*
X49282319Y-44158875D01*
X49231988Y-44143608D01*
X49092836Y-44069229D01*
X48970868Y-43969133D01*
X48870772Y-43847165D01*
X48796393Y-43708013D01*
X48781126Y-43657682D01*
X48750591Y-43557023D01*
X48739000Y-43439345D01*
X48739000Y-42560656D01*
X48750590Y-42442978D01*
X48796392Y-42291989D01*
X48796392Y-42291988D01*
X48870771Y-42152836D01*
X48870772Y-42152835D01*
X48970867Y-42030867D01*
X49092835Y-41930771D01*
X49231987Y-41856392D01*
X49282318Y-41841125D01*
X49382977Y-41810590D01*
X49540000Y-41795125D01*
X49697022Y-41810590D01*
G37*
G36*
X47801000Y-44201000D02*
G01*
X46199000Y-44201000D01*
X46199000Y-41799000D01*
X47801000Y-41799000D01*
X47801000Y-44201000D01*
G37*
G36*
X60901000Y-44101000D02*
G01*
X58799000Y-44101000D01*
X58799000Y-42499000D01*
X60901000Y-42499000D01*
X60901000Y-44101000D01*
G37*
G36*
X67201000Y-42951000D02*
G01*
X65099000Y-42951000D01*
X65099000Y-39049000D01*
X67201000Y-39049000D01*
X67201000Y-42951000D01*
G37*
G36*
X82401000Y-42141000D02*
G01*
X80599000Y-42141000D01*
X80599000Y-40339000D01*
X82401000Y-40339000D01*
X82401000Y-42141000D01*
G37*
G36*
X84153512Y-40343927D02*
G01*
X84302812Y-40373624D01*
X84466784Y-40441544D01*
X84614354Y-40540147D01*
X84739853Y-40665646D01*
X84838456Y-40813216D01*
X84906376Y-40977188D01*
X84941000Y-41151259D01*
X84941000Y-41328741D01*
X84906376Y-41502812D01*
X84838456Y-41666784D01*
X84739853Y-41814354D01*
X84614354Y-41939853D01*
X84466784Y-42038456D01*
X84302812Y-42106376D01*
X84153512Y-42136073D01*
X84128742Y-42141000D01*
X83951258Y-42141000D01*
X83926488Y-42136073D01*
X83777188Y-42106376D01*
X83613216Y-42038456D01*
X83465646Y-41939853D01*
X83340147Y-41814354D01*
X83241544Y-41666784D01*
X83173624Y-41502812D01*
X83139000Y-41328741D01*
X83139000Y-41151259D01*
X83173624Y-40977188D01*
X83241544Y-40813216D01*
X83340147Y-40665646D01*
X83465646Y-40540147D01*
X83613216Y-40441544D01*
X83777188Y-40373624D01*
X83926488Y-40343927D01*
X83951258Y-40339000D01*
X84128742Y-40339000D01*
X84153512Y-40343927D01*
G37*
G36*
X37889943Y-36066248D02*
G01*
X38445189Y-36296238D01*
X38693347Y-36462052D01*
X38944899Y-36630134D01*
X39369866Y-37055101D01*
X39518440Y-37277458D01*
X39703762Y-37554811D01*
X39933752Y-38110057D01*
X40051000Y-38699501D01*
X40051000Y-39300499D01*
X39933752Y-39889943D01*
X39703762Y-40445189D01*
X39703761Y-40445190D01*
X39369866Y-40944899D01*
X38944899Y-41369866D01*
X38804573Y-41463629D01*
X38445189Y-41703762D01*
X37889943Y-41933752D01*
X37300499Y-42051000D01*
X36699501Y-42051000D01*
X36110057Y-41933752D01*
X35554811Y-41703762D01*
X35195427Y-41463629D01*
X35055101Y-41369866D01*
X34630134Y-40944899D01*
X34296239Y-40445190D01*
X34296238Y-40445189D01*
X34066248Y-39889943D01*
X33949000Y-39300499D01*
X33949000Y-38699501D01*
X34066248Y-38110057D01*
X34296238Y-37554811D01*
X34481560Y-37277458D01*
X34630134Y-37055101D01*
X35055101Y-36630134D01*
X35306653Y-36462052D01*
X35554811Y-36296238D01*
X36110057Y-36066248D01*
X36699501Y-35949000D01*
X37300499Y-35949000D01*
X37889943Y-36066248D01*
G37*
G36*
X60901000Y-41801000D02*
G01*
X58799000Y-41801000D01*
X58799000Y-40199000D01*
X60901000Y-40199000D01*
X60901000Y-41801000D01*
G37*
G36*
X71917091Y-39178085D02*
G01*
X71951069Y-39188393D01*
X71982390Y-39205134D01*
X72009839Y-39227661D01*
X72032366Y-39255110D01*
X72049107Y-39286431D01*
X72059415Y-39320409D01*
X72063500Y-39361890D01*
X72063500Y-40038110D01*
X72059415Y-40079591D01*
X72049107Y-40113569D01*
X72032366Y-40144890D01*
X72009839Y-40172339D01*
X71982390Y-40194866D01*
X71951069Y-40211607D01*
X71917091Y-40221915D01*
X71875610Y-40226000D01*
X71274390Y-40226000D01*
X71232909Y-40221915D01*
X71198931Y-40211607D01*
X71167610Y-40194866D01*
X71140161Y-40172339D01*
X71117634Y-40144890D01*
X71100893Y-40113569D01*
X71090585Y-40079591D01*
X71086500Y-40038110D01*
X71086500Y-39361890D01*
X71090585Y-39320409D01*
X71100893Y-39286431D01*
X71117634Y-39255110D01*
X71140161Y-39227661D01*
X71167610Y-39205134D01*
X71198931Y-39188393D01*
X71232909Y-39178085D01*
X71274390Y-39174000D01*
X71875610Y-39174000D01*
X71917091Y-39178085D01*
G37*
G36*
X70342091Y-39178085D02*
G01*
X70376069Y-39188393D01*
X70407390Y-39205134D01*
X70434839Y-39227661D01*
X70457366Y-39255110D01*
X70474107Y-39286431D01*
X70484415Y-39320409D01*
X70488500Y-39361890D01*
X70488500Y-40038110D01*
X70484415Y-40079591D01*
X70474107Y-40113569D01*
X70457366Y-40144890D01*
X70434839Y-40172339D01*
X70407390Y-40194866D01*
X70376069Y-40211607D01*
X70342091Y-40221915D01*
X70300610Y-40226000D01*
X69699390Y-40226000D01*
X69657909Y-40221915D01*
X69623931Y-40211607D01*
X69592610Y-40194866D01*
X69565161Y-40172339D01*
X69542634Y-40144890D01*
X69525893Y-40113569D01*
X69515585Y-40079591D01*
X69511500Y-40038110D01*
X69511500Y-39361890D01*
X69515585Y-39320409D01*
X69525893Y-39286431D01*
X69542634Y-39255110D01*
X69565161Y-39227661D01*
X69592610Y-39205134D01*
X69623931Y-39188393D01*
X69657909Y-39178085D01*
X69699390Y-39174000D01*
X70300610Y-39174000D01*
X70342091Y-39178085D01*
G37*
G36*
X84153512Y-37803927D02*
G01*
X84302812Y-37833624D01*
X84466784Y-37901544D01*
X84614354Y-38000147D01*
X84739853Y-38125646D01*
X84838456Y-38273216D01*
X84906376Y-38437188D01*
X84941000Y-38611259D01*
X84941000Y-38788741D01*
X84906376Y-38962812D01*
X84838456Y-39126784D01*
X84739853Y-39274354D01*
X84614354Y-39399853D01*
X84466784Y-39498456D01*
X84302812Y-39566376D01*
X84153512Y-39596073D01*
X84128742Y-39601000D01*
X83951258Y-39601000D01*
X83926488Y-39596073D01*
X83777188Y-39566376D01*
X83613216Y-39498456D01*
X83465646Y-39399853D01*
X83340147Y-39274354D01*
X83241544Y-39126784D01*
X83173624Y-38962812D01*
X83139000Y-38788741D01*
X83139000Y-38611259D01*
X83173624Y-38437188D01*
X83241544Y-38273216D01*
X83340147Y-38125646D01*
X83465646Y-38000147D01*
X83613216Y-37901544D01*
X83777188Y-37833624D01*
X83926488Y-37803927D01*
X83951258Y-37799000D01*
X84128742Y-37799000D01*
X84153512Y-37803927D01*
G37*
G36*
X81613512Y-37803927D02*
G01*
X81762812Y-37833624D01*
X81926784Y-37901544D01*
X82074354Y-38000147D01*
X82199853Y-38125646D01*
X82298456Y-38273216D01*
X82366376Y-38437188D01*
X82401000Y-38611259D01*
X82401000Y-38788741D01*
X82366376Y-38962812D01*
X82298456Y-39126784D01*
X82199853Y-39274354D01*
X82074354Y-39399853D01*
X81926784Y-39498456D01*
X81762812Y-39566376D01*
X81613512Y-39596073D01*
X81588742Y-39601000D01*
X81411258Y-39601000D01*
X81386488Y-39596073D01*
X81237188Y-39566376D01*
X81073216Y-39498456D01*
X80925646Y-39399853D01*
X80800147Y-39274354D01*
X80701544Y-39126784D01*
X80633624Y-38962812D01*
X80599000Y-38788741D01*
X80599000Y-38611259D01*
X80633624Y-38437188D01*
X80701544Y-38273216D01*
X80800147Y-38125646D01*
X80925646Y-38000147D01*
X81073216Y-37901544D01*
X81237188Y-37833624D01*
X81386488Y-37803927D01*
X81411258Y-37799000D01*
X81588742Y-37799000D01*
X81613512Y-37803927D01*
G37*
G36*
X60901000Y-39501000D02*
G01*
X58799000Y-39501000D01*
X58799000Y-37899000D01*
X60901000Y-37899000D01*
X60901000Y-39501000D01*
G37*
G36*
X70396968Y-36753565D02*
G01*
X70435638Y-36765296D01*
X70471277Y-36784346D01*
X70502517Y-36809983D01*
X70528154Y-36841223D01*
X70547204Y-36876862D01*
X70558935Y-36915532D01*
X70563500Y-36961888D01*
X70563500Y-38038112D01*
X70558935Y-38084468D01*
X70547204Y-38123138D01*
X70528154Y-38158777D01*
X70502517Y-38190017D01*
X70471277Y-38215654D01*
X70435638Y-38234704D01*
X70396968Y-38246435D01*
X70350612Y-38251000D01*
X69699388Y-38251000D01*
X69653032Y-38246435D01*
X69614362Y-38234704D01*
X69578723Y-38215654D01*
X69547483Y-38190017D01*
X69521846Y-38158777D01*
X69502796Y-38123138D01*
X69491065Y-38084468D01*
X69486500Y-38038112D01*
X69486500Y-36961888D01*
X69491065Y-36915532D01*
X69502796Y-36876862D01*
X69521846Y-36841223D01*
X69547483Y-36809983D01*
X69578723Y-36784346D01*
X69614362Y-36765296D01*
X69653032Y-36753565D01*
X69699388Y-36749000D01*
X70350612Y-36749000D01*
X70396968Y-36753565D01*
G37*
G36*
X72271968Y-36753565D02*
G01*
X72310638Y-36765296D01*
X72346277Y-36784346D01*
X72377517Y-36809983D01*
X72403154Y-36841223D01*
X72422204Y-36876862D01*
X72433935Y-36915532D01*
X72438500Y-36961888D01*
X72438500Y-38038112D01*
X72433935Y-38084468D01*
X72422204Y-38123138D01*
X72403154Y-38158777D01*
X72377517Y-38190017D01*
X72346277Y-38215654D01*
X72310638Y-38234704D01*
X72271968Y-38246435D01*
X72225612Y-38251000D01*
X71574388Y-38251000D01*
X71528032Y-38246435D01*
X71489362Y-38234704D01*
X71453723Y-38215654D01*
X71422483Y-38190017D01*
X71396846Y-38158777D01*
X71377796Y-38123138D01*
X71366065Y-38084468D01*
X71361500Y-38038112D01*
X71361500Y-36961888D01*
X71366065Y-36915532D01*
X71377796Y-36876862D01*
X71396846Y-36841223D01*
X71422483Y-36809983D01*
X71453723Y-36784346D01*
X71489362Y-36765296D01*
X71528032Y-36753565D01*
X71574388Y-36749000D01*
X72225612Y-36749000D01*
X72271968Y-36753565D01*
G37*
M02*
