G04 #@! TF.GenerationSoftware,KiCad,Pcbnew,(5.1.5-0-10_14)*
G04 #@! TF.CreationDate,2020-09-28T20:16:59+02:00*
G04 #@! TF.ProjectId,max_power,6d61785f-706f-4776-9572-2e6b69636164,rev?*
G04 #@! TF.SameCoordinates,Original*
G04 #@! TF.FileFunction,Soldermask,Bot*
G04 #@! TF.FilePolarity,Negative*
%FSLAX46Y46*%
G04 Gerber Fmt 4.6, Leading zero omitted, Abs format (unit mm)*
G04 Created by KiCad (PCBNEW (5.1.5-0-10_14)) date 2020-09-28 20:16:59*
%MOMM*%
%LPD*%
G04 APERTURE LIST*
%ADD10C,0.100000*%
G04 APERTURE END LIST*
D10*
G36*
X37889943Y-83066248D02*
G01*
X38445189Y-83296238D01*
X38693347Y-83462052D01*
X38944899Y-83630134D01*
X39369866Y-84055101D01*
X39518440Y-84277458D01*
X39703762Y-84554811D01*
X39933752Y-85110057D01*
X40051000Y-85699501D01*
X40051000Y-86300499D01*
X39933752Y-86889943D01*
X39703762Y-87445189D01*
X39703761Y-87445190D01*
X39369866Y-87944899D01*
X38944899Y-88369866D01*
X38804573Y-88463629D01*
X38445189Y-88703762D01*
X37889943Y-88933752D01*
X37300499Y-89051000D01*
X36699501Y-89051000D01*
X36110057Y-88933752D01*
X35554811Y-88703762D01*
X35195427Y-88463629D01*
X35055101Y-88369866D01*
X34630134Y-87944899D01*
X34296239Y-87445190D01*
X34296238Y-87445189D01*
X34066248Y-86889943D01*
X33949000Y-86300499D01*
X33949000Y-85699501D01*
X34066248Y-85110057D01*
X34296238Y-84554811D01*
X34481560Y-84277458D01*
X34630134Y-84055101D01*
X35055101Y-83630134D01*
X35306653Y-83462052D01*
X35554811Y-83296238D01*
X36110057Y-83066248D01*
X36699501Y-82949000D01*
X37300499Y-82949000D01*
X37889943Y-83066248D01*
G37*
G36*
X84153512Y-85403927D02*
G01*
X84302812Y-85433624D01*
X84466784Y-85501544D01*
X84614354Y-85600147D01*
X84739853Y-85725646D01*
X84838456Y-85873216D01*
X84906376Y-86037188D01*
X84941000Y-86211259D01*
X84941000Y-86388741D01*
X84906376Y-86562812D01*
X84838456Y-86726784D01*
X84739853Y-86874354D01*
X84614354Y-86999853D01*
X84466784Y-87098456D01*
X84302812Y-87166376D01*
X84153512Y-87196073D01*
X84128742Y-87201000D01*
X83951258Y-87201000D01*
X83926488Y-87196073D01*
X83777188Y-87166376D01*
X83613216Y-87098456D01*
X83465646Y-86999853D01*
X83340147Y-86874354D01*
X83241544Y-86726784D01*
X83173624Y-86562812D01*
X83139000Y-86388741D01*
X83139000Y-86211259D01*
X83173624Y-86037188D01*
X83241544Y-85873216D01*
X83340147Y-85725646D01*
X83465646Y-85600147D01*
X83613216Y-85501544D01*
X83777188Y-85433624D01*
X83926488Y-85403927D01*
X83951258Y-85399000D01*
X84128742Y-85399000D01*
X84153512Y-85403927D01*
G37*
G36*
X82401000Y-87201000D02*
G01*
X80599000Y-87201000D01*
X80599000Y-85399000D01*
X82401000Y-85399000D01*
X82401000Y-87201000D01*
G37*
G36*
X50446228Y-84913483D02*
G01*
X50634922Y-84970723D01*
X50808815Y-85063671D01*
X50961239Y-85188761D01*
X51086329Y-85341185D01*
X51179277Y-85515078D01*
X51236517Y-85703772D01*
X51255843Y-85900000D01*
X51236517Y-86096228D01*
X51179277Y-86284922D01*
X51086329Y-86458815D01*
X50961239Y-86611239D01*
X50808815Y-86736329D01*
X50634922Y-86829277D01*
X50446228Y-86886517D01*
X50299175Y-86901000D01*
X50000825Y-86901000D01*
X49853772Y-86886517D01*
X49665078Y-86829277D01*
X49491185Y-86736329D01*
X49338761Y-86611239D01*
X49213671Y-86458815D01*
X49120723Y-86284922D01*
X49063483Y-86096228D01*
X49044157Y-85900000D01*
X49063483Y-85703772D01*
X49120723Y-85515078D01*
X49213671Y-85341185D01*
X49338761Y-85188761D01*
X49491185Y-85063671D01*
X49665078Y-84970723D01*
X49853772Y-84913483D01*
X50000825Y-84899000D01*
X50299175Y-84899000D01*
X50446228Y-84913483D01*
G37*
G36*
X45646228Y-84913483D02*
G01*
X45834922Y-84970723D01*
X46008815Y-85063671D01*
X46161239Y-85188761D01*
X46286329Y-85341185D01*
X46379277Y-85515078D01*
X46436517Y-85703772D01*
X46455843Y-85900000D01*
X46436517Y-86096228D01*
X46379277Y-86284922D01*
X46286329Y-86458815D01*
X46161239Y-86611239D01*
X46008815Y-86736329D01*
X45834922Y-86829277D01*
X45646228Y-86886517D01*
X45499175Y-86901000D01*
X45200825Y-86901000D01*
X45053772Y-86886517D01*
X44865078Y-86829277D01*
X44691185Y-86736329D01*
X44538761Y-86611239D01*
X44413671Y-86458815D01*
X44320723Y-86284922D01*
X44263483Y-86096228D01*
X44244157Y-85900000D01*
X44263483Y-85703772D01*
X44320723Y-85515078D01*
X44413671Y-85341185D01*
X44538761Y-85188761D01*
X44691185Y-85063671D01*
X44865078Y-84970723D01*
X45053772Y-84913483D01*
X45200825Y-84899000D01*
X45499175Y-84899000D01*
X45646228Y-84913483D01*
G37*
G36*
X84153512Y-82863927D02*
G01*
X84302812Y-82893624D01*
X84466784Y-82961544D01*
X84614354Y-83060147D01*
X84739853Y-83185646D01*
X84838456Y-83333216D01*
X84906376Y-83497188D01*
X84941000Y-83671259D01*
X84941000Y-83848741D01*
X84906376Y-84022812D01*
X84838456Y-84186784D01*
X84739853Y-84334354D01*
X84614354Y-84459853D01*
X84466784Y-84558456D01*
X84302812Y-84626376D01*
X84153512Y-84656073D01*
X84128742Y-84661000D01*
X83951258Y-84661000D01*
X83926488Y-84656073D01*
X83777188Y-84626376D01*
X83613216Y-84558456D01*
X83465646Y-84459853D01*
X83340147Y-84334354D01*
X83241544Y-84186784D01*
X83173624Y-84022812D01*
X83139000Y-83848741D01*
X83139000Y-83671259D01*
X83173624Y-83497188D01*
X83241544Y-83333216D01*
X83340147Y-83185646D01*
X83465646Y-83060147D01*
X83613216Y-82961544D01*
X83777188Y-82893624D01*
X83926488Y-82863927D01*
X83951258Y-82859000D01*
X84128742Y-82859000D01*
X84153512Y-82863927D01*
G37*
G36*
X81613512Y-82863927D02*
G01*
X81762812Y-82893624D01*
X81926784Y-82961544D01*
X82074354Y-83060147D01*
X82199853Y-83185646D01*
X82298456Y-83333216D01*
X82366376Y-83497188D01*
X82401000Y-83671259D01*
X82401000Y-83848741D01*
X82366376Y-84022812D01*
X82298456Y-84186784D01*
X82199853Y-84334354D01*
X82074354Y-84459853D01*
X81926784Y-84558456D01*
X81762812Y-84626376D01*
X81613512Y-84656073D01*
X81588742Y-84661000D01*
X81411258Y-84661000D01*
X81386488Y-84656073D01*
X81237188Y-84626376D01*
X81073216Y-84558456D01*
X80925646Y-84459853D01*
X80800147Y-84334354D01*
X80701544Y-84186784D01*
X80633624Y-84022812D01*
X80599000Y-83848741D01*
X80599000Y-83671259D01*
X80633624Y-83497188D01*
X80701544Y-83333216D01*
X80800147Y-83185646D01*
X80925646Y-83060147D01*
X81073216Y-82961544D01*
X81237188Y-82893624D01*
X81386488Y-82863927D01*
X81411258Y-82859000D01*
X81588742Y-82859000D01*
X81613512Y-82863927D01*
G37*
G36*
X50446228Y-80213483D02*
G01*
X50634922Y-80270723D01*
X50808815Y-80363671D01*
X50961239Y-80488761D01*
X51086329Y-80641185D01*
X51179277Y-80815078D01*
X51236517Y-81003772D01*
X51255843Y-81200000D01*
X51236517Y-81396228D01*
X51179277Y-81584922D01*
X51086329Y-81758815D01*
X50961239Y-81911239D01*
X50808815Y-82036329D01*
X50634922Y-82129277D01*
X50446228Y-82186517D01*
X50299175Y-82201000D01*
X50000825Y-82201000D01*
X49853772Y-82186517D01*
X49665078Y-82129277D01*
X49491185Y-82036329D01*
X49338761Y-81911239D01*
X49213671Y-81758815D01*
X49120723Y-81584922D01*
X49063483Y-81396228D01*
X49044157Y-81200000D01*
X49063483Y-81003772D01*
X49120723Y-80815078D01*
X49213671Y-80641185D01*
X49338761Y-80488761D01*
X49491185Y-80363671D01*
X49665078Y-80270723D01*
X49853772Y-80213483D01*
X50000825Y-80199000D01*
X50299175Y-80199000D01*
X50446228Y-80213483D01*
G37*
G36*
X45646228Y-80213483D02*
G01*
X45834922Y-80270723D01*
X46008815Y-80363671D01*
X46161239Y-80488761D01*
X46286329Y-80641185D01*
X46379277Y-80815078D01*
X46436517Y-81003772D01*
X46455843Y-81200000D01*
X46436517Y-81396228D01*
X46379277Y-81584922D01*
X46286329Y-81758815D01*
X46161239Y-81911239D01*
X46008815Y-82036329D01*
X45834922Y-82129277D01*
X45646228Y-82186517D01*
X45499175Y-82201000D01*
X45200825Y-82201000D01*
X45053772Y-82186517D01*
X44865078Y-82129277D01*
X44691185Y-82036329D01*
X44538761Y-81911239D01*
X44413671Y-81758815D01*
X44320723Y-81584922D01*
X44263483Y-81396228D01*
X44244157Y-81200000D01*
X44263483Y-81003772D01*
X44320723Y-80815078D01*
X44413671Y-80641185D01*
X44538761Y-80488761D01*
X44691185Y-80363671D01*
X44865078Y-80270723D01*
X45053772Y-80213483D01*
X45200825Y-80199000D01*
X45499175Y-80199000D01*
X45646228Y-80213483D01*
G37*
G36*
X59193512Y-78043927D02*
G01*
X59342812Y-78073624D01*
X59506784Y-78141544D01*
X59654354Y-78240147D01*
X59779853Y-78365646D01*
X59878456Y-78513216D01*
X59946376Y-78677188D01*
X59981000Y-78851259D01*
X59981000Y-79028741D01*
X59946376Y-79202812D01*
X59878456Y-79366784D01*
X59779853Y-79514354D01*
X59654354Y-79639853D01*
X59506784Y-79738456D01*
X59342812Y-79806376D01*
X59193512Y-79836073D01*
X59168742Y-79841000D01*
X58991258Y-79841000D01*
X58966488Y-79836073D01*
X58817188Y-79806376D01*
X58653216Y-79738456D01*
X58505646Y-79639853D01*
X58380147Y-79514354D01*
X58281544Y-79366784D01*
X58213624Y-79202812D01*
X58179000Y-79028741D01*
X58179000Y-78851259D01*
X58213624Y-78677188D01*
X58281544Y-78513216D01*
X58380147Y-78365646D01*
X58505646Y-78240147D01*
X58653216Y-78141544D01*
X58817188Y-78073624D01*
X58966488Y-78043927D01*
X58991258Y-78039000D01*
X59168742Y-78039000D01*
X59193512Y-78043927D01*
G37*
G36*
X61733512Y-78043927D02*
G01*
X61882812Y-78073624D01*
X62046784Y-78141544D01*
X62194354Y-78240147D01*
X62319853Y-78365646D01*
X62418456Y-78513216D01*
X62486376Y-78677188D01*
X62521000Y-78851259D01*
X62521000Y-79028741D01*
X62486376Y-79202812D01*
X62418456Y-79366784D01*
X62319853Y-79514354D01*
X62194354Y-79639853D01*
X62046784Y-79738456D01*
X61882812Y-79806376D01*
X61733512Y-79836073D01*
X61708742Y-79841000D01*
X61531258Y-79841000D01*
X61506488Y-79836073D01*
X61357188Y-79806376D01*
X61193216Y-79738456D01*
X61045646Y-79639853D01*
X60920147Y-79514354D01*
X60821544Y-79366784D01*
X60753624Y-79202812D01*
X60719000Y-79028741D01*
X60719000Y-78851259D01*
X60753624Y-78677188D01*
X60821544Y-78513216D01*
X60920147Y-78365646D01*
X61045646Y-78240147D01*
X61193216Y-78141544D01*
X61357188Y-78073624D01*
X61506488Y-78043927D01*
X61531258Y-78039000D01*
X61708742Y-78039000D01*
X61733512Y-78043927D01*
G37*
G36*
X64273512Y-78043927D02*
G01*
X64422812Y-78073624D01*
X64586784Y-78141544D01*
X64734354Y-78240147D01*
X64859853Y-78365646D01*
X64958456Y-78513216D01*
X65026376Y-78677188D01*
X65061000Y-78851259D01*
X65061000Y-79028741D01*
X65026376Y-79202812D01*
X64958456Y-79366784D01*
X64859853Y-79514354D01*
X64734354Y-79639853D01*
X64586784Y-79738456D01*
X64422812Y-79806376D01*
X64273512Y-79836073D01*
X64248742Y-79841000D01*
X64071258Y-79841000D01*
X64046488Y-79836073D01*
X63897188Y-79806376D01*
X63733216Y-79738456D01*
X63585646Y-79639853D01*
X63460147Y-79514354D01*
X63361544Y-79366784D01*
X63293624Y-79202812D01*
X63259000Y-79028741D01*
X63259000Y-78851259D01*
X63293624Y-78677188D01*
X63361544Y-78513216D01*
X63460147Y-78365646D01*
X63585646Y-78240147D01*
X63733216Y-78141544D01*
X63897188Y-78073624D01*
X64046488Y-78043927D01*
X64071258Y-78039000D01*
X64248742Y-78039000D01*
X64273512Y-78043927D01*
G37*
G36*
X66813512Y-78043927D02*
G01*
X66962812Y-78073624D01*
X67126784Y-78141544D01*
X67274354Y-78240147D01*
X67399853Y-78365646D01*
X67498456Y-78513216D01*
X67566376Y-78677188D01*
X67601000Y-78851259D01*
X67601000Y-79028741D01*
X67566376Y-79202812D01*
X67498456Y-79366784D01*
X67399853Y-79514354D01*
X67274354Y-79639853D01*
X67126784Y-79738456D01*
X66962812Y-79806376D01*
X66813512Y-79836073D01*
X66788742Y-79841000D01*
X66611258Y-79841000D01*
X66586488Y-79836073D01*
X66437188Y-79806376D01*
X66273216Y-79738456D01*
X66125646Y-79639853D01*
X66000147Y-79514354D01*
X65901544Y-79366784D01*
X65833624Y-79202812D01*
X65799000Y-79028741D01*
X65799000Y-78851259D01*
X65833624Y-78677188D01*
X65901544Y-78513216D01*
X66000147Y-78365646D01*
X66125646Y-78240147D01*
X66273216Y-78141544D01*
X66437188Y-78073624D01*
X66586488Y-78043927D01*
X66611258Y-78039000D01*
X66788742Y-78039000D01*
X66813512Y-78043927D01*
G37*
G36*
X50446228Y-75513483D02*
G01*
X50634922Y-75570723D01*
X50808815Y-75663671D01*
X50961239Y-75788761D01*
X51086329Y-75941185D01*
X51179277Y-76115078D01*
X51236517Y-76303772D01*
X51255843Y-76500000D01*
X51236517Y-76696228D01*
X51179277Y-76884922D01*
X51086329Y-77058815D01*
X50961239Y-77211239D01*
X50808815Y-77336329D01*
X50634922Y-77429277D01*
X50446228Y-77486517D01*
X50299175Y-77501000D01*
X50000825Y-77501000D01*
X49853772Y-77486517D01*
X49665078Y-77429277D01*
X49491185Y-77336329D01*
X49338761Y-77211239D01*
X49213671Y-77058815D01*
X49120723Y-76884922D01*
X49063483Y-76696228D01*
X49044157Y-76500000D01*
X49063483Y-76303772D01*
X49120723Y-76115078D01*
X49213671Y-75941185D01*
X49338761Y-75788761D01*
X49491185Y-75663671D01*
X49665078Y-75570723D01*
X49853772Y-75513483D01*
X50000825Y-75499000D01*
X50299175Y-75499000D01*
X50446228Y-75513483D01*
G37*
G36*
X46451000Y-77501000D02*
G01*
X44249000Y-77501000D01*
X44249000Y-75499000D01*
X46451000Y-75499000D01*
X46451000Y-77501000D01*
G37*
G36*
X61733512Y-75503927D02*
G01*
X61882812Y-75533624D01*
X62046784Y-75601544D01*
X62194354Y-75700147D01*
X62319853Y-75825646D01*
X62418456Y-75973216D01*
X62486376Y-76137188D01*
X62516073Y-76286488D01*
X62519511Y-76303770D01*
X62521000Y-76311259D01*
X62521000Y-76488741D01*
X62486376Y-76662812D01*
X62418456Y-76826784D01*
X62319853Y-76974354D01*
X62194354Y-77099853D01*
X62046784Y-77198456D01*
X61882812Y-77266376D01*
X61733512Y-77296073D01*
X61708742Y-77301000D01*
X61531258Y-77301000D01*
X61506488Y-77296073D01*
X61357188Y-77266376D01*
X61193216Y-77198456D01*
X61045646Y-77099853D01*
X60920147Y-76974354D01*
X60821544Y-76826784D01*
X60753624Y-76662812D01*
X60719000Y-76488741D01*
X60719000Y-76311259D01*
X60720490Y-76303770D01*
X60723927Y-76286488D01*
X60753624Y-76137188D01*
X60821544Y-75973216D01*
X60920147Y-75825646D01*
X61045646Y-75700147D01*
X61193216Y-75601544D01*
X61357188Y-75533624D01*
X61506488Y-75503927D01*
X61531258Y-75499000D01*
X61708742Y-75499000D01*
X61733512Y-75503927D01*
G37*
G36*
X67601000Y-77301000D02*
G01*
X65799000Y-77301000D01*
X65799000Y-75499000D01*
X67601000Y-75499000D01*
X67601000Y-77301000D01*
G37*
G36*
X64273512Y-75503927D02*
G01*
X64422812Y-75533624D01*
X64586784Y-75601544D01*
X64734354Y-75700147D01*
X64859853Y-75825646D01*
X64958456Y-75973216D01*
X65026376Y-76137188D01*
X65056073Y-76286488D01*
X65059511Y-76303770D01*
X65061000Y-76311259D01*
X65061000Y-76488741D01*
X65026376Y-76662812D01*
X64958456Y-76826784D01*
X64859853Y-76974354D01*
X64734354Y-77099853D01*
X64586784Y-77198456D01*
X64422812Y-77266376D01*
X64273512Y-77296073D01*
X64248742Y-77301000D01*
X64071258Y-77301000D01*
X64046488Y-77296073D01*
X63897188Y-77266376D01*
X63733216Y-77198456D01*
X63585646Y-77099853D01*
X63460147Y-76974354D01*
X63361544Y-76826784D01*
X63293624Y-76662812D01*
X63259000Y-76488741D01*
X63259000Y-76311259D01*
X63260490Y-76303770D01*
X63263927Y-76286488D01*
X63293624Y-76137188D01*
X63361544Y-75973216D01*
X63460147Y-75825646D01*
X63585646Y-75700147D01*
X63733216Y-75601544D01*
X63897188Y-75533624D01*
X64046488Y-75503927D01*
X64071258Y-75499000D01*
X64248742Y-75499000D01*
X64273512Y-75503927D01*
G37*
G36*
X59193512Y-75503927D02*
G01*
X59342812Y-75533624D01*
X59506784Y-75601544D01*
X59654354Y-75700147D01*
X59779853Y-75825646D01*
X59878456Y-75973216D01*
X59946376Y-76137188D01*
X59976073Y-76286488D01*
X59979511Y-76303770D01*
X59981000Y-76311259D01*
X59981000Y-76488741D01*
X59946376Y-76662812D01*
X59878456Y-76826784D01*
X59779853Y-76974354D01*
X59654354Y-77099853D01*
X59506784Y-77198456D01*
X59342812Y-77266376D01*
X59193512Y-77296073D01*
X59168742Y-77301000D01*
X58991258Y-77301000D01*
X58966488Y-77296073D01*
X58817188Y-77266376D01*
X58653216Y-77198456D01*
X58505646Y-77099853D01*
X58380147Y-76974354D01*
X58281544Y-76826784D01*
X58213624Y-76662812D01*
X58179000Y-76488741D01*
X58179000Y-76311259D01*
X58180490Y-76303770D01*
X58183927Y-76286488D01*
X58213624Y-76137188D01*
X58281544Y-75973216D01*
X58380147Y-75825646D01*
X58505646Y-75700147D01*
X58653216Y-75601544D01*
X58817188Y-75533624D01*
X58966488Y-75503927D01*
X58991258Y-75499000D01*
X59168742Y-75499000D01*
X59193512Y-75503927D01*
G37*
G36*
X68901000Y-68901000D02*
G01*
X67099000Y-68901000D01*
X67099000Y-67099000D01*
X68901000Y-67099000D01*
X68901000Y-68901000D01*
G37*
G36*
X63901000Y-68901000D02*
G01*
X62099000Y-68901000D01*
X62099000Y-67099000D01*
X63901000Y-67099000D01*
X63901000Y-68901000D01*
G37*
G36*
X53901000Y-68901000D02*
G01*
X52099000Y-68901000D01*
X52099000Y-67099000D01*
X53901000Y-67099000D01*
X53901000Y-68901000D01*
G37*
G36*
X58901000Y-68901000D02*
G01*
X57099000Y-68901000D01*
X57099000Y-67099000D01*
X58901000Y-67099000D01*
X58901000Y-68901000D01*
G37*
G36*
X38126778Y-65780547D02*
G01*
X38293224Y-65849491D01*
X38443022Y-65949583D01*
X38570417Y-66076978D01*
X38670509Y-66226776D01*
X38739453Y-66393222D01*
X38774600Y-66569918D01*
X38774600Y-66750082D01*
X38739453Y-66926778D01*
X38670509Y-67093224D01*
X38570417Y-67243022D01*
X38443022Y-67370417D01*
X38293224Y-67470509D01*
X38126778Y-67539453D01*
X37950082Y-67574600D01*
X37769918Y-67574600D01*
X37593222Y-67539453D01*
X37426776Y-67470509D01*
X37276978Y-67370417D01*
X37149583Y-67243022D01*
X37049491Y-67093224D01*
X36980547Y-66926778D01*
X36945400Y-66750082D01*
X36945400Y-66569918D01*
X36980547Y-66393222D01*
X37049491Y-66226776D01*
X37149583Y-66076978D01*
X37276978Y-65949583D01*
X37426776Y-65849491D01*
X37593222Y-65780547D01*
X37769918Y-65745400D01*
X37950082Y-65745400D01*
X38126778Y-65780547D01*
G37*
G36*
X40666778Y-65780547D02*
G01*
X40833224Y-65849491D01*
X40983022Y-65949583D01*
X41110417Y-66076978D01*
X41210509Y-66226776D01*
X41279453Y-66393222D01*
X41314600Y-66569918D01*
X41314600Y-66750082D01*
X41279453Y-66926778D01*
X41210509Y-67093224D01*
X41110417Y-67243022D01*
X40983022Y-67370417D01*
X40833224Y-67470509D01*
X40666778Y-67539453D01*
X40490082Y-67574600D01*
X40309918Y-67574600D01*
X40133222Y-67539453D01*
X39966776Y-67470509D01*
X39816978Y-67370417D01*
X39689583Y-67243022D01*
X39589491Y-67093224D01*
X39520547Y-66926778D01*
X39485400Y-66750082D01*
X39485400Y-66569918D01*
X39520547Y-66393222D01*
X39589491Y-66226776D01*
X39689583Y-66076978D01*
X39816978Y-65949583D01*
X39966776Y-65849491D01*
X40133222Y-65780547D01*
X40309918Y-65745400D01*
X40490082Y-65745400D01*
X40666778Y-65780547D01*
G37*
G36*
X63113512Y-64563927D02*
G01*
X63262812Y-64593624D01*
X63426784Y-64661544D01*
X63574354Y-64760147D01*
X63699853Y-64885646D01*
X63798456Y-65033216D01*
X63866376Y-65197188D01*
X63901000Y-65371259D01*
X63901000Y-65548741D01*
X63866376Y-65722812D01*
X63798456Y-65886784D01*
X63699853Y-66034354D01*
X63574354Y-66159853D01*
X63426784Y-66258456D01*
X63262812Y-66326376D01*
X63113512Y-66356073D01*
X63088742Y-66361000D01*
X62911258Y-66361000D01*
X62886488Y-66356073D01*
X62737188Y-66326376D01*
X62573216Y-66258456D01*
X62425646Y-66159853D01*
X62300147Y-66034354D01*
X62201544Y-65886784D01*
X62133624Y-65722812D01*
X62099000Y-65548741D01*
X62099000Y-65371259D01*
X62133624Y-65197188D01*
X62201544Y-65033216D01*
X62300147Y-64885646D01*
X62425646Y-64760147D01*
X62573216Y-64661544D01*
X62737188Y-64593624D01*
X62886488Y-64563927D01*
X62911258Y-64559000D01*
X63088742Y-64559000D01*
X63113512Y-64563927D01*
G37*
G36*
X68113512Y-64563927D02*
G01*
X68262812Y-64593624D01*
X68426784Y-64661544D01*
X68574354Y-64760147D01*
X68699853Y-64885646D01*
X68798456Y-65033216D01*
X68866376Y-65197188D01*
X68901000Y-65371259D01*
X68901000Y-65548741D01*
X68866376Y-65722812D01*
X68798456Y-65886784D01*
X68699853Y-66034354D01*
X68574354Y-66159853D01*
X68426784Y-66258456D01*
X68262812Y-66326376D01*
X68113512Y-66356073D01*
X68088742Y-66361000D01*
X67911258Y-66361000D01*
X67886488Y-66356073D01*
X67737188Y-66326376D01*
X67573216Y-66258456D01*
X67425646Y-66159853D01*
X67300147Y-66034354D01*
X67201544Y-65886784D01*
X67133624Y-65722812D01*
X67099000Y-65548741D01*
X67099000Y-65371259D01*
X67133624Y-65197188D01*
X67201544Y-65033216D01*
X67300147Y-64885646D01*
X67425646Y-64760147D01*
X67573216Y-64661544D01*
X67737188Y-64593624D01*
X67886488Y-64563927D01*
X67911258Y-64559000D01*
X68088742Y-64559000D01*
X68113512Y-64563927D01*
G37*
G36*
X53113512Y-64563927D02*
G01*
X53262812Y-64593624D01*
X53426784Y-64661544D01*
X53574354Y-64760147D01*
X53699853Y-64885646D01*
X53798456Y-65033216D01*
X53866376Y-65197188D01*
X53901000Y-65371259D01*
X53901000Y-65548741D01*
X53866376Y-65722812D01*
X53798456Y-65886784D01*
X53699853Y-66034354D01*
X53574354Y-66159853D01*
X53426784Y-66258456D01*
X53262812Y-66326376D01*
X53113512Y-66356073D01*
X53088742Y-66361000D01*
X52911258Y-66361000D01*
X52886488Y-66356073D01*
X52737188Y-66326376D01*
X52573216Y-66258456D01*
X52425646Y-66159853D01*
X52300147Y-66034354D01*
X52201544Y-65886784D01*
X52133624Y-65722812D01*
X52099000Y-65548741D01*
X52099000Y-65371259D01*
X52133624Y-65197188D01*
X52201544Y-65033216D01*
X52300147Y-64885646D01*
X52425646Y-64760147D01*
X52573216Y-64661544D01*
X52737188Y-64593624D01*
X52886488Y-64563927D01*
X52911258Y-64559000D01*
X53088742Y-64559000D01*
X53113512Y-64563927D01*
G37*
G36*
X58113512Y-64563927D02*
G01*
X58262812Y-64593624D01*
X58426784Y-64661544D01*
X58574354Y-64760147D01*
X58699853Y-64885646D01*
X58798456Y-65033216D01*
X58866376Y-65197188D01*
X58901000Y-65371259D01*
X58901000Y-65548741D01*
X58866376Y-65722812D01*
X58798456Y-65886784D01*
X58699853Y-66034354D01*
X58574354Y-66159853D01*
X58426784Y-66258456D01*
X58262812Y-66326376D01*
X58113512Y-66356073D01*
X58088742Y-66361000D01*
X57911258Y-66361000D01*
X57886488Y-66356073D01*
X57737188Y-66326376D01*
X57573216Y-66258456D01*
X57425646Y-66159853D01*
X57300147Y-66034354D01*
X57201544Y-65886784D01*
X57133624Y-65722812D01*
X57099000Y-65548741D01*
X57099000Y-65371259D01*
X57133624Y-65197188D01*
X57201544Y-65033216D01*
X57300147Y-64885646D01*
X57425646Y-64760147D01*
X57573216Y-64661544D01*
X57737188Y-64593624D01*
X57886488Y-64563927D01*
X57911258Y-64559000D01*
X58088742Y-64559000D01*
X58113512Y-64563927D01*
G37*
G36*
X40666778Y-63240547D02*
G01*
X40833224Y-63309491D01*
X40983022Y-63409583D01*
X41110417Y-63536978D01*
X41210509Y-63686776D01*
X41279453Y-63853222D01*
X41314600Y-64029918D01*
X41314600Y-64210082D01*
X41279453Y-64386778D01*
X41210509Y-64553224D01*
X41110417Y-64703022D01*
X40983022Y-64830417D01*
X40833224Y-64930509D01*
X40666778Y-64999453D01*
X40490082Y-65034600D01*
X40309918Y-65034600D01*
X40133222Y-64999453D01*
X39966776Y-64930509D01*
X39816978Y-64830417D01*
X39689583Y-64703022D01*
X39589491Y-64553224D01*
X39520547Y-64386778D01*
X39485400Y-64210082D01*
X39485400Y-64029918D01*
X39520547Y-63853222D01*
X39589491Y-63686776D01*
X39689583Y-63536978D01*
X39816978Y-63409583D01*
X39966776Y-63309491D01*
X40133222Y-63240547D01*
X40309918Y-63205400D01*
X40490082Y-63205400D01*
X40666778Y-63240547D01*
G37*
G36*
X38126778Y-63240547D02*
G01*
X38293224Y-63309491D01*
X38443022Y-63409583D01*
X38570417Y-63536978D01*
X38670509Y-63686776D01*
X38739453Y-63853222D01*
X38774600Y-64029918D01*
X38774600Y-64210082D01*
X38739453Y-64386778D01*
X38670509Y-64553224D01*
X38570417Y-64703022D01*
X38443022Y-64830417D01*
X38293224Y-64930509D01*
X38126778Y-64999453D01*
X37950082Y-65034600D01*
X37769918Y-65034600D01*
X37593222Y-64999453D01*
X37426776Y-64930509D01*
X37276978Y-64830417D01*
X37149583Y-64703022D01*
X37049491Y-64553224D01*
X36980547Y-64386778D01*
X36945400Y-64210082D01*
X36945400Y-64029918D01*
X36980547Y-63853222D01*
X37049491Y-63686776D01*
X37149583Y-63536978D01*
X37276978Y-63409583D01*
X37426776Y-63309491D01*
X37593222Y-63240547D01*
X37769918Y-63205400D01*
X37950082Y-63205400D01*
X38126778Y-63240547D01*
G37*
G36*
X40666778Y-60700547D02*
G01*
X40833224Y-60769491D01*
X40983022Y-60869583D01*
X41110417Y-60996978D01*
X41210509Y-61146776D01*
X41279453Y-61313222D01*
X41314600Y-61489918D01*
X41314600Y-61670082D01*
X41279453Y-61846778D01*
X41210509Y-62013224D01*
X41110417Y-62163022D01*
X40983022Y-62290417D01*
X40833224Y-62390509D01*
X40666778Y-62459453D01*
X40490082Y-62494600D01*
X40309918Y-62494600D01*
X40133222Y-62459453D01*
X39966776Y-62390509D01*
X39816978Y-62290417D01*
X39689583Y-62163022D01*
X39589491Y-62013224D01*
X39520547Y-61846778D01*
X39485400Y-61670082D01*
X39485400Y-61489918D01*
X39520547Y-61313222D01*
X39589491Y-61146776D01*
X39689583Y-60996978D01*
X39816978Y-60869583D01*
X39966776Y-60769491D01*
X40133222Y-60700547D01*
X40309918Y-60665400D01*
X40490082Y-60665400D01*
X40666778Y-60700547D01*
G37*
G36*
X38126778Y-60700547D02*
G01*
X38293224Y-60769491D01*
X38443022Y-60869583D01*
X38570417Y-60996978D01*
X38670509Y-61146776D01*
X38739453Y-61313222D01*
X38774600Y-61489918D01*
X38774600Y-61670082D01*
X38739453Y-61846778D01*
X38670509Y-62013224D01*
X38570417Y-62163022D01*
X38443022Y-62290417D01*
X38293224Y-62390509D01*
X38126778Y-62459453D01*
X37950082Y-62494600D01*
X37769918Y-62494600D01*
X37593222Y-62459453D01*
X37426776Y-62390509D01*
X37276978Y-62290417D01*
X37149583Y-62163022D01*
X37049491Y-62013224D01*
X36980547Y-61846778D01*
X36945400Y-61670082D01*
X36945400Y-61489918D01*
X36980547Y-61313222D01*
X37049491Y-61146776D01*
X37149583Y-60996978D01*
X37276978Y-60869583D01*
X37426776Y-60769491D01*
X37593222Y-60700547D01*
X37769918Y-60665400D01*
X37950082Y-60665400D01*
X38126778Y-60700547D01*
G37*
G36*
X40666778Y-58160547D02*
G01*
X40833224Y-58229491D01*
X40983022Y-58329583D01*
X41110417Y-58456978D01*
X41210509Y-58606776D01*
X41279453Y-58773222D01*
X41314600Y-58949918D01*
X41314600Y-59130082D01*
X41279453Y-59306778D01*
X41210509Y-59473224D01*
X41110417Y-59623022D01*
X40983022Y-59750417D01*
X40833224Y-59850509D01*
X40666778Y-59919453D01*
X40490082Y-59954600D01*
X40309918Y-59954600D01*
X40133222Y-59919453D01*
X39966776Y-59850509D01*
X39816978Y-59750417D01*
X39689583Y-59623022D01*
X39589491Y-59473224D01*
X39520547Y-59306778D01*
X39485400Y-59130082D01*
X39485400Y-58949918D01*
X39520547Y-58773222D01*
X39589491Y-58606776D01*
X39689583Y-58456978D01*
X39816978Y-58329583D01*
X39966776Y-58229491D01*
X40133222Y-58160547D01*
X40309918Y-58125400D01*
X40490082Y-58125400D01*
X40666778Y-58160547D01*
G37*
G36*
X38126778Y-58160547D02*
G01*
X38293224Y-58229491D01*
X38443022Y-58329583D01*
X38570417Y-58456978D01*
X38670509Y-58606776D01*
X38739453Y-58773222D01*
X38774600Y-58949918D01*
X38774600Y-59130082D01*
X38739453Y-59306778D01*
X38670509Y-59473224D01*
X38570417Y-59623022D01*
X38443022Y-59750417D01*
X38293224Y-59850509D01*
X38126778Y-59919453D01*
X37950082Y-59954600D01*
X37769918Y-59954600D01*
X37593222Y-59919453D01*
X37426776Y-59850509D01*
X37276978Y-59750417D01*
X37149583Y-59623022D01*
X37049491Y-59473224D01*
X36980547Y-59306778D01*
X36945400Y-59130082D01*
X36945400Y-58949918D01*
X36980547Y-58773222D01*
X37049491Y-58606776D01*
X37149583Y-58456978D01*
X37276978Y-58329583D01*
X37426776Y-58229491D01*
X37593222Y-58160547D01*
X37769918Y-58125400D01*
X37950082Y-58125400D01*
X38126778Y-58160547D01*
G37*
G36*
X38126778Y-55620547D02*
G01*
X38293224Y-55689491D01*
X38443022Y-55789583D01*
X38570417Y-55916978D01*
X38670509Y-56066776D01*
X38739453Y-56233222D01*
X38774600Y-56409918D01*
X38774600Y-56590082D01*
X38739453Y-56766778D01*
X38670509Y-56933224D01*
X38570417Y-57083022D01*
X38443022Y-57210417D01*
X38293224Y-57310509D01*
X38126778Y-57379453D01*
X37950082Y-57414600D01*
X37769918Y-57414600D01*
X37593222Y-57379453D01*
X37426776Y-57310509D01*
X37276978Y-57210417D01*
X37149583Y-57083022D01*
X37049491Y-56933224D01*
X36980547Y-56766778D01*
X36945400Y-56590082D01*
X36945400Y-56409918D01*
X36980547Y-56233222D01*
X37049491Y-56066776D01*
X37149583Y-55916978D01*
X37276978Y-55789583D01*
X37426776Y-55689491D01*
X37593222Y-55620547D01*
X37769918Y-55585400D01*
X37950082Y-55585400D01*
X38126778Y-55620547D01*
G37*
G36*
X41314600Y-57414600D02*
G01*
X39485400Y-57414600D01*
X39485400Y-55585400D01*
X41314600Y-55585400D01*
X41314600Y-57414600D01*
G37*
G36*
X66733512Y-49503927D02*
G01*
X66882812Y-49533624D01*
X67046784Y-49601544D01*
X67194354Y-49700147D01*
X67319853Y-49825646D01*
X67418456Y-49973216D01*
X67486376Y-50137188D01*
X67521000Y-50311259D01*
X67521000Y-50488741D01*
X67486376Y-50662812D01*
X67418456Y-50826784D01*
X67319853Y-50974354D01*
X67194354Y-51099853D01*
X67046784Y-51198456D01*
X66882812Y-51266376D01*
X66733512Y-51296073D01*
X66708742Y-51301000D01*
X66531258Y-51301000D01*
X66506488Y-51296073D01*
X66357188Y-51266376D01*
X66193216Y-51198456D01*
X66045646Y-51099853D01*
X65920147Y-50974354D01*
X65821544Y-50826784D01*
X65753624Y-50662812D01*
X65719000Y-50488741D01*
X65719000Y-50311259D01*
X65753624Y-50137188D01*
X65821544Y-49973216D01*
X65920147Y-49825646D01*
X66045646Y-49700147D01*
X66193216Y-49601544D01*
X66357188Y-49533624D01*
X66506488Y-49503927D01*
X66531258Y-49499000D01*
X66708742Y-49499000D01*
X66733512Y-49503927D01*
G37*
G36*
X64193512Y-49503927D02*
G01*
X64342812Y-49533624D01*
X64506784Y-49601544D01*
X64654354Y-49700147D01*
X64779853Y-49825646D01*
X64878456Y-49973216D01*
X64946376Y-50137188D01*
X64981000Y-50311259D01*
X64981000Y-50488741D01*
X64946376Y-50662812D01*
X64878456Y-50826784D01*
X64779853Y-50974354D01*
X64654354Y-51099853D01*
X64506784Y-51198456D01*
X64342812Y-51266376D01*
X64193512Y-51296073D01*
X64168742Y-51301000D01*
X63991258Y-51301000D01*
X63966488Y-51296073D01*
X63817188Y-51266376D01*
X63653216Y-51198456D01*
X63505646Y-51099853D01*
X63380147Y-50974354D01*
X63281544Y-50826784D01*
X63213624Y-50662812D01*
X63179000Y-50488741D01*
X63179000Y-50311259D01*
X63213624Y-50137188D01*
X63281544Y-49973216D01*
X63380147Y-49825646D01*
X63505646Y-49700147D01*
X63653216Y-49601544D01*
X63817188Y-49533624D01*
X63966488Y-49503927D01*
X63991258Y-49499000D01*
X64168742Y-49499000D01*
X64193512Y-49503927D01*
G37*
G36*
X61653512Y-49503927D02*
G01*
X61802812Y-49533624D01*
X61966784Y-49601544D01*
X62114354Y-49700147D01*
X62239853Y-49825646D01*
X62338456Y-49973216D01*
X62406376Y-50137188D01*
X62441000Y-50311259D01*
X62441000Y-50488741D01*
X62406376Y-50662812D01*
X62338456Y-50826784D01*
X62239853Y-50974354D01*
X62114354Y-51099853D01*
X61966784Y-51198456D01*
X61802812Y-51266376D01*
X61653512Y-51296073D01*
X61628742Y-51301000D01*
X61451258Y-51301000D01*
X61426488Y-51296073D01*
X61277188Y-51266376D01*
X61113216Y-51198456D01*
X60965646Y-51099853D01*
X60840147Y-50974354D01*
X60741544Y-50826784D01*
X60673624Y-50662812D01*
X60639000Y-50488741D01*
X60639000Y-50311259D01*
X60673624Y-50137188D01*
X60741544Y-49973216D01*
X60840147Y-49825646D01*
X60965646Y-49700147D01*
X61113216Y-49601544D01*
X61277188Y-49533624D01*
X61426488Y-49503927D01*
X61451258Y-49499000D01*
X61628742Y-49499000D01*
X61653512Y-49503927D01*
G37*
G36*
X59901000Y-51301000D02*
G01*
X58099000Y-51301000D01*
X58099000Y-49499000D01*
X59901000Y-49499000D01*
X59901000Y-51301000D01*
G37*
G36*
X66733512Y-46963927D02*
G01*
X66882812Y-46993624D01*
X67046784Y-47061544D01*
X67194354Y-47160147D01*
X67319853Y-47285646D01*
X67418456Y-47433216D01*
X67486376Y-47597188D01*
X67521000Y-47771259D01*
X67521000Y-47948741D01*
X67486376Y-48122812D01*
X67418456Y-48286784D01*
X67319853Y-48434354D01*
X67194354Y-48559853D01*
X67046784Y-48658456D01*
X66882812Y-48726376D01*
X66733512Y-48756073D01*
X66708742Y-48761000D01*
X66531258Y-48761000D01*
X66506488Y-48756073D01*
X66357188Y-48726376D01*
X66193216Y-48658456D01*
X66045646Y-48559853D01*
X65920147Y-48434354D01*
X65821544Y-48286784D01*
X65753624Y-48122812D01*
X65719000Y-47948741D01*
X65719000Y-47771259D01*
X65753624Y-47597188D01*
X65821544Y-47433216D01*
X65920147Y-47285646D01*
X66045646Y-47160147D01*
X66193216Y-47061544D01*
X66357188Y-46993624D01*
X66506488Y-46963927D01*
X66531258Y-46959000D01*
X66708742Y-46959000D01*
X66733512Y-46963927D01*
G37*
G36*
X64193512Y-46963927D02*
G01*
X64342812Y-46993624D01*
X64506784Y-47061544D01*
X64654354Y-47160147D01*
X64779853Y-47285646D01*
X64878456Y-47433216D01*
X64946376Y-47597188D01*
X64981000Y-47771259D01*
X64981000Y-47948741D01*
X64946376Y-48122812D01*
X64878456Y-48286784D01*
X64779853Y-48434354D01*
X64654354Y-48559853D01*
X64506784Y-48658456D01*
X64342812Y-48726376D01*
X64193512Y-48756073D01*
X64168742Y-48761000D01*
X63991258Y-48761000D01*
X63966488Y-48756073D01*
X63817188Y-48726376D01*
X63653216Y-48658456D01*
X63505646Y-48559853D01*
X63380147Y-48434354D01*
X63281544Y-48286784D01*
X63213624Y-48122812D01*
X63179000Y-47948741D01*
X63179000Y-47771259D01*
X63213624Y-47597188D01*
X63281544Y-47433216D01*
X63380147Y-47285646D01*
X63505646Y-47160147D01*
X63653216Y-47061544D01*
X63817188Y-46993624D01*
X63966488Y-46963927D01*
X63991258Y-46959000D01*
X64168742Y-46959000D01*
X64193512Y-46963927D01*
G37*
G36*
X61653512Y-46963927D02*
G01*
X61802812Y-46993624D01*
X61966784Y-47061544D01*
X62114354Y-47160147D01*
X62239853Y-47285646D01*
X62338456Y-47433216D01*
X62406376Y-47597188D01*
X62441000Y-47771259D01*
X62441000Y-47948741D01*
X62406376Y-48122812D01*
X62338456Y-48286784D01*
X62239853Y-48434354D01*
X62114354Y-48559853D01*
X61966784Y-48658456D01*
X61802812Y-48726376D01*
X61653512Y-48756073D01*
X61628742Y-48761000D01*
X61451258Y-48761000D01*
X61426488Y-48756073D01*
X61277188Y-48726376D01*
X61113216Y-48658456D01*
X60965646Y-48559853D01*
X60840147Y-48434354D01*
X60741544Y-48286784D01*
X60673624Y-48122812D01*
X60639000Y-47948741D01*
X60639000Y-47771259D01*
X60673624Y-47597188D01*
X60741544Y-47433216D01*
X60840147Y-47285646D01*
X60965646Y-47160147D01*
X61113216Y-47061544D01*
X61277188Y-46993624D01*
X61426488Y-46963927D01*
X61451258Y-46959000D01*
X61628742Y-46959000D01*
X61653512Y-46963927D01*
G37*
G36*
X59113512Y-46963927D02*
G01*
X59262812Y-46993624D01*
X59426784Y-47061544D01*
X59574354Y-47160147D01*
X59699853Y-47285646D01*
X59798456Y-47433216D01*
X59866376Y-47597188D01*
X59901000Y-47771259D01*
X59901000Y-47948741D01*
X59866376Y-48122812D01*
X59798456Y-48286784D01*
X59699853Y-48434354D01*
X59574354Y-48559853D01*
X59426784Y-48658456D01*
X59262812Y-48726376D01*
X59113512Y-48756073D01*
X59088742Y-48761000D01*
X58911258Y-48761000D01*
X58886488Y-48756073D01*
X58737188Y-48726376D01*
X58573216Y-48658456D01*
X58425646Y-48559853D01*
X58300147Y-48434354D01*
X58201544Y-48286784D01*
X58133624Y-48122812D01*
X58099000Y-47948741D01*
X58099000Y-47771259D01*
X58133624Y-47597188D01*
X58201544Y-47433216D01*
X58300147Y-47285646D01*
X58425646Y-47160147D01*
X58573216Y-47061544D01*
X58737188Y-46993624D01*
X58886488Y-46963927D01*
X58911258Y-46959000D01*
X59088742Y-46959000D01*
X59113512Y-46963927D01*
G37*
G36*
X52237022Y-41810590D02*
G01*
X52337681Y-41841125D01*
X52388012Y-41856392D01*
X52527164Y-41930771D01*
X52649133Y-42030867D01*
X52711100Y-42106375D01*
X52749229Y-42152835D01*
X52823608Y-42291987D01*
X52838875Y-42342318D01*
X52869410Y-42442977D01*
X52881000Y-42560655D01*
X52881000Y-43439345D01*
X52869410Y-43557023D01*
X52838875Y-43657682D01*
X52823608Y-43708013D01*
X52749229Y-43847165D01*
X52649133Y-43969133D01*
X52527165Y-44069229D01*
X52388013Y-44143608D01*
X52337682Y-44158875D01*
X52237023Y-44189410D01*
X52080000Y-44204875D01*
X51922978Y-44189410D01*
X51822319Y-44158875D01*
X51771988Y-44143608D01*
X51632836Y-44069229D01*
X51510868Y-43969133D01*
X51410772Y-43847165D01*
X51336393Y-43708013D01*
X51321126Y-43657682D01*
X51290591Y-43557023D01*
X51279000Y-43439345D01*
X51279000Y-42560656D01*
X51290590Y-42442978D01*
X51336392Y-42291989D01*
X51336392Y-42291988D01*
X51410771Y-42152836D01*
X51410772Y-42152835D01*
X51510867Y-42030867D01*
X51632835Y-41930771D01*
X51771987Y-41856392D01*
X51822318Y-41841125D01*
X51922977Y-41810590D01*
X52080000Y-41795125D01*
X52237022Y-41810590D01*
G37*
G36*
X49697022Y-41810590D02*
G01*
X49797681Y-41841125D01*
X49848012Y-41856392D01*
X49987164Y-41930771D01*
X50109133Y-42030867D01*
X50171100Y-42106375D01*
X50209229Y-42152835D01*
X50283608Y-42291987D01*
X50298875Y-42342318D01*
X50329410Y-42442977D01*
X50341000Y-42560655D01*
X50341000Y-43439345D01*
X50329410Y-43557023D01*
X50298875Y-43657682D01*
X50283608Y-43708013D01*
X50209229Y-43847165D01*
X50109133Y-43969133D01*
X49987165Y-44069229D01*
X49848013Y-44143608D01*
X49797682Y-44158875D01*
X49697023Y-44189410D01*
X49540000Y-44204875D01*
X49382978Y-44189410D01*
X49282319Y-44158875D01*
X49231988Y-44143608D01*
X49092836Y-44069229D01*
X48970868Y-43969133D01*
X48870772Y-43847165D01*
X48796393Y-43708013D01*
X48781126Y-43657682D01*
X48750591Y-43557023D01*
X48739000Y-43439345D01*
X48739000Y-42560656D01*
X48750590Y-42442978D01*
X48796392Y-42291989D01*
X48796392Y-42291988D01*
X48870771Y-42152836D01*
X48870772Y-42152835D01*
X48970867Y-42030867D01*
X49092835Y-41930771D01*
X49231987Y-41856392D01*
X49282318Y-41841125D01*
X49382977Y-41810590D01*
X49540000Y-41795125D01*
X49697022Y-41810590D01*
G37*
G36*
X47801000Y-44201000D02*
G01*
X46199000Y-44201000D01*
X46199000Y-41799000D01*
X47801000Y-41799000D01*
X47801000Y-44201000D01*
G37*
G36*
X84153512Y-40343927D02*
G01*
X84302812Y-40373624D01*
X84466784Y-40441544D01*
X84614354Y-40540147D01*
X84739853Y-40665646D01*
X84838456Y-40813216D01*
X84906376Y-40977188D01*
X84941000Y-41151259D01*
X84941000Y-41328741D01*
X84906376Y-41502812D01*
X84838456Y-41666784D01*
X84739853Y-41814354D01*
X84614354Y-41939853D01*
X84466784Y-42038456D01*
X84302812Y-42106376D01*
X84153512Y-42136073D01*
X84128742Y-42141000D01*
X83951258Y-42141000D01*
X83926488Y-42136073D01*
X83777188Y-42106376D01*
X83613216Y-42038456D01*
X83465646Y-41939853D01*
X83340147Y-41814354D01*
X83241544Y-41666784D01*
X83173624Y-41502812D01*
X83139000Y-41328741D01*
X83139000Y-41151259D01*
X83173624Y-40977188D01*
X83241544Y-40813216D01*
X83340147Y-40665646D01*
X83465646Y-40540147D01*
X83613216Y-40441544D01*
X83777188Y-40373624D01*
X83926488Y-40343927D01*
X83951258Y-40339000D01*
X84128742Y-40339000D01*
X84153512Y-40343927D01*
G37*
G36*
X82401000Y-42141000D02*
G01*
X80599000Y-42141000D01*
X80599000Y-40339000D01*
X82401000Y-40339000D01*
X82401000Y-42141000D01*
G37*
G36*
X37889943Y-36066248D02*
G01*
X38445189Y-36296238D01*
X38693347Y-36462052D01*
X38944899Y-36630134D01*
X39369866Y-37055101D01*
X39518440Y-37277458D01*
X39703762Y-37554811D01*
X39933752Y-38110057D01*
X40051000Y-38699501D01*
X40051000Y-39300499D01*
X39933752Y-39889943D01*
X39703762Y-40445189D01*
X39703761Y-40445190D01*
X39369866Y-40944899D01*
X38944899Y-41369866D01*
X38804573Y-41463629D01*
X38445189Y-41703762D01*
X37889943Y-41933752D01*
X37300499Y-42051000D01*
X36699501Y-42051000D01*
X36110057Y-41933752D01*
X35554811Y-41703762D01*
X35195427Y-41463629D01*
X35055101Y-41369866D01*
X34630134Y-40944899D01*
X34296239Y-40445190D01*
X34296238Y-40445189D01*
X34066248Y-39889943D01*
X33949000Y-39300499D01*
X33949000Y-38699501D01*
X34066248Y-38110057D01*
X34296238Y-37554811D01*
X34481560Y-37277458D01*
X34630134Y-37055101D01*
X35055101Y-36630134D01*
X35306653Y-36462052D01*
X35554811Y-36296238D01*
X36110057Y-36066248D01*
X36699501Y-35949000D01*
X37300499Y-35949000D01*
X37889943Y-36066248D01*
G37*
G36*
X81613512Y-37803927D02*
G01*
X81762812Y-37833624D01*
X81926784Y-37901544D01*
X82074354Y-38000147D01*
X82199853Y-38125646D01*
X82298456Y-38273216D01*
X82366376Y-38437188D01*
X82401000Y-38611259D01*
X82401000Y-38788741D01*
X82366376Y-38962812D01*
X82298456Y-39126784D01*
X82199853Y-39274354D01*
X82074354Y-39399853D01*
X81926784Y-39498456D01*
X81762812Y-39566376D01*
X81613512Y-39596073D01*
X81588742Y-39601000D01*
X81411258Y-39601000D01*
X81386488Y-39596073D01*
X81237188Y-39566376D01*
X81073216Y-39498456D01*
X80925646Y-39399853D01*
X80800147Y-39274354D01*
X80701544Y-39126784D01*
X80633624Y-38962812D01*
X80599000Y-38788741D01*
X80599000Y-38611259D01*
X80633624Y-38437188D01*
X80701544Y-38273216D01*
X80800147Y-38125646D01*
X80925646Y-38000147D01*
X81073216Y-37901544D01*
X81237188Y-37833624D01*
X81386488Y-37803927D01*
X81411258Y-37799000D01*
X81588742Y-37799000D01*
X81613512Y-37803927D01*
G37*
G36*
X84153512Y-37803927D02*
G01*
X84302812Y-37833624D01*
X84466784Y-37901544D01*
X84614354Y-38000147D01*
X84739853Y-38125646D01*
X84838456Y-38273216D01*
X84906376Y-38437188D01*
X84941000Y-38611259D01*
X84941000Y-38788741D01*
X84906376Y-38962812D01*
X84838456Y-39126784D01*
X84739853Y-39274354D01*
X84614354Y-39399853D01*
X84466784Y-39498456D01*
X84302812Y-39566376D01*
X84153512Y-39596073D01*
X84128742Y-39601000D01*
X83951258Y-39601000D01*
X83926488Y-39596073D01*
X83777188Y-39566376D01*
X83613216Y-39498456D01*
X83465646Y-39399853D01*
X83340147Y-39274354D01*
X83241544Y-39126784D01*
X83173624Y-38962812D01*
X83139000Y-38788741D01*
X83139000Y-38611259D01*
X83173624Y-38437188D01*
X83241544Y-38273216D01*
X83340147Y-38125646D01*
X83465646Y-38000147D01*
X83613216Y-37901544D01*
X83777188Y-37833624D01*
X83926488Y-37803927D01*
X83951258Y-37799000D01*
X84128742Y-37799000D01*
X84153512Y-37803927D01*
G37*
M02*
