M48
; DRILL file {KiCad (5.1.5-0-10_14)} date 2020 September 28, Monday 19:17:10
; FORMAT={3:3/ absolute / metric / suppress leading zeros}
; #@! TF.CreationDate,2020-09-28T19:17:10+02:00
; #@! TF.GenerationSoftware,Kicad,Pcbnew,(5.1.5-0-10_14)
FMAT,2
METRIC,TZ
T1C0.400
T2C0.500
T3C0.800
T4C1.000
T5C1.016
T6C3.000
%
G90
G05
T1
X70300Y-70200
T2
X34750Y-86000
X35409Y-84409
X35409Y-87591
X37000Y-83750
X37000Y-88250
X38591Y-84409
X38591Y-87591
X39250Y-86000
X34750Y-39000
X35409Y-37409
X35409Y-40591
X37000Y-36750
X37000Y-41250
X38591Y-37409
X38591Y-40591
X39250Y-39000
T3
X43000Y-60900
X55200Y-53290
X57200Y-41000
X57200Y-53300
X58100Y-70600
X60700Y-67800
X64000Y-85600
X64700Y-69700
X65600Y-67900
X66000Y-81400
T4
X53000Y-65460
X53000Y-68000
X68000Y-65460
X68000Y-68000
X59080Y-76400
X59080Y-78940
X61620Y-76400
X61620Y-78940
X64160Y-76400
X64160Y-78940
X66700Y-76400
X66700Y-78940
X47000Y-43000
X49540Y-43000
X52080Y-43000
X81500Y-83760
X81500Y-86300
X84040Y-83760
X84040Y-86300
X63000Y-65460
X63000Y-68000
X81500Y-38700
X81500Y-41240
X84040Y-38700
X84040Y-41240
X45350Y-76500
X45350Y-81200
X45350Y-85900
X50150Y-76500
X50150Y-81200
X50150Y-85900
X59000Y-47860
X59000Y-50400
X61540Y-47860
X61540Y-50400
X64080Y-47860
X64080Y-50400
X66620Y-47860
X66620Y-50400
X58000Y-65460
X58000Y-68000
T5
X37860Y-56500
X37860Y-59040
X37860Y-61580
X37860Y-64120
X37860Y-66660
X40400Y-56500
X40400Y-59040
X40400Y-61580
X40400Y-64120
X40400Y-66660
T6
X37000Y-86000
X37000Y-39000
T0
M30
