G04 #@! TF.GenerationSoftware,KiCad,Pcbnew,(5.1.5-0-10_14)*
G04 #@! TF.CreationDate,2020-09-28T20:16:59+02:00*
G04 #@! TF.ProjectId,max_power,6d61785f-706f-4776-9572-2e6b69636164,rev?*
G04 #@! TF.SameCoordinates,Original*
G04 #@! TF.FileFunction,Copper,L1,Top*
G04 #@! TF.FilePolarity,Positive*
%FSLAX46Y46*%
G04 Gerber Fmt 4.6, Leading zero omitted, Abs format (unit mm)*
G04 Created by KiCad (PCBNEW (5.1.5-0-10_14)) date 2020-09-28 20:16:59*
%MOMM*%
%LPD*%
G04 APERTURE LIST*
%ADD10C,0.100000*%
%ADD11R,2.100000X1.900000*%
%ADD12O,2.100000X1.900000*%
%ADD13C,0.800000*%
%ADD14C,6.000000*%
%ADD15R,0.900000X1.200000*%
%ADD16R,1.727200X1.727200*%
%ADD17O,1.727200X1.727200*%
%ADD18R,1.700000X1.700000*%
%ADD19O,1.700000X1.700000*%
%ADD20R,1.500000X2.300000*%
%ADD21O,1.500000X2.300000*%
%ADD22R,2.000000X3.800000*%
%ADD23R,2.000000X1.500000*%
%ADD24C,1.000000*%
%ADD25C,1.000000*%
%ADD26C,0.254000*%
G04 APERTURE END LIST*
G04 #@! TA.AperFunction,SMDPad,CuDef*
D10*
G36*
X62642642Y-82801174D02*
G01*
X62666303Y-82804684D01*
X62689507Y-82810496D01*
X62712029Y-82818554D01*
X62733653Y-82828782D01*
X62754170Y-82841079D01*
X62773383Y-82855329D01*
X62791107Y-82871393D01*
X62807171Y-82889117D01*
X62821421Y-82908330D01*
X62833718Y-82928847D01*
X62843946Y-82950471D01*
X62852004Y-82972993D01*
X62857816Y-82996197D01*
X62861326Y-83019858D01*
X62862500Y-83043750D01*
X62862500Y-83956250D01*
X62861326Y-83980142D01*
X62857816Y-84003803D01*
X62852004Y-84027007D01*
X62843946Y-84049529D01*
X62833718Y-84071153D01*
X62821421Y-84091670D01*
X62807171Y-84110883D01*
X62791107Y-84128607D01*
X62773383Y-84144671D01*
X62754170Y-84158921D01*
X62733653Y-84171218D01*
X62712029Y-84181446D01*
X62689507Y-84189504D01*
X62666303Y-84195316D01*
X62642642Y-84198826D01*
X62618750Y-84200000D01*
X62131250Y-84200000D01*
X62107358Y-84198826D01*
X62083697Y-84195316D01*
X62060493Y-84189504D01*
X62037971Y-84181446D01*
X62016347Y-84171218D01*
X61995830Y-84158921D01*
X61976617Y-84144671D01*
X61958893Y-84128607D01*
X61942829Y-84110883D01*
X61928579Y-84091670D01*
X61916282Y-84071153D01*
X61906054Y-84049529D01*
X61897996Y-84027007D01*
X61892184Y-84003803D01*
X61888674Y-83980142D01*
X61887500Y-83956250D01*
X61887500Y-83043750D01*
X61888674Y-83019858D01*
X61892184Y-82996197D01*
X61897996Y-82972993D01*
X61906054Y-82950471D01*
X61916282Y-82928847D01*
X61928579Y-82908330D01*
X61942829Y-82889117D01*
X61958893Y-82871393D01*
X61976617Y-82855329D01*
X61995830Y-82841079D01*
X62016347Y-82828782D01*
X62037971Y-82818554D01*
X62060493Y-82810496D01*
X62083697Y-82804684D01*
X62107358Y-82801174D01*
X62131250Y-82800000D01*
X62618750Y-82800000D01*
X62642642Y-82801174D01*
G37*
G04 #@! TD.AperFunction*
G04 #@! TA.AperFunction,SMDPad,CuDef*
G36*
X64517642Y-82801174D02*
G01*
X64541303Y-82804684D01*
X64564507Y-82810496D01*
X64587029Y-82818554D01*
X64608653Y-82828782D01*
X64629170Y-82841079D01*
X64648383Y-82855329D01*
X64666107Y-82871393D01*
X64682171Y-82889117D01*
X64696421Y-82908330D01*
X64708718Y-82928847D01*
X64718946Y-82950471D01*
X64727004Y-82972993D01*
X64732816Y-82996197D01*
X64736326Y-83019858D01*
X64737500Y-83043750D01*
X64737500Y-83956250D01*
X64736326Y-83980142D01*
X64732816Y-84003803D01*
X64727004Y-84027007D01*
X64718946Y-84049529D01*
X64708718Y-84071153D01*
X64696421Y-84091670D01*
X64682171Y-84110883D01*
X64666107Y-84128607D01*
X64648383Y-84144671D01*
X64629170Y-84158921D01*
X64608653Y-84171218D01*
X64587029Y-84181446D01*
X64564507Y-84189504D01*
X64541303Y-84195316D01*
X64517642Y-84198826D01*
X64493750Y-84200000D01*
X64006250Y-84200000D01*
X63982358Y-84198826D01*
X63958697Y-84195316D01*
X63935493Y-84189504D01*
X63912971Y-84181446D01*
X63891347Y-84171218D01*
X63870830Y-84158921D01*
X63851617Y-84144671D01*
X63833893Y-84128607D01*
X63817829Y-84110883D01*
X63803579Y-84091670D01*
X63791282Y-84071153D01*
X63781054Y-84049529D01*
X63772996Y-84027007D01*
X63767184Y-84003803D01*
X63763674Y-83980142D01*
X63762500Y-83956250D01*
X63762500Y-83043750D01*
X63763674Y-83019858D01*
X63767184Y-82996197D01*
X63772996Y-82972993D01*
X63781054Y-82950471D01*
X63791282Y-82928847D01*
X63803579Y-82908330D01*
X63817829Y-82889117D01*
X63833893Y-82871393D01*
X63851617Y-82855329D01*
X63870830Y-82841079D01*
X63891347Y-82828782D01*
X63912971Y-82818554D01*
X63935493Y-82810496D01*
X63958697Y-82804684D01*
X63982358Y-82801174D01*
X64006250Y-82800000D01*
X64493750Y-82800000D01*
X64517642Y-82801174D01*
G37*
G04 #@! TD.AperFunction*
G04 #@! TA.AperFunction,SMDPad,CuDef*
G36*
X62642642Y-86801174D02*
G01*
X62666303Y-86804684D01*
X62689507Y-86810496D01*
X62712029Y-86818554D01*
X62733653Y-86828782D01*
X62754170Y-86841079D01*
X62773383Y-86855329D01*
X62791107Y-86871393D01*
X62807171Y-86889117D01*
X62821421Y-86908330D01*
X62833718Y-86928847D01*
X62843946Y-86950471D01*
X62852004Y-86972993D01*
X62857816Y-86996197D01*
X62861326Y-87019858D01*
X62862500Y-87043750D01*
X62862500Y-87956250D01*
X62861326Y-87980142D01*
X62857816Y-88003803D01*
X62852004Y-88027007D01*
X62843946Y-88049529D01*
X62833718Y-88071153D01*
X62821421Y-88091670D01*
X62807171Y-88110883D01*
X62791107Y-88128607D01*
X62773383Y-88144671D01*
X62754170Y-88158921D01*
X62733653Y-88171218D01*
X62712029Y-88181446D01*
X62689507Y-88189504D01*
X62666303Y-88195316D01*
X62642642Y-88198826D01*
X62618750Y-88200000D01*
X62131250Y-88200000D01*
X62107358Y-88198826D01*
X62083697Y-88195316D01*
X62060493Y-88189504D01*
X62037971Y-88181446D01*
X62016347Y-88171218D01*
X61995830Y-88158921D01*
X61976617Y-88144671D01*
X61958893Y-88128607D01*
X61942829Y-88110883D01*
X61928579Y-88091670D01*
X61916282Y-88071153D01*
X61906054Y-88049529D01*
X61897996Y-88027007D01*
X61892184Y-88003803D01*
X61888674Y-87980142D01*
X61887500Y-87956250D01*
X61887500Y-87043750D01*
X61888674Y-87019858D01*
X61892184Y-86996197D01*
X61897996Y-86972993D01*
X61906054Y-86950471D01*
X61916282Y-86928847D01*
X61928579Y-86908330D01*
X61942829Y-86889117D01*
X61958893Y-86871393D01*
X61976617Y-86855329D01*
X61995830Y-86841079D01*
X62016347Y-86828782D01*
X62037971Y-86818554D01*
X62060493Y-86810496D01*
X62083697Y-86804684D01*
X62107358Y-86801174D01*
X62131250Y-86800000D01*
X62618750Y-86800000D01*
X62642642Y-86801174D01*
G37*
G04 #@! TD.AperFunction*
G04 #@! TA.AperFunction,SMDPad,CuDef*
G36*
X64517642Y-86801174D02*
G01*
X64541303Y-86804684D01*
X64564507Y-86810496D01*
X64587029Y-86818554D01*
X64608653Y-86828782D01*
X64629170Y-86841079D01*
X64648383Y-86855329D01*
X64666107Y-86871393D01*
X64682171Y-86889117D01*
X64696421Y-86908330D01*
X64708718Y-86928847D01*
X64718946Y-86950471D01*
X64727004Y-86972993D01*
X64732816Y-86996197D01*
X64736326Y-87019858D01*
X64737500Y-87043750D01*
X64737500Y-87956250D01*
X64736326Y-87980142D01*
X64732816Y-88003803D01*
X64727004Y-88027007D01*
X64718946Y-88049529D01*
X64708718Y-88071153D01*
X64696421Y-88091670D01*
X64682171Y-88110883D01*
X64666107Y-88128607D01*
X64648383Y-88144671D01*
X64629170Y-88158921D01*
X64608653Y-88171218D01*
X64587029Y-88181446D01*
X64564507Y-88189504D01*
X64541303Y-88195316D01*
X64517642Y-88198826D01*
X64493750Y-88200000D01*
X64006250Y-88200000D01*
X63982358Y-88198826D01*
X63958697Y-88195316D01*
X63935493Y-88189504D01*
X63912971Y-88181446D01*
X63891347Y-88171218D01*
X63870830Y-88158921D01*
X63851617Y-88144671D01*
X63833893Y-88128607D01*
X63817829Y-88110883D01*
X63803579Y-88091670D01*
X63791282Y-88071153D01*
X63781054Y-88049529D01*
X63772996Y-88027007D01*
X63767184Y-88003803D01*
X63763674Y-87980142D01*
X63762500Y-87956250D01*
X63762500Y-87043750D01*
X63763674Y-87019858D01*
X63767184Y-86996197D01*
X63772996Y-86972993D01*
X63781054Y-86950471D01*
X63791282Y-86928847D01*
X63803579Y-86908330D01*
X63817829Y-86889117D01*
X63833893Y-86871393D01*
X63851617Y-86855329D01*
X63870830Y-86841079D01*
X63891347Y-86828782D01*
X63912971Y-86818554D01*
X63935493Y-86810496D01*
X63958697Y-86804684D01*
X63982358Y-86801174D01*
X64006250Y-86800000D01*
X64493750Y-86800000D01*
X64517642Y-86801174D01*
G37*
G04 #@! TD.AperFunction*
D11*
X45350000Y-76500000D03*
D12*
X50150000Y-76500000D03*
X45350000Y-81200000D03*
X50150000Y-81200000D03*
X45350000Y-85900000D03*
X50150000Y-85900000D03*
D13*
X38590990Y-37409010D03*
X37000000Y-36750000D03*
X35409010Y-37409010D03*
X34750000Y-39000000D03*
X35409010Y-40590990D03*
X37000000Y-41250000D03*
X38590990Y-40590990D03*
X39250000Y-39000000D03*
D14*
X37000000Y-39000000D03*
D13*
X38590990Y-84409010D03*
X37000000Y-83750000D03*
X35409010Y-84409010D03*
X34750000Y-86000000D03*
X35409010Y-87590990D03*
X37000000Y-88250000D03*
X38590990Y-87590990D03*
X39250000Y-86000000D03*
D14*
X37000000Y-86000000D03*
G04 #@! TA.AperFunction,SMDPad,CuDef*
D10*
G36*
X66367642Y-86801174D02*
G01*
X66391303Y-86804684D01*
X66414507Y-86810496D01*
X66437029Y-86818554D01*
X66458653Y-86828782D01*
X66479170Y-86841079D01*
X66498383Y-86855329D01*
X66516107Y-86871393D01*
X66532171Y-86889117D01*
X66546421Y-86908330D01*
X66558718Y-86928847D01*
X66568946Y-86950471D01*
X66577004Y-86972993D01*
X66582816Y-86996197D01*
X66586326Y-87019858D01*
X66587500Y-87043750D01*
X66587500Y-87956250D01*
X66586326Y-87980142D01*
X66582816Y-88003803D01*
X66577004Y-88027007D01*
X66568946Y-88049529D01*
X66558718Y-88071153D01*
X66546421Y-88091670D01*
X66532171Y-88110883D01*
X66516107Y-88128607D01*
X66498383Y-88144671D01*
X66479170Y-88158921D01*
X66458653Y-88171218D01*
X66437029Y-88181446D01*
X66414507Y-88189504D01*
X66391303Y-88195316D01*
X66367642Y-88198826D01*
X66343750Y-88200000D01*
X65856250Y-88200000D01*
X65832358Y-88198826D01*
X65808697Y-88195316D01*
X65785493Y-88189504D01*
X65762971Y-88181446D01*
X65741347Y-88171218D01*
X65720830Y-88158921D01*
X65701617Y-88144671D01*
X65683893Y-88128607D01*
X65667829Y-88110883D01*
X65653579Y-88091670D01*
X65641282Y-88071153D01*
X65631054Y-88049529D01*
X65622996Y-88027007D01*
X65617184Y-88003803D01*
X65613674Y-87980142D01*
X65612500Y-87956250D01*
X65612500Y-87043750D01*
X65613674Y-87019858D01*
X65617184Y-86996197D01*
X65622996Y-86972993D01*
X65631054Y-86950471D01*
X65641282Y-86928847D01*
X65653579Y-86908330D01*
X65667829Y-86889117D01*
X65683893Y-86871393D01*
X65701617Y-86855329D01*
X65720830Y-86841079D01*
X65741347Y-86828782D01*
X65762971Y-86818554D01*
X65785493Y-86810496D01*
X65808697Y-86804684D01*
X65832358Y-86801174D01*
X65856250Y-86800000D01*
X66343750Y-86800000D01*
X66367642Y-86801174D01*
G37*
G04 #@! TD.AperFunction*
G04 #@! TA.AperFunction,SMDPad,CuDef*
G36*
X68242642Y-86801174D02*
G01*
X68266303Y-86804684D01*
X68289507Y-86810496D01*
X68312029Y-86818554D01*
X68333653Y-86828782D01*
X68354170Y-86841079D01*
X68373383Y-86855329D01*
X68391107Y-86871393D01*
X68407171Y-86889117D01*
X68421421Y-86908330D01*
X68433718Y-86928847D01*
X68443946Y-86950471D01*
X68452004Y-86972993D01*
X68457816Y-86996197D01*
X68461326Y-87019858D01*
X68462500Y-87043750D01*
X68462500Y-87956250D01*
X68461326Y-87980142D01*
X68457816Y-88003803D01*
X68452004Y-88027007D01*
X68443946Y-88049529D01*
X68433718Y-88071153D01*
X68421421Y-88091670D01*
X68407171Y-88110883D01*
X68391107Y-88128607D01*
X68373383Y-88144671D01*
X68354170Y-88158921D01*
X68333653Y-88171218D01*
X68312029Y-88181446D01*
X68289507Y-88189504D01*
X68266303Y-88195316D01*
X68242642Y-88198826D01*
X68218750Y-88200000D01*
X67731250Y-88200000D01*
X67707358Y-88198826D01*
X67683697Y-88195316D01*
X67660493Y-88189504D01*
X67637971Y-88181446D01*
X67616347Y-88171218D01*
X67595830Y-88158921D01*
X67576617Y-88144671D01*
X67558893Y-88128607D01*
X67542829Y-88110883D01*
X67528579Y-88091670D01*
X67516282Y-88071153D01*
X67506054Y-88049529D01*
X67497996Y-88027007D01*
X67492184Y-88003803D01*
X67488674Y-87980142D01*
X67487500Y-87956250D01*
X67487500Y-87043750D01*
X67488674Y-87019858D01*
X67492184Y-86996197D01*
X67497996Y-86972993D01*
X67506054Y-86950471D01*
X67516282Y-86928847D01*
X67528579Y-86908330D01*
X67542829Y-86889117D01*
X67558893Y-86871393D01*
X67576617Y-86855329D01*
X67595830Y-86841079D01*
X67616347Y-86828782D01*
X67637971Y-86818554D01*
X67660493Y-86810496D01*
X67683697Y-86804684D01*
X67707358Y-86801174D01*
X67731250Y-86800000D01*
X68218750Y-86800000D01*
X68242642Y-86801174D01*
G37*
G04 #@! TD.AperFunction*
G04 #@! TA.AperFunction,SMDPad,CuDef*
G36*
X68305142Y-82801174D02*
G01*
X68328803Y-82804684D01*
X68352007Y-82810496D01*
X68374529Y-82818554D01*
X68396153Y-82828782D01*
X68416670Y-82841079D01*
X68435883Y-82855329D01*
X68453607Y-82871393D01*
X68469671Y-82889117D01*
X68483921Y-82908330D01*
X68496218Y-82928847D01*
X68506446Y-82950471D01*
X68514504Y-82972993D01*
X68520316Y-82996197D01*
X68523826Y-83019858D01*
X68525000Y-83043750D01*
X68525000Y-83956250D01*
X68523826Y-83980142D01*
X68520316Y-84003803D01*
X68514504Y-84027007D01*
X68506446Y-84049529D01*
X68496218Y-84071153D01*
X68483921Y-84091670D01*
X68469671Y-84110883D01*
X68453607Y-84128607D01*
X68435883Y-84144671D01*
X68416670Y-84158921D01*
X68396153Y-84171218D01*
X68374529Y-84181446D01*
X68352007Y-84189504D01*
X68328803Y-84195316D01*
X68305142Y-84198826D01*
X68281250Y-84200000D01*
X67793750Y-84200000D01*
X67769858Y-84198826D01*
X67746197Y-84195316D01*
X67722993Y-84189504D01*
X67700471Y-84181446D01*
X67678847Y-84171218D01*
X67658330Y-84158921D01*
X67639117Y-84144671D01*
X67621393Y-84128607D01*
X67605329Y-84110883D01*
X67591079Y-84091670D01*
X67578782Y-84071153D01*
X67568554Y-84049529D01*
X67560496Y-84027007D01*
X67554684Y-84003803D01*
X67551174Y-83980142D01*
X67550000Y-83956250D01*
X67550000Y-83043750D01*
X67551174Y-83019858D01*
X67554684Y-82996197D01*
X67560496Y-82972993D01*
X67568554Y-82950471D01*
X67578782Y-82928847D01*
X67591079Y-82908330D01*
X67605329Y-82889117D01*
X67621393Y-82871393D01*
X67639117Y-82855329D01*
X67658330Y-82841079D01*
X67678847Y-82828782D01*
X67700471Y-82818554D01*
X67722993Y-82810496D01*
X67746197Y-82804684D01*
X67769858Y-82801174D01*
X67793750Y-82800000D01*
X68281250Y-82800000D01*
X68305142Y-82801174D01*
G37*
G04 #@! TD.AperFunction*
G04 #@! TA.AperFunction,SMDPad,CuDef*
G36*
X66430142Y-82801174D02*
G01*
X66453803Y-82804684D01*
X66477007Y-82810496D01*
X66499529Y-82818554D01*
X66521153Y-82828782D01*
X66541670Y-82841079D01*
X66560883Y-82855329D01*
X66578607Y-82871393D01*
X66594671Y-82889117D01*
X66608921Y-82908330D01*
X66621218Y-82928847D01*
X66631446Y-82950471D01*
X66639504Y-82972993D01*
X66645316Y-82996197D01*
X66648826Y-83019858D01*
X66650000Y-83043750D01*
X66650000Y-83956250D01*
X66648826Y-83980142D01*
X66645316Y-84003803D01*
X66639504Y-84027007D01*
X66631446Y-84049529D01*
X66621218Y-84071153D01*
X66608921Y-84091670D01*
X66594671Y-84110883D01*
X66578607Y-84128607D01*
X66560883Y-84144671D01*
X66541670Y-84158921D01*
X66521153Y-84171218D01*
X66499529Y-84181446D01*
X66477007Y-84189504D01*
X66453803Y-84195316D01*
X66430142Y-84198826D01*
X66406250Y-84200000D01*
X65918750Y-84200000D01*
X65894858Y-84198826D01*
X65871197Y-84195316D01*
X65847993Y-84189504D01*
X65825471Y-84181446D01*
X65803847Y-84171218D01*
X65783330Y-84158921D01*
X65764117Y-84144671D01*
X65746393Y-84128607D01*
X65730329Y-84110883D01*
X65716079Y-84091670D01*
X65703782Y-84071153D01*
X65693554Y-84049529D01*
X65685496Y-84027007D01*
X65679684Y-84003803D01*
X65676174Y-83980142D01*
X65675000Y-83956250D01*
X65675000Y-83043750D01*
X65676174Y-83019858D01*
X65679684Y-82996197D01*
X65685496Y-82972993D01*
X65693554Y-82950471D01*
X65703782Y-82928847D01*
X65716079Y-82908330D01*
X65730329Y-82889117D01*
X65746393Y-82871393D01*
X65764117Y-82855329D01*
X65783330Y-82841079D01*
X65803847Y-82828782D01*
X65825471Y-82818554D01*
X65847993Y-82810496D01*
X65871197Y-82804684D01*
X65894858Y-82801174D01*
X65918750Y-82800000D01*
X66406250Y-82800000D01*
X66430142Y-82801174D01*
G37*
G04 #@! TD.AperFunction*
G04 #@! TA.AperFunction,SMDPad,CuDef*
G36*
X48480142Y-60513674D02*
G01*
X48503803Y-60517184D01*
X48527007Y-60522996D01*
X48549529Y-60531054D01*
X48571153Y-60541282D01*
X48591670Y-60553579D01*
X48610883Y-60567829D01*
X48628607Y-60583893D01*
X48644671Y-60601617D01*
X48658921Y-60620830D01*
X48671218Y-60641347D01*
X48681446Y-60662971D01*
X48689504Y-60685493D01*
X48695316Y-60708697D01*
X48698826Y-60732358D01*
X48700000Y-60756250D01*
X48700000Y-61243750D01*
X48698826Y-61267642D01*
X48695316Y-61291303D01*
X48689504Y-61314507D01*
X48681446Y-61337029D01*
X48671218Y-61358653D01*
X48658921Y-61379170D01*
X48644671Y-61398383D01*
X48628607Y-61416107D01*
X48610883Y-61432171D01*
X48591670Y-61446421D01*
X48571153Y-61458718D01*
X48549529Y-61468946D01*
X48527007Y-61477004D01*
X48503803Y-61482816D01*
X48480142Y-61486326D01*
X48456250Y-61487500D01*
X47543750Y-61487500D01*
X47519858Y-61486326D01*
X47496197Y-61482816D01*
X47472993Y-61477004D01*
X47450471Y-61468946D01*
X47428847Y-61458718D01*
X47408330Y-61446421D01*
X47389117Y-61432171D01*
X47371393Y-61416107D01*
X47355329Y-61398383D01*
X47341079Y-61379170D01*
X47328782Y-61358653D01*
X47318554Y-61337029D01*
X47310496Y-61314507D01*
X47304684Y-61291303D01*
X47301174Y-61267642D01*
X47300000Y-61243750D01*
X47300000Y-60756250D01*
X47301174Y-60732358D01*
X47304684Y-60708697D01*
X47310496Y-60685493D01*
X47318554Y-60662971D01*
X47328782Y-60641347D01*
X47341079Y-60620830D01*
X47355329Y-60601617D01*
X47371393Y-60583893D01*
X47389117Y-60567829D01*
X47408330Y-60553579D01*
X47428847Y-60541282D01*
X47450471Y-60531054D01*
X47472993Y-60522996D01*
X47496197Y-60517184D01*
X47519858Y-60513674D01*
X47543750Y-60512500D01*
X48456250Y-60512500D01*
X48480142Y-60513674D01*
G37*
G04 #@! TD.AperFunction*
G04 #@! TA.AperFunction,SMDPad,CuDef*
G36*
X48480142Y-62388674D02*
G01*
X48503803Y-62392184D01*
X48527007Y-62397996D01*
X48549529Y-62406054D01*
X48571153Y-62416282D01*
X48591670Y-62428579D01*
X48610883Y-62442829D01*
X48628607Y-62458893D01*
X48644671Y-62476617D01*
X48658921Y-62495830D01*
X48671218Y-62516347D01*
X48681446Y-62537971D01*
X48689504Y-62560493D01*
X48695316Y-62583697D01*
X48698826Y-62607358D01*
X48700000Y-62631250D01*
X48700000Y-63118750D01*
X48698826Y-63142642D01*
X48695316Y-63166303D01*
X48689504Y-63189507D01*
X48681446Y-63212029D01*
X48671218Y-63233653D01*
X48658921Y-63254170D01*
X48644671Y-63273383D01*
X48628607Y-63291107D01*
X48610883Y-63307171D01*
X48591670Y-63321421D01*
X48571153Y-63333718D01*
X48549529Y-63343946D01*
X48527007Y-63352004D01*
X48503803Y-63357816D01*
X48480142Y-63361326D01*
X48456250Y-63362500D01*
X47543750Y-63362500D01*
X47519858Y-63361326D01*
X47496197Y-63357816D01*
X47472993Y-63352004D01*
X47450471Y-63343946D01*
X47428847Y-63333718D01*
X47408330Y-63321421D01*
X47389117Y-63307171D01*
X47371393Y-63291107D01*
X47355329Y-63273383D01*
X47341079Y-63254170D01*
X47328782Y-63233653D01*
X47318554Y-63212029D01*
X47310496Y-63189507D01*
X47304684Y-63166303D01*
X47301174Y-63142642D01*
X47300000Y-63118750D01*
X47300000Y-62631250D01*
X47301174Y-62607358D01*
X47304684Y-62583697D01*
X47310496Y-62560493D01*
X47318554Y-62537971D01*
X47328782Y-62516347D01*
X47341079Y-62495830D01*
X47355329Y-62476617D01*
X47371393Y-62458893D01*
X47389117Y-62442829D01*
X47408330Y-62428579D01*
X47428847Y-62416282D01*
X47450471Y-62406054D01*
X47472993Y-62397996D01*
X47496197Y-62392184D01*
X47519858Y-62388674D01*
X47543750Y-62387500D01*
X48456250Y-62387500D01*
X48480142Y-62388674D01*
G37*
G04 #@! TD.AperFunction*
G04 #@! TA.AperFunction,SMDPad,CuDef*
G36*
X48205142Y-47301174D02*
G01*
X48228803Y-47304684D01*
X48252007Y-47310496D01*
X48274529Y-47318554D01*
X48296153Y-47328782D01*
X48316670Y-47341079D01*
X48335883Y-47355329D01*
X48353607Y-47371393D01*
X48369671Y-47389117D01*
X48383921Y-47408330D01*
X48396218Y-47428847D01*
X48406446Y-47450471D01*
X48414504Y-47472993D01*
X48420316Y-47496197D01*
X48423826Y-47519858D01*
X48425000Y-47543750D01*
X48425000Y-48456250D01*
X48423826Y-48480142D01*
X48420316Y-48503803D01*
X48414504Y-48527007D01*
X48406446Y-48549529D01*
X48396218Y-48571153D01*
X48383921Y-48591670D01*
X48369671Y-48610883D01*
X48353607Y-48628607D01*
X48335883Y-48644671D01*
X48316670Y-48658921D01*
X48296153Y-48671218D01*
X48274529Y-48681446D01*
X48252007Y-48689504D01*
X48228803Y-48695316D01*
X48205142Y-48698826D01*
X48181250Y-48700000D01*
X47693750Y-48700000D01*
X47669858Y-48698826D01*
X47646197Y-48695316D01*
X47622993Y-48689504D01*
X47600471Y-48681446D01*
X47578847Y-48671218D01*
X47558330Y-48658921D01*
X47539117Y-48644671D01*
X47521393Y-48628607D01*
X47505329Y-48610883D01*
X47491079Y-48591670D01*
X47478782Y-48571153D01*
X47468554Y-48549529D01*
X47460496Y-48527007D01*
X47454684Y-48503803D01*
X47451174Y-48480142D01*
X47450000Y-48456250D01*
X47450000Y-47543750D01*
X47451174Y-47519858D01*
X47454684Y-47496197D01*
X47460496Y-47472993D01*
X47468554Y-47450471D01*
X47478782Y-47428847D01*
X47491079Y-47408330D01*
X47505329Y-47389117D01*
X47521393Y-47371393D01*
X47539117Y-47355329D01*
X47558330Y-47341079D01*
X47578847Y-47328782D01*
X47600471Y-47318554D01*
X47622993Y-47310496D01*
X47646197Y-47304684D01*
X47669858Y-47301174D01*
X47693750Y-47300000D01*
X48181250Y-47300000D01*
X48205142Y-47301174D01*
G37*
G04 #@! TD.AperFunction*
G04 #@! TA.AperFunction,SMDPad,CuDef*
G36*
X46330142Y-47301174D02*
G01*
X46353803Y-47304684D01*
X46377007Y-47310496D01*
X46399529Y-47318554D01*
X46421153Y-47328782D01*
X46441670Y-47341079D01*
X46460883Y-47355329D01*
X46478607Y-47371393D01*
X46494671Y-47389117D01*
X46508921Y-47408330D01*
X46521218Y-47428847D01*
X46531446Y-47450471D01*
X46539504Y-47472993D01*
X46545316Y-47496197D01*
X46548826Y-47519858D01*
X46550000Y-47543750D01*
X46550000Y-48456250D01*
X46548826Y-48480142D01*
X46545316Y-48503803D01*
X46539504Y-48527007D01*
X46531446Y-48549529D01*
X46521218Y-48571153D01*
X46508921Y-48591670D01*
X46494671Y-48610883D01*
X46478607Y-48628607D01*
X46460883Y-48644671D01*
X46441670Y-48658921D01*
X46421153Y-48671218D01*
X46399529Y-48681446D01*
X46377007Y-48689504D01*
X46353803Y-48695316D01*
X46330142Y-48698826D01*
X46306250Y-48700000D01*
X45818750Y-48700000D01*
X45794858Y-48698826D01*
X45771197Y-48695316D01*
X45747993Y-48689504D01*
X45725471Y-48681446D01*
X45703847Y-48671218D01*
X45683330Y-48658921D01*
X45664117Y-48644671D01*
X45646393Y-48628607D01*
X45630329Y-48610883D01*
X45616079Y-48591670D01*
X45603782Y-48571153D01*
X45593554Y-48549529D01*
X45585496Y-48527007D01*
X45579684Y-48503803D01*
X45576174Y-48480142D01*
X45575000Y-48456250D01*
X45575000Y-47543750D01*
X45576174Y-47519858D01*
X45579684Y-47496197D01*
X45585496Y-47472993D01*
X45593554Y-47450471D01*
X45603782Y-47428847D01*
X45616079Y-47408330D01*
X45630329Y-47389117D01*
X45646393Y-47371393D01*
X45664117Y-47355329D01*
X45683330Y-47341079D01*
X45703847Y-47328782D01*
X45725471Y-47318554D01*
X45747993Y-47310496D01*
X45771197Y-47304684D01*
X45794858Y-47301174D01*
X45818750Y-47300000D01*
X46306250Y-47300000D01*
X46330142Y-47301174D01*
G37*
G04 #@! TD.AperFunction*
G04 #@! TA.AperFunction,SMDPad,CuDef*
G36*
X52127691Y-50326053D02*
G01*
X52148926Y-50329203D01*
X52169750Y-50334419D01*
X52189962Y-50341651D01*
X52209368Y-50350830D01*
X52227781Y-50361866D01*
X52245024Y-50374654D01*
X52260930Y-50389070D01*
X52275346Y-50404976D01*
X52288134Y-50422219D01*
X52299170Y-50440632D01*
X52308349Y-50460038D01*
X52315581Y-50480250D01*
X52320797Y-50501074D01*
X52323947Y-50522309D01*
X52325000Y-50543750D01*
X52325000Y-51056250D01*
X52323947Y-51077691D01*
X52320797Y-51098926D01*
X52315581Y-51119750D01*
X52308349Y-51139962D01*
X52299170Y-51159368D01*
X52288134Y-51177781D01*
X52275346Y-51195024D01*
X52260930Y-51210930D01*
X52245024Y-51225346D01*
X52227781Y-51238134D01*
X52209368Y-51249170D01*
X52189962Y-51258349D01*
X52169750Y-51265581D01*
X52148926Y-51270797D01*
X52127691Y-51273947D01*
X52106250Y-51275000D01*
X51668750Y-51275000D01*
X51647309Y-51273947D01*
X51626074Y-51270797D01*
X51605250Y-51265581D01*
X51585038Y-51258349D01*
X51565632Y-51249170D01*
X51547219Y-51238134D01*
X51529976Y-51225346D01*
X51514070Y-51210930D01*
X51499654Y-51195024D01*
X51486866Y-51177781D01*
X51475830Y-51159368D01*
X51466651Y-51139962D01*
X51459419Y-51119750D01*
X51454203Y-51098926D01*
X51451053Y-51077691D01*
X51450000Y-51056250D01*
X51450000Y-50543750D01*
X51451053Y-50522309D01*
X51454203Y-50501074D01*
X51459419Y-50480250D01*
X51466651Y-50460038D01*
X51475830Y-50440632D01*
X51486866Y-50422219D01*
X51499654Y-50404976D01*
X51514070Y-50389070D01*
X51529976Y-50374654D01*
X51547219Y-50361866D01*
X51565632Y-50350830D01*
X51585038Y-50341651D01*
X51605250Y-50334419D01*
X51626074Y-50329203D01*
X51647309Y-50326053D01*
X51668750Y-50325000D01*
X52106250Y-50325000D01*
X52127691Y-50326053D01*
G37*
G04 #@! TD.AperFunction*
G04 #@! TA.AperFunction,SMDPad,CuDef*
G36*
X50552691Y-50326053D02*
G01*
X50573926Y-50329203D01*
X50594750Y-50334419D01*
X50614962Y-50341651D01*
X50634368Y-50350830D01*
X50652781Y-50361866D01*
X50670024Y-50374654D01*
X50685930Y-50389070D01*
X50700346Y-50404976D01*
X50713134Y-50422219D01*
X50724170Y-50440632D01*
X50733349Y-50460038D01*
X50740581Y-50480250D01*
X50745797Y-50501074D01*
X50748947Y-50522309D01*
X50750000Y-50543750D01*
X50750000Y-51056250D01*
X50748947Y-51077691D01*
X50745797Y-51098926D01*
X50740581Y-51119750D01*
X50733349Y-51139962D01*
X50724170Y-51159368D01*
X50713134Y-51177781D01*
X50700346Y-51195024D01*
X50685930Y-51210930D01*
X50670024Y-51225346D01*
X50652781Y-51238134D01*
X50634368Y-51249170D01*
X50614962Y-51258349D01*
X50594750Y-51265581D01*
X50573926Y-51270797D01*
X50552691Y-51273947D01*
X50531250Y-51275000D01*
X50093750Y-51275000D01*
X50072309Y-51273947D01*
X50051074Y-51270797D01*
X50030250Y-51265581D01*
X50010038Y-51258349D01*
X49990632Y-51249170D01*
X49972219Y-51238134D01*
X49954976Y-51225346D01*
X49939070Y-51210930D01*
X49924654Y-51195024D01*
X49911866Y-51177781D01*
X49900830Y-51159368D01*
X49891651Y-51139962D01*
X49884419Y-51119750D01*
X49879203Y-51098926D01*
X49876053Y-51077691D01*
X49875000Y-51056250D01*
X49875000Y-50543750D01*
X49876053Y-50522309D01*
X49879203Y-50501074D01*
X49884419Y-50480250D01*
X49891651Y-50460038D01*
X49900830Y-50440632D01*
X49911866Y-50422219D01*
X49924654Y-50404976D01*
X49939070Y-50389070D01*
X49954976Y-50374654D01*
X49972219Y-50361866D01*
X49990632Y-50350830D01*
X50010038Y-50341651D01*
X50030250Y-50334419D01*
X50051074Y-50329203D01*
X50072309Y-50326053D01*
X50093750Y-50325000D01*
X50531250Y-50325000D01*
X50552691Y-50326053D01*
G37*
G04 #@! TD.AperFunction*
G04 #@! TA.AperFunction,SMDPad,CuDef*
G36*
X50392642Y-47301174D02*
G01*
X50416303Y-47304684D01*
X50439507Y-47310496D01*
X50462029Y-47318554D01*
X50483653Y-47328782D01*
X50504170Y-47341079D01*
X50523383Y-47355329D01*
X50541107Y-47371393D01*
X50557171Y-47389117D01*
X50571421Y-47408330D01*
X50583718Y-47428847D01*
X50593946Y-47450471D01*
X50602004Y-47472993D01*
X50607816Y-47496197D01*
X50611326Y-47519858D01*
X50612500Y-47543750D01*
X50612500Y-48456250D01*
X50611326Y-48480142D01*
X50607816Y-48503803D01*
X50602004Y-48527007D01*
X50593946Y-48549529D01*
X50583718Y-48571153D01*
X50571421Y-48591670D01*
X50557171Y-48610883D01*
X50541107Y-48628607D01*
X50523383Y-48644671D01*
X50504170Y-48658921D01*
X50483653Y-48671218D01*
X50462029Y-48681446D01*
X50439507Y-48689504D01*
X50416303Y-48695316D01*
X50392642Y-48698826D01*
X50368750Y-48700000D01*
X49881250Y-48700000D01*
X49857358Y-48698826D01*
X49833697Y-48695316D01*
X49810493Y-48689504D01*
X49787971Y-48681446D01*
X49766347Y-48671218D01*
X49745830Y-48658921D01*
X49726617Y-48644671D01*
X49708893Y-48628607D01*
X49692829Y-48610883D01*
X49678579Y-48591670D01*
X49666282Y-48571153D01*
X49656054Y-48549529D01*
X49647996Y-48527007D01*
X49642184Y-48503803D01*
X49638674Y-48480142D01*
X49637500Y-48456250D01*
X49637500Y-47543750D01*
X49638674Y-47519858D01*
X49642184Y-47496197D01*
X49647996Y-47472993D01*
X49656054Y-47450471D01*
X49666282Y-47428847D01*
X49678579Y-47408330D01*
X49692829Y-47389117D01*
X49708893Y-47371393D01*
X49726617Y-47355329D01*
X49745830Y-47341079D01*
X49766347Y-47328782D01*
X49787971Y-47318554D01*
X49810493Y-47310496D01*
X49833697Y-47304684D01*
X49857358Y-47301174D01*
X49881250Y-47300000D01*
X50368750Y-47300000D01*
X50392642Y-47301174D01*
G37*
G04 #@! TD.AperFunction*
G04 #@! TA.AperFunction,SMDPad,CuDef*
G36*
X52267642Y-47301174D02*
G01*
X52291303Y-47304684D01*
X52314507Y-47310496D01*
X52337029Y-47318554D01*
X52358653Y-47328782D01*
X52379170Y-47341079D01*
X52398383Y-47355329D01*
X52416107Y-47371393D01*
X52432171Y-47389117D01*
X52446421Y-47408330D01*
X52458718Y-47428847D01*
X52468946Y-47450471D01*
X52477004Y-47472993D01*
X52482816Y-47496197D01*
X52486326Y-47519858D01*
X52487500Y-47543750D01*
X52487500Y-48456250D01*
X52486326Y-48480142D01*
X52482816Y-48503803D01*
X52477004Y-48527007D01*
X52468946Y-48549529D01*
X52458718Y-48571153D01*
X52446421Y-48591670D01*
X52432171Y-48610883D01*
X52416107Y-48628607D01*
X52398383Y-48644671D01*
X52379170Y-48658921D01*
X52358653Y-48671218D01*
X52337029Y-48681446D01*
X52314507Y-48689504D01*
X52291303Y-48695316D01*
X52267642Y-48698826D01*
X52243750Y-48700000D01*
X51756250Y-48700000D01*
X51732358Y-48698826D01*
X51708697Y-48695316D01*
X51685493Y-48689504D01*
X51662971Y-48681446D01*
X51641347Y-48671218D01*
X51620830Y-48658921D01*
X51601617Y-48644671D01*
X51583893Y-48628607D01*
X51567829Y-48610883D01*
X51553579Y-48591670D01*
X51541282Y-48571153D01*
X51531054Y-48549529D01*
X51522996Y-48527007D01*
X51517184Y-48503803D01*
X51513674Y-48480142D01*
X51512500Y-48456250D01*
X51512500Y-47543750D01*
X51513674Y-47519858D01*
X51517184Y-47496197D01*
X51522996Y-47472993D01*
X51531054Y-47450471D01*
X51541282Y-47428847D01*
X51553579Y-47408330D01*
X51567829Y-47389117D01*
X51583893Y-47371393D01*
X51601617Y-47355329D01*
X51620830Y-47341079D01*
X51641347Y-47328782D01*
X51662971Y-47318554D01*
X51685493Y-47310496D01*
X51708697Y-47304684D01*
X51732358Y-47301174D01*
X51756250Y-47300000D01*
X52243750Y-47300000D01*
X52267642Y-47301174D01*
G37*
G04 #@! TD.AperFunction*
G04 #@! TA.AperFunction,SMDPad,CuDef*
G36*
X71815191Y-39226053D02*
G01*
X71836426Y-39229203D01*
X71857250Y-39234419D01*
X71877462Y-39241651D01*
X71896868Y-39250830D01*
X71915281Y-39261866D01*
X71932524Y-39274654D01*
X71948430Y-39289070D01*
X71962846Y-39304976D01*
X71975634Y-39322219D01*
X71986670Y-39340632D01*
X71995849Y-39360038D01*
X72003081Y-39380250D01*
X72008297Y-39401074D01*
X72011447Y-39422309D01*
X72012500Y-39443750D01*
X72012500Y-39956250D01*
X72011447Y-39977691D01*
X72008297Y-39998926D01*
X72003081Y-40019750D01*
X71995849Y-40039962D01*
X71986670Y-40059368D01*
X71975634Y-40077781D01*
X71962846Y-40095024D01*
X71948430Y-40110930D01*
X71932524Y-40125346D01*
X71915281Y-40138134D01*
X71896868Y-40149170D01*
X71877462Y-40158349D01*
X71857250Y-40165581D01*
X71836426Y-40170797D01*
X71815191Y-40173947D01*
X71793750Y-40175000D01*
X71356250Y-40175000D01*
X71334809Y-40173947D01*
X71313574Y-40170797D01*
X71292750Y-40165581D01*
X71272538Y-40158349D01*
X71253132Y-40149170D01*
X71234719Y-40138134D01*
X71217476Y-40125346D01*
X71201570Y-40110930D01*
X71187154Y-40095024D01*
X71174366Y-40077781D01*
X71163330Y-40059368D01*
X71154151Y-40039962D01*
X71146919Y-40019750D01*
X71141703Y-39998926D01*
X71138553Y-39977691D01*
X71137500Y-39956250D01*
X71137500Y-39443750D01*
X71138553Y-39422309D01*
X71141703Y-39401074D01*
X71146919Y-39380250D01*
X71154151Y-39360038D01*
X71163330Y-39340632D01*
X71174366Y-39322219D01*
X71187154Y-39304976D01*
X71201570Y-39289070D01*
X71217476Y-39274654D01*
X71234719Y-39261866D01*
X71253132Y-39250830D01*
X71272538Y-39241651D01*
X71292750Y-39234419D01*
X71313574Y-39229203D01*
X71334809Y-39226053D01*
X71356250Y-39225000D01*
X71793750Y-39225000D01*
X71815191Y-39226053D01*
G37*
G04 #@! TD.AperFunction*
G04 #@! TA.AperFunction,SMDPad,CuDef*
G36*
X70240191Y-39226053D02*
G01*
X70261426Y-39229203D01*
X70282250Y-39234419D01*
X70302462Y-39241651D01*
X70321868Y-39250830D01*
X70340281Y-39261866D01*
X70357524Y-39274654D01*
X70373430Y-39289070D01*
X70387846Y-39304976D01*
X70400634Y-39322219D01*
X70411670Y-39340632D01*
X70420849Y-39360038D01*
X70428081Y-39380250D01*
X70433297Y-39401074D01*
X70436447Y-39422309D01*
X70437500Y-39443750D01*
X70437500Y-39956250D01*
X70436447Y-39977691D01*
X70433297Y-39998926D01*
X70428081Y-40019750D01*
X70420849Y-40039962D01*
X70411670Y-40059368D01*
X70400634Y-40077781D01*
X70387846Y-40095024D01*
X70373430Y-40110930D01*
X70357524Y-40125346D01*
X70340281Y-40138134D01*
X70321868Y-40149170D01*
X70302462Y-40158349D01*
X70282250Y-40165581D01*
X70261426Y-40170797D01*
X70240191Y-40173947D01*
X70218750Y-40175000D01*
X69781250Y-40175000D01*
X69759809Y-40173947D01*
X69738574Y-40170797D01*
X69717750Y-40165581D01*
X69697538Y-40158349D01*
X69678132Y-40149170D01*
X69659719Y-40138134D01*
X69642476Y-40125346D01*
X69626570Y-40110930D01*
X69612154Y-40095024D01*
X69599366Y-40077781D01*
X69588330Y-40059368D01*
X69579151Y-40039962D01*
X69571919Y-40019750D01*
X69566703Y-39998926D01*
X69563553Y-39977691D01*
X69562500Y-39956250D01*
X69562500Y-39443750D01*
X69563553Y-39422309D01*
X69566703Y-39401074D01*
X69571919Y-39380250D01*
X69579151Y-39360038D01*
X69588330Y-39340632D01*
X69599366Y-39322219D01*
X69612154Y-39304976D01*
X69626570Y-39289070D01*
X69642476Y-39274654D01*
X69659719Y-39261866D01*
X69678132Y-39250830D01*
X69697538Y-39241651D01*
X69717750Y-39234419D01*
X69738574Y-39229203D01*
X69759809Y-39226053D01*
X69781250Y-39225000D01*
X70218750Y-39225000D01*
X70240191Y-39226053D01*
G37*
G04 #@! TD.AperFunction*
G04 #@! TA.AperFunction,SMDPad,CuDef*
G36*
X72167642Y-36801174D02*
G01*
X72191303Y-36804684D01*
X72214507Y-36810496D01*
X72237029Y-36818554D01*
X72258653Y-36828782D01*
X72279170Y-36841079D01*
X72298383Y-36855329D01*
X72316107Y-36871393D01*
X72332171Y-36889117D01*
X72346421Y-36908330D01*
X72358718Y-36928847D01*
X72368946Y-36950471D01*
X72377004Y-36972993D01*
X72382816Y-36996197D01*
X72386326Y-37019858D01*
X72387500Y-37043750D01*
X72387500Y-37956250D01*
X72386326Y-37980142D01*
X72382816Y-38003803D01*
X72377004Y-38027007D01*
X72368946Y-38049529D01*
X72358718Y-38071153D01*
X72346421Y-38091670D01*
X72332171Y-38110883D01*
X72316107Y-38128607D01*
X72298383Y-38144671D01*
X72279170Y-38158921D01*
X72258653Y-38171218D01*
X72237029Y-38181446D01*
X72214507Y-38189504D01*
X72191303Y-38195316D01*
X72167642Y-38198826D01*
X72143750Y-38200000D01*
X71656250Y-38200000D01*
X71632358Y-38198826D01*
X71608697Y-38195316D01*
X71585493Y-38189504D01*
X71562971Y-38181446D01*
X71541347Y-38171218D01*
X71520830Y-38158921D01*
X71501617Y-38144671D01*
X71483893Y-38128607D01*
X71467829Y-38110883D01*
X71453579Y-38091670D01*
X71441282Y-38071153D01*
X71431054Y-38049529D01*
X71422996Y-38027007D01*
X71417184Y-38003803D01*
X71413674Y-37980142D01*
X71412500Y-37956250D01*
X71412500Y-37043750D01*
X71413674Y-37019858D01*
X71417184Y-36996197D01*
X71422996Y-36972993D01*
X71431054Y-36950471D01*
X71441282Y-36928847D01*
X71453579Y-36908330D01*
X71467829Y-36889117D01*
X71483893Y-36871393D01*
X71501617Y-36855329D01*
X71520830Y-36841079D01*
X71541347Y-36828782D01*
X71562971Y-36818554D01*
X71585493Y-36810496D01*
X71608697Y-36804684D01*
X71632358Y-36801174D01*
X71656250Y-36800000D01*
X72143750Y-36800000D01*
X72167642Y-36801174D01*
G37*
G04 #@! TD.AperFunction*
G04 #@! TA.AperFunction,SMDPad,CuDef*
G36*
X70292642Y-36801174D02*
G01*
X70316303Y-36804684D01*
X70339507Y-36810496D01*
X70362029Y-36818554D01*
X70383653Y-36828782D01*
X70404170Y-36841079D01*
X70423383Y-36855329D01*
X70441107Y-36871393D01*
X70457171Y-36889117D01*
X70471421Y-36908330D01*
X70483718Y-36928847D01*
X70493946Y-36950471D01*
X70502004Y-36972993D01*
X70507816Y-36996197D01*
X70511326Y-37019858D01*
X70512500Y-37043750D01*
X70512500Y-37956250D01*
X70511326Y-37980142D01*
X70507816Y-38003803D01*
X70502004Y-38027007D01*
X70493946Y-38049529D01*
X70483718Y-38071153D01*
X70471421Y-38091670D01*
X70457171Y-38110883D01*
X70441107Y-38128607D01*
X70423383Y-38144671D01*
X70404170Y-38158921D01*
X70383653Y-38171218D01*
X70362029Y-38181446D01*
X70339507Y-38189504D01*
X70316303Y-38195316D01*
X70292642Y-38198826D01*
X70268750Y-38200000D01*
X69781250Y-38200000D01*
X69757358Y-38198826D01*
X69733697Y-38195316D01*
X69710493Y-38189504D01*
X69687971Y-38181446D01*
X69666347Y-38171218D01*
X69645830Y-38158921D01*
X69626617Y-38144671D01*
X69608893Y-38128607D01*
X69592829Y-38110883D01*
X69578579Y-38091670D01*
X69566282Y-38071153D01*
X69556054Y-38049529D01*
X69547996Y-38027007D01*
X69542184Y-38003803D01*
X69538674Y-37980142D01*
X69537500Y-37956250D01*
X69537500Y-37043750D01*
X69538674Y-37019858D01*
X69542184Y-36996197D01*
X69547996Y-36972993D01*
X69556054Y-36950471D01*
X69566282Y-36928847D01*
X69578579Y-36908330D01*
X69592829Y-36889117D01*
X69608893Y-36871393D01*
X69626617Y-36855329D01*
X69645830Y-36841079D01*
X69666347Y-36828782D01*
X69687971Y-36818554D01*
X69710493Y-36810496D01*
X69733697Y-36804684D01*
X69757358Y-36801174D01*
X69781250Y-36800000D01*
X70268750Y-36800000D01*
X70292642Y-36801174D01*
G37*
G04 #@! TD.AperFunction*
D15*
X56800000Y-87500000D03*
X60100000Y-87500000D03*
X56800000Y-83500000D03*
X60100000Y-83500000D03*
G04 #@! TA.AperFunction,SMDPad,CuDef*
D10*
G36*
X67452691Y-59526053D02*
G01*
X67473926Y-59529203D01*
X67494750Y-59534419D01*
X67514962Y-59541651D01*
X67534368Y-59550830D01*
X67552781Y-59561866D01*
X67570024Y-59574654D01*
X67585930Y-59589070D01*
X67600346Y-59604976D01*
X67613134Y-59622219D01*
X67624170Y-59640632D01*
X67633349Y-59660038D01*
X67640581Y-59680250D01*
X67645797Y-59701074D01*
X67648947Y-59722309D01*
X67650000Y-59743750D01*
X67650000Y-60256250D01*
X67648947Y-60277691D01*
X67645797Y-60298926D01*
X67640581Y-60319750D01*
X67633349Y-60339962D01*
X67624170Y-60359368D01*
X67613134Y-60377781D01*
X67600346Y-60395024D01*
X67585930Y-60410930D01*
X67570024Y-60425346D01*
X67552781Y-60438134D01*
X67534368Y-60449170D01*
X67514962Y-60458349D01*
X67494750Y-60465581D01*
X67473926Y-60470797D01*
X67452691Y-60473947D01*
X67431250Y-60475000D01*
X66993750Y-60475000D01*
X66972309Y-60473947D01*
X66951074Y-60470797D01*
X66930250Y-60465581D01*
X66910038Y-60458349D01*
X66890632Y-60449170D01*
X66872219Y-60438134D01*
X66854976Y-60425346D01*
X66839070Y-60410930D01*
X66824654Y-60395024D01*
X66811866Y-60377781D01*
X66800830Y-60359368D01*
X66791651Y-60339962D01*
X66784419Y-60319750D01*
X66779203Y-60298926D01*
X66776053Y-60277691D01*
X66775000Y-60256250D01*
X66775000Y-59743750D01*
X66776053Y-59722309D01*
X66779203Y-59701074D01*
X66784419Y-59680250D01*
X66791651Y-59660038D01*
X66800830Y-59640632D01*
X66811866Y-59622219D01*
X66824654Y-59604976D01*
X66839070Y-59589070D01*
X66854976Y-59574654D01*
X66872219Y-59561866D01*
X66890632Y-59550830D01*
X66910038Y-59541651D01*
X66930250Y-59534419D01*
X66951074Y-59529203D01*
X66972309Y-59526053D01*
X66993750Y-59525000D01*
X67431250Y-59525000D01*
X67452691Y-59526053D01*
G37*
G04 #@! TD.AperFunction*
G04 #@! TA.AperFunction,SMDPad,CuDef*
G36*
X69027691Y-59526053D02*
G01*
X69048926Y-59529203D01*
X69069750Y-59534419D01*
X69089962Y-59541651D01*
X69109368Y-59550830D01*
X69127781Y-59561866D01*
X69145024Y-59574654D01*
X69160930Y-59589070D01*
X69175346Y-59604976D01*
X69188134Y-59622219D01*
X69199170Y-59640632D01*
X69208349Y-59660038D01*
X69215581Y-59680250D01*
X69220797Y-59701074D01*
X69223947Y-59722309D01*
X69225000Y-59743750D01*
X69225000Y-60256250D01*
X69223947Y-60277691D01*
X69220797Y-60298926D01*
X69215581Y-60319750D01*
X69208349Y-60339962D01*
X69199170Y-60359368D01*
X69188134Y-60377781D01*
X69175346Y-60395024D01*
X69160930Y-60410930D01*
X69145024Y-60425346D01*
X69127781Y-60438134D01*
X69109368Y-60449170D01*
X69089962Y-60458349D01*
X69069750Y-60465581D01*
X69048926Y-60470797D01*
X69027691Y-60473947D01*
X69006250Y-60475000D01*
X68568750Y-60475000D01*
X68547309Y-60473947D01*
X68526074Y-60470797D01*
X68505250Y-60465581D01*
X68485038Y-60458349D01*
X68465632Y-60449170D01*
X68447219Y-60438134D01*
X68429976Y-60425346D01*
X68414070Y-60410930D01*
X68399654Y-60395024D01*
X68386866Y-60377781D01*
X68375830Y-60359368D01*
X68366651Y-60339962D01*
X68359419Y-60319750D01*
X68354203Y-60298926D01*
X68351053Y-60277691D01*
X68350000Y-60256250D01*
X68350000Y-59743750D01*
X68351053Y-59722309D01*
X68354203Y-59701074D01*
X68359419Y-59680250D01*
X68366651Y-59660038D01*
X68375830Y-59640632D01*
X68386866Y-59622219D01*
X68399654Y-59604976D01*
X68414070Y-59589070D01*
X68429976Y-59574654D01*
X68447219Y-59561866D01*
X68465632Y-59550830D01*
X68485038Y-59541651D01*
X68505250Y-59534419D01*
X68526074Y-59529203D01*
X68547309Y-59526053D01*
X68568750Y-59525000D01*
X69006250Y-59525000D01*
X69027691Y-59526053D01*
G37*
G04 #@! TD.AperFunction*
G04 #@! TA.AperFunction,SMDPad,CuDef*
G36*
X64015191Y-59526053D02*
G01*
X64036426Y-59529203D01*
X64057250Y-59534419D01*
X64077462Y-59541651D01*
X64096868Y-59550830D01*
X64115281Y-59561866D01*
X64132524Y-59574654D01*
X64148430Y-59589070D01*
X64162846Y-59604976D01*
X64175634Y-59622219D01*
X64186670Y-59640632D01*
X64195849Y-59660038D01*
X64203081Y-59680250D01*
X64208297Y-59701074D01*
X64211447Y-59722309D01*
X64212500Y-59743750D01*
X64212500Y-60256250D01*
X64211447Y-60277691D01*
X64208297Y-60298926D01*
X64203081Y-60319750D01*
X64195849Y-60339962D01*
X64186670Y-60359368D01*
X64175634Y-60377781D01*
X64162846Y-60395024D01*
X64148430Y-60410930D01*
X64132524Y-60425346D01*
X64115281Y-60438134D01*
X64096868Y-60449170D01*
X64077462Y-60458349D01*
X64057250Y-60465581D01*
X64036426Y-60470797D01*
X64015191Y-60473947D01*
X63993750Y-60475000D01*
X63556250Y-60475000D01*
X63534809Y-60473947D01*
X63513574Y-60470797D01*
X63492750Y-60465581D01*
X63472538Y-60458349D01*
X63453132Y-60449170D01*
X63434719Y-60438134D01*
X63417476Y-60425346D01*
X63401570Y-60410930D01*
X63387154Y-60395024D01*
X63374366Y-60377781D01*
X63363330Y-60359368D01*
X63354151Y-60339962D01*
X63346919Y-60319750D01*
X63341703Y-60298926D01*
X63338553Y-60277691D01*
X63337500Y-60256250D01*
X63337500Y-59743750D01*
X63338553Y-59722309D01*
X63341703Y-59701074D01*
X63346919Y-59680250D01*
X63354151Y-59660038D01*
X63363330Y-59640632D01*
X63374366Y-59622219D01*
X63387154Y-59604976D01*
X63401570Y-59589070D01*
X63417476Y-59574654D01*
X63434719Y-59561866D01*
X63453132Y-59550830D01*
X63472538Y-59541651D01*
X63492750Y-59534419D01*
X63513574Y-59529203D01*
X63534809Y-59526053D01*
X63556250Y-59525000D01*
X63993750Y-59525000D01*
X64015191Y-59526053D01*
G37*
G04 #@! TD.AperFunction*
G04 #@! TA.AperFunction,SMDPad,CuDef*
G36*
X62440191Y-59526053D02*
G01*
X62461426Y-59529203D01*
X62482250Y-59534419D01*
X62502462Y-59541651D01*
X62521868Y-59550830D01*
X62540281Y-59561866D01*
X62557524Y-59574654D01*
X62573430Y-59589070D01*
X62587846Y-59604976D01*
X62600634Y-59622219D01*
X62611670Y-59640632D01*
X62620849Y-59660038D01*
X62628081Y-59680250D01*
X62633297Y-59701074D01*
X62636447Y-59722309D01*
X62637500Y-59743750D01*
X62637500Y-60256250D01*
X62636447Y-60277691D01*
X62633297Y-60298926D01*
X62628081Y-60319750D01*
X62620849Y-60339962D01*
X62611670Y-60359368D01*
X62600634Y-60377781D01*
X62587846Y-60395024D01*
X62573430Y-60410930D01*
X62557524Y-60425346D01*
X62540281Y-60438134D01*
X62521868Y-60449170D01*
X62502462Y-60458349D01*
X62482250Y-60465581D01*
X62461426Y-60470797D01*
X62440191Y-60473947D01*
X62418750Y-60475000D01*
X61981250Y-60475000D01*
X61959809Y-60473947D01*
X61938574Y-60470797D01*
X61917750Y-60465581D01*
X61897538Y-60458349D01*
X61878132Y-60449170D01*
X61859719Y-60438134D01*
X61842476Y-60425346D01*
X61826570Y-60410930D01*
X61812154Y-60395024D01*
X61799366Y-60377781D01*
X61788330Y-60359368D01*
X61779151Y-60339962D01*
X61771919Y-60319750D01*
X61766703Y-60298926D01*
X61763553Y-60277691D01*
X61762500Y-60256250D01*
X61762500Y-59743750D01*
X61763553Y-59722309D01*
X61766703Y-59701074D01*
X61771919Y-59680250D01*
X61779151Y-59660038D01*
X61788330Y-59640632D01*
X61799366Y-59622219D01*
X61812154Y-59604976D01*
X61826570Y-59589070D01*
X61842476Y-59574654D01*
X61859719Y-59561866D01*
X61878132Y-59550830D01*
X61897538Y-59541651D01*
X61917750Y-59534419D01*
X61938574Y-59529203D01*
X61959809Y-59526053D01*
X61981250Y-59525000D01*
X62418750Y-59525000D01*
X62440191Y-59526053D01*
G37*
G04 #@! TD.AperFunction*
G04 #@! TA.AperFunction,SMDPad,CuDef*
G36*
X59027691Y-59526053D02*
G01*
X59048926Y-59529203D01*
X59069750Y-59534419D01*
X59089962Y-59541651D01*
X59109368Y-59550830D01*
X59127781Y-59561866D01*
X59145024Y-59574654D01*
X59160930Y-59589070D01*
X59175346Y-59604976D01*
X59188134Y-59622219D01*
X59199170Y-59640632D01*
X59208349Y-59660038D01*
X59215581Y-59680250D01*
X59220797Y-59701074D01*
X59223947Y-59722309D01*
X59225000Y-59743750D01*
X59225000Y-60256250D01*
X59223947Y-60277691D01*
X59220797Y-60298926D01*
X59215581Y-60319750D01*
X59208349Y-60339962D01*
X59199170Y-60359368D01*
X59188134Y-60377781D01*
X59175346Y-60395024D01*
X59160930Y-60410930D01*
X59145024Y-60425346D01*
X59127781Y-60438134D01*
X59109368Y-60449170D01*
X59089962Y-60458349D01*
X59069750Y-60465581D01*
X59048926Y-60470797D01*
X59027691Y-60473947D01*
X59006250Y-60475000D01*
X58568750Y-60475000D01*
X58547309Y-60473947D01*
X58526074Y-60470797D01*
X58505250Y-60465581D01*
X58485038Y-60458349D01*
X58465632Y-60449170D01*
X58447219Y-60438134D01*
X58429976Y-60425346D01*
X58414070Y-60410930D01*
X58399654Y-60395024D01*
X58386866Y-60377781D01*
X58375830Y-60359368D01*
X58366651Y-60339962D01*
X58359419Y-60319750D01*
X58354203Y-60298926D01*
X58351053Y-60277691D01*
X58350000Y-60256250D01*
X58350000Y-59743750D01*
X58351053Y-59722309D01*
X58354203Y-59701074D01*
X58359419Y-59680250D01*
X58366651Y-59660038D01*
X58375830Y-59640632D01*
X58386866Y-59622219D01*
X58399654Y-59604976D01*
X58414070Y-59589070D01*
X58429976Y-59574654D01*
X58447219Y-59561866D01*
X58465632Y-59550830D01*
X58485038Y-59541651D01*
X58505250Y-59534419D01*
X58526074Y-59529203D01*
X58547309Y-59526053D01*
X58568750Y-59525000D01*
X59006250Y-59525000D01*
X59027691Y-59526053D01*
G37*
G04 #@! TD.AperFunction*
G04 #@! TA.AperFunction,SMDPad,CuDef*
G36*
X57452691Y-59526053D02*
G01*
X57473926Y-59529203D01*
X57494750Y-59534419D01*
X57514962Y-59541651D01*
X57534368Y-59550830D01*
X57552781Y-59561866D01*
X57570024Y-59574654D01*
X57585930Y-59589070D01*
X57600346Y-59604976D01*
X57613134Y-59622219D01*
X57624170Y-59640632D01*
X57633349Y-59660038D01*
X57640581Y-59680250D01*
X57645797Y-59701074D01*
X57648947Y-59722309D01*
X57650000Y-59743750D01*
X57650000Y-60256250D01*
X57648947Y-60277691D01*
X57645797Y-60298926D01*
X57640581Y-60319750D01*
X57633349Y-60339962D01*
X57624170Y-60359368D01*
X57613134Y-60377781D01*
X57600346Y-60395024D01*
X57585930Y-60410930D01*
X57570024Y-60425346D01*
X57552781Y-60438134D01*
X57534368Y-60449170D01*
X57514962Y-60458349D01*
X57494750Y-60465581D01*
X57473926Y-60470797D01*
X57452691Y-60473947D01*
X57431250Y-60475000D01*
X56993750Y-60475000D01*
X56972309Y-60473947D01*
X56951074Y-60470797D01*
X56930250Y-60465581D01*
X56910038Y-60458349D01*
X56890632Y-60449170D01*
X56872219Y-60438134D01*
X56854976Y-60425346D01*
X56839070Y-60410930D01*
X56824654Y-60395024D01*
X56811866Y-60377781D01*
X56800830Y-60359368D01*
X56791651Y-60339962D01*
X56784419Y-60319750D01*
X56779203Y-60298926D01*
X56776053Y-60277691D01*
X56775000Y-60256250D01*
X56775000Y-59743750D01*
X56776053Y-59722309D01*
X56779203Y-59701074D01*
X56784419Y-59680250D01*
X56791651Y-59660038D01*
X56800830Y-59640632D01*
X56811866Y-59622219D01*
X56824654Y-59604976D01*
X56839070Y-59589070D01*
X56854976Y-59574654D01*
X56872219Y-59561866D01*
X56890632Y-59550830D01*
X56910038Y-59541651D01*
X56930250Y-59534419D01*
X56951074Y-59529203D01*
X56972309Y-59526053D01*
X56993750Y-59525000D01*
X57431250Y-59525000D01*
X57452691Y-59526053D01*
G37*
G04 #@! TD.AperFunction*
G04 #@! TA.AperFunction,SMDPad,CuDef*
G36*
X52452691Y-59526053D02*
G01*
X52473926Y-59529203D01*
X52494750Y-59534419D01*
X52514962Y-59541651D01*
X52534368Y-59550830D01*
X52552781Y-59561866D01*
X52570024Y-59574654D01*
X52585930Y-59589070D01*
X52600346Y-59604976D01*
X52613134Y-59622219D01*
X52624170Y-59640632D01*
X52633349Y-59660038D01*
X52640581Y-59680250D01*
X52645797Y-59701074D01*
X52648947Y-59722309D01*
X52650000Y-59743750D01*
X52650000Y-60256250D01*
X52648947Y-60277691D01*
X52645797Y-60298926D01*
X52640581Y-60319750D01*
X52633349Y-60339962D01*
X52624170Y-60359368D01*
X52613134Y-60377781D01*
X52600346Y-60395024D01*
X52585930Y-60410930D01*
X52570024Y-60425346D01*
X52552781Y-60438134D01*
X52534368Y-60449170D01*
X52514962Y-60458349D01*
X52494750Y-60465581D01*
X52473926Y-60470797D01*
X52452691Y-60473947D01*
X52431250Y-60475000D01*
X51993750Y-60475000D01*
X51972309Y-60473947D01*
X51951074Y-60470797D01*
X51930250Y-60465581D01*
X51910038Y-60458349D01*
X51890632Y-60449170D01*
X51872219Y-60438134D01*
X51854976Y-60425346D01*
X51839070Y-60410930D01*
X51824654Y-60395024D01*
X51811866Y-60377781D01*
X51800830Y-60359368D01*
X51791651Y-60339962D01*
X51784419Y-60319750D01*
X51779203Y-60298926D01*
X51776053Y-60277691D01*
X51775000Y-60256250D01*
X51775000Y-59743750D01*
X51776053Y-59722309D01*
X51779203Y-59701074D01*
X51784419Y-59680250D01*
X51791651Y-59660038D01*
X51800830Y-59640632D01*
X51811866Y-59622219D01*
X51824654Y-59604976D01*
X51839070Y-59589070D01*
X51854976Y-59574654D01*
X51872219Y-59561866D01*
X51890632Y-59550830D01*
X51910038Y-59541651D01*
X51930250Y-59534419D01*
X51951074Y-59529203D01*
X51972309Y-59526053D01*
X51993750Y-59525000D01*
X52431250Y-59525000D01*
X52452691Y-59526053D01*
G37*
G04 #@! TD.AperFunction*
G04 #@! TA.AperFunction,SMDPad,CuDef*
G36*
X54027691Y-59526053D02*
G01*
X54048926Y-59529203D01*
X54069750Y-59534419D01*
X54089962Y-59541651D01*
X54109368Y-59550830D01*
X54127781Y-59561866D01*
X54145024Y-59574654D01*
X54160930Y-59589070D01*
X54175346Y-59604976D01*
X54188134Y-59622219D01*
X54199170Y-59640632D01*
X54208349Y-59660038D01*
X54215581Y-59680250D01*
X54220797Y-59701074D01*
X54223947Y-59722309D01*
X54225000Y-59743750D01*
X54225000Y-60256250D01*
X54223947Y-60277691D01*
X54220797Y-60298926D01*
X54215581Y-60319750D01*
X54208349Y-60339962D01*
X54199170Y-60359368D01*
X54188134Y-60377781D01*
X54175346Y-60395024D01*
X54160930Y-60410930D01*
X54145024Y-60425346D01*
X54127781Y-60438134D01*
X54109368Y-60449170D01*
X54089962Y-60458349D01*
X54069750Y-60465581D01*
X54048926Y-60470797D01*
X54027691Y-60473947D01*
X54006250Y-60475000D01*
X53568750Y-60475000D01*
X53547309Y-60473947D01*
X53526074Y-60470797D01*
X53505250Y-60465581D01*
X53485038Y-60458349D01*
X53465632Y-60449170D01*
X53447219Y-60438134D01*
X53429976Y-60425346D01*
X53414070Y-60410930D01*
X53399654Y-60395024D01*
X53386866Y-60377781D01*
X53375830Y-60359368D01*
X53366651Y-60339962D01*
X53359419Y-60319750D01*
X53354203Y-60298926D01*
X53351053Y-60277691D01*
X53350000Y-60256250D01*
X53350000Y-59743750D01*
X53351053Y-59722309D01*
X53354203Y-59701074D01*
X53359419Y-59680250D01*
X53366651Y-59660038D01*
X53375830Y-59640632D01*
X53386866Y-59622219D01*
X53399654Y-59604976D01*
X53414070Y-59589070D01*
X53429976Y-59574654D01*
X53447219Y-59561866D01*
X53465632Y-59550830D01*
X53485038Y-59541651D01*
X53505250Y-59534419D01*
X53526074Y-59529203D01*
X53547309Y-59526053D01*
X53568750Y-59525000D01*
X54006250Y-59525000D01*
X54027691Y-59526053D01*
G37*
G04 #@! TD.AperFunction*
G04 #@! TA.AperFunction,SMDPad,CuDef*
G36*
X48260779Y-65476144D02*
G01*
X48283834Y-65479563D01*
X48306443Y-65485227D01*
X48328387Y-65493079D01*
X48349457Y-65503044D01*
X48369448Y-65515026D01*
X48388168Y-65528910D01*
X48405438Y-65544562D01*
X48421090Y-65561832D01*
X48434974Y-65580552D01*
X48446956Y-65600543D01*
X48456921Y-65621613D01*
X48464773Y-65643557D01*
X48470437Y-65666166D01*
X48473856Y-65689221D01*
X48475000Y-65712500D01*
X48475000Y-66287500D01*
X48473856Y-66310779D01*
X48470437Y-66333834D01*
X48464773Y-66356443D01*
X48456921Y-66378387D01*
X48446956Y-66399457D01*
X48434974Y-66419448D01*
X48421090Y-66438168D01*
X48405438Y-66455438D01*
X48388168Y-66471090D01*
X48369448Y-66484974D01*
X48349457Y-66496956D01*
X48328387Y-66506921D01*
X48306443Y-66514773D01*
X48283834Y-66520437D01*
X48260779Y-66523856D01*
X48237500Y-66525000D01*
X47762500Y-66525000D01*
X47739221Y-66523856D01*
X47716166Y-66520437D01*
X47693557Y-66514773D01*
X47671613Y-66506921D01*
X47650543Y-66496956D01*
X47630552Y-66484974D01*
X47611832Y-66471090D01*
X47594562Y-66455438D01*
X47578910Y-66438168D01*
X47565026Y-66419448D01*
X47553044Y-66399457D01*
X47543079Y-66378387D01*
X47535227Y-66356443D01*
X47529563Y-66333834D01*
X47526144Y-66310779D01*
X47525000Y-66287500D01*
X47525000Y-65712500D01*
X47526144Y-65689221D01*
X47529563Y-65666166D01*
X47535227Y-65643557D01*
X47543079Y-65621613D01*
X47553044Y-65600543D01*
X47565026Y-65580552D01*
X47578910Y-65561832D01*
X47594562Y-65544562D01*
X47611832Y-65528910D01*
X47630552Y-65515026D01*
X47650543Y-65503044D01*
X47671613Y-65493079D01*
X47693557Y-65485227D01*
X47716166Y-65479563D01*
X47739221Y-65476144D01*
X47762500Y-65475000D01*
X48237500Y-65475000D01*
X48260779Y-65476144D01*
G37*
G04 #@! TD.AperFunction*
G04 #@! TA.AperFunction,SMDPad,CuDef*
G36*
X48260779Y-67226144D02*
G01*
X48283834Y-67229563D01*
X48306443Y-67235227D01*
X48328387Y-67243079D01*
X48349457Y-67253044D01*
X48369448Y-67265026D01*
X48388168Y-67278910D01*
X48405438Y-67294562D01*
X48421090Y-67311832D01*
X48434974Y-67330552D01*
X48446956Y-67350543D01*
X48456921Y-67371613D01*
X48464773Y-67393557D01*
X48470437Y-67416166D01*
X48473856Y-67439221D01*
X48475000Y-67462500D01*
X48475000Y-68037500D01*
X48473856Y-68060779D01*
X48470437Y-68083834D01*
X48464773Y-68106443D01*
X48456921Y-68128387D01*
X48446956Y-68149457D01*
X48434974Y-68169448D01*
X48421090Y-68188168D01*
X48405438Y-68205438D01*
X48388168Y-68221090D01*
X48369448Y-68234974D01*
X48349457Y-68246956D01*
X48328387Y-68256921D01*
X48306443Y-68264773D01*
X48283834Y-68270437D01*
X48260779Y-68273856D01*
X48237500Y-68275000D01*
X47762500Y-68275000D01*
X47739221Y-68273856D01*
X47716166Y-68270437D01*
X47693557Y-68264773D01*
X47671613Y-68256921D01*
X47650543Y-68246956D01*
X47630552Y-68234974D01*
X47611832Y-68221090D01*
X47594562Y-68205438D01*
X47578910Y-68188168D01*
X47565026Y-68169448D01*
X47553044Y-68149457D01*
X47543079Y-68128387D01*
X47535227Y-68106443D01*
X47529563Y-68083834D01*
X47526144Y-68060779D01*
X47525000Y-68037500D01*
X47525000Y-67462500D01*
X47526144Y-67439221D01*
X47529563Y-67416166D01*
X47535227Y-67393557D01*
X47543079Y-67371613D01*
X47553044Y-67350543D01*
X47565026Y-67330552D01*
X47578910Y-67311832D01*
X47594562Y-67294562D01*
X47611832Y-67278910D01*
X47630552Y-67265026D01*
X47650543Y-67253044D01*
X47671613Y-67243079D01*
X47693557Y-67235227D01*
X47716166Y-67229563D01*
X47739221Y-67226144D01*
X47762500Y-67225000D01*
X48237500Y-67225000D01*
X48260779Y-67226144D01*
G37*
G04 #@! TD.AperFunction*
D16*
X40400000Y-56500000D03*
D17*
X37860000Y-56500000D03*
X40400000Y-59040000D03*
X37860000Y-59040000D03*
X40400000Y-61580000D03*
X37860000Y-61580000D03*
X40400000Y-64120000D03*
X37860000Y-64120000D03*
X40400000Y-66660000D03*
X37860000Y-66660000D03*
D18*
X68000000Y-68000000D03*
D19*
X68000000Y-65460000D03*
X63000000Y-65460000D03*
D18*
X63000000Y-68000000D03*
X58000000Y-68000000D03*
D19*
X58000000Y-65460000D03*
X53000000Y-65460000D03*
D18*
X53000000Y-68000000D03*
D19*
X84040000Y-38700000D03*
X81500000Y-38700000D03*
X84040000Y-41240000D03*
D18*
X81500000Y-41240000D03*
D19*
X66620000Y-47860000D03*
X66620000Y-50400000D03*
X64080000Y-47860000D03*
X64080000Y-50400000D03*
X61540000Y-47860000D03*
X61540000Y-50400000D03*
X59000000Y-47860000D03*
D18*
X59000000Y-50400000D03*
X66700000Y-76400000D03*
D19*
X66700000Y-78940000D03*
X64160000Y-76400000D03*
X64160000Y-78940000D03*
X61620000Y-76400000D03*
X61620000Y-78940000D03*
X59080000Y-76400000D03*
X59080000Y-78940000D03*
D18*
X81500000Y-86300000D03*
D19*
X84040000Y-86300000D03*
X81500000Y-83760000D03*
X84040000Y-83760000D03*
G04 #@! TA.AperFunction,SMDPad,CuDef*
D10*
G36*
X48277691Y-57563553D02*
G01*
X48298926Y-57566703D01*
X48319750Y-57571919D01*
X48339962Y-57579151D01*
X48359368Y-57588330D01*
X48377781Y-57599366D01*
X48395024Y-57612154D01*
X48410930Y-57626570D01*
X48425346Y-57642476D01*
X48438134Y-57659719D01*
X48449170Y-57678132D01*
X48458349Y-57697538D01*
X48465581Y-57717750D01*
X48470797Y-57738574D01*
X48473947Y-57759809D01*
X48475000Y-57781250D01*
X48475000Y-58218750D01*
X48473947Y-58240191D01*
X48470797Y-58261426D01*
X48465581Y-58282250D01*
X48458349Y-58302462D01*
X48449170Y-58321868D01*
X48438134Y-58340281D01*
X48425346Y-58357524D01*
X48410930Y-58373430D01*
X48395024Y-58387846D01*
X48377781Y-58400634D01*
X48359368Y-58411670D01*
X48339962Y-58420849D01*
X48319750Y-58428081D01*
X48298926Y-58433297D01*
X48277691Y-58436447D01*
X48256250Y-58437500D01*
X47743750Y-58437500D01*
X47722309Y-58436447D01*
X47701074Y-58433297D01*
X47680250Y-58428081D01*
X47660038Y-58420849D01*
X47640632Y-58411670D01*
X47622219Y-58400634D01*
X47604976Y-58387846D01*
X47589070Y-58373430D01*
X47574654Y-58357524D01*
X47561866Y-58340281D01*
X47550830Y-58321868D01*
X47541651Y-58302462D01*
X47534419Y-58282250D01*
X47529203Y-58261426D01*
X47526053Y-58240191D01*
X47525000Y-58218750D01*
X47525000Y-57781250D01*
X47526053Y-57759809D01*
X47529203Y-57738574D01*
X47534419Y-57717750D01*
X47541651Y-57697538D01*
X47550830Y-57678132D01*
X47561866Y-57659719D01*
X47574654Y-57642476D01*
X47589070Y-57626570D01*
X47604976Y-57612154D01*
X47622219Y-57599366D01*
X47640632Y-57588330D01*
X47660038Y-57579151D01*
X47680250Y-57571919D01*
X47701074Y-57566703D01*
X47722309Y-57563553D01*
X47743750Y-57562500D01*
X48256250Y-57562500D01*
X48277691Y-57563553D01*
G37*
G04 #@! TD.AperFunction*
G04 #@! TA.AperFunction,SMDPad,CuDef*
G36*
X48277691Y-55988553D02*
G01*
X48298926Y-55991703D01*
X48319750Y-55996919D01*
X48339962Y-56004151D01*
X48359368Y-56013330D01*
X48377781Y-56024366D01*
X48395024Y-56037154D01*
X48410930Y-56051570D01*
X48425346Y-56067476D01*
X48438134Y-56084719D01*
X48449170Y-56103132D01*
X48458349Y-56122538D01*
X48465581Y-56142750D01*
X48470797Y-56163574D01*
X48473947Y-56184809D01*
X48475000Y-56206250D01*
X48475000Y-56643750D01*
X48473947Y-56665191D01*
X48470797Y-56686426D01*
X48465581Y-56707250D01*
X48458349Y-56727462D01*
X48449170Y-56746868D01*
X48438134Y-56765281D01*
X48425346Y-56782524D01*
X48410930Y-56798430D01*
X48395024Y-56812846D01*
X48377781Y-56825634D01*
X48359368Y-56836670D01*
X48339962Y-56845849D01*
X48319750Y-56853081D01*
X48298926Y-56858297D01*
X48277691Y-56861447D01*
X48256250Y-56862500D01*
X47743750Y-56862500D01*
X47722309Y-56861447D01*
X47701074Y-56858297D01*
X47680250Y-56853081D01*
X47660038Y-56845849D01*
X47640632Y-56836670D01*
X47622219Y-56825634D01*
X47604976Y-56812846D01*
X47589070Y-56798430D01*
X47574654Y-56782524D01*
X47561866Y-56765281D01*
X47550830Y-56746868D01*
X47541651Y-56727462D01*
X47534419Y-56707250D01*
X47529203Y-56686426D01*
X47526053Y-56665191D01*
X47525000Y-56643750D01*
X47525000Y-56206250D01*
X47526053Y-56184809D01*
X47529203Y-56163574D01*
X47534419Y-56142750D01*
X47541651Y-56122538D01*
X47550830Y-56103132D01*
X47561866Y-56084719D01*
X47574654Y-56067476D01*
X47589070Y-56051570D01*
X47604976Y-56037154D01*
X47622219Y-56024366D01*
X47640632Y-56013330D01*
X47660038Y-56004151D01*
X47680250Y-55996919D01*
X47701074Y-55991703D01*
X47722309Y-55988553D01*
X47743750Y-55987500D01*
X48256250Y-55987500D01*
X48277691Y-55988553D01*
G37*
G04 #@! TD.AperFunction*
G04 #@! TA.AperFunction,SMDPad,CuDef*
G36*
X69027691Y-56526053D02*
G01*
X69048926Y-56529203D01*
X69069750Y-56534419D01*
X69089962Y-56541651D01*
X69109368Y-56550830D01*
X69127781Y-56561866D01*
X69145024Y-56574654D01*
X69160930Y-56589070D01*
X69175346Y-56604976D01*
X69188134Y-56622219D01*
X69199170Y-56640632D01*
X69208349Y-56660038D01*
X69215581Y-56680250D01*
X69220797Y-56701074D01*
X69223947Y-56722309D01*
X69225000Y-56743750D01*
X69225000Y-57256250D01*
X69223947Y-57277691D01*
X69220797Y-57298926D01*
X69215581Y-57319750D01*
X69208349Y-57339962D01*
X69199170Y-57359368D01*
X69188134Y-57377781D01*
X69175346Y-57395024D01*
X69160930Y-57410930D01*
X69145024Y-57425346D01*
X69127781Y-57438134D01*
X69109368Y-57449170D01*
X69089962Y-57458349D01*
X69069750Y-57465581D01*
X69048926Y-57470797D01*
X69027691Y-57473947D01*
X69006250Y-57475000D01*
X68568750Y-57475000D01*
X68547309Y-57473947D01*
X68526074Y-57470797D01*
X68505250Y-57465581D01*
X68485038Y-57458349D01*
X68465632Y-57449170D01*
X68447219Y-57438134D01*
X68429976Y-57425346D01*
X68414070Y-57410930D01*
X68399654Y-57395024D01*
X68386866Y-57377781D01*
X68375830Y-57359368D01*
X68366651Y-57339962D01*
X68359419Y-57319750D01*
X68354203Y-57298926D01*
X68351053Y-57277691D01*
X68350000Y-57256250D01*
X68350000Y-56743750D01*
X68351053Y-56722309D01*
X68354203Y-56701074D01*
X68359419Y-56680250D01*
X68366651Y-56660038D01*
X68375830Y-56640632D01*
X68386866Y-56622219D01*
X68399654Y-56604976D01*
X68414070Y-56589070D01*
X68429976Y-56574654D01*
X68447219Y-56561866D01*
X68465632Y-56550830D01*
X68485038Y-56541651D01*
X68505250Y-56534419D01*
X68526074Y-56529203D01*
X68547309Y-56526053D01*
X68568750Y-56525000D01*
X69006250Y-56525000D01*
X69027691Y-56526053D01*
G37*
G04 #@! TD.AperFunction*
G04 #@! TA.AperFunction,SMDPad,CuDef*
G36*
X67452691Y-56526053D02*
G01*
X67473926Y-56529203D01*
X67494750Y-56534419D01*
X67514962Y-56541651D01*
X67534368Y-56550830D01*
X67552781Y-56561866D01*
X67570024Y-56574654D01*
X67585930Y-56589070D01*
X67600346Y-56604976D01*
X67613134Y-56622219D01*
X67624170Y-56640632D01*
X67633349Y-56660038D01*
X67640581Y-56680250D01*
X67645797Y-56701074D01*
X67648947Y-56722309D01*
X67650000Y-56743750D01*
X67650000Y-57256250D01*
X67648947Y-57277691D01*
X67645797Y-57298926D01*
X67640581Y-57319750D01*
X67633349Y-57339962D01*
X67624170Y-57359368D01*
X67613134Y-57377781D01*
X67600346Y-57395024D01*
X67585930Y-57410930D01*
X67570024Y-57425346D01*
X67552781Y-57438134D01*
X67534368Y-57449170D01*
X67514962Y-57458349D01*
X67494750Y-57465581D01*
X67473926Y-57470797D01*
X67452691Y-57473947D01*
X67431250Y-57475000D01*
X66993750Y-57475000D01*
X66972309Y-57473947D01*
X66951074Y-57470797D01*
X66930250Y-57465581D01*
X66910038Y-57458349D01*
X66890632Y-57449170D01*
X66872219Y-57438134D01*
X66854976Y-57425346D01*
X66839070Y-57410930D01*
X66824654Y-57395024D01*
X66811866Y-57377781D01*
X66800830Y-57359368D01*
X66791651Y-57339962D01*
X66784419Y-57319750D01*
X66779203Y-57298926D01*
X66776053Y-57277691D01*
X66775000Y-57256250D01*
X66775000Y-56743750D01*
X66776053Y-56722309D01*
X66779203Y-56701074D01*
X66784419Y-56680250D01*
X66791651Y-56660038D01*
X66800830Y-56640632D01*
X66811866Y-56622219D01*
X66824654Y-56604976D01*
X66839070Y-56589070D01*
X66854976Y-56574654D01*
X66872219Y-56561866D01*
X66890632Y-56550830D01*
X66910038Y-56541651D01*
X66930250Y-56534419D01*
X66951074Y-56529203D01*
X66972309Y-56526053D01*
X66993750Y-56525000D01*
X67431250Y-56525000D01*
X67452691Y-56526053D01*
G37*
G04 #@! TD.AperFunction*
G04 #@! TA.AperFunction,SMDPad,CuDef*
G36*
X62452691Y-56526053D02*
G01*
X62473926Y-56529203D01*
X62494750Y-56534419D01*
X62514962Y-56541651D01*
X62534368Y-56550830D01*
X62552781Y-56561866D01*
X62570024Y-56574654D01*
X62585930Y-56589070D01*
X62600346Y-56604976D01*
X62613134Y-56622219D01*
X62624170Y-56640632D01*
X62633349Y-56660038D01*
X62640581Y-56680250D01*
X62645797Y-56701074D01*
X62648947Y-56722309D01*
X62650000Y-56743750D01*
X62650000Y-57256250D01*
X62648947Y-57277691D01*
X62645797Y-57298926D01*
X62640581Y-57319750D01*
X62633349Y-57339962D01*
X62624170Y-57359368D01*
X62613134Y-57377781D01*
X62600346Y-57395024D01*
X62585930Y-57410930D01*
X62570024Y-57425346D01*
X62552781Y-57438134D01*
X62534368Y-57449170D01*
X62514962Y-57458349D01*
X62494750Y-57465581D01*
X62473926Y-57470797D01*
X62452691Y-57473947D01*
X62431250Y-57475000D01*
X61993750Y-57475000D01*
X61972309Y-57473947D01*
X61951074Y-57470797D01*
X61930250Y-57465581D01*
X61910038Y-57458349D01*
X61890632Y-57449170D01*
X61872219Y-57438134D01*
X61854976Y-57425346D01*
X61839070Y-57410930D01*
X61824654Y-57395024D01*
X61811866Y-57377781D01*
X61800830Y-57359368D01*
X61791651Y-57339962D01*
X61784419Y-57319750D01*
X61779203Y-57298926D01*
X61776053Y-57277691D01*
X61775000Y-57256250D01*
X61775000Y-56743750D01*
X61776053Y-56722309D01*
X61779203Y-56701074D01*
X61784419Y-56680250D01*
X61791651Y-56660038D01*
X61800830Y-56640632D01*
X61811866Y-56622219D01*
X61824654Y-56604976D01*
X61839070Y-56589070D01*
X61854976Y-56574654D01*
X61872219Y-56561866D01*
X61890632Y-56550830D01*
X61910038Y-56541651D01*
X61930250Y-56534419D01*
X61951074Y-56529203D01*
X61972309Y-56526053D01*
X61993750Y-56525000D01*
X62431250Y-56525000D01*
X62452691Y-56526053D01*
G37*
G04 #@! TD.AperFunction*
G04 #@! TA.AperFunction,SMDPad,CuDef*
G36*
X64027691Y-56526053D02*
G01*
X64048926Y-56529203D01*
X64069750Y-56534419D01*
X64089962Y-56541651D01*
X64109368Y-56550830D01*
X64127781Y-56561866D01*
X64145024Y-56574654D01*
X64160930Y-56589070D01*
X64175346Y-56604976D01*
X64188134Y-56622219D01*
X64199170Y-56640632D01*
X64208349Y-56660038D01*
X64215581Y-56680250D01*
X64220797Y-56701074D01*
X64223947Y-56722309D01*
X64225000Y-56743750D01*
X64225000Y-57256250D01*
X64223947Y-57277691D01*
X64220797Y-57298926D01*
X64215581Y-57319750D01*
X64208349Y-57339962D01*
X64199170Y-57359368D01*
X64188134Y-57377781D01*
X64175346Y-57395024D01*
X64160930Y-57410930D01*
X64145024Y-57425346D01*
X64127781Y-57438134D01*
X64109368Y-57449170D01*
X64089962Y-57458349D01*
X64069750Y-57465581D01*
X64048926Y-57470797D01*
X64027691Y-57473947D01*
X64006250Y-57475000D01*
X63568750Y-57475000D01*
X63547309Y-57473947D01*
X63526074Y-57470797D01*
X63505250Y-57465581D01*
X63485038Y-57458349D01*
X63465632Y-57449170D01*
X63447219Y-57438134D01*
X63429976Y-57425346D01*
X63414070Y-57410930D01*
X63399654Y-57395024D01*
X63386866Y-57377781D01*
X63375830Y-57359368D01*
X63366651Y-57339962D01*
X63359419Y-57319750D01*
X63354203Y-57298926D01*
X63351053Y-57277691D01*
X63350000Y-57256250D01*
X63350000Y-56743750D01*
X63351053Y-56722309D01*
X63354203Y-56701074D01*
X63359419Y-56680250D01*
X63366651Y-56660038D01*
X63375830Y-56640632D01*
X63386866Y-56622219D01*
X63399654Y-56604976D01*
X63414070Y-56589070D01*
X63429976Y-56574654D01*
X63447219Y-56561866D01*
X63465632Y-56550830D01*
X63485038Y-56541651D01*
X63505250Y-56534419D01*
X63526074Y-56529203D01*
X63547309Y-56526053D01*
X63568750Y-56525000D01*
X64006250Y-56525000D01*
X64027691Y-56526053D01*
G37*
G04 #@! TD.AperFunction*
G04 #@! TA.AperFunction,SMDPad,CuDef*
G36*
X57452691Y-56526053D02*
G01*
X57473926Y-56529203D01*
X57494750Y-56534419D01*
X57514962Y-56541651D01*
X57534368Y-56550830D01*
X57552781Y-56561866D01*
X57570024Y-56574654D01*
X57585930Y-56589070D01*
X57600346Y-56604976D01*
X57613134Y-56622219D01*
X57624170Y-56640632D01*
X57633349Y-56660038D01*
X57640581Y-56680250D01*
X57645797Y-56701074D01*
X57648947Y-56722309D01*
X57650000Y-56743750D01*
X57650000Y-57256250D01*
X57648947Y-57277691D01*
X57645797Y-57298926D01*
X57640581Y-57319750D01*
X57633349Y-57339962D01*
X57624170Y-57359368D01*
X57613134Y-57377781D01*
X57600346Y-57395024D01*
X57585930Y-57410930D01*
X57570024Y-57425346D01*
X57552781Y-57438134D01*
X57534368Y-57449170D01*
X57514962Y-57458349D01*
X57494750Y-57465581D01*
X57473926Y-57470797D01*
X57452691Y-57473947D01*
X57431250Y-57475000D01*
X56993750Y-57475000D01*
X56972309Y-57473947D01*
X56951074Y-57470797D01*
X56930250Y-57465581D01*
X56910038Y-57458349D01*
X56890632Y-57449170D01*
X56872219Y-57438134D01*
X56854976Y-57425346D01*
X56839070Y-57410930D01*
X56824654Y-57395024D01*
X56811866Y-57377781D01*
X56800830Y-57359368D01*
X56791651Y-57339962D01*
X56784419Y-57319750D01*
X56779203Y-57298926D01*
X56776053Y-57277691D01*
X56775000Y-57256250D01*
X56775000Y-56743750D01*
X56776053Y-56722309D01*
X56779203Y-56701074D01*
X56784419Y-56680250D01*
X56791651Y-56660038D01*
X56800830Y-56640632D01*
X56811866Y-56622219D01*
X56824654Y-56604976D01*
X56839070Y-56589070D01*
X56854976Y-56574654D01*
X56872219Y-56561866D01*
X56890632Y-56550830D01*
X56910038Y-56541651D01*
X56930250Y-56534419D01*
X56951074Y-56529203D01*
X56972309Y-56526053D01*
X56993750Y-56525000D01*
X57431250Y-56525000D01*
X57452691Y-56526053D01*
G37*
G04 #@! TD.AperFunction*
G04 #@! TA.AperFunction,SMDPad,CuDef*
G36*
X59027691Y-56526053D02*
G01*
X59048926Y-56529203D01*
X59069750Y-56534419D01*
X59089962Y-56541651D01*
X59109368Y-56550830D01*
X59127781Y-56561866D01*
X59145024Y-56574654D01*
X59160930Y-56589070D01*
X59175346Y-56604976D01*
X59188134Y-56622219D01*
X59199170Y-56640632D01*
X59208349Y-56660038D01*
X59215581Y-56680250D01*
X59220797Y-56701074D01*
X59223947Y-56722309D01*
X59225000Y-56743750D01*
X59225000Y-57256250D01*
X59223947Y-57277691D01*
X59220797Y-57298926D01*
X59215581Y-57319750D01*
X59208349Y-57339962D01*
X59199170Y-57359368D01*
X59188134Y-57377781D01*
X59175346Y-57395024D01*
X59160930Y-57410930D01*
X59145024Y-57425346D01*
X59127781Y-57438134D01*
X59109368Y-57449170D01*
X59089962Y-57458349D01*
X59069750Y-57465581D01*
X59048926Y-57470797D01*
X59027691Y-57473947D01*
X59006250Y-57475000D01*
X58568750Y-57475000D01*
X58547309Y-57473947D01*
X58526074Y-57470797D01*
X58505250Y-57465581D01*
X58485038Y-57458349D01*
X58465632Y-57449170D01*
X58447219Y-57438134D01*
X58429976Y-57425346D01*
X58414070Y-57410930D01*
X58399654Y-57395024D01*
X58386866Y-57377781D01*
X58375830Y-57359368D01*
X58366651Y-57339962D01*
X58359419Y-57319750D01*
X58354203Y-57298926D01*
X58351053Y-57277691D01*
X58350000Y-57256250D01*
X58350000Y-56743750D01*
X58351053Y-56722309D01*
X58354203Y-56701074D01*
X58359419Y-56680250D01*
X58366651Y-56660038D01*
X58375830Y-56640632D01*
X58386866Y-56622219D01*
X58399654Y-56604976D01*
X58414070Y-56589070D01*
X58429976Y-56574654D01*
X58447219Y-56561866D01*
X58465632Y-56550830D01*
X58485038Y-56541651D01*
X58505250Y-56534419D01*
X58526074Y-56529203D01*
X58547309Y-56526053D01*
X58568750Y-56525000D01*
X59006250Y-56525000D01*
X59027691Y-56526053D01*
G37*
G04 #@! TD.AperFunction*
G04 #@! TA.AperFunction,SMDPad,CuDef*
G36*
X54027691Y-56313553D02*
G01*
X54048926Y-56316703D01*
X54069750Y-56321919D01*
X54089962Y-56329151D01*
X54109368Y-56338330D01*
X54127781Y-56349366D01*
X54145024Y-56362154D01*
X54160930Y-56376570D01*
X54175346Y-56392476D01*
X54188134Y-56409719D01*
X54199170Y-56428132D01*
X54208349Y-56447538D01*
X54215581Y-56467750D01*
X54220797Y-56488574D01*
X54223947Y-56509809D01*
X54225000Y-56531250D01*
X54225000Y-57043750D01*
X54223947Y-57065191D01*
X54220797Y-57086426D01*
X54215581Y-57107250D01*
X54208349Y-57127462D01*
X54199170Y-57146868D01*
X54188134Y-57165281D01*
X54175346Y-57182524D01*
X54160930Y-57198430D01*
X54145024Y-57212846D01*
X54127781Y-57225634D01*
X54109368Y-57236670D01*
X54089962Y-57245849D01*
X54069750Y-57253081D01*
X54048926Y-57258297D01*
X54027691Y-57261447D01*
X54006250Y-57262500D01*
X53568750Y-57262500D01*
X53547309Y-57261447D01*
X53526074Y-57258297D01*
X53505250Y-57253081D01*
X53485038Y-57245849D01*
X53465632Y-57236670D01*
X53447219Y-57225634D01*
X53429976Y-57212846D01*
X53414070Y-57198430D01*
X53399654Y-57182524D01*
X53386866Y-57165281D01*
X53375830Y-57146868D01*
X53366651Y-57127462D01*
X53359419Y-57107250D01*
X53354203Y-57086426D01*
X53351053Y-57065191D01*
X53350000Y-57043750D01*
X53350000Y-56531250D01*
X53351053Y-56509809D01*
X53354203Y-56488574D01*
X53359419Y-56467750D01*
X53366651Y-56447538D01*
X53375830Y-56428132D01*
X53386866Y-56409719D01*
X53399654Y-56392476D01*
X53414070Y-56376570D01*
X53429976Y-56362154D01*
X53447219Y-56349366D01*
X53465632Y-56338330D01*
X53485038Y-56329151D01*
X53505250Y-56321919D01*
X53526074Y-56316703D01*
X53547309Y-56313553D01*
X53568750Y-56312500D01*
X54006250Y-56312500D01*
X54027691Y-56313553D01*
G37*
G04 #@! TD.AperFunction*
G04 #@! TA.AperFunction,SMDPad,CuDef*
G36*
X52452691Y-56313553D02*
G01*
X52473926Y-56316703D01*
X52494750Y-56321919D01*
X52514962Y-56329151D01*
X52534368Y-56338330D01*
X52552781Y-56349366D01*
X52570024Y-56362154D01*
X52585930Y-56376570D01*
X52600346Y-56392476D01*
X52613134Y-56409719D01*
X52624170Y-56428132D01*
X52633349Y-56447538D01*
X52640581Y-56467750D01*
X52645797Y-56488574D01*
X52648947Y-56509809D01*
X52650000Y-56531250D01*
X52650000Y-57043750D01*
X52648947Y-57065191D01*
X52645797Y-57086426D01*
X52640581Y-57107250D01*
X52633349Y-57127462D01*
X52624170Y-57146868D01*
X52613134Y-57165281D01*
X52600346Y-57182524D01*
X52585930Y-57198430D01*
X52570024Y-57212846D01*
X52552781Y-57225634D01*
X52534368Y-57236670D01*
X52514962Y-57245849D01*
X52494750Y-57253081D01*
X52473926Y-57258297D01*
X52452691Y-57261447D01*
X52431250Y-57262500D01*
X51993750Y-57262500D01*
X51972309Y-57261447D01*
X51951074Y-57258297D01*
X51930250Y-57253081D01*
X51910038Y-57245849D01*
X51890632Y-57236670D01*
X51872219Y-57225634D01*
X51854976Y-57212846D01*
X51839070Y-57198430D01*
X51824654Y-57182524D01*
X51811866Y-57165281D01*
X51800830Y-57146868D01*
X51791651Y-57127462D01*
X51784419Y-57107250D01*
X51779203Y-57086426D01*
X51776053Y-57065191D01*
X51775000Y-57043750D01*
X51775000Y-56531250D01*
X51776053Y-56509809D01*
X51779203Y-56488574D01*
X51784419Y-56467750D01*
X51791651Y-56447538D01*
X51800830Y-56428132D01*
X51811866Y-56409719D01*
X51824654Y-56392476D01*
X51839070Y-56376570D01*
X51854976Y-56362154D01*
X51872219Y-56349366D01*
X51890632Y-56338330D01*
X51910038Y-56329151D01*
X51930250Y-56321919D01*
X51951074Y-56316703D01*
X51972309Y-56313553D01*
X51993750Y-56312500D01*
X52431250Y-56312500D01*
X52452691Y-56313553D01*
G37*
G04 #@! TD.AperFunction*
D20*
X47000000Y-43000000D03*
D21*
X49540000Y-43000000D03*
X52080000Y-43000000D03*
D22*
X66150000Y-41000000D03*
D23*
X59850000Y-41000000D03*
X59850000Y-43300000D03*
X59850000Y-38700000D03*
D24*
X64000000Y-85600000D03*
X64700000Y-69700000D03*
X43000000Y-60900000D03*
X65600000Y-67900000D03*
X55200000Y-53290000D03*
X60700000Y-67800000D03*
X58100000Y-70600000D03*
D13*
X70300000Y-70200000D03*
D24*
X57200000Y-41000000D03*
X57200000Y-53300000D03*
X66000000Y-81400000D03*
D25*
X64100000Y-87500000D02*
X66100000Y-87500000D01*
X64460000Y-69460000D02*
X63000000Y-68000000D01*
X63000000Y-68000000D02*
X63000000Y-65460000D01*
X62212500Y-56525000D02*
X62212500Y-57000000D01*
X62212500Y-53469581D02*
X62212500Y-56525000D01*
X64080000Y-51602081D02*
X62212500Y-53469581D01*
X64080000Y-50400000D02*
X64080000Y-51602081D01*
X62150001Y-64610001D02*
X63000000Y-65460000D01*
X61062490Y-57712510D02*
X61062490Y-63522490D01*
X61775000Y-57000000D02*
X61062490Y-57712510D01*
X62212500Y-57000000D02*
X61775000Y-57000000D01*
X64600000Y-76160000D02*
X64360000Y-76400000D01*
X64000000Y-87400000D02*
X64100000Y-87500000D01*
X64000000Y-85600000D02*
X64000000Y-87400000D01*
X61062490Y-63522490D02*
X62150001Y-64610001D01*
X64700000Y-69700000D02*
X63000000Y-68000000D01*
X64160000Y-70240000D02*
X64700000Y-69700000D01*
X64160000Y-76400000D02*
X64160000Y-70240000D01*
X37860000Y-64120000D02*
X40400000Y-64120000D01*
X37860000Y-64120000D02*
X37860000Y-61580000D01*
X37860000Y-59040000D02*
X37860000Y-61580000D01*
X37860000Y-59040000D02*
X40400000Y-59040000D01*
X40400000Y-61580000D02*
X37860000Y-61580000D01*
X40400000Y-61580000D02*
X40400000Y-64120000D01*
X40400000Y-61580000D02*
X40400000Y-59040000D01*
X42320000Y-61580000D02*
X43000000Y-60900000D01*
X40400000Y-61580000D02*
X42320000Y-61580000D01*
X64100000Y-83500000D02*
X66162500Y-83500000D01*
X67000000Y-69000000D02*
X68000000Y-68000000D01*
X68000000Y-68000000D02*
X68000000Y-65460000D01*
X48295998Y-67750000D02*
X48000000Y-67750000D01*
X66620000Y-56407500D02*
X67212500Y-57000000D01*
X66620000Y-50400000D02*
X66620000Y-56407500D01*
X66775000Y-57000000D02*
X67212500Y-57000000D01*
X66074990Y-57700010D02*
X66775000Y-57000000D01*
X66074990Y-63534990D02*
X66074990Y-57700010D01*
X68000000Y-65460000D02*
X66074990Y-63534990D01*
X66700000Y-69300000D02*
X67000000Y-69000000D01*
X66700000Y-76400000D02*
X66700000Y-69300000D01*
X65675000Y-83500000D02*
X63475000Y-81300000D01*
X66162500Y-83500000D02*
X65675000Y-83500000D01*
X63475000Y-81300000D02*
X57100000Y-81300000D01*
X57100000Y-81300000D02*
X56200000Y-80400000D01*
X56200000Y-75654002D02*
X48295998Y-67750000D01*
X56200000Y-80400000D02*
X56200000Y-75654002D01*
X68750000Y-81452820D02*
X68750000Y-76400000D01*
X68750000Y-76400000D02*
X66900000Y-76400000D01*
X68050000Y-81452820D02*
X68750000Y-81452820D01*
X66849990Y-82652830D02*
X68050000Y-81452820D01*
X66849990Y-83300010D02*
X66849990Y-82652830D01*
X66650000Y-83500000D02*
X66849990Y-83300010D01*
X66162500Y-83500000D02*
X66650000Y-83500000D01*
X48700000Y-61000000D02*
X48000000Y-61000000D01*
X49400010Y-61700010D02*
X48700000Y-61000000D01*
X49400010Y-65074990D02*
X49400010Y-61700010D01*
X48475000Y-66000000D02*
X49400010Y-65074990D01*
X48000000Y-66000000D02*
X48475000Y-66000000D01*
X48000000Y-61000000D02*
X48000000Y-58000000D01*
X48000000Y-48062500D02*
X47937500Y-48000000D01*
X48000000Y-56425000D02*
X48000000Y-48062500D01*
X47937500Y-43937500D02*
X47000000Y-43000000D01*
X47937500Y-48000000D02*
X47937500Y-43937500D01*
X59280000Y-76400000D02*
X58900000Y-76400000D01*
X53000000Y-68000000D02*
X53000000Y-65460000D01*
X52080000Y-47920000D02*
X52000000Y-48000000D01*
X52080000Y-43000000D02*
X52080000Y-47920000D01*
X52000000Y-50687500D02*
X51887500Y-50800000D01*
X52000000Y-48000000D02*
X52000000Y-50687500D01*
X51887500Y-56462500D02*
X52212500Y-56787500D01*
X51887500Y-50800000D02*
X51887500Y-56462500D01*
X52150001Y-64610001D02*
X53000000Y-65460000D01*
X51012490Y-63472490D02*
X52150001Y-64610001D01*
X52212500Y-57262500D02*
X51012490Y-58462510D01*
X51012490Y-58462510D02*
X51012490Y-63472490D01*
X52212500Y-56787500D02*
X52212500Y-57262500D01*
X58600000Y-50800000D02*
X59000000Y-50400000D01*
X51887500Y-50800000D02*
X58600000Y-50800000D01*
X53000000Y-70320000D02*
X59080000Y-76400000D01*
X53000000Y-68000000D02*
X53000000Y-70320000D01*
X52380000Y-43300000D02*
X52080000Y-43000000D01*
X59850000Y-43300000D02*
X52380000Y-43300000D01*
X58000000Y-68000000D02*
X58000000Y-65460000D01*
X56012491Y-63472491D02*
X57150001Y-64610001D01*
X56012491Y-59303613D02*
X56012491Y-63472491D01*
X57150001Y-64610001D02*
X58000000Y-65460000D01*
X57212500Y-58103604D02*
X56012491Y-59303613D01*
X57212500Y-57000000D02*
X57212500Y-58103604D01*
X70062500Y-39637500D02*
X70000000Y-39700000D01*
X67150000Y-42000000D02*
X66150000Y-41000000D01*
X70000000Y-42000000D02*
X67150000Y-42000000D01*
X57300000Y-41000000D02*
X59850000Y-41000000D01*
X70000000Y-37525000D02*
X70025000Y-37500000D01*
X70000000Y-39700000D02*
X70000000Y-37525000D01*
X70000000Y-42000000D02*
X70000000Y-39700000D01*
X61620000Y-71620000D02*
X58000000Y-68000000D01*
X61620000Y-76400000D02*
X61620000Y-71620000D01*
X61540000Y-52060000D02*
X61540000Y-50400000D01*
X57200000Y-53300000D02*
X60300000Y-53300000D01*
X60300000Y-53300000D02*
X61540000Y-52060000D01*
X57212500Y-55929581D02*
X57212500Y-56525000D01*
X57200000Y-53300000D02*
X57212500Y-55929581D01*
X57212500Y-56525000D02*
X57212500Y-57000000D01*
X59850000Y-41000000D02*
X66150000Y-41000000D01*
X55600000Y-88700000D02*
X56800000Y-87500000D01*
X45350000Y-87850000D02*
X46190000Y-88690000D01*
X45350000Y-85900000D02*
X45350000Y-87850000D01*
X55590000Y-88690000D02*
X55600000Y-88700000D01*
X46190000Y-88690000D02*
X55590000Y-88690000D01*
X60100000Y-87500000D02*
X62525000Y-87500000D01*
X55200000Y-83500000D02*
X56800000Y-83500000D01*
X52200000Y-85900000D02*
X54600000Y-83500000D01*
X54600000Y-83500000D02*
X55200000Y-83500000D01*
X50150000Y-85900000D02*
X52200000Y-85900000D01*
X60100000Y-83500000D02*
X62525000Y-83500000D01*
X67275000Y-59738174D02*
X67275000Y-60000000D01*
X68787500Y-58225674D02*
X67275000Y-59738174D01*
X68787500Y-57000000D02*
X68787500Y-58225674D01*
X63787500Y-59987500D02*
X63775000Y-60000000D01*
X63787500Y-57000000D02*
X63787500Y-59987500D01*
X57212500Y-59800674D02*
X57212500Y-60000000D01*
X58787500Y-58225674D02*
X57212500Y-59800674D01*
X58787500Y-57000000D02*
X58787500Y-58225674D01*
X53787500Y-57262500D02*
X53787500Y-56787500D01*
X53787500Y-57950000D02*
X53787500Y-57262500D01*
X52212500Y-59525000D02*
X53787500Y-57950000D01*
X52212500Y-60000000D02*
X52212500Y-59525000D01*
X40400000Y-56500000D02*
X37860000Y-56500000D01*
X37860000Y-56500000D02*
X36500000Y-56500000D01*
X35700000Y-57300000D02*
X35700000Y-73640000D01*
X36500000Y-56500000D02*
X35700000Y-57300000D01*
X43260000Y-81200000D02*
X45350000Y-81200000D01*
X35700000Y-73640000D02*
X43260000Y-81200000D01*
X37860000Y-66660000D02*
X40400000Y-66660000D01*
X54400000Y-76000840D02*
X54400000Y-79025000D01*
X45059160Y-66660000D02*
X54400000Y-76000840D01*
X40400000Y-66660000D02*
X45059160Y-66660000D01*
X54375000Y-79025000D02*
X54400000Y-79025000D01*
X52200000Y-81200000D02*
X54375000Y-79025000D01*
X50150000Y-81200000D02*
X52200000Y-81200000D01*
X59000000Y-47860000D02*
X66620000Y-47860000D01*
X81500000Y-41240000D02*
X84040000Y-41240000D01*
X71522308Y-44277692D02*
X74560000Y-41240000D01*
X79650000Y-41240000D02*
X81500000Y-41240000D01*
X70202308Y-44277692D02*
X71522308Y-44277692D01*
X74560000Y-41240000D02*
X79650000Y-41240000D01*
X66620000Y-47860000D02*
X70202308Y-44277692D01*
X59280000Y-78940000D02*
X66900000Y-78940000D01*
X81500000Y-86300000D02*
X84040000Y-86300000D01*
X66600000Y-79240000D02*
X66900000Y-78940000D01*
D26*
G36*
X84648126Y-35726714D02*
G01*
X85271572Y-35914943D01*
X85846579Y-36220681D01*
X86351247Y-36632279D01*
X86766362Y-37134067D01*
X87076105Y-37706924D01*
X87268682Y-38329039D01*
X87340000Y-39007584D01*
X87340001Y-40967711D01*
X87273286Y-41648126D01*
X87085057Y-42271570D01*
X86779323Y-42846573D01*
X86367721Y-43351248D01*
X85865933Y-43766362D01*
X85293077Y-44076104D01*
X84670961Y-44268682D01*
X83992417Y-44340000D01*
X75967581Y-44340000D01*
X75937247Y-44342988D01*
X75912257Y-44342813D01*
X75903086Y-44343713D01*
X75126699Y-44425315D01*
X75068106Y-44437342D01*
X75009342Y-44448552D01*
X75000520Y-44451215D01*
X74254771Y-44682063D01*
X74199608Y-44705251D01*
X74144162Y-44727653D01*
X74136026Y-44731979D01*
X73449316Y-45103282D01*
X73399741Y-45136721D01*
X73349670Y-45169486D01*
X73342529Y-45175311D01*
X72741017Y-45672924D01*
X72698858Y-45715379D01*
X72656127Y-45757224D01*
X72650253Y-45764324D01*
X72156852Y-46369295D01*
X72123764Y-46419096D01*
X72089953Y-46468476D01*
X72085570Y-46476582D01*
X71719071Y-47165867D01*
X71696280Y-47221161D01*
X71672710Y-47276154D01*
X71669985Y-47284957D01*
X71444348Y-48032302D01*
X71432725Y-48091005D01*
X71420292Y-48149494D01*
X71419329Y-48158658D01*
X71343150Y-48935596D01*
X71340000Y-48967582D01*
X71340001Y-76032419D01*
X71342988Y-76062744D01*
X71342813Y-76087743D01*
X71343713Y-76096914D01*
X71425315Y-76873302D01*
X71437338Y-76931871D01*
X71448551Y-76990657D01*
X71451215Y-76999479D01*
X71682063Y-77745229D01*
X71705238Y-77800359D01*
X71727652Y-77855838D01*
X71731979Y-77863974D01*
X72103282Y-78550684D01*
X72136727Y-78600268D01*
X72169487Y-78650331D01*
X72175311Y-78657472D01*
X72672924Y-79258983D01*
X72715376Y-79301140D01*
X72757223Y-79343873D01*
X72764318Y-79349741D01*
X72764324Y-79349747D01*
X72764331Y-79349751D01*
X73369294Y-79843148D01*
X73419087Y-79876230D01*
X73468476Y-79910048D01*
X73476583Y-79914430D01*
X74165867Y-80280930D01*
X74221182Y-80303729D01*
X74276154Y-80327290D01*
X74284957Y-80330015D01*
X75032302Y-80555652D01*
X75091011Y-80567277D01*
X75149494Y-80579708D01*
X75158657Y-80580671D01*
X75158659Y-80580671D01*
X75935596Y-80656850D01*
X75935598Y-80656850D01*
X75967581Y-80660000D01*
X83967722Y-80660000D01*
X84648126Y-80726714D01*
X85271572Y-80914943D01*
X85846579Y-81220681D01*
X86351247Y-81632279D01*
X86766362Y-82134067D01*
X87076105Y-82706924D01*
X87268682Y-83329039D01*
X87340000Y-84007584D01*
X87340001Y-85967711D01*
X87273286Y-86648126D01*
X87085057Y-87271570D01*
X86779323Y-87846573D01*
X86367721Y-88351248D01*
X85865933Y-88766362D01*
X85293077Y-89076104D01*
X84670961Y-89268682D01*
X83992417Y-89340000D01*
X56565131Y-89340000D01*
X57167060Y-88738072D01*
X57250000Y-88738072D01*
X57374482Y-88725812D01*
X57494180Y-88689502D01*
X57604494Y-88630537D01*
X57701185Y-88551185D01*
X57780537Y-88454494D01*
X57839502Y-88344180D01*
X57875812Y-88224482D01*
X57888072Y-88100000D01*
X57888072Y-87823057D01*
X57918576Y-87722500D01*
X57940490Y-87500001D01*
X57918576Y-87277502D01*
X57888072Y-87176945D01*
X57888072Y-86900000D01*
X57875812Y-86775518D01*
X57839502Y-86655820D01*
X57780537Y-86545506D01*
X57701185Y-86448815D01*
X57604494Y-86369463D01*
X57494180Y-86310498D01*
X57374482Y-86274188D01*
X57250000Y-86261928D01*
X56350000Y-86261928D01*
X56225518Y-86274188D01*
X56105820Y-86310498D01*
X55995506Y-86369463D01*
X55898815Y-86448815D01*
X55819463Y-86545506D01*
X55760498Y-86655820D01*
X55724188Y-86775518D01*
X55711928Y-86900000D01*
X55711928Y-86982940D01*
X55139869Y-87555000D01*
X46660132Y-87555000D01*
X46485000Y-87379869D01*
X46485000Y-87101022D01*
X46576187Y-87026187D01*
X46774256Y-86784839D01*
X46921434Y-86509488D01*
X47012066Y-86210714D01*
X47042669Y-85900000D01*
X47012066Y-85589286D01*
X46921434Y-85290512D01*
X46774256Y-85015161D01*
X46576187Y-84773813D01*
X46334839Y-84575744D01*
X46059488Y-84428566D01*
X45760714Y-84337934D01*
X45527864Y-84315000D01*
X45172136Y-84315000D01*
X44939286Y-84337934D01*
X44640512Y-84428566D01*
X44365161Y-84575744D01*
X44123813Y-84773813D01*
X43925744Y-85015161D01*
X43778566Y-85290512D01*
X43687934Y-85589286D01*
X43657331Y-85900000D01*
X43687934Y-86210714D01*
X43778566Y-86509488D01*
X43925744Y-86784839D01*
X44123813Y-87026187D01*
X44215001Y-87101023D01*
X44215001Y-87794239D01*
X44209509Y-87850000D01*
X44231423Y-88072498D01*
X44296324Y-88286446D01*
X44323013Y-88336377D01*
X44401717Y-88483623D01*
X44543552Y-88656449D01*
X44586860Y-88691991D01*
X45234868Y-89340000D01*
X38459765Y-89340000D01*
X39015603Y-89046102D01*
X39042894Y-89027868D01*
X39379081Y-88558686D01*
X37000000Y-86179605D01*
X36985858Y-86193748D01*
X36806253Y-86014143D01*
X36820395Y-86000000D01*
X37179605Y-86000000D01*
X39558686Y-88379081D01*
X40027868Y-88042894D01*
X40368237Y-87412932D01*
X40579166Y-86728673D01*
X40652550Y-86016411D01*
X40585569Y-85303518D01*
X40380796Y-84617391D01*
X40046102Y-83984397D01*
X40027868Y-83957106D01*
X39558686Y-83620919D01*
X37179605Y-86000000D01*
X36820395Y-86000000D01*
X34441314Y-83620919D01*
X33972132Y-83957106D01*
X33660000Y-84534806D01*
X33660000Y-83441314D01*
X34620919Y-83441314D01*
X37000000Y-85820395D01*
X39379081Y-83441314D01*
X39042894Y-82972132D01*
X38412932Y-82631763D01*
X37728673Y-82420834D01*
X37016411Y-82347450D01*
X36303518Y-82414431D01*
X35617391Y-82619204D01*
X34984397Y-82953898D01*
X34957106Y-82972132D01*
X34620919Y-83441314D01*
X33660000Y-83441314D01*
X33660000Y-57300000D01*
X34559509Y-57300000D01*
X34565000Y-57355751D01*
X34565001Y-73584239D01*
X34559509Y-73640000D01*
X34581423Y-73862498D01*
X34646324Y-74076446D01*
X34646325Y-74076447D01*
X34751717Y-74273623D01*
X34893552Y-74446449D01*
X34936860Y-74481991D01*
X42418013Y-81963146D01*
X42453551Y-82006449D01*
X42496854Y-82041987D01*
X42496856Y-82041989D01*
X42626377Y-82148284D01*
X42823553Y-82253676D01*
X43037501Y-82318577D01*
X43260000Y-82340491D01*
X43315752Y-82335000D01*
X44134552Y-82335000D01*
X44365161Y-82524256D01*
X44640512Y-82671434D01*
X44939286Y-82762066D01*
X45172136Y-82785000D01*
X45527864Y-82785000D01*
X45760714Y-82762066D01*
X46059488Y-82671434D01*
X46334839Y-82524256D01*
X46576187Y-82326187D01*
X46774256Y-82084839D01*
X46921434Y-81809488D01*
X47012066Y-81510714D01*
X47042669Y-81200000D01*
X47012066Y-80889286D01*
X46921434Y-80590512D01*
X46774256Y-80315161D01*
X46576187Y-80073813D01*
X46334839Y-79875744D01*
X46059488Y-79728566D01*
X45760714Y-79637934D01*
X45527864Y-79615000D01*
X45172136Y-79615000D01*
X44939286Y-79637934D01*
X44640512Y-79728566D01*
X44365161Y-79875744D01*
X44134552Y-80065000D01*
X43730133Y-80065000D01*
X39215132Y-75550000D01*
X43661928Y-75550000D01*
X43661928Y-77450000D01*
X43674188Y-77574482D01*
X43710498Y-77694180D01*
X43769463Y-77804494D01*
X43848815Y-77901185D01*
X43945506Y-77980537D01*
X44055820Y-78039502D01*
X44175518Y-78075812D01*
X44300000Y-78088072D01*
X46400000Y-78088072D01*
X46524482Y-78075812D01*
X46644180Y-78039502D01*
X46754494Y-77980537D01*
X46851185Y-77901185D01*
X46930537Y-77804494D01*
X46989502Y-77694180D01*
X47025812Y-77574482D01*
X47038072Y-77450000D01*
X47038072Y-76500000D01*
X48457331Y-76500000D01*
X48487934Y-76810714D01*
X48578566Y-77109488D01*
X48725744Y-77384839D01*
X48923813Y-77626187D01*
X49165161Y-77824256D01*
X49440512Y-77971434D01*
X49739286Y-78062066D01*
X49972136Y-78085000D01*
X50327864Y-78085000D01*
X50560714Y-78062066D01*
X50859488Y-77971434D01*
X51134839Y-77824256D01*
X51376187Y-77626187D01*
X51574256Y-77384839D01*
X51721434Y-77109488D01*
X51812066Y-76810714D01*
X51842669Y-76500000D01*
X51812066Y-76189286D01*
X51721434Y-75890512D01*
X51574256Y-75615161D01*
X51376187Y-75373813D01*
X51134839Y-75175744D01*
X50859488Y-75028566D01*
X50560714Y-74937934D01*
X50327864Y-74915000D01*
X49972136Y-74915000D01*
X49739286Y-74937934D01*
X49440512Y-75028566D01*
X49165161Y-75175744D01*
X48923813Y-75373813D01*
X48725744Y-75615161D01*
X48578566Y-75890512D01*
X48487934Y-76189286D01*
X48457331Y-76500000D01*
X47038072Y-76500000D01*
X47038072Y-75550000D01*
X47025812Y-75425518D01*
X46989502Y-75305820D01*
X46930537Y-75195506D01*
X46851185Y-75098815D01*
X46754494Y-75019463D01*
X46644180Y-74960498D01*
X46524482Y-74924188D01*
X46400000Y-74911928D01*
X44300000Y-74911928D01*
X44175518Y-74924188D01*
X44055820Y-74960498D01*
X43945506Y-75019463D01*
X43848815Y-75098815D01*
X43769463Y-75195506D01*
X43710498Y-75305820D01*
X43674188Y-75425518D01*
X43661928Y-75550000D01*
X39215132Y-75550000D01*
X36835000Y-73169869D01*
X36835000Y-67754341D01*
X36904698Y-67824039D01*
X37150147Y-67988042D01*
X37422875Y-68101010D01*
X37712401Y-68158600D01*
X38007599Y-68158600D01*
X38297125Y-68101010D01*
X38569853Y-67988042D01*
X38815302Y-67824039D01*
X38844341Y-67795000D01*
X39415659Y-67795000D01*
X39444698Y-67824039D01*
X39690147Y-67988042D01*
X39962875Y-68101010D01*
X40252401Y-68158600D01*
X40547599Y-68158600D01*
X40837125Y-68101010D01*
X41109853Y-67988042D01*
X41355302Y-67824039D01*
X41384341Y-67795000D01*
X44589029Y-67795000D01*
X53265000Y-76470973D01*
X53265001Y-78529867D01*
X51729869Y-80065000D01*
X51365448Y-80065000D01*
X51134839Y-79875744D01*
X50859488Y-79728566D01*
X50560714Y-79637934D01*
X50327864Y-79615000D01*
X49972136Y-79615000D01*
X49739286Y-79637934D01*
X49440512Y-79728566D01*
X49165161Y-79875744D01*
X48923813Y-80073813D01*
X48725744Y-80315161D01*
X48578566Y-80590512D01*
X48487934Y-80889286D01*
X48457331Y-81200000D01*
X48487934Y-81510714D01*
X48578566Y-81809488D01*
X48725744Y-82084839D01*
X48923813Y-82326187D01*
X49165161Y-82524256D01*
X49440512Y-82671434D01*
X49739286Y-82762066D01*
X49972136Y-82785000D01*
X50327864Y-82785000D01*
X50560714Y-82762066D01*
X50859488Y-82671434D01*
X51134839Y-82524256D01*
X51365448Y-82335000D01*
X52144249Y-82335000D01*
X52200000Y-82340491D01*
X52255751Y-82335000D01*
X52255752Y-82335000D01*
X52422499Y-82318577D01*
X52636447Y-82253676D01*
X52833623Y-82148284D01*
X53006449Y-82006449D01*
X53041996Y-81963135D01*
X55029810Y-79975322D01*
X55033623Y-79973284D01*
X55065000Y-79947533D01*
X55065000Y-80344248D01*
X55059509Y-80400000D01*
X55065000Y-80455751D01*
X55081423Y-80622498D01*
X55146324Y-80836446D01*
X55251716Y-81033623D01*
X55393551Y-81206449D01*
X55436864Y-81241995D01*
X56258008Y-82063140D01*
X56293551Y-82106449D01*
X56466377Y-82248284D01*
X56491903Y-82261928D01*
X56350000Y-82261928D01*
X56225518Y-82274188D01*
X56105820Y-82310498D01*
X56003856Y-82365000D01*
X54655752Y-82365000D01*
X54600000Y-82359509D01*
X54377501Y-82381423D01*
X54163553Y-82446324D01*
X53966377Y-82551716D01*
X53836856Y-82658011D01*
X53836854Y-82658013D01*
X53793551Y-82693551D01*
X53758013Y-82736854D01*
X51729869Y-84765000D01*
X51365448Y-84765000D01*
X51134839Y-84575744D01*
X50859488Y-84428566D01*
X50560714Y-84337934D01*
X50327864Y-84315000D01*
X49972136Y-84315000D01*
X49739286Y-84337934D01*
X49440512Y-84428566D01*
X49165161Y-84575744D01*
X48923813Y-84773813D01*
X48725744Y-85015161D01*
X48578566Y-85290512D01*
X48487934Y-85589286D01*
X48457331Y-85900000D01*
X48487934Y-86210714D01*
X48578566Y-86509488D01*
X48725744Y-86784839D01*
X48923813Y-87026187D01*
X49165161Y-87224256D01*
X49440512Y-87371434D01*
X49739286Y-87462066D01*
X49972136Y-87485000D01*
X50327864Y-87485000D01*
X50560714Y-87462066D01*
X50859488Y-87371434D01*
X51134839Y-87224256D01*
X51365448Y-87035000D01*
X52144249Y-87035000D01*
X52200000Y-87040491D01*
X52255751Y-87035000D01*
X52255752Y-87035000D01*
X52422499Y-87018577D01*
X52636447Y-86953676D01*
X52833623Y-86848284D01*
X53006449Y-86706449D01*
X53041996Y-86663136D01*
X55070133Y-84635000D01*
X56003856Y-84635000D01*
X56105820Y-84689502D01*
X56225518Y-84725812D01*
X56350000Y-84738072D01*
X57250000Y-84738072D01*
X57374482Y-84725812D01*
X57494180Y-84689502D01*
X57604494Y-84630537D01*
X57701185Y-84551185D01*
X57780537Y-84454494D01*
X57839502Y-84344180D01*
X57875812Y-84224482D01*
X57888072Y-84100000D01*
X57888072Y-83823060D01*
X57918577Y-83722499D01*
X57940491Y-83500000D01*
X57918577Y-83277501D01*
X57888072Y-83176940D01*
X57888072Y-82900000D01*
X57875812Y-82775518D01*
X57839502Y-82655820D01*
X57780537Y-82545506D01*
X57701185Y-82448815D01*
X57684351Y-82435000D01*
X59215649Y-82435000D01*
X59198815Y-82448815D01*
X59119463Y-82545506D01*
X59060498Y-82655820D01*
X59024188Y-82775518D01*
X59011928Y-82900000D01*
X59011928Y-83176940D01*
X58981423Y-83277501D01*
X58959509Y-83500000D01*
X58981423Y-83722499D01*
X59011928Y-83823060D01*
X59011928Y-84100000D01*
X59024188Y-84224482D01*
X59060498Y-84344180D01*
X59119463Y-84454494D01*
X59198815Y-84551185D01*
X59295506Y-84630537D01*
X59405820Y-84689502D01*
X59525518Y-84725812D01*
X59650000Y-84738072D01*
X60550000Y-84738072D01*
X60674482Y-84725812D01*
X60794180Y-84689502D01*
X60896144Y-84635000D01*
X61574979Y-84635000D01*
X61641336Y-84689458D01*
X61793791Y-84770947D01*
X61959215Y-84821128D01*
X62131250Y-84838072D01*
X62618750Y-84838072D01*
X62790785Y-84821128D01*
X62956209Y-84770947D01*
X63108664Y-84689458D01*
X63242292Y-84579792D01*
X63312500Y-84494244D01*
X63382708Y-84579792D01*
X63428123Y-84617063D01*
X63415786Y-84625307D01*
X63366377Y-84651716D01*
X63323068Y-84687259D01*
X63276480Y-84718388D01*
X63236859Y-84758009D01*
X63193551Y-84793551D01*
X63158009Y-84836859D01*
X63118388Y-84876480D01*
X63087259Y-84923068D01*
X63051716Y-84966377D01*
X63025307Y-85015785D01*
X62994176Y-85062376D01*
X62972730Y-85114152D01*
X62946324Y-85163554D01*
X62930064Y-85217155D01*
X62908617Y-85268933D01*
X62897684Y-85323897D01*
X62881423Y-85377502D01*
X62875932Y-85433252D01*
X62865000Y-85488212D01*
X62865000Y-86201385D01*
X62790785Y-86178872D01*
X62618750Y-86161928D01*
X62131250Y-86161928D01*
X61959215Y-86178872D01*
X61793791Y-86229053D01*
X61641336Y-86310542D01*
X61574979Y-86365000D01*
X60896144Y-86365000D01*
X60794180Y-86310498D01*
X60674482Y-86274188D01*
X60550000Y-86261928D01*
X59650000Y-86261928D01*
X59525518Y-86274188D01*
X59405820Y-86310498D01*
X59295506Y-86369463D01*
X59198815Y-86448815D01*
X59119463Y-86545506D01*
X59060498Y-86655820D01*
X59024188Y-86775518D01*
X59011928Y-86900000D01*
X59011928Y-87176940D01*
X58981423Y-87277501D01*
X58959509Y-87500000D01*
X58981423Y-87722499D01*
X59011928Y-87823060D01*
X59011928Y-88100000D01*
X59024188Y-88224482D01*
X59060498Y-88344180D01*
X59119463Y-88454494D01*
X59198815Y-88551185D01*
X59295506Y-88630537D01*
X59405820Y-88689502D01*
X59525518Y-88725812D01*
X59650000Y-88738072D01*
X60550000Y-88738072D01*
X60674482Y-88725812D01*
X60794180Y-88689502D01*
X60896144Y-88635000D01*
X61574979Y-88635000D01*
X61641336Y-88689458D01*
X61793791Y-88770947D01*
X61959215Y-88821128D01*
X62131250Y-88838072D01*
X62618750Y-88838072D01*
X62790785Y-88821128D01*
X62956209Y-88770947D01*
X63108664Y-88689458D01*
X63242292Y-88579792D01*
X63312500Y-88494244D01*
X63382708Y-88579792D01*
X63516336Y-88689458D01*
X63668791Y-88770947D01*
X63834215Y-88821128D01*
X64006250Y-88838072D01*
X64493750Y-88838072D01*
X64665785Y-88821128D01*
X64831209Y-88770947D01*
X64983664Y-88689458D01*
X65050021Y-88635000D01*
X65299979Y-88635000D01*
X65366336Y-88689458D01*
X65518791Y-88770947D01*
X65684215Y-88821128D01*
X65856250Y-88838072D01*
X66343750Y-88838072D01*
X66515785Y-88821128D01*
X66681209Y-88770947D01*
X66833664Y-88689458D01*
X66967292Y-88579792D01*
X66972508Y-88573436D01*
X67036315Y-88651185D01*
X67133006Y-88730537D01*
X67243320Y-88789502D01*
X67363018Y-88825812D01*
X67487500Y-88838072D01*
X67689250Y-88835000D01*
X67848000Y-88676250D01*
X67848000Y-87627000D01*
X68102000Y-87627000D01*
X68102000Y-88676250D01*
X68260750Y-88835000D01*
X68462500Y-88838072D01*
X68586982Y-88825812D01*
X68706680Y-88789502D01*
X68816994Y-88730537D01*
X68913685Y-88651185D01*
X68993037Y-88554494D01*
X69052002Y-88444180D01*
X69088312Y-88324482D01*
X69100572Y-88200000D01*
X69097500Y-87785750D01*
X68938750Y-87627000D01*
X68102000Y-87627000D01*
X67848000Y-87627000D01*
X67828000Y-87627000D01*
X67828000Y-87373000D01*
X67848000Y-87373000D01*
X67848000Y-86323750D01*
X68102000Y-86323750D01*
X68102000Y-87373000D01*
X68938750Y-87373000D01*
X69097500Y-87214250D01*
X69100572Y-86800000D01*
X69088312Y-86675518D01*
X69052002Y-86555820D01*
X68993037Y-86445506D01*
X68913685Y-86348815D01*
X68816994Y-86269463D01*
X68706680Y-86210498D01*
X68586982Y-86174188D01*
X68462500Y-86161928D01*
X68260750Y-86165000D01*
X68102000Y-86323750D01*
X67848000Y-86323750D01*
X67689250Y-86165000D01*
X67487500Y-86161928D01*
X67363018Y-86174188D01*
X67243320Y-86210498D01*
X67133006Y-86269463D01*
X67036315Y-86348815D01*
X66972508Y-86426564D01*
X66967292Y-86420208D01*
X66833664Y-86310542D01*
X66681209Y-86229053D01*
X66515785Y-86178872D01*
X66343750Y-86161928D01*
X65856250Y-86161928D01*
X65684215Y-86178872D01*
X65518791Y-86229053D01*
X65366336Y-86310542D01*
X65299979Y-86365000D01*
X65135000Y-86365000D01*
X65135000Y-85488212D01*
X65127400Y-85450000D01*
X80011928Y-85450000D01*
X80011928Y-87150000D01*
X80024188Y-87274482D01*
X80060498Y-87394180D01*
X80119463Y-87504494D01*
X80198815Y-87601185D01*
X80295506Y-87680537D01*
X80405820Y-87739502D01*
X80525518Y-87775812D01*
X80650000Y-87788072D01*
X82350000Y-87788072D01*
X82474482Y-87775812D01*
X82594180Y-87739502D01*
X82704494Y-87680537D01*
X82801185Y-87601185D01*
X82880537Y-87504494D01*
X82917683Y-87435000D01*
X83074893Y-87435000D01*
X83093368Y-87453475D01*
X83336589Y-87615990D01*
X83606842Y-87727932D01*
X83893740Y-87785000D01*
X84186260Y-87785000D01*
X84473158Y-87727932D01*
X84743411Y-87615990D01*
X84986632Y-87453475D01*
X85193475Y-87246632D01*
X85355990Y-87003411D01*
X85467932Y-86733158D01*
X85525000Y-86446260D01*
X85525000Y-86153740D01*
X85467932Y-85866842D01*
X85355990Y-85596589D01*
X85193475Y-85353368D01*
X84986632Y-85146525D01*
X84804466Y-85024805D01*
X84921355Y-84955178D01*
X85137588Y-84760269D01*
X85311641Y-84526920D01*
X85436825Y-84264099D01*
X85481476Y-84116890D01*
X85360155Y-83887000D01*
X84167000Y-83887000D01*
X84167000Y-83907000D01*
X83913000Y-83907000D01*
X83913000Y-83887000D01*
X81627000Y-83887000D01*
X81627000Y-83907000D01*
X81373000Y-83907000D01*
X81373000Y-83887000D01*
X80179845Y-83887000D01*
X80058524Y-84116890D01*
X80103175Y-84264099D01*
X80228359Y-84526920D01*
X80402412Y-84760269D01*
X80486466Y-84836034D01*
X80405820Y-84860498D01*
X80295506Y-84919463D01*
X80198815Y-84998815D01*
X80119463Y-85095506D01*
X80060498Y-85205820D01*
X80024188Y-85325518D01*
X80011928Y-85450000D01*
X65127400Y-85450000D01*
X65124068Y-85433253D01*
X65118577Y-85377501D01*
X65102315Y-85323894D01*
X65091383Y-85268933D01*
X65069937Y-85217158D01*
X65053676Y-85163553D01*
X65027269Y-85114149D01*
X65005824Y-85062376D01*
X64974693Y-85015786D01*
X64948284Y-84966377D01*
X64912741Y-84923068D01*
X64881612Y-84876480D01*
X64841991Y-84836859D01*
X64806449Y-84793551D01*
X64793021Y-84782531D01*
X64831209Y-84770947D01*
X64983664Y-84689458D01*
X65050021Y-84635000D01*
X65362479Y-84635000D01*
X65428836Y-84689458D01*
X65581291Y-84770947D01*
X65746715Y-84821128D01*
X65918750Y-84838072D01*
X66406250Y-84838072D01*
X66578285Y-84821128D01*
X66743709Y-84770947D01*
X66896164Y-84689458D01*
X67029792Y-84579792D01*
X67035008Y-84573436D01*
X67098815Y-84651185D01*
X67195506Y-84730537D01*
X67305820Y-84789502D01*
X67425518Y-84825812D01*
X67550000Y-84838072D01*
X67751750Y-84835000D01*
X67910500Y-84676250D01*
X67910500Y-83713929D01*
X67936869Y-83627000D01*
X68164500Y-83627000D01*
X68164500Y-84676250D01*
X68323250Y-84835000D01*
X68525000Y-84838072D01*
X68649482Y-84825812D01*
X68769180Y-84789502D01*
X68879494Y-84730537D01*
X68976185Y-84651185D01*
X69055537Y-84554494D01*
X69114502Y-84444180D01*
X69150812Y-84324482D01*
X69163072Y-84200000D01*
X69160000Y-83785750D01*
X69001250Y-83627000D01*
X68164500Y-83627000D01*
X67936869Y-83627000D01*
X67968567Y-83522509D01*
X67980326Y-83403110D01*
X80058524Y-83403110D01*
X80179845Y-83633000D01*
X81373000Y-83633000D01*
X81373000Y-82439186D01*
X81627000Y-82439186D01*
X81627000Y-83633000D01*
X83913000Y-83633000D01*
X83913000Y-82439186D01*
X84167000Y-82439186D01*
X84167000Y-83633000D01*
X85360155Y-83633000D01*
X85481476Y-83403110D01*
X85436825Y-83255901D01*
X85311641Y-82993080D01*
X85137588Y-82759731D01*
X84921355Y-82564822D01*
X84671252Y-82415843D01*
X84396891Y-82318519D01*
X84167000Y-82439186D01*
X83913000Y-82439186D01*
X83683109Y-82318519D01*
X83408748Y-82415843D01*
X83158645Y-82564822D01*
X82942412Y-82759731D01*
X82770000Y-82990880D01*
X82597588Y-82759731D01*
X82381355Y-82564822D01*
X82131252Y-82415843D01*
X81856891Y-82318519D01*
X81627000Y-82439186D01*
X81373000Y-82439186D01*
X81143109Y-82318519D01*
X80868748Y-82415843D01*
X80618645Y-82564822D01*
X80402412Y-82759731D01*
X80228359Y-82993080D01*
X80103175Y-83255901D01*
X80058524Y-83403110D01*
X67980326Y-83403110D01*
X67984990Y-83355762D01*
X67984990Y-83355761D01*
X67985262Y-83353000D01*
X68164500Y-83353000D01*
X68164500Y-83373000D01*
X69001250Y-83373000D01*
X69160000Y-83214250D01*
X69163072Y-82800000D01*
X69150812Y-82675518D01*
X69114502Y-82555820D01*
X69101854Y-82532157D01*
X69186447Y-82506496D01*
X69383623Y-82401104D01*
X69556449Y-82259269D01*
X69698284Y-82086443D01*
X69803676Y-81889267D01*
X69868577Y-81675319D01*
X69890491Y-81452820D01*
X69885000Y-81397068D01*
X69885000Y-76455751D01*
X69890491Y-76400000D01*
X69868577Y-76177501D01*
X69803676Y-75963553D01*
X69698284Y-75766377D01*
X69556449Y-75593551D01*
X69383623Y-75451716D01*
X69186447Y-75346324D01*
X68972499Y-75281423D01*
X68805752Y-75265000D01*
X68750000Y-75259509D01*
X68694249Y-75265000D01*
X68117683Y-75265000D01*
X68080537Y-75195506D01*
X68001185Y-75098815D01*
X67904494Y-75019463D01*
X67835000Y-74982317D01*
X67835000Y-69770131D01*
X67841988Y-69763143D01*
X68117060Y-69488072D01*
X68850000Y-69488072D01*
X68974482Y-69475812D01*
X69094180Y-69439502D01*
X69204494Y-69380537D01*
X69301185Y-69301185D01*
X69380537Y-69204494D01*
X69439502Y-69094180D01*
X69475812Y-68974482D01*
X69488072Y-68850000D01*
X69488072Y-67150000D01*
X69475812Y-67025518D01*
X69439502Y-66905820D01*
X69380537Y-66795506D01*
X69301185Y-66698815D01*
X69204494Y-66619463D01*
X69135000Y-66582317D01*
X69135000Y-66425107D01*
X69153475Y-66406632D01*
X69315990Y-66163411D01*
X69427932Y-65893158D01*
X69485000Y-65606260D01*
X69485000Y-65313740D01*
X69427932Y-65026842D01*
X69315990Y-64756589D01*
X69153475Y-64513368D01*
X68946632Y-64306525D01*
X68703411Y-64144010D01*
X68433158Y-64032068D01*
X68146260Y-63975000D01*
X68120132Y-63975000D01*
X67209990Y-63064859D01*
X67209990Y-61134088D01*
X67275000Y-61140491D01*
X67497499Y-61118577D01*
X67556224Y-61100763D01*
X67598408Y-61096608D01*
X67759142Y-61047850D01*
X67907275Y-60968671D01*
X67928930Y-60950900D01*
X67995506Y-61005537D01*
X68105820Y-61064502D01*
X68225518Y-61100812D01*
X68350000Y-61113072D01*
X68501750Y-61110000D01*
X68660500Y-60951250D01*
X68660500Y-60127000D01*
X68914500Y-60127000D01*
X68914500Y-60951250D01*
X69073250Y-61110000D01*
X69225000Y-61113072D01*
X69349482Y-61100812D01*
X69469180Y-61064502D01*
X69579494Y-61005537D01*
X69676185Y-60926185D01*
X69755537Y-60829494D01*
X69814502Y-60719180D01*
X69850812Y-60599482D01*
X69863072Y-60475000D01*
X69860000Y-60285750D01*
X69701250Y-60127000D01*
X68914500Y-60127000D01*
X68660500Y-60127000D01*
X68640500Y-60127000D01*
X68640500Y-59977805D01*
X68765306Y-59853000D01*
X68914500Y-59853000D01*
X68914500Y-59873000D01*
X69701250Y-59873000D01*
X69860000Y-59714250D01*
X69863072Y-59525000D01*
X69850812Y-59400518D01*
X69814502Y-59280820D01*
X69755537Y-59170506D01*
X69676185Y-59073815D01*
X69606600Y-59016708D01*
X69735784Y-58859297D01*
X69841176Y-58662121D01*
X69906077Y-58448173D01*
X69922500Y-58281426D01*
X69927991Y-58225675D01*
X69922500Y-58169923D01*
X69922500Y-56944248D01*
X69906077Y-56777501D01*
X69847318Y-56583800D01*
X69846608Y-56576592D01*
X69797850Y-56415858D01*
X69718671Y-56267725D01*
X69612115Y-56137885D01*
X69482275Y-56031329D01*
X69334142Y-55952150D01*
X69173408Y-55903392D01*
X69038673Y-55890121D01*
X69009998Y-55881423D01*
X68787500Y-55859509D01*
X68565001Y-55881423D01*
X68536326Y-55890122D01*
X68401592Y-55903392D01*
X68240858Y-55952150D01*
X68092725Y-56031329D01*
X68000000Y-56107426D01*
X67907275Y-56031329D01*
X67781999Y-55964367D01*
X67755000Y-55937368D01*
X67755000Y-51365107D01*
X67773475Y-51346632D01*
X67935990Y-51103411D01*
X68047932Y-50833158D01*
X68105000Y-50546260D01*
X68105000Y-50253740D01*
X68047932Y-49966842D01*
X67935990Y-49696589D01*
X67773475Y-49453368D01*
X67566632Y-49246525D01*
X67392240Y-49130000D01*
X67566632Y-49013475D01*
X67773475Y-48806632D01*
X67935990Y-48563411D01*
X68047932Y-48293158D01*
X68105000Y-48006260D01*
X68105000Y-47980131D01*
X70672441Y-45412692D01*
X71466557Y-45412692D01*
X71522308Y-45418183D01*
X71578059Y-45412692D01*
X71578060Y-45412692D01*
X71744807Y-45396269D01*
X71958755Y-45331368D01*
X72155931Y-45225976D01*
X72328757Y-45084141D01*
X72364304Y-45040827D01*
X75030132Y-42375000D01*
X80082317Y-42375000D01*
X80119463Y-42444494D01*
X80198815Y-42541185D01*
X80295506Y-42620537D01*
X80405820Y-42679502D01*
X80525518Y-42715812D01*
X80650000Y-42728072D01*
X82350000Y-42728072D01*
X82474482Y-42715812D01*
X82594180Y-42679502D01*
X82704494Y-42620537D01*
X82801185Y-42541185D01*
X82880537Y-42444494D01*
X82917683Y-42375000D01*
X83074893Y-42375000D01*
X83093368Y-42393475D01*
X83336589Y-42555990D01*
X83606842Y-42667932D01*
X83893740Y-42725000D01*
X84186260Y-42725000D01*
X84473158Y-42667932D01*
X84743411Y-42555990D01*
X84986632Y-42393475D01*
X85193475Y-42186632D01*
X85355990Y-41943411D01*
X85467932Y-41673158D01*
X85525000Y-41386260D01*
X85525000Y-41093740D01*
X85467932Y-40806842D01*
X85355990Y-40536589D01*
X85193475Y-40293368D01*
X84986632Y-40086525D01*
X84804466Y-39964805D01*
X84921355Y-39895178D01*
X85137588Y-39700269D01*
X85311641Y-39466920D01*
X85436825Y-39204099D01*
X85481476Y-39056890D01*
X85360155Y-38827000D01*
X84167000Y-38827000D01*
X84167000Y-38847000D01*
X83913000Y-38847000D01*
X83913000Y-38827000D01*
X81627000Y-38827000D01*
X81627000Y-38847000D01*
X81373000Y-38847000D01*
X81373000Y-38827000D01*
X80179845Y-38827000D01*
X80058524Y-39056890D01*
X80103175Y-39204099D01*
X80228359Y-39466920D01*
X80402412Y-39700269D01*
X80486466Y-39776034D01*
X80405820Y-39800498D01*
X80295506Y-39859463D01*
X80198815Y-39938815D01*
X80119463Y-40035506D01*
X80082317Y-40105000D01*
X74615743Y-40105000D01*
X74559999Y-40099510D01*
X74504255Y-40105000D01*
X74504248Y-40105000D01*
X74358493Y-40119356D01*
X74337500Y-40121423D01*
X74287977Y-40136446D01*
X74123553Y-40186324D01*
X73926377Y-40291716D01*
X73753551Y-40433551D01*
X73718009Y-40476859D01*
X71052177Y-43142692D01*
X70258060Y-43142692D01*
X70202308Y-43137201D01*
X69979809Y-43159115D01*
X69765861Y-43224016D01*
X69568685Y-43329408D01*
X69439164Y-43435703D01*
X69439162Y-43435705D01*
X69395859Y-43471243D01*
X69360321Y-43514546D01*
X66499869Y-46375000D01*
X66473740Y-46375000D01*
X66186842Y-46432068D01*
X65916589Y-46544010D01*
X65673368Y-46706525D01*
X65654893Y-46725000D01*
X65045107Y-46725000D01*
X65026632Y-46706525D01*
X64783411Y-46544010D01*
X64513158Y-46432068D01*
X64226260Y-46375000D01*
X63933740Y-46375000D01*
X63646842Y-46432068D01*
X63376589Y-46544010D01*
X63133368Y-46706525D01*
X63114893Y-46725000D01*
X62505107Y-46725000D01*
X62486632Y-46706525D01*
X62243411Y-46544010D01*
X61973158Y-46432068D01*
X61686260Y-46375000D01*
X61393740Y-46375000D01*
X61106842Y-46432068D01*
X60836589Y-46544010D01*
X60593368Y-46706525D01*
X60574893Y-46725000D01*
X59965107Y-46725000D01*
X59946632Y-46706525D01*
X59703411Y-46544010D01*
X59433158Y-46432068D01*
X59146260Y-46375000D01*
X58853740Y-46375000D01*
X58566842Y-46432068D01*
X58296589Y-46544010D01*
X58053368Y-46706525D01*
X57846525Y-46913368D01*
X57684010Y-47156589D01*
X57572068Y-47426842D01*
X57515000Y-47713740D01*
X57515000Y-48006260D01*
X57572068Y-48293158D01*
X57684010Y-48563411D01*
X57846525Y-48806632D01*
X57978380Y-48938487D01*
X57905820Y-48960498D01*
X57795506Y-49019463D01*
X57698815Y-49098815D01*
X57619463Y-49195506D01*
X57560498Y-49305820D01*
X57524188Y-49425518D01*
X57511928Y-49550000D01*
X57511928Y-49665000D01*
X53135000Y-49665000D01*
X53135000Y-48352082D01*
X53198577Y-48142499D01*
X53215000Y-47975752D01*
X53220491Y-47920001D01*
X53215000Y-47864249D01*
X53215000Y-44435000D01*
X58344499Y-44435000D01*
X58398815Y-44501185D01*
X58495506Y-44580537D01*
X58605820Y-44639502D01*
X58725518Y-44675812D01*
X58850000Y-44688072D01*
X60850000Y-44688072D01*
X60974482Y-44675812D01*
X61094180Y-44639502D01*
X61204494Y-44580537D01*
X61301185Y-44501185D01*
X61380537Y-44404494D01*
X61439502Y-44294180D01*
X61475812Y-44174482D01*
X61488072Y-44050000D01*
X61488072Y-42550000D01*
X61475812Y-42425518D01*
X61439502Y-42305820D01*
X61380537Y-42195506D01*
X61343191Y-42150000D01*
X61355501Y-42135000D01*
X64511928Y-42135000D01*
X64511928Y-42900000D01*
X64524188Y-43024482D01*
X64560498Y-43144180D01*
X64619463Y-43254494D01*
X64698815Y-43351185D01*
X64795506Y-43430537D01*
X64905820Y-43489502D01*
X65025518Y-43525812D01*
X65150000Y-43538072D01*
X67150000Y-43538072D01*
X67274482Y-43525812D01*
X67394180Y-43489502D01*
X67504494Y-43430537D01*
X67601185Y-43351185D01*
X67680537Y-43254494D01*
X67739502Y-43144180D01*
X67742287Y-43135000D01*
X69944248Y-43135000D01*
X70000000Y-43140491D01*
X70055751Y-43135000D01*
X70055752Y-43135000D01*
X70222499Y-43118577D01*
X70436447Y-43053676D01*
X70633623Y-42948284D01*
X70806449Y-42806449D01*
X70948284Y-42633623D01*
X71053676Y-42436447D01*
X71118577Y-42222499D01*
X71140491Y-42000000D01*
X71135000Y-41944248D01*
X71135000Y-40812826D01*
X71137500Y-40813072D01*
X71289250Y-40810000D01*
X71448000Y-40651250D01*
X71448000Y-39827000D01*
X71702000Y-39827000D01*
X71702000Y-40651250D01*
X71860750Y-40810000D01*
X72012500Y-40813072D01*
X72136982Y-40800812D01*
X72256680Y-40764502D01*
X72366994Y-40705537D01*
X72463685Y-40626185D01*
X72543037Y-40529494D01*
X72602002Y-40419180D01*
X72638312Y-40299482D01*
X72650572Y-40175000D01*
X72647500Y-39985750D01*
X72488750Y-39827000D01*
X71702000Y-39827000D01*
X71448000Y-39827000D01*
X71428000Y-39827000D01*
X71428000Y-39573000D01*
X71448000Y-39573000D01*
X71448000Y-39553000D01*
X71702000Y-39553000D01*
X71702000Y-39573000D01*
X72488750Y-39573000D01*
X72647500Y-39414250D01*
X72650572Y-39225000D01*
X72638312Y-39100518D01*
X72602002Y-38980820D01*
X72543037Y-38870506D01*
X72506778Y-38826325D01*
X72511982Y-38825812D01*
X72631680Y-38789502D01*
X72741994Y-38730537D01*
X72838685Y-38651185D01*
X72918037Y-38554494D01*
X72977002Y-38444180D01*
X73007661Y-38343110D01*
X80058524Y-38343110D01*
X80179845Y-38573000D01*
X81373000Y-38573000D01*
X81373000Y-37379186D01*
X81627000Y-37379186D01*
X81627000Y-38573000D01*
X83913000Y-38573000D01*
X83913000Y-37379186D01*
X84167000Y-37379186D01*
X84167000Y-38573000D01*
X85360155Y-38573000D01*
X85481476Y-38343110D01*
X85436825Y-38195901D01*
X85311641Y-37933080D01*
X85137588Y-37699731D01*
X84921355Y-37504822D01*
X84671252Y-37355843D01*
X84396891Y-37258519D01*
X84167000Y-37379186D01*
X83913000Y-37379186D01*
X83683109Y-37258519D01*
X83408748Y-37355843D01*
X83158645Y-37504822D01*
X82942412Y-37699731D01*
X82770000Y-37930880D01*
X82597588Y-37699731D01*
X82381355Y-37504822D01*
X82131252Y-37355843D01*
X81856891Y-37258519D01*
X81627000Y-37379186D01*
X81373000Y-37379186D01*
X81143109Y-37258519D01*
X80868748Y-37355843D01*
X80618645Y-37504822D01*
X80402412Y-37699731D01*
X80228359Y-37933080D01*
X80103175Y-38195901D01*
X80058524Y-38343110D01*
X73007661Y-38343110D01*
X73013312Y-38324482D01*
X73025572Y-38200000D01*
X73022500Y-37785750D01*
X72863750Y-37627000D01*
X72027000Y-37627000D01*
X72027000Y-37647000D01*
X71773000Y-37647000D01*
X71773000Y-37627000D01*
X71753000Y-37627000D01*
X71753000Y-37373000D01*
X71773000Y-37373000D01*
X71773000Y-36323750D01*
X72027000Y-36323750D01*
X72027000Y-37373000D01*
X72863750Y-37373000D01*
X73022500Y-37214250D01*
X73025572Y-36800000D01*
X73013312Y-36675518D01*
X72977002Y-36555820D01*
X72918037Y-36445506D01*
X72838685Y-36348815D01*
X72741994Y-36269463D01*
X72631680Y-36210498D01*
X72511982Y-36174188D01*
X72387500Y-36161928D01*
X72185750Y-36165000D01*
X72027000Y-36323750D01*
X71773000Y-36323750D01*
X71614250Y-36165000D01*
X71412500Y-36161928D01*
X71288018Y-36174188D01*
X71168320Y-36210498D01*
X71058006Y-36269463D01*
X70961315Y-36348815D01*
X70897508Y-36426564D01*
X70892292Y-36420208D01*
X70758664Y-36310542D01*
X70606209Y-36229053D01*
X70440785Y-36178872D01*
X70268750Y-36161928D01*
X69781250Y-36161928D01*
X69609215Y-36178872D01*
X69443791Y-36229053D01*
X69291336Y-36310542D01*
X69157708Y-36420208D01*
X69048042Y-36553836D01*
X68966553Y-36706291D01*
X68916372Y-36871715D01*
X68899428Y-37043750D01*
X68899428Y-37243148D01*
X68881423Y-37302502D01*
X68859509Y-37525000D01*
X68865001Y-37580761D01*
X68865000Y-39644248D01*
X68859509Y-39700000D01*
X68865001Y-39755761D01*
X68865000Y-40865000D01*
X67788072Y-40865000D01*
X67788072Y-39100000D01*
X67775812Y-38975518D01*
X67739502Y-38855820D01*
X67680537Y-38745506D01*
X67601185Y-38648815D01*
X67504494Y-38569463D01*
X67394180Y-38510498D01*
X67274482Y-38474188D01*
X67150000Y-38461928D01*
X65150000Y-38461928D01*
X65025518Y-38474188D01*
X64905820Y-38510498D01*
X64795506Y-38569463D01*
X64698815Y-38648815D01*
X64619463Y-38745506D01*
X64560498Y-38855820D01*
X64524188Y-38975518D01*
X64511928Y-39100000D01*
X64511928Y-39865000D01*
X61355501Y-39865000D01*
X61343191Y-39850000D01*
X61380537Y-39804494D01*
X61439502Y-39694180D01*
X61475812Y-39574482D01*
X61488072Y-39450000D01*
X61485000Y-38985750D01*
X61326250Y-38827000D01*
X59977000Y-38827000D01*
X59977000Y-38847000D01*
X59723000Y-38847000D01*
X59723000Y-38827000D01*
X58373750Y-38827000D01*
X58215000Y-38985750D01*
X58211928Y-39450000D01*
X58224188Y-39574482D01*
X58260498Y-39694180D01*
X58319463Y-39804494D01*
X58356809Y-39850000D01*
X58344499Y-39865000D01*
X57088212Y-39865000D01*
X56868933Y-39908617D01*
X56662376Y-39994176D01*
X56476480Y-40118388D01*
X56318388Y-40276480D01*
X56194176Y-40462376D01*
X56108617Y-40668933D01*
X56065000Y-40888212D01*
X56065000Y-41111788D01*
X56108617Y-41331067D01*
X56194176Y-41537624D01*
X56318388Y-41723520D01*
X56476480Y-41881612D01*
X56662376Y-42005824D01*
X56868933Y-42091383D01*
X57088212Y-42135000D01*
X58344499Y-42135000D01*
X58356809Y-42150000D01*
X58344499Y-42165000D01*
X53395365Y-42165000D01*
X53365764Y-42067419D01*
X53237157Y-41826812D01*
X53064080Y-41615919D01*
X52853187Y-41442843D01*
X52612580Y-41314236D01*
X52351506Y-41235040D01*
X52080000Y-41208299D01*
X51808493Y-41235040D01*
X51547419Y-41314236D01*
X51306812Y-41442843D01*
X51095919Y-41615920D01*
X50922843Y-41826813D01*
X50807514Y-42042579D01*
X50770972Y-41952651D01*
X50621028Y-41724939D01*
X50429540Y-41530855D01*
X50203868Y-41377858D01*
X49952684Y-41271827D01*
X49881185Y-41257682D01*
X49667000Y-41380344D01*
X49667000Y-42873000D01*
X49687000Y-42873000D01*
X49687000Y-43127000D01*
X49667000Y-43127000D01*
X49667000Y-44619656D01*
X49881185Y-44742318D01*
X49952684Y-44728173D01*
X50203868Y-44622142D01*
X50429540Y-44469145D01*
X50621028Y-44275061D01*
X50770972Y-44047349D01*
X50807514Y-43957422D01*
X50922843Y-44173188D01*
X50945000Y-44200186D01*
X50945001Y-46757707D01*
X50856680Y-46710498D01*
X50736982Y-46674188D01*
X50612500Y-46661928D01*
X50410750Y-46665000D01*
X50252000Y-46823750D01*
X50252000Y-47873000D01*
X50272000Y-47873000D01*
X50272000Y-48127000D01*
X50252000Y-48127000D01*
X50252000Y-49176250D01*
X50410750Y-49335000D01*
X50612500Y-49338072D01*
X50736982Y-49325812D01*
X50856680Y-49289502D01*
X50865000Y-49285055D01*
X50865001Y-49698254D01*
X50750000Y-49686928D01*
X50598250Y-49690000D01*
X50439500Y-49848750D01*
X50439500Y-50673000D01*
X50459500Y-50673000D01*
X50459500Y-50927000D01*
X50439500Y-50927000D01*
X50439500Y-51751250D01*
X50598250Y-51910000D01*
X50750000Y-51913072D01*
X50752500Y-51912826D01*
X50752501Y-56406739D01*
X50747009Y-56462500D01*
X50768923Y-56684998D01*
X50833824Y-56898946D01*
X50858039Y-56944249D01*
X50881579Y-56988289D01*
X50249355Y-57620514D01*
X50206041Y-57656061D01*
X50064206Y-57828887D01*
X49969671Y-58005752D01*
X49958814Y-58026064D01*
X49893913Y-58240012D01*
X49871999Y-58462510D01*
X49877490Y-58518262D01*
X49877490Y-60572359D01*
X49541995Y-60236864D01*
X49506449Y-60193551D01*
X49333623Y-60051716D01*
X49136447Y-59946324D01*
X49135000Y-59945885D01*
X49135000Y-57944248D01*
X49118577Y-57777501D01*
X49109878Y-57748826D01*
X49096608Y-57614092D01*
X49047850Y-57453358D01*
X48968671Y-57305225D01*
X48892574Y-57212500D01*
X48968671Y-57119775D01*
X49047850Y-56971642D01*
X49096608Y-56810908D01*
X49109878Y-56676174D01*
X49118577Y-56647499D01*
X49135000Y-56480752D01*
X49135000Y-51275000D01*
X49236928Y-51275000D01*
X49249188Y-51399482D01*
X49285498Y-51519180D01*
X49344463Y-51629494D01*
X49423815Y-51726185D01*
X49520506Y-51805537D01*
X49630820Y-51864502D01*
X49750518Y-51900812D01*
X49875000Y-51913072D01*
X50026750Y-51910000D01*
X50185500Y-51751250D01*
X50185500Y-50927000D01*
X49398750Y-50927000D01*
X49240000Y-51085750D01*
X49236928Y-51275000D01*
X49135000Y-51275000D01*
X49135000Y-50325000D01*
X49236928Y-50325000D01*
X49240000Y-50514250D01*
X49398750Y-50673000D01*
X50185500Y-50673000D01*
X50185500Y-49848750D01*
X50026750Y-49690000D01*
X49875000Y-49686928D01*
X49750518Y-49699188D01*
X49630820Y-49735498D01*
X49520506Y-49794463D01*
X49423815Y-49873815D01*
X49344463Y-49970506D01*
X49285498Y-50080820D01*
X49249188Y-50200518D01*
X49236928Y-50325000D01*
X49135000Y-50325000D01*
X49135000Y-49088657D01*
X49186315Y-49151185D01*
X49283006Y-49230537D01*
X49393320Y-49289502D01*
X49513018Y-49325812D01*
X49637500Y-49338072D01*
X49839250Y-49335000D01*
X49998000Y-49176250D01*
X49998000Y-48127000D01*
X49978000Y-48127000D01*
X49978000Y-47873000D01*
X49998000Y-47873000D01*
X49998000Y-46823750D01*
X49839250Y-46665000D01*
X49637500Y-46661928D01*
X49513018Y-46674188D01*
X49393320Y-46710498D01*
X49283006Y-46769463D01*
X49186315Y-46848815D01*
X49106963Y-46945506D01*
X49072500Y-47009981D01*
X49072500Y-44705034D01*
X49127316Y-44728173D01*
X49198815Y-44742318D01*
X49413000Y-44619656D01*
X49413000Y-43127000D01*
X49393000Y-43127000D01*
X49393000Y-42873000D01*
X49413000Y-42873000D01*
X49413000Y-41380344D01*
X49198815Y-41257682D01*
X49127316Y-41271827D01*
X48876132Y-41377858D01*
X48650460Y-41530855D01*
X48458972Y-41724939D01*
X48386582Y-41834874D01*
X48375812Y-41725518D01*
X48339502Y-41605820D01*
X48280537Y-41495506D01*
X48201185Y-41398815D01*
X48104494Y-41319463D01*
X47994180Y-41260498D01*
X47874482Y-41224188D01*
X47750000Y-41211928D01*
X46250000Y-41211928D01*
X46125518Y-41224188D01*
X46005820Y-41260498D01*
X45895506Y-41319463D01*
X45798815Y-41398815D01*
X45719463Y-41495506D01*
X45660498Y-41605820D01*
X45624188Y-41725518D01*
X45611928Y-41850000D01*
X45611928Y-44150000D01*
X45624188Y-44274482D01*
X45660498Y-44394180D01*
X45719463Y-44504494D01*
X45798815Y-44601185D01*
X45895506Y-44680537D01*
X46005820Y-44739502D01*
X46125518Y-44775812D01*
X46250000Y-44788072D01*
X46802501Y-44788072D01*
X46802500Y-46714945D01*
X46794180Y-46710498D01*
X46674482Y-46674188D01*
X46550000Y-46661928D01*
X46348250Y-46665000D01*
X46189500Y-46823750D01*
X46189500Y-47873000D01*
X46209500Y-47873000D01*
X46209500Y-48127000D01*
X46189500Y-48127000D01*
X46189500Y-49176250D01*
X46348250Y-49335000D01*
X46550000Y-49338072D01*
X46674482Y-49325812D01*
X46794180Y-49289502D01*
X46865001Y-49251647D01*
X46865000Y-56480751D01*
X46881423Y-56647498D01*
X46890121Y-56676173D01*
X46903392Y-56810908D01*
X46952150Y-56971642D01*
X47031329Y-57119775D01*
X47107426Y-57212500D01*
X47031329Y-57305225D01*
X46952150Y-57453358D01*
X46903392Y-57614092D01*
X46890121Y-57748831D01*
X46881424Y-57777501D01*
X46865001Y-57944248D01*
X46865000Y-60199979D01*
X46810542Y-60266336D01*
X46729053Y-60418791D01*
X46678872Y-60584215D01*
X46661928Y-60756250D01*
X46661928Y-61243750D01*
X46678872Y-61415785D01*
X46729053Y-61581209D01*
X46810542Y-61733664D01*
X46920208Y-61867292D01*
X46926564Y-61872508D01*
X46848815Y-61936315D01*
X46769463Y-62033006D01*
X46710498Y-62143320D01*
X46674188Y-62263018D01*
X46661928Y-62387500D01*
X46665000Y-62589250D01*
X46823750Y-62748000D01*
X47873000Y-62748000D01*
X47873000Y-62728000D01*
X48127000Y-62728000D01*
X48127000Y-62748000D01*
X48147000Y-62748000D01*
X48147000Y-63002000D01*
X48127000Y-63002000D01*
X48127000Y-63838750D01*
X48265010Y-63976760D01*
X48265010Y-64604858D01*
X48032940Y-64836928D01*
X47762500Y-64836928D01*
X47591684Y-64853752D01*
X47427433Y-64903577D01*
X47276058Y-64984488D01*
X47143377Y-65093377D01*
X47034488Y-65226058D01*
X46953577Y-65377433D01*
X46903752Y-65541684D01*
X46886928Y-65712500D01*
X46886928Y-65759354D01*
X46881423Y-65777501D01*
X46859509Y-66000000D01*
X46881423Y-66222499D01*
X46886928Y-66240646D01*
X46886928Y-66287500D01*
X46903752Y-66458316D01*
X46953577Y-66622567D01*
X47034488Y-66773942D01*
X47117425Y-66875000D01*
X47034488Y-66976058D01*
X47015630Y-67011339D01*
X45901156Y-65896865D01*
X45865609Y-65853551D01*
X45692783Y-65711716D01*
X45495607Y-65606324D01*
X45281659Y-65541423D01*
X45114912Y-65525000D01*
X45114911Y-65525000D01*
X45059160Y-65519509D01*
X45003409Y-65525000D01*
X41384341Y-65525000D01*
X41355302Y-65495961D01*
X41189897Y-65385441D01*
X41288488Y-65326817D01*
X41506854Y-65130293D01*
X41682684Y-64894944D01*
X41809222Y-64629814D01*
X41854958Y-64479026D01*
X41733817Y-64247000D01*
X40527000Y-64247000D01*
X40527000Y-64267000D01*
X40273000Y-64267000D01*
X40273000Y-64247000D01*
X37987000Y-64247000D01*
X37987000Y-64267000D01*
X37733000Y-64267000D01*
X37733000Y-64247000D01*
X37713000Y-64247000D01*
X37713000Y-63993000D01*
X37733000Y-63993000D01*
X37733000Y-61707000D01*
X37987000Y-61707000D01*
X37987000Y-63993000D01*
X40273000Y-63993000D01*
X40273000Y-61707000D01*
X40527000Y-61707000D01*
X40527000Y-63993000D01*
X41733817Y-63993000D01*
X41854958Y-63760974D01*
X41809222Y-63610186D01*
X41691010Y-63362500D01*
X46661928Y-63362500D01*
X46674188Y-63486982D01*
X46710498Y-63606680D01*
X46769463Y-63716994D01*
X46848815Y-63813685D01*
X46945506Y-63893037D01*
X47055820Y-63952002D01*
X47175518Y-63988312D01*
X47300000Y-64000572D01*
X47714250Y-63997500D01*
X47873000Y-63838750D01*
X47873000Y-63002000D01*
X46823750Y-63002000D01*
X46665000Y-63160750D01*
X46661928Y-63362500D01*
X41691010Y-63362500D01*
X41682684Y-63345056D01*
X41506854Y-63109707D01*
X41288488Y-62913183D01*
X41182230Y-62850000D01*
X41288488Y-62786817D01*
X41506854Y-62590293D01*
X41682684Y-62354944D01*
X41809222Y-62089814D01*
X41854958Y-61939026D01*
X41733817Y-61707000D01*
X40527000Y-61707000D01*
X40273000Y-61707000D01*
X37987000Y-61707000D01*
X37733000Y-61707000D01*
X37713000Y-61707000D01*
X37713000Y-61453000D01*
X37733000Y-61453000D01*
X37733000Y-59167000D01*
X37987000Y-59167000D01*
X37987000Y-61453000D01*
X40273000Y-61453000D01*
X40273000Y-59167000D01*
X40527000Y-59167000D01*
X40527000Y-61453000D01*
X41733817Y-61453000D01*
X41854958Y-61220974D01*
X41809222Y-61070186D01*
X41682684Y-60805056D01*
X41506854Y-60569707D01*
X41288488Y-60373183D01*
X41182230Y-60310000D01*
X41288488Y-60246817D01*
X41506854Y-60050293D01*
X41682684Y-59814944D01*
X41809222Y-59549814D01*
X41854958Y-59399026D01*
X41733817Y-59167000D01*
X40527000Y-59167000D01*
X40273000Y-59167000D01*
X37987000Y-59167000D01*
X37733000Y-59167000D01*
X37713000Y-59167000D01*
X37713000Y-58913000D01*
X37733000Y-58913000D01*
X37733000Y-58893000D01*
X37987000Y-58893000D01*
X37987000Y-58913000D01*
X40273000Y-58913000D01*
X40273000Y-58893000D01*
X40527000Y-58893000D01*
X40527000Y-58913000D01*
X41733817Y-58913000D01*
X41854958Y-58680974D01*
X41809222Y-58530186D01*
X41682684Y-58265056D01*
X41506854Y-58029707D01*
X41443426Y-57972624D01*
X41507780Y-57953102D01*
X41618094Y-57894137D01*
X41714785Y-57814785D01*
X41794137Y-57718094D01*
X41853102Y-57607780D01*
X41889412Y-57488082D01*
X41901672Y-57363600D01*
X41901672Y-55636400D01*
X41889412Y-55511918D01*
X41853102Y-55392220D01*
X41794137Y-55281906D01*
X41714785Y-55185215D01*
X41618094Y-55105863D01*
X41507780Y-55046898D01*
X41388082Y-55010588D01*
X41263600Y-54998328D01*
X39536400Y-54998328D01*
X39411918Y-55010588D01*
X39292220Y-55046898D01*
X39181906Y-55105863D01*
X39085215Y-55185215D01*
X39005863Y-55281906D01*
X38961448Y-55365000D01*
X38844341Y-55365000D01*
X38815302Y-55335961D01*
X38569853Y-55171958D01*
X38297125Y-55058990D01*
X38007599Y-55001400D01*
X37712401Y-55001400D01*
X37422875Y-55058990D01*
X37150147Y-55171958D01*
X36904698Y-55335961D01*
X36875659Y-55365000D01*
X36555752Y-55365000D01*
X36500000Y-55359509D01*
X36444248Y-55365000D01*
X36277501Y-55381423D01*
X36063553Y-55446324D01*
X35866377Y-55551716D01*
X35693551Y-55693551D01*
X35658008Y-55736860D01*
X34936864Y-56458005D01*
X34893551Y-56493551D01*
X34751716Y-56666377D01*
X34666368Y-56826054D01*
X34646324Y-56863554D01*
X34581423Y-57077502D01*
X34559509Y-57300000D01*
X33660000Y-57300000D01*
X33660000Y-48700000D01*
X44936928Y-48700000D01*
X44949188Y-48824482D01*
X44985498Y-48944180D01*
X45044463Y-49054494D01*
X45123815Y-49151185D01*
X45220506Y-49230537D01*
X45330820Y-49289502D01*
X45450518Y-49325812D01*
X45575000Y-49338072D01*
X45776750Y-49335000D01*
X45935500Y-49176250D01*
X45935500Y-48127000D01*
X45098750Y-48127000D01*
X44940000Y-48285750D01*
X44936928Y-48700000D01*
X33660000Y-48700000D01*
X33660000Y-47300000D01*
X44936928Y-47300000D01*
X44940000Y-47714250D01*
X45098750Y-47873000D01*
X45935500Y-47873000D01*
X45935500Y-46823750D01*
X45776750Y-46665000D01*
X45575000Y-46661928D01*
X45450518Y-46674188D01*
X45330820Y-46710498D01*
X45220506Y-46769463D01*
X45123815Y-46848815D01*
X45044463Y-46945506D01*
X44985498Y-47055820D01*
X44949188Y-47175518D01*
X44936928Y-47300000D01*
X33660000Y-47300000D01*
X33660000Y-41558686D01*
X34620919Y-41558686D01*
X34957106Y-42027868D01*
X35587068Y-42368237D01*
X36271327Y-42579166D01*
X36983589Y-42652550D01*
X37696482Y-42585569D01*
X38382609Y-42380796D01*
X39015603Y-42046102D01*
X39042894Y-42027868D01*
X39379081Y-41558686D01*
X37000000Y-39179605D01*
X34620919Y-41558686D01*
X33660000Y-41558686D01*
X33660000Y-40459765D01*
X33953898Y-41015603D01*
X33972132Y-41042894D01*
X34441314Y-41379081D01*
X36820395Y-39000000D01*
X37179605Y-39000000D01*
X39558686Y-41379081D01*
X40027868Y-41042894D01*
X40368237Y-40412932D01*
X40579166Y-39728673D01*
X40652550Y-39016411D01*
X40585569Y-38303518D01*
X40480063Y-37950000D01*
X58211928Y-37950000D01*
X58215000Y-38414250D01*
X58373750Y-38573000D01*
X59723000Y-38573000D01*
X59723000Y-37473750D01*
X59977000Y-37473750D01*
X59977000Y-38573000D01*
X61326250Y-38573000D01*
X61485000Y-38414250D01*
X61488072Y-37950000D01*
X61475812Y-37825518D01*
X61439502Y-37705820D01*
X61380537Y-37595506D01*
X61301185Y-37498815D01*
X61204494Y-37419463D01*
X61094180Y-37360498D01*
X60974482Y-37324188D01*
X60850000Y-37311928D01*
X60135750Y-37315000D01*
X59977000Y-37473750D01*
X59723000Y-37473750D01*
X59564250Y-37315000D01*
X58850000Y-37311928D01*
X58725518Y-37324188D01*
X58605820Y-37360498D01*
X58495506Y-37419463D01*
X58398815Y-37498815D01*
X58319463Y-37595506D01*
X58260498Y-37705820D01*
X58224188Y-37825518D01*
X58211928Y-37950000D01*
X40480063Y-37950000D01*
X40380796Y-37617391D01*
X40046102Y-36984397D01*
X40027868Y-36957106D01*
X39558686Y-36620919D01*
X37179605Y-39000000D01*
X36820395Y-39000000D01*
X36806253Y-38985858D01*
X36985858Y-38806253D01*
X37000000Y-38820395D01*
X39379081Y-36441314D01*
X39042894Y-35972132D01*
X38465194Y-35660000D01*
X83967722Y-35660000D01*
X84648126Y-35726714D01*
G37*
X84648126Y-35726714D02*
X85271572Y-35914943D01*
X85846579Y-36220681D01*
X86351247Y-36632279D01*
X86766362Y-37134067D01*
X87076105Y-37706924D01*
X87268682Y-38329039D01*
X87340000Y-39007584D01*
X87340001Y-40967711D01*
X87273286Y-41648126D01*
X87085057Y-42271570D01*
X86779323Y-42846573D01*
X86367721Y-43351248D01*
X85865933Y-43766362D01*
X85293077Y-44076104D01*
X84670961Y-44268682D01*
X83992417Y-44340000D01*
X75967581Y-44340000D01*
X75937247Y-44342988D01*
X75912257Y-44342813D01*
X75903086Y-44343713D01*
X75126699Y-44425315D01*
X75068106Y-44437342D01*
X75009342Y-44448552D01*
X75000520Y-44451215D01*
X74254771Y-44682063D01*
X74199608Y-44705251D01*
X74144162Y-44727653D01*
X74136026Y-44731979D01*
X73449316Y-45103282D01*
X73399741Y-45136721D01*
X73349670Y-45169486D01*
X73342529Y-45175311D01*
X72741017Y-45672924D01*
X72698858Y-45715379D01*
X72656127Y-45757224D01*
X72650253Y-45764324D01*
X72156852Y-46369295D01*
X72123764Y-46419096D01*
X72089953Y-46468476D01*
X72085570Y-46476582D01*
X71719071Y-47165867D01*
X71696280Y-47221161D01*
X71672710Y-47276154D01*
X71669985Y-47284957D01*
X71444348Y-48032302D01*
X71432725Y-48091005D01*
X71420292Y-48149494D01*
X71419329Y-48158658D01*
X71343150Y-48935596D01*
X71340000Y-48967582D01*
X71340001Y-76032419D01*
X71342988Y-76062744D01*
X71342813Y-76087743D01*
X71343713Y-76096914D01*
X71425315Y-76873302D01*
X71437338Y-76931871D01*
X71448551Y-76990657D01*
X71451215Y-76999479D01*
X71682063Y-77745229D01*
X71705238Y-77800359D01*
X71727652Y-77855838D01*
X71731979Y-77863974D01*
X72103282Y-78550684D01*
X72136727Y-78600268D01*
X72169487Y-78650331D01*
X72175311Y-78657472D01*
X72672924Y-79258983D01*
X72715376Y-79301140D01*
X72757223Y-79343873D01*
X72764318Y-79349741D01*
X72764324Y-79349747D01*
X72764331Y-79349751D01*
X73369294Y-79843148D01*
X73419087Y-79876230D01*
X73468476Y-79910048D01*
X73476583Y-79914430D01*
X74165867Y-80280930D01*
X74221182Y-80303729D01*
X74276154Y-80327290D01*
X74284957Y-80330015D01*
X75032302Y-80555652D01*
X75091011Y-80567277D01*
X75149494Y-80579708D01*
X75158657Y-80580671D01*
X75158659Y-80580671D01*
X75935596Y-80656850D01*
X75935598Y-80656850D01*
X75967581Y-80660000D01*
X83967722Y-80660000D01*
X84648126Y-80726714D01*
X85271572Y-80914943D01*
X85846579Y-81220681D01*
X86351247Y-81632279D01*
X86766362Y-82134067D01*
X87076105Y-82706924D01*
X87268682Y-83329039D01*
X87340000Y-84007584D01*
X87340001Y-85967711D01*
X87273286Y-86648126D01*
X87085057Y-87271570D01*
X86779323Y-87846573D01*
X86367721Y-88351248D01*
X85865933Y-88766362D01*
X85293077Y-89076104D01*
X84670961Y-89268682D01*
X83992417Y-89340000D01*
X56565131Y-89340000D01*
X57167060Y-88738072D01*
X57250000Y-88738072D01*
X57374482Y-88725812D01*
X57494180Y-88689502D01*
X57604494Y-88630537D01*
X57701185Y-88551185D01*
X57780537Y-88454494D01*
X57839502Y-88344180D01*
X57875812Y-88224482D01*
X57888072Y-88100000D01*
X57888072Y-87823057D01*
X57918576Y-87722500D01*
X57940490Y-87500001D01*
X57918576Y-87277502D01*
X57888072Y-87176945D01*
X57888072Y-86900000D01*
X57875812Y-86775518D01*
X57839502Y-86655820D01*
X57780537Y-86545506D01*
X57701185Y-86448815D01*
X57604494Y-86369463D01*
X57494180Y-86310498D01*
X57374482Y-86274188D01*
X57250000Y-86261928D01*
X56350000Y-86261928D01*
X56225518Y-86274188D01*
X56105820Y-86310498D01*
X55995506Y-86369463D01*
X55898815Y-86448815D01*
X55819463Y-86545506D01*
X55760498Y-86655820D01*
X55724188Y-86775518D01*
X55711928Y-86900000D01*
X55711928Y-86982940D01*
X55139869Y-87555000D01*
X46660132Y-87555000D01*
X46485000Y-87379869D01*
X46485000Y-87101022D01*
X46576187Y-87026187D01*
X46774256Y-86784839D01*
X46921434Y-86509488D01*
X47012066Y-86210714D01*
X47042669Y-85900000D01*
X47012066Y-85589286D01*
X46921434Y-85290512D01*
X46774256Y-85015161D01*
X46576187Y-84773813D01*
X46334839Y-84575744D01*
X46059488Y-84428566D01*
X45760714Y-84337934D01*
X45527864Y-84315000D01*
X45172136Y-84315000D01*
X44939286Y-84337934D01*
X44640512Y-84428566D01*
X44365161Y-84575744D01*
X44123813Y-84773813D01*
X43925744Y-85015161D01*
X43778566Y-85290512D01*
X43687934Y-85589286D01*
X43657331Y-85900000D01*
X43687934Y-86210714D01*
X43778566Y-86509488D01*
X43925744Y-86784839D01*
X44123813Y-87026187D01*
X44215001Y-87101023D01*
X44215001Y-87794239D01*
X44209509Y-87850000D01*
X44231423Y-88072498D01*
X44296324Y-88286446D01*
X44323013Y-88336377D01*
X44401717Y-88483623D01*
X44543552Y-88656449D01*
X44586860Y-88691991D01*
X45234868Y-89340000D01*
X38459765Y-89340000D01*
X39015603Y-89046102D01*
X39042894Y-89027868D01*
X39379081Y-88558686D01*
X37000000Y-86179605D01*
X36985858Y-86193748D01*
X36806253Y-86014143D01*
X36820395Y-86000000D01*
X37179605Y-86000000D01*
X39558686Y-88379081D01*
X40027868Y-88042894D01*
X40368237Y-87412932D01*
X40579166Y-86728673D01*
X40652550Y-86016411D01*
X40585569Y-85303518D01*
X40380796Y-84617391D01*
X40046102Y-83984397D01*
X40027868Y-83957106D01*
X39558686Y-83620919D01*
X37179605Y-86000000D01*
X36820395Y-86000000D01*
X34441314Y-83620919D01*
X33972132Y-83957106D01*
X33660000Y-84534806D01*
X33660000Y-83441314D01*
X34620919Y-83441314D01*
X37000000Y-85820395D01*
X39379081Y-83441314D01*
X39042894Y-82972132D01*
X38412932Y-82631763D01*
X37728673Y-82420834D01*
X37016411Y-82347450D01*
X36303518Y-82414431D01*
X35617391Y-82619204D01*
X34984397Y-82953898D01*
X34957106Y-82972132D01*
X34620919Y-83441314D01*
X33660000Y-83441314D01*
X33660000Y-57300000D01*
X34559509Y-57300000D01*
X34565000Y-57355751D01*
X34565001Y-73584239D01*
X34559509Y-73640000D01*
X34581423Y-73862498D01*
X34646324Y-74076446D01*
X34646325Y-74076447D01*
X34751717Y-74273623D01*
X34893552Y-74446449D01*
X34936860Y-74481991D01*
X42418013Y-81963146D01*
X42453551Y-82006449D01*
X42496854Y-82041987D01*
X42496856Y-82041989D01*
X42626377Y-82148284D01*
X42823553Y-82253676D01*
X43037501Y-82318577D01*
X43260000Y-82340491D01*
X43315752Y-82335000D01*
X44134552Y-82335000D01*
X44365161Y-82524256D01*
X44640512Y-82671434D01*
X44939286Y-82762066D01*
X45172136Y-82785000D01*
X45527864Y-82785000D01*
X45760714Y-82762066D01*
X46059488Y-82671434D01*
X46334839Y-82524256D01*
X46576187Y-82326187D01*
X46774256Y-82084839D01*
X46921434Y-81809488D01*
X47012066Y-81510714D01*
X47042669Y-81200000D01*
X47012066Y-80889286D01*
X46921434Y-80590512D01*
X46774256Y-80315161D01*
X46576187Y-80073813D01*
X46334839Y-79875744D01*
X46059488Y-79728566D01*
X45760714Y-79637934D01*
X45527864Y-79615000D01*
X45172136Y-79615000D01*
X44939286Y-79637934D01*
X44640512Y-79728566D01*
X44365161Y-79875744D01*
X44134552Y-80065000D01*
X43730133Y-80065000D01*
X39215132Y-75550000D01*
X43661928Y-75550000D01*
X43661928Y-77450000D01*
X43674188Y-77574482D01*
X43710498Y-77694180D01*
X43769463Y-77804494D01*
X43848815Y-77901185D01*
X43945506Y-77980537D01*
X44055820Y-78039502D01*
X44175518Y-78075812D01*
X44300000Y-78088072D01*
X46400000Y-78088072D01*
X46524482Y-78075812D01*
X46644180Y-78039502D01*
X46754494Y-77980537D01*
X46851185Y-77901185D01*
X46930537Y-77804494D01*
X46989502Y-77694180D01*
X47025812Y-77574482D01*
X47038072Y-77450000D01*
X47038072Y-76500000D01*
X48457331Y-76500000D01*
X48487934Y-76810714D01*
X48578566Y-77109488D01*
X48725744Y-77384839D01*
X48923813Y-77626187D01*
X49165161Y-77824256D01*
X49440512Y-77971434D01*
X49739286Y-78062066D01*
X49972136Y-78085000D01*
X50327864Y-78085000D01*
X50560714Y-78062066D01*
X50859488Y-77971434D01*
X51134839Y-77824256D01*
X51376187Y-77626187D01*
X51574256Y-77384839D01*
X51721434Y-77109488D01*
X51812066Y-76810714D01*
X51842669Y-76500000D01*
X51812066Y-76189286D01*
X51721434Y-75890512D01*
X51574256Y-75615161D01*
X51376187Y-75373813D01*
X51134839Y-75175744D01*
X50859488Y-75028566D01*
X50560714Y-74937934D01*
X50327864Y-74915000D01*
X49972136Y-74915000D01*
X49739286Y-74937934D01*
X49440512Y-75028566D01*
X49165161Y-75175744D01*
X48923813Y-75373813D01*
X48725744Y-75615161D01*
X48578566Y-75890512D01*
X48487934Y-76189286D01*
X48457331Y-76500000D01*
X47038072Y-76500000D01*
X47038072Y-75550000D01*
X47025812Y-75425518D01*
X46989502Y-75305820D01*
X46930537Y-75195506D01*
X46851185Y-75098815D01*
X46754494Y-75019463D01*
X46644180Y-74960498D01*
X46524482Y-74924188D01*
X46400000Y-74911928D01*
X44300000Y-74911928D01*
X44175518Y-74924188D01*
X44055820Y-74960498D01*
X43945506Y-75019463D01*
X43848815Y-75098815D01*
X43769463Y-75195506D01*
X43710498Y-75305820D01*
X43674188Y-75425518D01*
X43661928Y-75550000D01*
X39215132Y-75550000D01*
X36835000Y-73169869D01*
X36835000Y-67754341D01*
X36904698Y-67824039D01*
X37150147Y-67988042D01*
X37422875Y-68101010D01*
X37712401Y-68158600D01*
X38007599Y-68158600D01*
X38297125Y-68101010D01*
X38569853Y-67988042D01*
X38815302Y-67824039D01*
X38844341Y-67795000D01*
X39415659Y-67795000D01*
X39444698Y-67824039D01*
X39690147Y-67988042D01*
X39962875Y-68101010D01*
X40252401Y-68158600D01*
X40547599Y-68158600D01*
X40837125Y-68101010D01*
X41109853Y-67988042D01*
X41355302Y-67824039D01*
X41384341Y-67795000D01*
X44589029Y-67795000D01*
X53265000Y-76470973D01*
X53265001Y-78529867D01*
X51729869Y-80065000D01*
X51365448Y-80065000D01*
X51134839Y-79875744D01*
X50859488Y-79728566D01*
X50560714Y-79637934D01*
X50327864Y-79615000D01*
X49972136Y-79615000D01*
X49739286Y-79637934D01*
X49440512Y-79728566D01*
X49165161Y-79875744D01*
X48923813Y-80073813D01*
X48725744Y-80315161D01*
X48578566Y-80590512D01*
X48487934Y-80889286D01*
X48457331Y-81200000D01*
X48487934Y-81510714D01*
X48578566Y-81809488D01*
X48725744Y-82084839D01*
X48923813Y-82326187D01*
X49165161Y-82524256D01*
X49440512Y-82671434D01*
X49739286Y-82762066D01*
X49972136Y-82785000D01*
X50327864Y-82785000D01*
X50560714Y-82762066D01*
X50859488Y-82671434D01*
X51134839Y-82524256D01*
X51365448Y-82335000D01*
X52144249Y-82335000D01*
X52200000Y-82340491D01*
X52255751Y-82335000D01*
X52255752Y-82335000D01*
X52422499Y-82318577D01*
X52636447Y-82253676D01*
X52833623Y-82148284D01*
X53006449Y-82006449D01*
X53041996Y-81963135D01*
X55029810Y-79975322D01*
X55033623Y-79973284D01*
X55065000Y-79947533D01*
X55065000Y-80344248D01*
X55059509Y-80400000D01*
X55065000Y-80455751D01*
X55081423Y-80622498D01*
X55146324Y-80836446D01*
X55251716Y-81033623D01*
X55393551Y-81206449D01*
X55436864Y-81241995D01*
X56258008Y-82063140D01*
X56293551Y-82106449D01*
X56466377Y-82248284D01*
X56491903Y-82261928D01*
X56350000Y-82261928D01*
X56225518Y-82274188D01*
X56105820Y-82310498D01*
X56003856Y-82365000D01*
X54655752Y-82365000D01*
X54600000Y-82359509D01*
X54377501Y-82381423D01*
X54163553Y-82446324D01*
X53966377Y-82551716D01*
X53836856Y-82658011D01*
X53836854Y-82658013D01*
X53793551Y-82693551D01*
X53758013Y-82736854D01*
X51729869Y-84765000D01*
X51365448Y-84765000D01*
X51134839Y-84575744D01*
X50859488Y-84428566D01*
X50560714Y-84337934D01*
X50327864Y-84315000D01*
X49972136Y-84315000D01*
X49739286Y-84337934D01*
X49440512Y-84428566D01*
X49165161Y-84575744D01*
X48923813Y-84773813D01*
X48725744Y-85015161D01*
X48578566Y-85290512D01*
X48487934Y-85589286D01*
X48457331Y-85900000D01*
X48487934Y-86210714D01*
X48578566Y-86509488D01*
X48725744Y-86784839D01*
X48923813Y-87026187D01*
X49165161Y-87224256D01*
X49440512Y-87371434D01*
X49739286Y-87462066D01*
X49972136Y-87485000D01*
X50327864Y-87485000D01*
X50560714Y-87462066D01*
X50859488Y-87371434D01*
X51134839Y-87224256D01*
X51365448Y-87035000D01*
X52144249Y-87035000D01*
X52200000Y-87040491D01*
X52255751Y-87035000D01*
X52255752Y-87035000D01*
X52422499Y-87018577D01*
X52636447Y-86953676D01*
X52833623Y-86848284D01*
X53006449Y-86706449D01*
X53041996Y-86663136D01*
X55070133Y-84635000D01*
X56003856Y-84635000D01*
X56105820Y-84689502D01*
X56225518Y-84725812D01*
X56350000Y-84738072D01*
X57250000Y-84738072D01*
X57374482Y-84725812D01*
X57494180Y-84689502D01*
X57604494Y-84630537D01*
X57701185Y-84551185D01*
X57780537Y-84454494D01*
X57839502Y-84344180D01*
X57875812Y-84224482D01*
X57888072Y-84100000D01*
X57888072Y-83823060D01*
X57918577Y-83722499D01*
X57940491Y-83500000D01*
X57918577Y-83277501D01*
X57888072Y-83176940D01*
X57888072Y-82900000D01*
X57875812Y-82775518D01*
X57839502Y-82655820D01*
X57780537Y-82545506D01*
X57701185Y-82448815D01*
X57684351Y-82435000D01*
X59215649Y-82435000D01*
X59198815Y-82448815D01*
X59119463Y-82545506D01*
X59060498Y-82655820D01*
X59024188Y-82775518D01*
X59011928Y-82900000D01*
X59011928Y-83176940D01*
X58981423Y-83277501D01*
X58959509Y-83500000D01*
X58981423Y-83722499D01*
X59011928Y-83823060D01*
X59011928Y-84100000D01*
X59024188Y-84224482D01*
X59060498Y-84344180D01*
X59119463Y-84454494D01*
X59198815Y-84551185D01*
X59295506Y-84630537D01*
X59405820Y-84689502D01*
X59525518Y-84725812D01*
X59650000Y-84738072D01*
X60550000Y-84738072D01*
X60674482Y-84725812D01*
X60794180Y-84689502D01*
X60896144Y-84635000D01*
X61574979Y-84635000D01*
X61641336Y-84689458D01*
X61793791Y-84770947D01*
X61959215Y-84821128D01*
X62131250Y-84838072D01*
X62618750Y-84838072D01*
X62790785Y-84821128D01*
X62956209Y-84770947D01*
X63108664Y-84689458D01*
X63242292Y-84579792D01*
X63312500Y-84494244D01*
X63382708Y-84579792D01*
X63428123Y-84617063D01*
X63415786Y-84625307D01*
X63366377Y-84651716D01*
X63323068Y-84687259D01*
X63276480Y-84718388D01*
X63236859Y-84758009D01*
X63193551Y-84793551D01*
X63158009Y-84836859D01*
X63118388Y-84876480D01*
X63087259Y-84923068D01*
X63051716Y-84966377D01*
X63025307Y-85015785D01*
X62994176Y-85062376D01*
X62972730Y-85114152D01*
X62946324Y-85163554D01*
X62930064Y-85217155D01*
X62908617Y-85268933D01*
X62897684Y-85323897D01*
X62881423Y-85377502D01*
X62875932Y-85433252D01*
X62865000Y-85488212D01*
X62865000Y-86201385D01*
X62790785Y-86178872D01*
X62618750Y-86161928D01*
X62131250Y-86161928D01*
X61959215Y-86178872D01*
X61793791Y-86229053D01*
X61641336Y-86310542D01*
X61574979Y-86365000D01*
X60896144Y-86365000D01*
X60794180Y-86310498D01*
X60674482Y-86274188D01*
X60550000Y-86261928D01*
X59650000Y-86261928D01*
X59525518Y-86274188D01*
X59405820Y-86310498D01*
X59295506Y-86369463D01*
X59198815Y-86448815D01*
X59119463Y-86545506D01*
X59060498Y-86655820D01*
X59024188Y-86775518D01*
X59011928Y-86900000D01*
X59011928Y-87176940D01*
X58981423Y-87277501D01*
X58959509Y-87500000D01*
X58981423Y-87722499D01*
X59011928Y-87823060D01*
X59011928Y-88100000D01*
X59024188Y-88224482D01*
X59060498Y-88344180D01*
X59119463Y-88454494D01*
X59198815Y-88551185D01*
X59295506Y-88630537D01*
X59405820Y-88689502D01*
X59525518Y-88725812D01*
X59650000Y-88738072D01*
X60550000Y-88738072D01*
X60674482Y-88725812D01*
X60794180Y-88689502D01*
X60896144Y-88635000D01*
X61574979Y-88635000D01*
X61641336Y-88689458D01*
X61793791Y-88770947D01*
X61959215Y-88821128D01*
X62131250Y-88838072D01*
X62618750Y-88838072D01*
X62790785Y-88821128D01*
X62956209Y-88770947D01*
X63108664Y-88689458D01*
X63242292Y-88579792D01*
X63312500Y-88494244D01*
X63382708Y-88579792D01*
X63516336Y-88689458D01*
X63668791Y-88770947D01*
X63834215Y-88821128D01*
X64006250Y-88838072D01*
X64493750Y-88838072D01*
X64665785Y-88821128D01*
X64831209Y-88770947D01*
X64983664Y-88689458D01*
X65050021Y-88635000D01*
X65299979Y-88635000D01*
X65366336Y-88689458D01*
X65518791Y-88770947D01*
X65684215Y-88821128D01*
X65856250Y-88838072D01*
X66343750Y-88838072D01*
X66515785Y-88821128D01*
X66681209Y-88770947D01*
X66833664Y-88689458D01*
X66967292Y-88579792D01*
X66972508Y-88573436D01*
X67036315Y-88651185D01*
X67133006Y-88730537D01*
X67243320Y-88789502D01*
X67363018Y-88825812D01*
X67487500Y-88838072D01*
X67689250Y-88835000D01*
X67848000Y-88676250D01*
X67848000Y-87627000D01*
X68102000Y-87627000D01*
X68102000Y-88676250D01*
X68260750Y-88835000D01*
X68462500Y-88838072D01*
X68586982Y-88825812D01*
X68706680Y-88789502D01*
X68816994Y-88730537D01*
X68913685Y-88651185D01*
X68993037Y-88554494D01*
X69052002Y-88444180D01*
X69088312Y-88324482D01*
X69100572Y-88200000D01*
X69097500Y-87785750D01*
X68938750Y-87627000D01*
X68102000Y-87627000D01*
X67848000Y-87627000D01*
X67828000Y-87627000D01*
X67828000Y-87373000D01*
X67848000Y-87373000D01*
X67848000Y-86323750D01*
X68102000Y-86323750D01*
X68102000Y-87373000D01*
X68938750Y-87373000D01*
X69097500Y-87214250D01*
X69100572Y-86800000D01*
X69088312Y-86675518D01*
X69052002Y-86555820D01*
X68993037Y-86445506D01*
X68913685Y-86348815D01*
X68816994Y-86269463D01*
X68706680Y-86210498D01*
X68586982Y-86174188D01*
X68462500Y-86161928D01*
X68260750Y-86165000D01*
X68102000Y-86323750D01*
X67848000Y-86323750D01*
X67689250Y-86165000D01*
X67487500Y-86161928D01*
X67363018Y-86174188D01*
X67243320Y-86210498D01*
X67133006Y-86269463D01*
X67036315Y-86348815D01*
X66972508Y-86426564D01*
X66967292Y-86420208D01*
X66833664Y-86310542D01*
X66681209Y-86229053D01*
X66515785Y-86178872D01*
X66343750Y-86161928D01*
X65856250Y-86161928D01*
X65684215Y-86178872D01*
X65518791Y-86229053D01*
X65366336Y-86310542D01*
X65299979Y-86365000D01*
X65135000Y-86365000D01*
X65135000Y-85488212D01*
X65127400Y-85450000D01*
X80011928Y-85450000D01*
X80011928Y-87150000D01*
X80024188Y-87274482D01*
X80060498Y-87394180D01*
X80119463Y-87504494D01*
X80198815Y-87601185D01*
X80295506Y-87680537D01*
X80405820Y-87739502D01*
X80525518Y-87775812D01*
X80650000Y-87788072D01*
X82350000Y-87788072D01*
X82474482Y-87775812D01*
X82594180Y-87739502D01*
X82704494Y-87680537D01*
X82801185Y-87601185D01*
X82880537Y-87504494D01*
X82917683Y-87435000D01*
X83074893Y-87435000D01*
X83093368Y-87453475D01*
X83336589Y-87615990D01*
X83606842Y-87727932D01*
X83893740Y-87785000D01*
X84186260Y-87785000D01*
X84473158Y-87727932D01*
X84743411Y-87615990D01*
X84986632Y-87453475D01*
X85193475Y-87246632D01*
X85355990Y-87003411D01*
X85467932Y-86733158D01*
X85525000Y-86446260D01*
X85525000Y-86153740D01*
X85467932Y-85866842D01*
X85355990Y-85596589D01*
X85193475Y-85353368D01*
X84986632Y-85146525D01*
X84804466Y-85024805D01*
X84921355Y-84955178D01*
X85137588Y-84760269D01*
X85311641Y-84526920D01*
X85436825Y-84264099D01*
X85481476Y-84116890D01*
X85360155Y-83887000D01*
X84167000Y-83887000D01*
X84167000Y-83907000D01*
X83913000Y-83907000D01*
X83913000Y-83887000D01*
X81627000Y-83887000D01*
X81627000Y-83907000D01*
X81373000Y-83907000D01*
X81373000Y-83887000D01*
X80179845Y-83887000D01*
X80058524Y-84116890D01*
X80103175Y-84264099D01*
X80228359Y-84526920D01*
X80402412Y-84760269D01*
X80486466Y-84836034D01*
X80405820Y-84860498D01*
X80295506Y-84919463D01*
X80198815Y-84998815D01*
X80119463Y-85095506D01*
X80060498Y-85205820D01*
X80024188Y-85325518D01*
X80011928Y-85450000D01*
X65127400Y-85450000D01*
X65124068Y-85433253D01*
X65118577Y-85377501D01*
X65102315Y-85323894D01*
X65091383Y-85268933D01*
X65069937Y-85217158D01*
X65053676Y-85163553D01*
X65027269Y-85114149D01*
X65005824Y-85062376D01*
X64974693Y-85015786D01*
X64948284Y-84966377D01*
X64912741Y-84923068D01*
X64881612Y-84876480D01*
X64841991Y-84836859D01*
X64806449Y-84793551D01*
X64793021Y-84782531D01*
X64831209Y-84770947D01*
X64983664Y-84689458D01*
X65050021Y-84635000D01*
X65362479Y-84635000D01*
X65428836Y-84689458D01*
X65581291Y-84770947D01*
X65746715Y-84821128D01*
X65918750Y-84838072D01*
X66406250Y-84838072D01*
X66578285Y-84821128D01*
X66743709Y-84770947D01*
X66896164Y-84689458D01*
X67029792Y-84579792D01*
X67035008Y-84573436D01*
X67098815Y-84651185D01*
X67195506Y-84730537D01*
X67305820Y-84789502D01*
X67425518Y-84825812D01*
X67550000Y-84838072D01*
X67751750Y-84835000D01*
X67910500Y-84676250D01*
X67910500Y-83713929D01*
X67936869Y-83627000D01*
X68164500Y-83627000D01*
X68164500Y-84676250D01*
X68323250Y-84835000D01*
X68525000Y-84838072D01*
X68649482Y-84825812D01*
X68769180Y-84789502D01*
X68879494Y-84730537D01*
X68976185Y-84651185D01*
X69055537Y-84554494D01*
X69114502Y-84444180D01*
X69150812Y-84324482D01*
X69163072Y-84200000D01*
X69160000Y-83785750D01*
X69001250Y-83627000D01*
X68164500Y-83627000D01*
X67936869Y-83627000D01*
X67968567Y-83522509D01*
X67980326Y-83403110D01*
X80058524Y-83403110D01*
X80179845Y-83633000D01*
X81373000Y-83633000D01*
X81373000Y-82439186D01*
X81627000Y-82439186D01*
X81627000Y-83633000D01*
X83913000Y-83633000D01*
X83913000Y-82439186D01*
X84167000Y-82439186D01*
X84167000Y-83633000D01*
X85360155Y-83633000D01*
X85481476Y-83403110D01*
X85436825Y-83255901D01*
X85311641Y-82993080D01*
X85137588Y-82759731D01*
X84921355Y-82564822D01*
X84671252Y-82415843D01*
X84396891Y-82318519D01*
X84167000Y-82439186D01*
X83913000Y-82439186D01*
X83683109Y-82318519D01*
X83408748Y-82415843D01*
X83158645Y-82564822D01*
X82942412Y-82759731D01*
X82770000Y-82990880D01*
X82597588Y-82759731D01*
X82381355Y-82564822D01*
X82131252Y-82415843D01*
X81856891Y-82318519D01*
X81627000Y-82439186D01*
X81373000Y-82439186D01*
X81143109Y-82318519D01*
X80868748Y-82415843D01*
X80618645Y-82564822D01*
X80402412Y-82759731D01*
X80228359Y-82993080D01*
X80103175Y-83255901D01*
X80058524Y-83403110D01*
X67980326Y-83403110D01*
X67984990Y-83355762D01*
X67984990Y-83355761D01*
X67985262Y-83353000D01*
X68164500Y-83353000D01*
X68164500Y-83373000D01*
X69001250Y-83373000D01*
X69160000Y-83214250D01*
X69163072Y-82800000D01*
X69150812Y-82675518D01*
X69114502Y-82555820D01*
X69101854Y-82532157D01*
X69186447Y-82506496D01*
X69383623Y-82401104D01*
X69556449Y-82259269D01*
X69698284Y-82086443D01*
X69803676Y-81889267D01*
X69868577Y-81675319D01*
X69890491Y-81452820D01*
X69885000Y-81397068D01*
X69885000Y-76455751D01*
X69890491Y-76400000D01*
X69868577Y-76177501D01*
X69803676Y-75963553D01*
X69698284Y-75766377D01*
X69556449Y-75593551D01*
X69383623Y-75451716D01*
X69186447Y-75346324D01*
X68972499Y-75281423D01*
X68805752Y-75265000D01*
X68750000Y-75259509D01*
X68694249Y-75265000D01*
X68117683Y-75265000D01*
X68080537Y-75195506D01*
X68001185Y-75098815D01*
X67904494Y-75019463D01*
X67835000Y-74982317D01*
X67835000Y-69770131D01*
X67841988Y-69763143D01*
X68117060Y-69488072D01*
X68850000Y-69488072D01*
X68974482Y-69475812D01*
X69094180Y-69439502D01*
X69204494Y-69380537D01*
X69301185Y-69301185D01*
X69380537Y-69204494D01*
X69439502Y-69094180D01*
X69475812Y-68974482D01*
X69488072Y-68850000D01*
X69488072Y-67150000D01*
X69475812Y-67025518D01*
X69439502Y-66905820D01*
X69380537Y-66795506D01*
X69301185Y-66698815D01*
X69204494Y-66619463D01*
X69135000Y-66582317D01*
X69135000Y-66425107D01*
X69153475Y-66406632D01*
X69315990Y-66163411D01*
X69427932Y-65893158D01*
X69485000Y-65606260D01*
X69485000Y-65313740D01*
X69427932Y-65026842D01*
X69315990Y-64756589D01*
X69153475Y-64513368D01*
X68946632Y-64306525D01*
X68703411Y-64144010D01*
X68433158Y-64032068D01*
X68146260Y-63975000D01*
X68120132Y-63975000D01*
X67209990Y-63064859D01*
X67209990Y-61134088D01*
X67275000Y-61140491D01*
X67497499Y-61118577D01*
X67556224Y-61100763D01*
X67598408Y-61096608D01*
X67759142Y-61047850D01*
X67907275Y-60968671D01*
X67928930Y-60950900D01*
X67995506Y-61005537D01*
X68105820Y-61064502D01*
X68225518Y-61100812D01*
X68350000Y-61113072D01*
X68501750Y-61110000D01*
X68660500Y-60951250D01*
X68660500Y-60127000D01*
X68914500Y-60127000D01*
X68914500Y-60951250D01*
X69073250Y-61110000D01*
X69225000Y-61113072D01*
X69349482Y-61100812D01*
X69469180Y-61064502D01*
X69579494Y-61005537D01*
X69676185Y-60926185D01*
X69755537Y-60829494D01*
X69814502Y-60719180D01*
X69850812Y-60599482D01*
X69863072Y-60475000D01*
X69860000Y-60285750D01*
X69701250Y-60127000D01*
X68914500Y-60127000D01*
X68660500Y-60127000D01*
X68640500Y-60127000D01*
X68640500Y-59977805D01*
X68765306Y-59853000D01*
X68914500Y-59853000D01*
X68914500Y-59873000D01*
X69701250Y-59873000D01*
X69860000Y-59714250D01*
X69863072Y-59525000D01*
X69850812Y-59400518D01*
X69814502Y-59280820D01*
X69755537Y-59170506D01*
X69676185Y-59073815D01*
X69606600Y-59016708D01*
X69735784Y-58859297D01*
X69841176Y-58662121D01*
X69906077Y-58448173D01*
X69922500Y-58281426D01*
X69927991Y-58225675D01*
X69922500Y-58169923D01*
X69922500Y-56944248D01*
X69906077Y-56777501D01*
X69847318Y-56583800D01*
X69846608Y-56576592D01*
X69797850Y-56415858D01*
X69718671Y-56267725D01*
X69612115Y-56137885D01*
X69482275Y-56031329D01*
X69334142Y-55952150D01*
X69173408Y-55903392D01*
X69038673Y-55890121D01*
X69009998Y-55881423D01*
X68787500Y-55859509D01*
X68565001Y-55881423D01*
X68536326Y-55890122D01*
X68401592Y-55903392D01*
X68240858Y-55952150D01*
X68092725Y-56031329D01*
X68000000Y-56107426D01*
X67907275Y-56031329D01*
X67781999Y-55964367D01*
X67755000Y-55937368D01*
X67755000Y-51365107D01*
X67773475Y-51346632D01*
X67935990Y-51103411D01*
X68047932Y-50833158D01*
X68105000Y-50546260D01*
X68105000Y-50253740D01*
X68047932Y-49966842D01*
X67935990Y-49696589D01*
X67773475Y-49453368D01*
X67566632Y-49246525D01*
X67392240Y-49130000D01*
X67566632Y-49013475D01*
X67773475Y-48806632D01*
X67935990Y-48563411D01*
X68047932Y-48293158D01*
X68105000Y-48006260D01*
X68105000Y-47980131D01*
X70672441Y-45412692D01*
X71466557Y-45412692D01*
X71522308Y-45418183D01*
X71578059Y-45412692D01*
X71578060Y-45412692D01*
X71744807Y-45396269D01*
X71958755Y-45331368D01*
X72155931Y-45225976D01*
X72328757Y-45084141D01*
X72364304Y-45040827D01*
X75030132Y-42375000D01*
X80082317Y-42375000D01*
X80119463Y-42444494D01*
X80198815Y-42541185D01*
X80295506Y-42620537D01*
X80405820Y-42679502D01*
X80525518Y-42715812D01*
X80650000Y-42728072D01*
X82350000Y-42728072D01*
X82474482Y-42715812D01*
X82594180Y-42679502D01*
X82704494Y-42620537D01*
X82801185Y-42541185D01*
X82880537Y-42444494D01*
X82917683Y-42375000D01*
X83074893Y-42375000D01*
X83093368Y-42393475D01*
X83336589Y-42555990D01*
X83606842Y-42667932D01*
X83893740Y-42725000D01*
X84186260Y-42725000D01*
X84473158Y-42667932D01*
X84743411Y-42555990D01*
X84986632Y-42393475D01*
X85193475Y-42186632D01*
X85355990Y-41943411D01*
X85467932Y-41673158D01*
X85525000Y-41386260D01*
X85525000Y-41093740D01*
X85467932Y-40806842D01*
X85355990Y-40536589D01*
X85193475Y-40293368D01*
X84986632Y-40086525D01*
X84804466Y-39964805D01*
X84921355Y-39895178D01*
X85137588Y-39700269D01*
X85311641Y-39466920D01*
X85436825Y-39204099D01*
X85481476Y-39056890D01*
X85360155Y-38827000D01*
X84167000Y-38827000D01*
X84167000Y-38847000D01*
X83913000Y-38847000D01*
X83913000Y-38827000D01*
X81627000Y-38827000D01*
X81627000Y-38847000D01*
X81373000Y-38847000D01*
X81373000Y-38827000D01*
X80179845Y-38827000D01*
X80058524Y-39056890D01*
X80103175Y-39204099D01*
X80228359Y-39466920D01*
X80402412Y-39700269D01*
X80486466Y-39776034D01*
X80405820Y-39800498D01*
X80295506Y-39859463D01*
X80198815Y-39938815D01*
X80119463Y-40035506D01*
X80082317Y-40105000D01*
X74615743Y-40105000D01*
X74559999Y-40099510D01*
X74504255Y-40105000D01*
X74504248Y-40105000D01*
X74358493Y-40119356D01*
X74337500Y-40121423D01*
X74287977Y-40136446D01*
X74123553Y-40186324D01*
X73926377Y-40291716D01*
X73753551Y-40433551D01*
X73718009Y-40476859D01*
X71052177Y-43142692D01*
X70258060Y-43142692D01*
X70202308Y-43137201D01*
X69979809Y-43159115D01*
X69765861Y-43224016D01*
X69568685Y-43329408D01*
X69439164Y-43435703D01*
X69439162Y-43435705D01*
X69395859Y-43471243D01*
X69360321Y-43514546D01*
X66499869Y-46375000D01*
X66473740Y-46375000D01*
X66186842Y-46432068D01*
X65916589Y-46544010D01*
X65673368Y-46706525D01*
X65654893Y-46725000D01*
X65045107Y-46725000D01*
X65026632Y-46706525D01*
X64783411Y-46544010D01*
X64513158Y-46432068D01*
X64226260Y-46375000D01*
X63933740Y-46375000D01*
X63646842Y-46432068D01*
X63376589Y-46544010D01*
X63133368Y-46706525D01*
X63114893Y-46725000D01*
X62505107Y-46725000D01*
X62486632Y-46706525D01*
X62243411Y-46544010D01*
X61973158Y-46432068D01*
X61686260Y-46375000D01*
X61393740Y-46375000D01*
X61106842Y-46432068D01*
X60836589Y-46544010D01*
X60593368Y-46706525D01*
X60574893Y-46725000D01*
X59965107Y-46725000D01*
X59946632Y-46706525D01*
X59703411Y-46544010D01*
X59433158Y-46432068D01*
X59146260Y-46375000D01*
X58853740Y-46375000D01*
X58566842Y-46432068D01*
X58296589Y-46544010D01*
X58053368Y-46706525D01*
X57846525Y-46913368D01*
X57684010Y-47156589D01*
X57572068Y-47426842D01*
X57515000Y-47713740D01*
X57515000Y-48006260D01*
X57572068Y-48293158D01*
X57684010Y-48563411D01*
X57846525Y-48806632D01*
X57978380Y-48938487D01*
X57905820Y-48960498D01*
X57795506Y-49019463D01*
X57698815Y-49098815D01*
X57619463Y-49195506D01*
X57560498Y-49305820D01*
X57524188Y-49425518D01*
X57511928Y-49550000D01*
X57511928Y-49665000D01*
X53135000Y-49665000D01*
X53135000Y-48352082D01*
X53198577Y-48142499D01*
X53215000Y-47975752D01*
X53220491Y-47920001D01*
X53215000Y-47864249D01*
X53215000Y-44435000D01*
X58344499Y-44435000D01*
X58398815Y-44501185D01*
X58495506Y-44580537D01*
X58605820Y-44639502D01*
X58725518Y-44675812D01*
X58850000Y-44688072D01*
X60850000Y-44688072D01*
X60974482Y-44675812D01*
X61094180Y-44639502D01*
X61204494Y-44580537D01*
X61301185Y-44501185D01*
X61380537Y-44404494D01*
X61439502Y-44294180D01*
X61475812Y-44174482D01*
X61488072Y-44050000D01*
X61488072Y-42550000D01*
X61475812Y-42425518D01*
X61439502Y-42305820D01*
X61380537Y-42195506D01*
X61343191Y-42150000D01*
X61355501Y-42135000D01*
X64511928Y-42135000D01*
X64511928Y-42900000D01*
X64524188Y-43024482D01*
X64560498Y-43144180D01*
X64619463Y-43254494D01*
X64698815Y-43351185D01*
X64795506Y-43430537D01*
X64905820Y-43489502D01*
X65025518Y-43525812D01*
X65150000Y-43538072D01*
X67150000Y-43538072D01*
X67274482Y-43525812D01*
X67394180Y-43489502D01*
X67504494Y-43430537D01*
X67601185Y-43351185D01*
X67680537Y-43254494D01*
X67739502Y-43144180D01*
X67742287Y-43135000D01*
X69944248Y-43135000D01*
X70000000Y-43140491D01*
X70055751Y-43135000D01*
X70055752Y-43135000D01*
X70222499Y-43118577D01*
X70436447Y-43053676D01*
X70633623Y-42948284D01*
X70806449Y-42806449D01*
X70948284Y-42633623D01*
X71053676Y-42436447D01*
X71118577Y-42222499D01*
X71140491Y-42000000D01*
X71135000Y-41944248D01*
X71135000Y-40812826D01*
X71137500Y-40813072D01*
X71289250Y-40810000D01*
X71448000Y-40651250D01*
X71448000Y-39827000D01*
X71702000Y-39827000D01*
X71702000Y-40651250D01*
X71860750Y-40810000D01*
X72012500Y-40813072D01*
X72136982Y-40800812D01*
X72256680Y-40764502D01*
X72366994Y-40705537D01*
X72463685Y-40626185D01*
X72543037Y-40529494D01*
X72602002Y-40419180D01*
X72638312Y-40299482D01*
X72650572Y-40175000D01*
X72647500Y-39985750D01*
X72488750Y-39827000D01*
X71702000Y-39827000D01*
X71448000Y-39827000D01*
X71428000Y-39827000D01*
X71428000Y-39573000D01*
X71448000Y-39573000D01*
X71448000Y-39553000D01*
X71702000Y-39553000D01*
X71702000Y-39573000D01*
X72488750Y-39573000D01*
X72647500Y-39414250D01*
X72650572Y-39225000D01*
X72638312Y-39100518D01*
X72602002Y-38980820D01*
X72543037Y-38870506D01*
X72506778Y-38826325D01*
X72511982Y-38825812D01*
X72631680Y-38789502D01*
X72741994Y-38730537D01*
X72838685Y-38651185D01*
X72918037Y-38554494D01*
X72977002Y-38444180D01*
X73007661Y-38343110D01*
X80058524Y-38343110D01*
X80179845Y-38573000D01*
X81373000Y-38573000D01*
X81373000Y-37379186D01*
X81627000Y-37379186D01*
X81627000Y-38573000D01*
X83913000Y-38573000D01*
X83913000Y-37379186D01*
X84167000Y-37379186D01*
X84167000Y-38573000D01*
X85360155Y-38573000D01*
X85481476Y-38343110D01*
X85436825Y-38195901D01*
X85311641Y-37933080D01*
X85137588Y-37699731D01*
X84921355Y-37504822D01*
X84671252Y-37355843D01*
X84396891Y-37258519D01*
X84167000Y-37379186D01*
X83913000Y-37379186D01*
X83683109Y-37258519D01*
X83408748Y-37355843D01*
X83158645Y-37504822D01*
X82942412Y-37699731D01*
X82770000Y-37930880D01*
X82597588Y-37699731D01*
X82381355Y-37504822D01*
X82131252Y-37355843D01*
X81856891Y-37258519D01*
X81627000Y-37379186D01*
X81373000Y-37379186D01*
X81143109Y-37258519D01*
X80868748Y-37355843D01*
X80618645Y-37504822D01*
X80402412Y-37699731D01*
X80228359Y-37933080D01*
X80103175Y-38195901D01*
X80058524Y-38343110D01*
X73007661Y-38343110D01*
X73013312Y-38324482D01*
X73025572Y-38200000D01*
X73022500Y-37785750D01*
X72863750Y-37627000D01*
X72027000Y-37627000D01*
X72027000Y-37647000D01*
X71773000Y-37647000D01*
X71773000Y-37627000D01*
X71753000Y-37627000D01*
X71753000Y-37373000D01*
X71773000Y-37373000D01*
X71773000Y-36323750D01*
X72027000Y-36323750D01*
X72027000Y-37373000D01*
X72863750Y-37373000D01*
X73022500Y-37214250D01*
X73025572Y-36800000D01*
X73013312Y-36675518D01*
X72977002Y-36555820D01*
X72918037Y-36445506D01*
X72838685Y-36348815D01*
X72741994Y-36269463D01*
X72631680Y-36210498D01*
X72511982Y-36174188D01*
X72387500Y-36161928D01*
X72185750Y-36165000D01*
X72027000Y-36323750D01*
X71773000Y-36323750D01*
X71614250Y-36165000D01*
X71412500Y-36161928D01*
X71288018Y-36174188D01*
X71168320Y-36210498D01*
X71058006Y-36269463D01*
X70961315Y-36348815D01*
X70897508Y-36426564D01*
X70892292Y-36420208D01*
X70758664Y-36310542D01*
X70606209Y-36229053D01*
X70440785Y-36178872D01*
X70268750Y-36161928D01*
X69781250Y-36161928D01*
X69609215Y-36178872D01*
X69443791Y-36229053D01*
X69291336Y-36310542D01*
X69157708Y-36420208D01*
X69048042Y-36553836D01*
X68966553Y-36706291D01*
X68916372Y-36871715D01*
X68899428Y-37043750D01*
X68899428Y-37243148D01*
X68881423Y-37302502D01*
X68859509Y-37525000D01*
X68865001Y-37580761D01*
X68865000Y-39644248D01*
X68859509Y-39700000D01*
X68865001Y-39755761D01*
X68865000Y-40865000D01*
X67788072Y-40865000D01*
X67788072Y-39100000D01*
X67775812Y-38975518D01*
X67739502Y-38855820D01*
X67680537Y-38745506D01*
X67601185Y-38648815D01*
X67504494Y-38569463D01*
X67394180Y-38510498D01*
X67274482Y-38474188D01*
X67150000Y-38461928D01*
X65150000Y-38461928D01*
X65025518Y-38474188D01*
X64905820Y-38510498D01*
X64795506Y-38569463D01*
X64698815Y-38648815D01*
X64619463Y-38745506D01*
X64560498Y-38855820D01*
X64524188Y-38975518D01*
X64511928Y-39100000D01*
X64511928Y-39865000D01*
X61355501Y-39865000D01*
X61343191Y-39850000D01*
X61380537Y-39804494D01*
X61439502Y-39694180D01*
X61475812Y-39574482D01*
X61488072Y-39450000D01*
X61485000Y-38985750D01*
X61326250Y-38827000D01*
X59977000Y-38827000D01*
X59977000Y-38847000D01*
X59723000Y-38847000D01*
X59723000Y-38827000D01*
X58373750Y-38827000D01*
X58215000Y-38985750D01*
X58211928Y-39450000D01*
X58224188Y-39574482D01*
X58260498Y-39694180D01*
X58319463Y-39804494D01*
X58356809Y-39850000D01*
X58344499Y-39865000D01*
X57088212Y-39865000D01*
X56868933Y-39908617D01*
X56662376Y-39994176D01*
X56476480Y-40118388D01*
X56318388Y-40276480D01*
X56194176Y-40462376D01*
X56108617Y-40668933D01*
X56065000Y-40888212D01*
X56065000Y-41111788D01*
X56108617Y-41331067D01*
X56194176Y-41537624D01*
X56318388Y-41723520D01*
X56476480Y-41881612D01*
X56662376Y-42005824D01*
X56868933Y-42091383D01*
X57088212Y-42135000D01*
X58344499Y-42135000D01*
X58356809Y-42150000D01*
X58344499Y-42165000D01*
X53395365Y-42165000D01*
X53365764Y-42067419D01*
X53237157Y-41826812D01*
X53064080Y-41615919D01*
X52853187Y-41442843D01*
X52612580Y-41314236D01*
X52351506Y-41235040D01*
X52080000Y-41208299D01*
X51808493Y-41235040D01*
X51547419Y-41314236D01*
X51306812Y-41442843D01*
X51095919Y-41615920D01*
X50922843Y-41826813D01*
X50807514Y-42042579D01*
X50770972Y-41952651D01*
X50621028Y-41724939D01*
X50429540Y-41530855D01*
X50203868Y-41377858D01*
X49952684Y-41271827D01*
X49881185Y-41257682D01*
X49667000Y-41380344D01*
X49667000Y-42873000D01*
X49687000Y-42873000D01*
X49687000Y-43127000D01*
X49667000Y-43127000D01*
X49667000Y-44619656D01*
X49881185Y-44742318D01*
X49952684Y-44728173D01*
X50203868Y-44622142D01*
X50429540Y-44469145D01*
X50621028Y-44275061D01*
X50770972Y-44047349D01*
X50807514Y-43957422D01*
X50922843Y-44173188D01*
X50945000Y-44200186D01*
X50945001Y-46757707D01*
X50856680Y-46710498D01*
X50736982Y-46674188D01*
X50612500Y-46661928D01*
X50410750Y-46665000D01*
X50252000Y-46823750D01*
X50252000Y-47873000D01*
X50272000Y-47873000D01*
X50272000Y-48127000D01*
X50252000Y-48127000D01*
X50252000Y-49176250D01*
X50410750Y-49335000D01*
X50612500Y-49338072D01*
X50736982Y-49325812D01*
X50856680Y-49289502D01*
X50865000Y-49285055D01*
X50865001Y-49698254D01*
X50750000Y-49686928D01*
X50598250Y-49690000D01*
X50439500Y-49848750D01*
X50439500Y-50673000D01*
X50459500Y-50673000D01*
X50459500Y-50927000D01*
X50439500Y-50927000D01*
X50439500Y-51751250D01*
X50598250Y-51910000D01*
X50750000Y-51913072D01*
X50752500Y-51912826D01*
X50752501Y-56406739D01*
X50747009Y-56462500D01*
X50768923Y-56684998D01*
X50833824Y-56898946D01*
X50858039Y-56944249D01*
X50881579Y-56988289D01*
X50249355Y-57620514D01*
X50206041Y-57656061D01*
X50064206Y-57828887D01*
X49969671Y-58005752D01*
X49958814Y-58026064D01*
X49893913Y-58240012D01*
X49871999Y-58462510D01*
X49877490Y-58518262D01*
X49877490Y-60572359D01*
X49541995Y-60236864D01*
X49506449Y-60193551D01*
X49333623Y-60051716D01*
X49136447Y-59946324D01*
X49135000Y-59945885D01*
X49135000Y-57944248D01*
X49118577Y-57777501D01*
X49109878Y-57748826D01*
X49096608Y-57614092D01*
X49047850Y-57453358D01*
X48968671Y-57305225D01*
X48892574Y-57212500D01*
X48968671Y-57119775D01*
X49047850Y-56971642D01*
X49096608Y-56810908D01*
X49109878Y-56676174D01*
X49118577Y-56647499D01*
X49135000Y-56480752D01*
X49135000Y-51275000D01*
X49236928Y-51275000D01*
X49249188Y-51399482D01*
X49285498Y-51519180D01*
X49344463Y-51629494D01*
X49423815Y-51726185D01*
X49520506Y-51805537D01*
X49630820Y-51864502D01*
X49750518Y-51900812D01*
X49875000Y-51913072D01*
X50026750Y-51910000D01*
X50185500Y-51751250D01*
X50185500Y-50927000D01*
X49398750Y-50927000D01*
X49240000Y-51085750D01*
X49236928Y-51275000D01*
X49135000Y-51275000D01*
X49135000Y-50325000D01*
X49236928Y-50325000D01*
X49240000Y-50514250D01*
X49398750Y-50673000D01*
X50185500Y-50673000D01*
X50185500Y-49848750D01*
X50026750Y-49690000D01*
X49875000Y-49686928D01*
X49750518Y-49699188D01*
X49630820Y-49735498D01*
X49520506Y-49794463D01*
X49423815Y-49873815D01*
X49344463Y-49970506D01*
X49285498Y-50080820D01*
X49249188Y-50200518D01*
X49236928Y-50325000D01*
X49135000Y-50325000D01*
X49135000Y-49088657D01*
X49186315Y-49151185D01*
X49283006Y-49230537D01*
X49393320Y-49289502D01*
X49513018Y-49325812D01*
X49637500Y-49338072D01*
X49839250Y-49335000D01*
X49998000Y-49176250D01*
X49998000Y-48127000D01*
X49978000Y-48127000D01*
X49978000Y-47873000D01*
X49998000Y-47873000D01*
X49998000Y-46823750D01*
X49839250Y-46665000D01*
X49637500Y-46661928D01*
X49513018Y-46674188D01*
X49393320Y-46710498D01*
X49283006Y-46769463D01*
X49186315Y-46848815D01*
X49106963Y-46945506D01*
X49072500Y-47009981D01*
X49072500Y-44705034D01*
X49127316Y-44728173D01*
X49198815Y-44742318D01*
X49413000Y-44619656D01*
X49413000Y-43127000D01*
X49393000Y-43127000D01*
X49393000Y-42873000D01*
X49413000Y-42873000D01*
X49413000Y-41380344D01*
X49198815Y-41257682D01*
X49127316Y-41271827D01*
X48876132Y-41377858D01*
X48650460Y-41530855D01*
X48458972Y-41724939D01*
X48386582Y-41834874D01*
X48375812Y-41725518D01*
X48339502Y-41605820D01*
X48280537Y-41495506D01*
X48201185Y-41398815D01*
X48104494Y-41319463D01*
X47994180Y-41260498D01*
X47874482Y-41224188D01*
X47750000Y-41211928D01*
X46250000Y-41211928D01*
X46125518Y-41224188D01*
X46005820Y-41260498D01*
X45895506Y-41319463D01*
X45798815Y-41398815D01*
X45719463Y-41495506D01*
X45660498Y-41605820D01*
X45624188Y-41725518D01*
X45611928Y-41850000D01*
X45611928Y-44150000D01*
X45624188Y-44274482D01*
X45660498Y-44394180D01*
X45719463Y-44504494D01*
X45798815Y-44601185D01*
X45895506Y-44680537D01*
X46005820Y-44739502D01*
X46125518Y-44775812D01*
X46250000Y-44788072D01*
X46802501Y-44788072D01*
X46802500Y-46714945D01*
X46794180Y-46710498D01*
X46674482Y-46674188D01*
X46550000Y-46661928D01*
X46348250Y-46665000D01*
X46189500Y-46823750D01*
X46189500Y-47873000D01*
X46209500Y-47873000D01*
X46209500Y-48127000D01*
X46189500Y-48127000D01*
X46189500Y-49176250D01*
X46348250Y-49335000D01*
X46550000Y-49338072D01*
X46674482Y-49325812D01*
X46794180Y-49289502D01*
X46865001Y-49251647D01*
X46865000Y-56480751D01*
X46881423Y-56647498D01*
X46890121Y-56676173D01*
X46903392Y-56810908D01*
X46952150Y-56971642D01*
X47031329Y-57119775D01*
X47107426Y-57212500D01*
X47031329Y-57305225D01*
X46952150Y-57453358D01*
X46903392Y-57614092D01*
X46890121Y-57748831D01*
X46881424Y-57777501D01*
X46865001Y-57944248D01*
X46865000Y-60199979D01*
X46810542Y-60266336D01*
X46729053Y-60418791D01*
X46678872Y-60584215D01*
X46661928Y-60756250D01*
X46661928Y-61243750D01*
X46678872Y-61415785D01*
X46729053Y-61581209D01*
X46810542Y-61733664D01*
X46920208Y-61867292D01*
X46926564Y-61872508D01*
X46848815Y-61936315D01*
X46769463Y-62033006D01*
X46710498Y-62143320D01*
X46674188Y-62263018D01*
X46661928Y-62387500D01*
X46665000Y-62589250D01*
X46823750Y-62748000D01*
X47873000Y-62748000D01*
X47873000Y-62728000D01*
X48127000Y-62728000D01*
X48127000Y-62748000D01*
X48147000Y-62748000D01*
X48147000Y-63002000D01*
X48127000Y-63002000D01*
X48127000Y-63838750D01*
X48265010Y-63976760D01*
X48265010Y-64604858D01*
X48032940Y-64836928D01*
X47762500Y-64836928D01*
X47591684Y-64853752D01*
X47427433Y-64903577D01*
X47276058Y-64984488D01*
X47143377Y-65093377D01*
X47034488Y-65226058D01*
X46953577Y-65377433D01*
X46903752Y-65541684D01*
X46886928Y-65712500D01*
X46886928Y-65759354D01*
X46881423Y-65777501D01*
X46859509Y-66000000D01*
X46881423Y-66222499D01*
X46886928Y-66240646D01*
X46886928Y-66287500D01*
X46903752Y-66458316D01*
X46953577Y-66622567D01*
X47034488Y-66773942D01*
X47117425Y-66875000D01*
X47034488Y-66976058D01*
X47015630Y-67011339D01*
X45901156Y-65896865D01*
X45865609Y-65853551D01*
X45692783Y-65711716D01*
X45495607Y-65606324D01*
X45281659Y-65541423D01*
X45114912Y-65525000D01*
X45114911Y-65525000D01*
X45059160Y-65519509D01*
X45003409Y-65525000D01*
X41384341Y-65525000D01*
X41355302Y-65495961D01*
X41189897Y-65385441D01*
X41288488Y-65326817D01*
X41506854Y-65130293D01*
X41682684Y-64894944D01*
X41809222Y-64629814D01*
X41854958Y-64479026D01*
X41733817Y-64247000D01*
X40527000Y-64247000D01*
X40527000Y-64267000D01*
X40273000Y-64267000D01*
X40273000Y-64247000D01*
X37987000Y-64247000D01*
X37987000Y-64267000D01*
X37733000Y-64267000D01*
X37733000Y-64247000D01*
X37713000Y-64247000D01*
X37713000Y-63993000D01*
X37733000Y-63993000D01*
X37733000Y-61707000D01*
X37987000Y-61707000D01*
X37987000Y-63993000D01*
X40273000Y-63993000D01*
X40273000Y-61707000D01*
X40527000Y-61707000D01*
X40527000Y-63993000D01*
X41733817Y-63993000D01*
X41854958Y-63760974D01*
X41809222Y-63610186D01*
X41691010Y-63362500D01*
X46661928Y-63362500D01*
X46674188Y-63486982D01*
X46710498Y-63606680D01*
X46769463Y-63716994D01*
X46848815Y-63813685D01*
X46945506Y-63893037D01*
X47055820Y-63952002D01*
X47175518Y-63988312D01*
X47300000Y-64000572D01*
X47714250Y-63997500D01*
X47873000Y-63838750D01*
X47873000Y-63002000D01*
X46823750Y-63002000D01*
X46665000Y-63160750D01*
X46661928Y-63362500D01*
X41691010Y-63362500D01*
X41682684Y-63345056D01*
X41506854Y-63109707D01*
X41288488Y-62913183D01*
X41182230Y-62850000D01*
X41288488Y-62786817D01*
X41506854Y-62590293D01*
X41682684Y-62354944D01*
X41809222Y-62089814D01*
X41854958Y-61939026D01*
X41733817Y-61707000D01*
X40527000Y-61707000D01*
X40273000Y-61707000D01*
X37987000Y-61707000D01*
X37733000Y-61707000D01*
X37713000Y-61707000D01*
X37713000Y-61453000D01*
X37733000Y-61453000D01*
X37733000Y-59167000D01*
X37987000Y-59167000D01*
X37987000Y-61453000D01*
X40273000Y-61453000D01*
X40273000Y-59167000D01*
X40527000Y-59167000D01*
X40527000Y-61453000D01*
X41733817Y-61453000D01*
X41854958Y-61220974D01*
X41809222Y-61070186D01*
X41682684Y-60805056D01*
X41506854Y-60569707D01*
X41288488Y-60373183D01*
X41182230Y-60310000D01*
X41288488Y-60246817D01*
X41506854Y-60050293D01*
X41682684Y-59814944D01*
X41809222Y-59549814D01*
X41854958Y-59399026D01*
X41733817Y-59167000D01*
X40527000Y-59167000D01*
X40273000Y-59167000D01*
X37987000Y-59167000D01*
X37733000Y-59167000D01*
X37713000Y-59167000D01*
X37713000Y-58913000D01*
X37733000Y-58913000D01*
X37733000Y-58893000D01*
X37987000Y-58893000D01*
X37987000Y-58913000D01*
X40273000Y-58913000D01*
X40273000Y-58893000D01*
X40527000Y-58893000D01*
X40527000Y-58913000D01*
X41733817Y-58913000D01*
X41854958Y-58680974D01*
X41809222Y-58530186D01*
X41682684Y-58265056D01*
X41506854Y-58029707D01*
X41443426Y-57972624D01*
X41507780Y-57953102D01*
X41618094Y-57894137D01*
X41714785Y-57814785D01*
X41794137Y-57718094D01*
X41853102Y-57607780D01*
X41889412Y-57488082D01*
X41901672Y-57363600D01*
X41901672Y-55636400D01*
X41889412Y-55511918D01*
X41853102Y-55392220D01*
X41794137Y-55281906D01*
X41714785Y-55185215D01*
X41618094Y-55105863D01*
X41507780Y-55046898D01*
X41388082Y-55010588D01*
X41263600Y-54998328D01*
X39536400Y-54998328D01*
X39411918Y-55010588D01*
X39292220Y-55046898D01*
X39181906Y-55105863D01*
X39085215Y-55185215D01*
X39005863Y-55281906D01*
X38961448Y-55365000D01*
X38844341Y-55365000D01*
X38815302Y-55335961D01*
X38569853Y-55171958D01*
X38297125Y-55058990D01*
X38007599Y-55001400D01*
X37712401Y-55001400D01*
X37422875Y-55058990D01*
X37150147Y-55171958D01*
X36904698Y-55335961D01*
X36875659Y-55365000D01*
X36555752Y-55365000D01*
X36500000Y-55359509D01*
X36444248Y-55365000D01*
X36277501Y-55381423D01*
X36063553Y-55446324D01*
X35866377Y-55551716D01*
X35693551Y-55693551D01*
X35658008Y-55736860D01*
X34936864Y-56458005D01*
X34893551Y-56493551D01*
X34751716Y-56666377D01*
X34666368Y-56826054D01*
X34646324Y-56863554D01*
X34581423Y-57077502D01*
X34559509Y-57300000D01*
X33660000Y-57300000D01*
X33660000Y-48700000D01*
X44936928Y-48700000D01*
X44949188Y-48824482D01*
X44985498Y-48944180D01*
X45044463Y-49054494D01*
X45123815Y-49151185D01*
X45220506Y-49230537D01*
X45330820Y-49289502D01*
X45450518Y-49325812D01*
X45575000Y-49338072D01*
X45776750Y-49335000D01*
X45935500Y-49176250D01*
X45935500Y-48127000D01*
X45098750Y-48127000D01*
X44940000Y-48285750D01*
X44936928Y-48700000D01*
X33660000Y-48700000D01*
X33660000Y-47300000D01*
X44936928Y-47300000D01*
X44940000Y-47714250D01*
X45098750Y-47873000D01*
X45935500Y-47873000D01*
X45935500Y-46823750D01*
X45776750Y-46665000D01*
X45575000Y-46661928D01*
X45450518Y-46674188D01*
X45330820Y-46710498D01*
X45220506Y-46769463D01*
X45123815Y-46848815D01*
X45044463Y-46945506D01*
X44985498Y-47055820D01*
X44949188Y-47175518D01*
X44936928Y-47300000D01*
X33660000Y-47300000D01*
X33660000Y-41558686D01*
X34620919Y-41558686D01*
X34957106Y-42027868D01*
X35587068Y-42368237D01*
X36271327Y-42579166D01*
X36983589Y-42652550D01*
X37696482Y-42585569D01*
X38382609Y-42380796D01*
X39015603Y-42046102D01*
X39042894Y-42027868D01*
X39379081Y-41558686D01*
X37000000Y-39179605D01*
X34620919Y-41558686D01*
X33660000Y-41558686D01*
X33660000Y-40459765D01*
X33953898Y-41015603D01*
X33972132Y-41042894D01*
X34441314Y-41379081D01*
X36820395Y-39000000D01*
X37179605Y-39000000D01*
X39558686Y-41379081D01*
X40027868Y-41042894D01*
X40368237Y-40412932D01*
X40579166Y-39728673D01*
X40652550Y-39016411D01*
X40585569Y-38303518D01*
X40480063Y-37950000D01*
X58211928Y-37950000D01*
X58215000Y-38414250D01*
X58373750Y-38573000D01*
X59723000Y-38573000D01*
X59723000Y-37473750D01*
X59977000Y-37473750D01*
X59977000Y-38573000D01*
X61326250Y-38573000D01*
X61485000Y-38414250D01*
X61488072Y-37950000D01*
X61475812Y-37825518D01*
X61439502Y-37705820D01*
X61380537Y-37595506D01*
X61301185Y-37498815D01*
X61204494Y-37419463D01*
X61094180Y-37360498D01*
X60974482Y-37324188D01*
X60850000Y-37311928D01*
X60135750Y-37315000D01*
X59977000Y-37473750D01*
X59723000Y-37473750D01*
X59564250Y-37315000D01*
X58850000Y-37311928D01*
X58725518Y-37324188D01*
X58605820Y-37360498D01*
X58495506Y-37419463D01*
X58398815Y-37498815D01*
X58319463Y-37595506D01*
X58260498Y-37705820D01*
X58224188Y-37825518D01*
X58211928Y-37950000D01*
X40480063Y-37950000D01*
X40380796Y-37617391D01*
X40046102Y-36984397D01*
X40027868Y-36957106D01*
X39558686Y-36620919D01*
X37179605Y-39000000D01*
X36820395Y-39000000D01*
X36806253Y-38985858D01*
X36985858Y-38806253D01*
X37000000Y-38820395D01*
X39379081Y-36441314D01*
X39042894Y-35972132D01*
X38465194Y-35660000D01*
X83967722Y-35660000D01*
X84648126Y-35726714D01*
G36*
X59927491Y-63466729D02*
G01*
X59921999Y-63522490D01*
X59943913Y-63744988D01*
X60008814Y-63958936D01*
X60024516Y-63988312D01*
X60114207Y-64156113D01*
X60256042Y-64328939D01*
X60299350Y-64364481D01*
X61386857Y-65451989D01*
X61386862Y-65451993D01*
X61515000Y-65580131D01*
X61515000Y-65606260D01*
X61572068Y-65893158D01*
X61684010Y-66163411D01*
X61846525Y-66406632D01*
X61865001Y-66425108D01*
X61865001Y-66582317D01*
X61795506Y-66619463D01*
X61698815Y-66698815D01*
X61619463Y-66795506D01*
X61560498Y-66905820D01*
X61524188Y-67025518D01*
X61511928Y-67150000D01*
X61511928Y-68850000D01*
X61524188Y-68974482D01*
X61560498Y-69094180D01*
X61619463Y-69204494D01*
X61698815Y-69301185D01*
X61795506Y-69380537D01*
X61905820Y-69439502D01*
X62025518Y-69475812D01*
X62150000Y-69488072D01*
X62882941Y-69488072D01*
X63028491Y-69633622D01*
X63138404Y-69743536D01*
X63106324Y-69803554D01*
X63041423Y-70017502D01*
X63019509Y-70240000D01*
X63025001Y-70295761D01*
X63025000Y-75434893D01*
X63006525Y-75453368D01*
X62890000Y-75627760D01*
X62773475Y-75453368D01*
X62755000Y-75434893D01*
X62755000Y-71675751D01*
X62760491Y-71619999D01*
X62738577Y-71397501D01*
X62673676Y-71183553D01*
X62620006Y-71083143D01*
X62568284Y-70986377D01*
X62426449Y-70813551D01*
X62383141Y-70778009D01*
X59488072Y-67882941D01*
X59488072Y-67150000D01*
X59475812Y-67025518D01*
X59439502Y-66905820D01*
X59380537Y-66795506D01*
X59301185Y-66698815D01*
X59204494Y-66619463D01*
X59135000Y-66582317D01*
X59135000Y-66425107D01*
X59153475Y-66406632D01*
X59315990Y-66163411D01*
X59427932Y-65893158D01*
X59485000Y-65606260D01*
X59485000Y-65313740D01*
X59427932Y-65026842D01*
X59315990Y-64756589D01*
X59153475Y-64513368D01*
X58946632Y-64306525D01*
X58703411Y-64144010D01*
X58433158Y-64032068D01*
X58146260Y-63975000D01*
X58120131Y-63975000D01*
X57991993Y-63846862D01*
X57991989Y-63846857D01*
X57147491Y-63002360D01*
X57147491Y-61134088D01*
X57212500Y-61140491D01*
X57434999Y-61118577D01*
X57463674Y-61109878D01*
X57598408Y-61096608D01*
X57759142Y-61047850D01*
X57907275Y-60968671D01*
X57928930Y-60950900D01*
X57995506Y-61005537D01*
X58105820Y-61064502D01*
X58225518Y-61100812D01*
X58350000Y-61113072D01*
X58501750Y-61110000D01*
X58660500Y-60951250D01*
X58660500Y-60127000D01*
X58914500Y-60127000D01*
X58914500Y-60951250D01*
X59073250Y-61110000D01*
X59225000Y-61113072D01*
X59349482Y-61100812D01*
X59469180Y-61064502D01*
X59579494Y-61005537D01*
X59676185Y-60926185D01*
X59755537Y-60829494D01*
X59814502Y-60719180D01*
X59850812Y-60599482D01*
X59863072Y-60475000D01*
X59860000Y-60285750D01*
X59701250Y-60127000D01*
X58914500Y-60127000D01*
X58660500Y-60127000D01*
X58640500Y-60127000D01*
X58640500Y-59977805D01*
X58765306Y-59853000D01*
X58914500Y-59853000D01*
X58914500Y-59873000D01*
X59701250Y-59873000D01*
X59860000Y-59714250D01*
X59863072Y-59525000D01*
X59850812Y-59400518D01*
X59814502Y-59280820D01*
X59755537Y-59170506D01*
X59676185Y-59073815D01*
X59606600Y-59016708D01*
X59735784Y-58859297D01*
X59841176Y-58662121D01*
X59906077Y-58448173D01*
X59922500Y-58281426D01*
X59922500Y-58281417D01*
X59927490Y-58230751D01*
X59927491Y-63466729D01*
G37*
X59927491Y-63466729D02*
X59921999Y-63522490D01*
X59943913Y-63744988D01*
X60008814Y-63958936D01*
X60024516Y-63988312D01*
X60114207Y-64156113D01*
X60256042Y-64328939D01*
X60299350Y-64364481D01*
X61386857Y-65451989D01*
X61386862Y-65451993D01*
X61515000Y-65580131D01*
X61515000Y-65606260D01*
X61572068Y-65893158D01*
X61684010Y-66163411D01*
X61846525Y-66406632D01*
X61865001Y-66425108D01*
X61865001Y-66582317D01*
X61795506Y-66619463D01*
X61698815Y-66698815D01*
X61619463Y-66795506D01*
X61560498Y-66905820D01*
X61524188Y-67025518D01*
X61511928Y-67150000D01*
X61511928Y-68850000D01*
X61524188Y-68974482D01*
X61560498Y-69094180D01*
X61619463Y-69204494D01*
X61698815Y-69301185D01*
X61795506Y-69380537D01*
X61905820Y-69439502D01*
X62025518Y-69475812D01*
X62150000Y-69488072D01*
X62882941Y-69488072D01*
X63028491Y-69633622D01*
X63138404Y-69743536D01*
X63106324Y-69803554D01*
X63041423Y-70017502D01*
X63019509Y-70240000D01*
X63025001Y-70295761D01*
X63025000Y-75434893D01*
X63006525Y-75453368D01*
X62890000Y-75627760D01*
X62773475Y-75453368D01*
X62755000Y-75434893D01*
X62755000Y-71675751D01*
X62760491Y-71619999D01*
X62738577Y-71397501D01*
X62673676Y-71183553D01*
X62620006Y-71083143D01*
X62568284Y-70986377D01*
X62426449Y-70813551D01*
X62383141Y-70778009D01*
X59488072Y-67882941D01*
X59488072Y-67150000D01*
X59475812Y-67025518D01*
X59439502Y-66905820D01*
X59380537Y-66795506D01*
X59301185Y-66698815D01*
X59204494Y-66619463D01*
X59135000Y-66582317D01*
X59135000Y-66425107D01*
X59153475Y-66406632D01*
X59315990Y-66163411D01*
X59427932Y-65893158D01*
X59485000Y-65606260D01*
X59485000Y-65313740D01*
X59427932Y-65026842D01*
X59315990Y-64756589D01*
X59153475Y-64513368D01*
X58946632Y-64306525D01*
X58703411Y-64144010D01*
X58433158Y-64032068D01*
X58146260Y-63975000D01*
X58120131Y-63975000D01*
X57991993Y-63846862D01*
X57991989Y-63846857D01*
X57147491Y-63002360D01*
X57147491Y-61134088D01*
X57212500Y-61140491D01*
X57434999Y-61118577D01*
X57463674Y-61109878D01*
X57598408Y-61096608D01*
X57759142Y-61047850D01*
X57907275Y-60968671D01*
X57928930Y-60950900D01*
X57995506Y-61005537D01*
X58105820Y-61064502D01*
X58225518Y-61100812D01*
X58350000Y-61113072D01*
X58501750Y-61110000D01*
X58660500Y-60951250D01*
X58660500Y-60127000D01*
X58914500Y-60127000D01*
X58914500Y-60951250D01*
X59073250Y-61110000D01*
X59225000Y-61113072D01*
X59349482Y-61100812D01*
X59469180Y-61064502D01*
X59579494Y-61005537D01*
X59676185Y-60926185D01*
X59755537Y-60829494D01*
X59814502Y-60719180D01*
X59850812Y-60599482D01*
X59863072Y-60475000D01*
X59860000Y-60285750D01*
X59701250Y-60127000D01*
X58914500Y-60127000D01*
X58660500Y-60127000D01*
X58640500Y-60127000D01*
X58640500Y-59977805D01*
X58765306Y-59853000D01*
X58914500Y-59853000D01*
X58914500Y-59873000D01*
X59701250Y-59873000D01*
X59860000Y-59714250D01*
X59863072Y-59525000D01*
X59850812Y-59400518D01*
X59814502Y-59280820D01*
X59755537Y-59170506D01*
X59676185Y-59073815D01*
X59606600Y-59016708D01*
X59735784Y-58859297D01*
X59841176Y-58662121D01*
X59906077Y-58448173D01*
X59922500Y-58281426D01*
X59922500Y-58281417D01*
X59927490Y-58230751D01*
X59927491Y-63466729D01*
G36*
X59829869Y-52165000D02*
G01*
X57253047Y-52165000D01*
X57194579Y-52159522D01*
X57141546Y-52165000D01*
X57088212Y-52165000D01*
X57033253Y-52175932D01*
X56977501Y-52181423D01*
X56974891Y-52182215D01*
X56972187Y-52182494D01*
X56921249Y-52198211D01*
X56868933Y-52208617D01*
X56817158Y-52230063D01*
X56763553Y-52246324D01*
X56761148Y-52247609D01*
X56758550Y-52248411D01*
X56711656Y-52273764D01*
X56662376Y-52294176D01*
X56615786Y-52325307D01*
X56566377Y-52351716D01*
X56564270Y-52353445D01*
X56561877Y-52354739D01*
X56520824Y-52388758D01*
X56476480Y-52418388D01*
X56436859Y-52458009D01*
X56393551Y-52493551D01*
X56391822Y-52495658D01*
X56389727Y-52497394D01*
X56356100Y-52538768D01*
X56318388Y-52576480D01*
X56287259Y-52623068D01*
X56251716Y-52666377D01*
X56250432Y-52668780D01*
X56248715Y-52670892D01*
X56223806Y-52718031D01*
X56194176Y-52762376D01*
X56172731Y-52814149D01*
X56146324Y-52863553D01*
X56145532Y-52866163D01*
X56144262Y-52868567D01*
X56129030Y-52919651D01*
X56108617Y-52968933D01*
X56097685Y-53023894D01*
X56081423Y-53077501D01*
X56081156Y-53080212D01*
X56080378Y-53082821D01*
X56075404Y-53135905D01*
X56065000Y-53188212D01*
X56065000Y-53244248D01*
X56059509Y-53300000D01*
X56065000Y-53355752D01*
X56065000Y-53411788D01*
X56065531Y-53414460D01*
X56077500Y-55932245D01*
X56077500Y-57633472D01*
X55249356Y-58461617D01*
X55206042Y-58497164D01*
X55064207Y-58669990D01*
X54978100Y-58831087D01*
X54958815Y-58867167D01*
X54893914Y-59081115D01*
X54872000Y-59303613D01*
X54877491Y-59359365D01*
X54877492Y-63416730D01*
X54872000Y-63472491D01*
X54893914Y-63694989D01*
X54958815Y-63908937D01*
X54994863Y-63976377D01*
X55064208Y-64106114D01*
X55206043Y-64278940D01*
X55249351Y-64314482D01*
X56386857Y-65451989D01*
X56386862Y-65451993D01*
X56515000Y-65580131D01*
X56515000Y-65606260D01*
X56572068Y-65893158D01*
X56684010Y-66163411D01*
X56846525Y-66406632D01*
X56865001Y-66425108D01*
X56865001Y-66582317D01*
X56795506Y-66619463D01*
X56698815Y-66698815D01*
X56619463Y-66795506D01*
X56560498Y-66905820D01*
X56524188Y-67025518D01*
X56511928Y-67150000D01*
X56511928Y-68850000D01*
X56524188Y-68974482D01*
X56560498Y-69094180D01*
X56619463Y-69204494D01*
X56698815Y-69301185D01*
X56795506Y-69380537D01*
X56905820Y-69439502D01*
X57025518Y-69475812D01*
X57150000Y-69488072D01*
X57882941Y-69488072D01*
X60485001Y-72090133D01*
X60485000Y-75434893D01*
X60466525Y-75453368D01*
X60350000Y-75627760D01*
X60233475Y-75453368D01*
X60026632Y-75246525D01*
X59783411Y-75084010D01*
X59513158Y-74972068D01*
X59226260Y-74915000D01*
X59200132Y-74915000D01*
X54135000Y-69849869D01*
X54135000Y-69417683D01*
X54204494Y-69380537D01*
X54301185Y-69301185D01*
X54380537Y-69204494D01*
X54439502Y-69094180D01*
X54475812Y-68974482D01*
X54488072Y-68850000D01*
X54488072Y-67150000D01*
X54475812Y-67025518D01*
X54439502Y-66905820D01*
X54380537Y-66795506D01*
X54301185Y-66698815D01*
X54204494Y-66619463D01*
X54135000Y-66582317D01*
X54135000Y-66425107D01*
X54153475Y-66406632D01*
X54315990Y-66163411D01*
X54427932Y-65893158D01*
X54485000Y-65606260D01*
X54485000Y-65313740D01*
X54427932Y-65026842D01*
X54315990Y-64756589D01*
X54153475Y-64513368D01*
X53946632Y-64306525D01*
X53703411Y-64144010D01*
X53433158Y-64032068D01*
X53146260Y-63975000D01*
X53120131Y-63975000D01*
X52991993Y-63846862D01*
X52991989Y-63846857D01*
X52147490Y-63002359D01*
X52147490Y-61134088D01*
X52212500Y-61140491D01*
X52434998Y-61118577D01*
X52463673Y-61109879D01*
X52598408Y-61096608D01*
X52759142Y-61047850D01*
X52907275Y-60968671D01*
X52928930Y-60950900D01*
X52995506Y-61005537D01*
X53105820Y-61064502D01*
X53225518Y-61100812D01*
X53350000Y-61113072D01*
X53501750Y-61110000D01*
X53660500Y-60951250D01*
X53660500Y-60127000D01*
X53914500Y-60127000D01*
X53914500Y-60951250D01*
X54073250Y-61110000D01*
X54225000Y-61113072D01*
X54349482Y-61100812D01*
X54469180Y-61064502D01*
X54579494Y-61005537D01*
X54676185Y-60926185D01*
X54755537Y-60829494D01*
X54814502Y-60719180D01*
X54850812Y-60599482D01*
X54863072Y-60475000D01*
X54860000Y-60285750D01*
X54701250Y-60127000D01*
X53914500Y-60127000D01*
X53660500Y-60127000D01*
X53640500Y-60127000D01*
X53640500Y-59873000D01*
X53660500Y-59873000D01*
X53660500Y-59853000D01*
X53914500Y-59853000D01*
X53914500Y-59873000D01*
X54701250Y-59873000D01*
X54860000Y-59714250D01*
X54863072Y-59525000D01*
X54850812Y-59400518D01*
X54814502Y-59280820D01*
X54755537Y-59170506D01*
X54676185Y-59073815D01*
X54579494Y-58994463D01*
X54469180Y-58935498D01*
X54421575Y-58921057D01*
X54550640Y-58791991D01*
X54593949Y-58756449D01*
X54735784Y-58583623D01*
X54841176Y-58386447D01*
X54906077Y-58172499D01*
X54922500Y-58005752D01*
X54922500Y-58005743D01*
X54927990Y-57950001D01*
X54922500Y-57894259D01*
X54922500Y-56731749D01*
X54906077Y-56565002D01*
X54847318Y-56371302D01*
X54846608Y-56364092D01*
X54797850Y-56203358D01*
X54718671Y-56055225D01*
X54612115Y-55925385D01*
X54482275Y-55818829D01*
X54334142Y-55739650D01*
X54173408Y-55690892D01*
X54038674Y-55677622D01*
X54009999Y-55668923D01*
X53787500Y-55647009D01*
X53565002Y-55668923D01*
X53536327Y-55677621D01*
X53401592Y-55690892D01*
X53240858Y-55739650D01*
X53092725Y-55818829D01*
X53022500Y-55876461D01*
X53022500Y-51935000D01*
X58544249Y-51935000D01*
X58600000Y-51940491D01*
X58655751Y-51935000D01*
X58655752Y-51935000D01*
X58822499Y-51918577D01*
X58923060Y-51888072D01*
X59850000Y-51888072D01*
X59974482Y-51875812D01*
X60094180Y-51839502D01*
X60204494Y-51780537D01*
X60259352Y-51735516D01*
X59829869Y-52165000D01*
G37*
X59829869Y-52165000D02*
X57253047Y-52165000D01*
X57194579Y-52159522D01*
X57141546Y-52165000D01*
X57088212Y-52165000D01*
X57033253Y-52175932D01*
X56977501Y-52181423D01*
X56974891Y-52182215D01*
X56972187Y-52182494D01*
X56921249Y-52198211D01*
X56868933Y-52208617D01*
X56817158Y-52230063D01*
X56763553Y-52246324D01*
X56761148Y-52247609D01*
X56758550Y-52248411D01*
X56711656Y-52273764D01*
X56662376Y-52294176D01*
X56615786Y-52325307D01*
X56566377Y-52351716D01*
X56564270Y-52353445D01*
X56561877Y-52354739D01*
X56520824Y-52388758D01*
X56476480Y-52418388D01*
X56436859Y-52458009D01*
X56393551Y-52493551D01*
X56391822Y-52495658D01*
X56389727Y-52497394D01*
X56356100Y-52538768D01*
X56318388Y-52576480D01*
X56287259Y-52623068D01*
X56251716Y-52666377D01*
X56250432Y-52668780D01*
X56248715Y-52670892D01*
X56223806Y-52718031D01*
X56194176Y-52762376D01*
X56172731Y-52814149D01*
X56146324Y-52863553D01*
X56145532Y-52866163D01*
X56144262Y-52868567D01*
X56129030Y-52919651D01*
X56108617Y-52968933D01*
X56097685Y-53023894D01*
X56081423Y-53077501D01*
X56081156Y-53080212D01*
X56080378Y-53082821D01*
X56075404Y-53135905D01*
X56065000Y-53188212D01*
X56065000Y-53244248D01*
X56059509Y-53300000D01*
X56065000Y-53355752D01*
X56065000Y-53411788D01*
X56065531Y-53414460D01*
X56077500Y-55932245D01*
X56077500Y-57633472D01*
X55249356Y-58461617D01*
X55206042Y-58497164D01*
X55064207Y-58669990D01*
X54978100Y-58831087D01*
X54958815Y-58867167D01*
X54893914Y-59081115D01*
X54872000Y-59303613D01*
X54877491Y-59359365D01*
X54877492Y-63416730D01*
X54872000Y-63472491D01*
X54893914Y-63694989D01*
X54958815Y-63908937D01*
X54994863Y-63976377D01*
X55064208Y-64106114D01*
X55206043Y-64278940D01*
X55249351Y-64314482D01*
X56386857Y-65451989D01*
X56386862Y-65451993D01*
X56515000Y-65580131D01*
X56515000Y-65606260D01*
X56572068Y-65893158D01*
X56684010Y-66163411D01*
X56846525Y-66406632D01*
X56865001Y-66425108D01*
X56865001Y-66582317D01*
X56795506Y-66619463D01*
X56698815Y-66698815D01*
X56619463Y-66795506D01*
X56560498Y-66905820D01*
X56524188Y-67025518D01*
X56511928Y-67150000D01*
X56511928Y-68850000D01*
X56524188Y-68974482D01*
X56560498Y-69094180D01*
X56619463Y-69204494D01*
X56698815Y-69301185D01*
X56795506Y-69380537D01*
X56905820Y-69439502D01*
X57025518Y-69475812D01*
X57150000Y-69488072D01*
X57882941Y-69488072D01*
X60485001Y-72090133D01*
X60485000Y-75434893D01*
X60466525Y-75453368D01*
X60350000Y-75627760D01*
X60233475Y-75453368D01*
X60026632Y-75246525D01*
X59783411Y-75084010D01*
X59513158Y-74972068D01*
X59226260Y-74915000D01*
X59200132Y-74915000D01*
X54135000Y-69849869D01*
X54135000Y-69417683D01*
X54204494Y-69380537D01*
X54301185Y-69301185D01*
X54380537Y-69204494D01*
X54439502Y-69094180D01*
X54475812Y-68974482D01*
X54488072Y-68850000D01*
X54488072Y-67150000D01*
X54475812Y-67025518D01*
X54439502Y-66905820D01*
X54380537Y-66795506D01*
X54301185Y-66698815D01*
X54204494Y-66619463D01*
X54135000Y-66582317D01*
X54135000Y-66425107D01*
X54153475Y-66406632D01*
X54315990Y-66163411D01*
X54427932Y-65893158D01*
X54485000Y-65606260D01*
X54485000Y-65313740D01*
X54427932Y-65026842D01*
X54315990Y-64756589D01*
X54153475Y-64513368D01*
X53946632Y-64306525D01*
X53703411Y-64144010D01*
X53433158Y-64032068D01*
X53146260Y-63975000D01*
X53120131Y-63975000D01*
X52991993Y-63846862D01*
X52991989Y-63846857D01*
X52147490Y-63002359D01*
X52147490Y-61134088D01*
X52212500Y-61140491D01*
X52434998Y-61118577D01*
X52463673Y-61109879D01*
X52598408Y-61096608D01*
X52759142Y-61047850D01*
X52907275Y-60968671D01*
X52928930Y-60950900D01*
X52995506Y-61005537D01*
X53105820Y-61064502D01*
X53225518Y-61100812D01*
X53350000Y-61113072D01*
X53501750Y-61110000D01*
X53660500Y-60951250D01*
X53660500Y-60127000D01*
X53914500Y-60127000D01*
X53914500Y-60951250D01*
X54073250Y-61110000D01*
X54225000Y-61113072D01*
X54349482Y-61100812D01*
X54469180Y-61064502D01*
X54579494Y-61005537D01*
X54676185Y-60926185D01*
X54755537Y-60829494D01*
X54814502Y-60719180D01*
X54850812Y-60599482D01*
X54863072Y-60475000D01*
X54860000Y-60285750D01*
X54701250Y-60127000D01*
X53914500Y-60127000D01*
X53660500Y-60127000D01*
X53640500Y-60127000D01*
X53640500Y-59873000D01*
X53660500Y-59873000D01*
X53660500Y-59853000D01*
X53914500Y-59853000D01*
X53914500Y-59873000D01*
X54701250Y-59873000D01*
X54860000Y-59714250D01*
X54863072Y-59525000D01*
X54850812Y-59400518D01*
X54814502Y-59280820D01*
X54755537Y-59170506D01*
X54676185Y-59073815D01*
X54579494Y-58994463D01*
X54469180Y-58935498D01*
X54421575Y-58921057D01*
X54550640Y-58791991D01*
X54593949Y-58756449D01*
X54735784Y-58583623D01*
X54841176Y-58386447D01*
X54906077Y-58172499D01*
X54922500Y-58005752D01*
X54922500Y-58005743D01*
X54927990Y-57950001D01*
X54922500Y-57894259D01*
X54922500Y-56731749D01*
X54906077Y-56565002D01*
X54847318Y-56371302D01*
X54846608Y-56364092D01*
X54797850Y-56203358D01*
X54718671Y-56055225D01*
X54612115Y-55925385D01*
X54482275Y-55818829D01*
X54334142Y-55739650D01*
X54173408Y-55690892D01*
X54038674Y-55677622D01*
X54009999Y-55668923D01*
X53787500Y-55647009D01*
X53565002Y-55668923D01*
X53536327Y-55677621D01*
X53401592Y-55690892D01*
X53240858Y-55739650D01*
X53092725Y-55818829D01*
X53022500Y-55876461D01*
X53022500Y-51935000D01*
X58544249Y-51935000D01*
X58600000Y-51940491D01*
X58655751Y-51935000D01*
X58655752Y-51935000D01*
X58822499Y-51918577D01*
X58923060Y-51888072D01*
X59850000Y-51888072D01*
X59974482Y-51875812D01*
X60094180Y-51839502D01*
X60204494Y-51780537D01*
X60259352Y-51735516D01*
X59829869Y-52165000D01*
G36*
X65466525Y-51346632D02*
G01*
X65485000Y-51365107D01*
X65485001Y-56351739D01*
X65479509Y-56407500D01*
X65501423Y-56629998D01*
X65510372Y-56659497D01*
X65311850Y-56858019D01*
X65268542Y-56893561D01*
X65126707Y-57066387D01*
X65104947Y-57107098D01*
X65021314Y-57263564D01*
X64956413Y-57477512D01*
X64934499Y-57700010D01*
X64939991Y-57755771D01*
X64939990Y-63479238D01*
X64934499Y-63534990D01*
X64939990Y-63590741D01*
X64956413Y-63757488D01*
X65021314Y-63971436D01*
X65126706Y-64168613D01*
X65268541Y-64341439D01*
X65311855Y-64376986D01*
X66515000Y-65580132D01*
X66515000Y-65606260D01*
X66572068Y-65893158D01*
X66684010Y-66163411D01*
X66846525Y-66406632D01*
X66865001Y-66425108D01*
X66865001Y-66582317D01*
X66795506Y-66619463D01*
X66698815Y-66698815D01*
X66619463Y-66795506D01*
X66560498Y-66905820D01*
X66524188Y-67025518D01*
X66511928Y-67150000D01*
X66511928Y-67882940D01*
X66236857Y-68158012D01*
X65936860Y-68458009D01*
X65893552Y-68493551D01*
X65751717Y-68666377D01*
X65706102Y-68751717D01*
X65646324Y-68863554D01*
X65602558Y-69007828D01*
X65581612Y-68976480D01*
X65541981Y-68936849D01*
X65506448Y-68893552D01*
X65463151Y-68858019D01*
X64642632Y-68037500D01*
X64488072Y-67882941D01*
X64488072Y-67150000D01*
X64475812Y-67025518D01*
X64439502Y-66905820D01*
X64380537Y-66795506D01*
X64301185Y-66698815D01*
X64204494Y-66619463D01*
X64135000Y-66582317D01*
X64135000Y-66425107D01*
X64153475Y-66406632D01*
X64315990Y-66163411D01*
X64427932Y-65893158D01*
X64485000Y-65606260D01*
X64485000Y-65313740D01*
X64427932Y-65026842D01*
X64315990Y-64756589D01*
X64153475Y-64513368D01*
X63946632Y-64306525D01*
X63703411Y-64144010D01*
X63433158Y-64032068D01*
X63146260Y-63975000D01*
X63120131Y-63975000D01*
X62991993Y-63846862D01*
X62991989Y-63846857D01*
X62197490Y-63052359D01*
X62197490Y-58182641D01*
X62242605Y-58137526D01*
X62434999Y-58118577D01*
X62463674Y-58109878D01*
X62598408Y-58096608D01*
X62652500Y-58080199D01*
X62652501Y-58888405D01*
X62637500Y-58886928D01*
X62485750Y-58890000D01*
X62327000Y-59048750D01*
X62327000Y-59873000D01*
X62347000Y-59873000D01*
X62347000Y-60127000D01*
X62327000Y-60127000D01*
X62327000Y-60951250D01*
X62485750Y-61110000D01*
X62637500Y-61113072D01*
X62761982Y-61100812D01*
X62881680Y-61064502D01*
X62991994Y-61005537D01*
X63058570Y-60950900D01*
X63080225Y-60968671D01*
X63228358Y-61047850D01*
X63389092Y-61096608D01*
X63523827Y-61109879D01*
X63552502Y-61118577D01*
X63775000Y-61140491D01*
X63997498Y-61118577D01*
X64026173Y-61109879D01*
X64160908Y-61096608D01*
X64321642Y-61047850D01*
X64469775Y-60968671D01*
X64599615Y-60862115D01*
X64706171Y-60732275D01*
X64785350Y-60584142D01*
X64824455Y-60455230D01*
X64841176Y-60423947D01*
X64906077Y-60209999D01*
X64922500Y-60043252D01*
X64922500Y-60043251D01*
X64927991Y-59987500D01*
X64922500Y-59931748D01*
X64922500Y-56944248D01*
X64906077Y-56777501D01*
X64847318Y-56583800D01*
X64846608Y-56576592D01*
X64797850Y-56415858D01*
X64718671Y-56267725D01*
X64612115Y-56137885D01*
X64482275Y-56031329D01*
X64334142Y-55952150D01*
X64173408Y-55903392D01*
X64038673Y-55890121D01*
X64009998Y-55881423D01*
X63787500Y-55859509D01*
X63565001Y-55881423D01*
X63536326Y-55890122D01*
X63401592Y-55903392D01*
X63347500Y-55919801D01*
X63347500Y-53939712D01*
X64843141Y-52444072D01*
X64886449Y-52408530D01*
X65028284Y-52235704D01*
X65133676Y-52038528D01*
X65198577Y-51824580D01*
X65215000Y-51657833D01*
X65220491Y-51602081D01*
X65215000Y-51546329D01*
X65215000Y-51365107D01*
X65233475Y-51346632D01*
X65350000Y-51172240D01*
X65466525Y-51346632D01*
G37*
X65466525Y-51346632D02*
X65485000Y-51365107D01*
X65485001Y-56351739D01*
X65479509Y-56407500D01*
X65501423Y-56629998D01*
X65510372Y-56659497D01*
X65311850Y-56858019D01*
X65268542Y-56893561D01*
X65126707Y-57066387D01*
X65104947Y-57107098D01*
X65021314Y-57263564D01*
X64956413Y-57477512D01*
X64934499Y-57700010D01*
X64939991Y-57755771D01*
X64939990Y-63479238D01*
X64934499Y-63534990D01*
X64939990Y-63590741D01*
X64956413Y-63757488D01*
X65021314Y-63971436D01*
X65126706Y-64168613D01*
X65268541Y-64341439D01*
X65311855Y-64376986D01*
X66515000Y-65580132D01*
X66515000Y-65606260D01*
X66572068Y-65893158D01*
X66684010Y-66163411D01*
X66846525Y-66406632D01*
X66865001Y-66425108D01*
X66865001Y-66582317D01*
X66795506Y-66619463D01*
X66698815Y-66698815D01*
X66619463Y-66795506D01*
X66560498Y-66905820D01*
X66524188Y-67025518D01*
X66511928Y-67150000D01*
X66511928Y-67882940D01*
X66236857Y-68158012D01*
X65936860Y-68458009D01*
X65893552Y-68493551D01*
X65751717Y-68666377D01*
X65706102Y-68751717D01*
X65646324Y-68863554D01*
X65602558Y-69007828D01*
X65581612Y-68976480D01*
X65541981Y-68936849D01*
X65506448Y-68893552D01*
X65463151Y-68858019D01*
X64642632Y-68037500D01*
X64488072Y-67882941D01*
X64488072Y-67150000D01*
X64475812Y-67025518D01*
X64439502Y-66905820D01*
X64380537Y-66795506D01*
X64301185Y-66698815D01*
X64204494Y-66619463D01*
X64135000Y-66582317D01*
X64135000Y-66425107D01*
X64153475Y-66406632D01*
X64315990Y-66163411D01*
X64427932Y-65893158D01*
X64485000Y-65606260D01*
X64485000Y-65313740D01*
X64427932Y-65026842D01*
X64315990Y-64756589D01*
X64153475Y-64513368D01*
X63946632Y-64306525D01*
X63703411Y-64144010D01*
X63433158Y-64032068D01*
X63146260Y-63975000D01*
X63120131Y-63975000D01*
X62991993Y-63846862D01*
X62991989Y-63846857D01*
X62197490Y-63052359D01*
X62197490Y-58182641D01*
X62242605Y-58137526D01*
X62434999Y-58118577D01*
X62463674Y-58109878D01*
X62598408Y-58096608D01*
X62652500Y-58080199D01*
X62652501Y-58888405D01*
X62637500Y-58886928D01*
X62485750Y-58890000D01*
X62327000Y-59048750D01*
X62327000Y-59873000D01*
X62347000Y-59873000D01*
X62347000Y-60127000D01*
X62327000Y-60127000D01*
X62327000Y-60951250D01*
X62485750Y-61110000D01*
X62637500Y-61113072D01*
X62761982Y-61100812D01*
X62881680Y-61064502D01*
X62991994Y-61005537D01*
X63058570Y-60950900D01*
X63080225Y-60968671D01*
X63228358Y-61047850D01*
X63389092Y-61096608D01*
X63523827Y-61109879D01*
X63552502Y-61118577D01*
X63775000Y-61140491D01*
X63997498Y-61118577D01*
X64026173Y-61109879D01*
X64160908Y-61096608D01*
X64321642Y-61047850D01*
X64469775Y-60968671D01*
X64599615Y-60862115D01*
X64706171Y-60732275D01*
X64785350Y-60584142D01*
X64824455Y-60455230D01*
X64841176Y-60423947D01*
X64906077Y-60209999D01*
X64922500Y-60043252D01*
X64922500Y-60043251D01*
X64927991Y-59987500D01*
X64922500Y-59931748D01*
X64922500Y-56944248D01*
X64906077Y-56777501D01*
X64847318Y-56583800D01*
X64846608Y-56576592D01*
X64797850Y-56415858D01*
X64718671Y-56267725D01*
X64612115Y-56137885D01*
X64482275Y-56031329D01*
X64334142Y-55952150D01*
X64173408Y-55903392D01*
X64038673Y-55890121D01*
X64009998Y-55881423D01*
X63787500Y-55859509D01*
X63565001Y-55881423D01*
X63536326Y-55890122D01*
X63401592Y-55903392D01*
X63347500Y-55919801D01*
X63347500Y-53939712D01*
X64843141Y-52444072D01*
X64886449Y-52408530D01*
X65028284Y-52235704D01*
X65133676Y-52038528D01*
X65198577Y-51824580D01*
X65215000Y-51657833D01*
X65220491Y-51602081D01*
X65215000Y-51546329D01*
X65215000Y-51365107D01*
X65233475Y-51346632D01*
X65350000Y-51172240D01*
X65466525Y-51346632D01*
M02*
